<?xml version="1.0" encoding="UTF-8" standalone="no"?>
<!DOCTYPE svg PUBLIC "-//W3C//DTD SVG 1.1//EN" "http://www.w3.org/Graphics/SVG/1.1/DTD/svg11.dtd">
<!-- Created with Vectornator (http://vectornator.io/) -->
<svg height="100%" stroke-miterlimit="10" style="fill-rule:nonzero;clip-rule:evenodd;stroke-linecap:round;stroke-linejoin:round;" version="1.1" viewBox="0 0 150 144" width="100%" xml:space="preserve" xmlns="http://www.w3.org/2000/svg" xmlns:vectornator="http://vectornator.io" xmlns:xlink="http://www.w3.org/1999/xlink">
<defs/>
<g id="Layer_2" vectornator:layerName="Layer_2">
<g opacity="1">
<path d="M113.839 78.4195C113.834 78.4315 113.83 78.4585 113.83 78.4975C113.83 78.5755 113.841 78.6025 113.854 78.5635C113.864 78.5305 113.864 78.4625 113.854 78.4225C113.848 78.4075 113.842 78.4065 113.839 78.4195Z" fill="#000000" fill-rule="nonzero" opacity="1" stroke="none"/>
<path d="M113.888 78.6985C113.882 78.7105 113.88 78.7375 113.88 78.7765C113.88 78.8545 113.889 78.8815 113.903 78.8425C113.914 78.8095 113.914 78.7415 113.903 78.7025C113.897 78.6865 113.892 78.6865 113.888 78.6985Z" fill="#000000" fill-rule="nonzero" opacity="1" stroke="none"/>
<path d="M113.936 78.9775C113.931 78.9905 113.928 79.0165 113.928 79.0565C113.928 79.1335 113.938 79.1615 113.952 79.1215C113.962 79.0895 113.962 79.0215 113.952 78.9825C113.944 78.9665 113.94 78.9665 113.936 78.9775Z" fill="#000000" fill-rule="nonzero" opacity="1" stroke="none"/>
<path d="M113.985 79.2575C113.98 79.2705 113.976 79.2975 113.976 79.3365C113.976 79.4145 113.987 79.4415 114 79.4025C114.01 79.3695 114.01 79.3015 114 79.2625C113.994 79.2455 113.988 79.2455 113.985 79.2575Z" fill="#000000" fill-rule="nonzero" opacity="1" stroke="none"/>
<path d="M114.049 79.5425C114.034 79.5095 114.026 79.5495 114.026 79.6445C114.026 79.7345 114.035 79.7675 114.049 79.7105C114.06 79.6595 114.06 79.5815 114.049 79.5425Z" fill="#000000" fill-rule="nonzero" opacity="1" stroke="none"/>
<path d="M114.098 79.8785C114.083 79.8455 114.074 79.8845 114.074 79.9805C114.074 80.0695 114.084 80.1025 114.098 80.0465C114.109 79.9955 114.109 79.9175 114.098 79.8785Z" fill="#000000" fill-rule="nonzero" opacity="1" stroke="none"/>
<path d="M114.129 80.2675C114.126 80.2615 114.122 80.2675 114.122 80.2875C114.122 80.3665 114.147 80.6295 114.186 80.8755C114.22 81.1215 114.249 81.2445 114.249 81.1545C114.249 81.0595 114.225 80.7975 114.19 80.5675C114.162 80.3945 114.139 80.2805 114.129 80.2675Z" fill="#000000" fill-rule="nonzero" opacity="1" stroke="none"/>
<path d="M114.287 81.4165C114.28 81.4095 114.275 81.4685 114.275 81.5735C114.275 81.7135 114.282 81.7685 114.293 81.6955C114.303 81.6285 114.303 81.5165 114.293 81.4435C114.29 81.4275 114.289 81.4185 114.287 81.4165Z" fill="#000000" fill-rule="nonzero" opacity="1" stroke="none"/>
<path d="M73.0951 28.7305C72.528 26.1835 71.7435 23.7685 70.5476 20.8855C70.0032 19.5805 68.7307 17.3315 67.6236 15.7225C66.2781 13.7715 64.4594 11.8215 62.713 10.4585C60.5091 8.74151 57.9808 7.56851 55.5446 7.13851C54.9497 7.03151 53.1581 6.86551 52.9867 6.89751C52.9615 6.90351 52.8119 6.91651 52.6571 6.92851C51.583 6.99851 50.3479 7.22151 49.4391 7.49351C44.2206 9.06451 39.6101 13.4805 36.4017 19.9685C36.0181 20.7535 35.4945 21.9385 35.4945 22.0275C35.4945 22.0725 35.3554 22.4525 35.1953 22.8775C33.3776 27.5335 32.4078 32.8155 32.4078 38.1205C32.4078 39.7105 32.4574 40.5585 32.6339 41.9215C32.694 42.3905 32.7661 42.9915 32.794 43.2575C32.954 44.8045 33.8577 48.2045 34.8005 50.8005C35.6772 53.2295 37.3566 56.9425 38.1942 58.3295C38.3099 58.5185 38.623 59.0455 38.8874 59.5005C39.1474 59.9505 39.5771 60.6605 39.8302 61.0735C40.6068 62.3145 40.8443 63.0595 40.8338 64.2595C40.8338 64.6395 40.526 66.2455 40.4877 66.4225C40.4503 66.5935 39.484 67.9455 38.91 68.4015C38.6621 68.6045 25.2351 76.8285 24.9428 76.9605C24.5515 77.1385 9.80677 86.2095 9.38233 86.5325C9.16229 86.7045 8.93007 86.9005 8.86397 86.9705C8.80309 87.0325 8.66654 87.1555 8.56739 87.2375C8.46824 87.3135 8.36909 87.4255 8.35256 87.4825C8.33517 87.5455 8.29777 87.5975 8.26472 87.5975C8.23167 87.5975 8.07077 87.7375 7.91161 87.9135C7.75157 88.0845 7.62546 88.2295 7.63677 88.2295C7.64199 88.2295 7.5037 88.4065 7.32192 88.6165C7.14537 88.8315 6.93663 89.1235 6.85313 89.2695C6.77051 89.4085 6.67832 89.5475 6.64527 89.5725C6.5235 89.6615 6.01644 90.6245 5.76335 91.2525C5.62593 91.5955 5.48764 91.9165 5.4659 91.9745C5.36675 92.1905 5.13453 93.2865 5.09104 93.7425C5.06321 94.0095 5.04234 94.4075 5.04755 94.6295L5.05277 95.0415L53.2485 95.0625L57.4972 95.0635L64.9987 88.0045C61.3962 88.0065 57.4624 88.0075 53.2572 88.0075C31.5668 88.0075 18.1606 87.9845 18.185 87.9555C18.2145 87.9285 23.653 84.6285 30.2735 80.6235C36.8931 76.6205 42.4872 73.2075 42.7012 73.0515C44.1658 71.9485 45.2747 70.4735 46.1106 68.5155C46.5098 67.5765 46.5385 63.4535 46.6167 62.4975C46.7916 60.2595 46.1888 58.0505 44.9677 56.4675C44.1745 55.4385 42.7064 52.7265 41.7079 50.4495C39.6954 45.8575 38.7865 41.7975 38.9013 37.9495C39.1309 30.6175 41.2374 24.3435 44.8651 20.1865C46.9133 17.8495 49.2477 16.4615 51.8691 16.0255C52.1866 15.9725 52.8084 15.9535 53.4268 15.9635C54.0452 15.9735 54.6601 16.0125 54.9593 16.0765C57.4833 16.6075 59.6002 17.8995 61.571 20.1265C64.4116 23.3305 66.4103 28.0335 67.2174 33.4195L73.0951 28.7305Z" fill="#000000" fill-rule="nonzero" opacity="1" stroke="none"/>
<path d="M85.7455 107.978C83.1049 107.98 80.3131 107.981 77.3899 107.981C55.6994 107.981 42.2941 107.958 42.3185 107.929C42.3481 107.902 47.7865 104.602 54.407 100.597C61.0266 96.5935 66.6208 93.1805 66.8347 93.0245C68.2993 91.9215 69.4083 90.4465 70.2441 88.4885C70.6433 87.5495 70.672 83.4265 70.7503 82.4705C70.9251 80.2325 70.3224 78.0235 69.1012 76.4405C68.308 75.4115 66.8399 72.6995 65.8415 70.4225C63.8289 65.8305 62.92 61.7705 63.0348 57.9225C63.2644 50.5905 65.3709 44.3165 68.9986 40.1595C71.0469 37.8225 73.3812 36.4345 76.0018 35.9985C76.3192 35.9455 76.9411 35.9265 77.5595 35.9365C78.1778 35.9465 78.7928 35.9855 79.0919 36.0495C81.6159 36.5805 83.7329 37.8725 85.7037 40.0995C88.292 43.0195 90.1811 47.1835 91.1083 51.9735L97.54 50.6955C97.3678 49.5535 97.2312 48.7055 97.2312 48.7055C96.6642 46.1585 95.8797 43.7435 94.6838 40.8605C94.1393 39.5555 92.8669 37.3065 91.7597 35.6975C90.4142 33.7465 88.5956 31.7965 86.8492 30.4335C84.6452 28.7165 82.1169 27.5435 79.6808 27.1135C79.0859 27.0065 77.2942 26.8405 77.1229 26.8725C77.0976 26.8785 76.948 26.8915 76.7932 26.9035C75.72 26.9725 74.4849 27.1955 73.5761 27.4675C68.3576 29.0385 63.7471 33.4545 60.5387 39.9425C60.1551 40.7275 59.6315 41.9125 59.6315 42.0015C59.6315 42.0465 59.4924 42.4265 59.3323 42.8515C57.5146 47.5075 56.5448 52.7895 56.5448 58.0945C56.5448 59.6845 56.5944 60.5325 56.771 61.8955C56.831 62.3645 56.9032 62.9655 56.931 63.2315C57.091 64.7785 57.9947 68.1785 58.9375 70.7745C59.8142 73.2035 61.4936 76.9165 62.3312 78.3035C62.4469 78.4925 62.76 79.0195 63.0244 79.4745C63.2844 79.9245 63.7141 80.6345 63.9672 81.0475C64.7439 82.2885 64.9813 83.0335 64.9709 84.2335C64.9709 84.6135 64.663 86.2195 64.6247 86.3965C64.5873 86.5675 63.621 87.9195 63.047 88.3755C62.7991 88.5785 49.3721 96.8025 49.0799 96.9345C48.6885 97.1125 33.9438 106.184 33.5193 106.507C33.2993 106.679 33.0671 106.875 33.001 106.945C32.9401 107.007 32.8035 107.13 32.7044 107.212C32.6052 107.288 32.5061 107.4 32.4896 107.457C32.4722 107.52 32.4348 107.572 32.4017 107.572C32.3687 107.572 32.2078 107.712 32.0486 107.888C31.8886 108.059 31.7625 108.204 31.7738 108.204C31.779 108.204 31.6407 108.381 31.4589 108.591C31.2824 108.806 31.0736 109.098 30.9901 109.244C30.9075 109.383 30.8153 109.522 30.7823 109.547C30.6605 109.636 30.1535 110.599 29.9004 111.227C29.7629 111.57 29.6247 111.891 29.6029 111.949C29.5038 112.165 29.2715 113.261 29.228 113.717C29.2002 113.984 29.1793 114.382 29.1846 114.604L29.1898 115.016L77.3846 115.037L79.0198 115.037L85.7455 107.978ZM110.458 99.8105L107.561 104.95C110.456 106.705 112.441 107.911 112.461 107.929C112.469 107.938 110.873 107.948 107.959 107.955L111.898 115.043L125.573 115.047L125.593 114.717C125.621 114.294 125.54 113.273 125.473 113.172C125.439 113.133 125.434 113.089 125.45 113.064C125.468 113.044 125.446 112.868 125.396 112.678C125.346 112.481 125.303 112.304 125.303 112.28C125.297 112.248 125.269 112.172 125.237 112.1C125.203 112.032 125.171 111.962 125.171 111.944C125.121 111.703 125.066 111.57 125.038 111.594C125.017 111.607 124.996 111.58 124.996 111.537C124.996 111.41 124.863 111.056 124.812 111.056C124.796 111.056 124.775 111.012 124.775 110.961C124.775 110.858 124.306 109.945 124.13 109.706C124.064 109.616 123.964 109.465 123.904 109.371C123.657 108.978 123.37 108.615 123.325 108.629C123.293 108.64 123.276 108.622 123.288 108.597C123.298 108.54 122.334 107.381 122.273 107.381C122.257 107.381 122.153 107.286 122.047 107.171C121.58 106.664 120.256 105.798 116.328 103.41C116.042 103.232 115.612 102.972 115.38 102.825C115.144 102.686 114.768 102.458 114.555 102.319C114.333 102.186 113.667 101.774 113.077 101.414C112.487 101.047 111.732 100.583 111.396 100.381C111.066 100.179 110.64 99.9195 110.458 99.8105" fill="#000000" fill-rule="nonzero" opacity="1" stroke="none"/>
<path d="M144.826 135.228C144.792 135.189 144.787 135.145 144.802 135.12C144.821 135.1 144.798 134.924 144.749 134.734C144.699 134.537 144.656 134.36 144.656 134.336C144.649 134.304 144.622 134.228 144.589 134.156C144.555 134.088 144.523 134.018 144.523 134C144.474 133.759 144.419 133.626 144.39 133.65C144.369 133.663 144.348 133.636 144.348 133.593C144.348 133.466 144.215 133.112 144.165 133.112C144.148 133.112 144.128 133.068 144.128 133.017C144.128 132.914 143.659 132.001 143.482 131.762C143.416 131.672 143.317 131.521 143.257 131.427C143.009 131.034 142.722 130.671 142.678 130.685C142.646 130.696 142.628 130.678 142.64 130.653C142.651 130.596 141.686 129.437 141.625 129.437C141.61 129.437 141.505 129.342 141.4 129.227C140.932 128.72 139.608 127.854 135.681 125.466C135.395 125.288 134.965 125.028 134.733 124.881C134.496 124.742 134.12 124.514 133.907 124.375C133.685 124.242 133.019 123.83 132.43 123.47C131.84 123.103 131.085 122.639 130.748 122.437C130.419 122.234 129.993 121.975 129.812 121.867C128.925 121.315 128.617 121.132 128.176 120.86C127.548 120.479 126.835 120.048 126.285 119.701C126.043 119.555 125.635 119.313 125.376 119.174C124.715 118.807 111.353 110.611 111.151 110.452C110.816 110.196 110.484 109.846 110.2 109.456C109.968 109.139 109.766 108.797 109.618 108.462C109.468 108.108 109.343 107.776 109.347 107.72C109.347 107.657 109.298 107.602 109.232 107.195C109.139 106.632 109.16 105.649 109.281 105.105C109.43 104.44 109.65 103.958 110.25 102.989C110.531 102.533 111.005 101.735 111.298 101.215C111.59 100.689 111.876 100.207 111.926 100.138C111.981 100.07 112.2 99.6695 112.411 99.2505C113.91 96.2925 115.149 93.2705 115.992 90.5065C116.449 89.0125 117 86.8075 117.027 86.3585C117.033 86.2395 117.106 85.7545 117.189 85.2945C117.464 83.6905 117.557 82.6405 117.59 80.7825C117.607 79.7375 117.595 78.6225 117.557 77.9955C117.441 76.0835 116.583 70.7635 116.583 70.7635C116.016 68.2165 115.231 65.8015 114.035 62.9185C113.491 61.6135 112.219 59.3645 111.111 57.7555C109.766 55.8045 107.947 53.8545 106.201 52.4915C103.997 50.7745 101.469 49.6015 99.0325 49.1715C98.4376 49.0645 96.6459 48.8985 96.4746 48.9305C96.4493 48.9365 96.2997 48.9495 96.1449 48.9615C95.0717 49.0305 93.8366 49.2535 92.9278 49.5255C87.7093 51.0965 83.0988 55.5125 79.8904 62.0005C79.5068 62.7855 78.9832 63.9705 78.9832 64.0595C78.9832 64.1045 78.8441 64.4845 78.684 64.9095C76.8663 69.5655 75.8965 74.8475 75.8965 80.1525C75.8965 81.7425 75.9461 82.5905 76.1227 83.9535C76.1827 84.4225 76.2549 85.0235 76.2827 85.2895C76.4427 86.8365 77.3464 90.2365 78.2892 92.8325C79.1659 95.2615 80.8453 98.9745 81.6829 100.362C81.7986 100.551 82.1117 101.078 82.3761 101.533C82.6361 101.983 83.0658 102.693 83.3189 103.106C84.0956 104.347 84.333 105.092 84.3226 106.292C84.3226 106.672 84.0147 108.278 83.9764 108.455C83.939 108.626 82.9727 109.978 82.3987 110.434C82.1508 110.637 68.7238 118.861 68.4315 118.993C68.0402 119.171 53.2955 128.242 52.871 128.565C52.651 128.737 52.4188 128.933 52.3527 129.003C52.2918 129.065 52.1552 129.188 52.0561 129.27C51.9569 129.346 51.8578 129.458 51.8413 129.515C51.8239 129.578 51.7865 129.63 51.7534 129.63C51.7204 129.63 51.5595 129.77 51.4003 129.946C51.2403 130.117 51.1142 130.262 51.1255 130.262C51.1307 130.262 50.9924 130.439 50.8106 130.649C50.6341 130.864 50.4253 131.156 50.3418 131.302C50.2592 131.441 50.167 131.58 50.134 131.605C50.0122 131.694 49.5051 132.657 49.2521 133.285C49.1146 133.628 48.9763 133.949 48.9546 134.007C48.8555 134.223 48.6232 135.319 48.5797 135.775C48.5519 136.042 48.531 136.44 48.5363 136.662L48.5415 137.074L96.7363 137.095L144.929 137.107L144.949 136.777C144.974 136.351 144.891 135.329 144.826 135.228ZM96.7416 130.037C75.0511 130.037 61.6458 130.014 61.6702 129.985C61.6998 129.958 67.1382 126.658 73.7587 122.653C80.3783 118.65 85.9716 115.237 86.1864 115.081C87.651 113.978 88.76 112.503 89.5958 110.545C89.995 109.606 90.0237 105.483 90.102 104.527C90.2768 102.289 89.6741 100.08 88.4529 98.4965C87.6597 97.4675 86.1916 94.7555 85.1932 92.4785C83.1806 87.8865 82.2717 83.8265 82.3865 79.9785C82.6161 72.6465 84.7226 66.3725 88.3503 62.2155C90.3986 59.8785 92.7329 58.4905 95.3543 58.0545C95.6718 58.0015 96.2936 57.9825 96.912 57.9925C97.5304 58.0025 98.1453 58.0415 98.4445 58.1055C100.968 58.6365 103.085 59.9285 105.056 62.1555C107.897 65.3595 109.896 70.0625 110.703 75.4485C111.005 77.4565 111.155 80.1125 111.068 81.7625C110.844 85.8895 109.471 90.4265 107.015 95.1345C106.295 96.5215 105.25 98.2785 104.992 98.5455C104.828 98.7135 104.431 99.3405 104.219 99.7765C103.846 100.538 103.586 101.427 103.453 102.36C103.32 103.294 103.312 108.27 103.44 109.202C103.59 110.276 104.656 112.341 105.682 113.554C106.666 114.706 107.035 114.981 110.366 116.993C111.89 117.917 117.327 121.204 122.451 124.302C127.573 127.402 131.785 129.957 131.815 129.985C131.837 130.014 117.642 130.037 96.7416 130.037Z" fill="#000000" fill-rule="nonzero" opacity="1" stroke="none"/>
</g>
</g>
</svg>
