<?xml version="1.0" encoding="UTF-8" standalone="no"?>
<!DOCTYPE svg PUBLIC "-//W3C//DTD SVG 1.1//EN" "http://www.w3.org/Graphics/SVG/1.1/DTD/svg11.dtd">
<svg height="100%" stroke-miterlimit="10" style="fill-rule:nonzero;clip-rule:evenodd;stroke-linecap:round;stroke-linejoin:round;" version="1.1" viewBox="0 0 150 200" width="100%" xml:space="preserve" xmlns="http://www.w3.org/2000/svg" xmlns:vectornator="http://vectornator.io" xmlns:xlink="http://www.w3.org/1999/xlink">
  <path class="ast0" d="M8.2 74.4L5.6 90.9h26.3C11.2 109.6 0 138.7 0 157.5c0 13.9 4.4 24.7 13.3 32.1 7.1 6 16.9 9.3 29.1 10.1l1.2.1V194l-.9-.2c-11.1-2.5-29.6-9.9-29.8-32.4-.1-16.8 17.2-48.2 37.2-61.4l-5.3 30.5h16.9l9.5-56-63-.1z" fill="#000000"></path>
  <path class="ast0" d="M24.6 0C15.9 0 8.8 7.1 8.7 15.7l-.6 44.2 9.1.1h9l.5-41.9h74.4l.5 113.5H77.8l-3.1 18.1h29.1c8.7 0 15.9-7.9 16-16.6L119.5 0H24.6z" fill="#000000"></path>
</svg>