<?xml version="1.0" encoding="UTF-8" standalone="no"?>
<svg
   xmlns:dc="http://purl.org/dc/elements/1.1/"
   xmlns:cc="http://creativecommons.org/ns#"
   xmlns:rdf="http://www.w3.org/1999/02/22-rdf-syntax-ns#"
   xmlns:svg="http://www.w3.org/2000/svg"
   xmlns="http://www.w3.org/2000/svg"
   xmlns:sodipodi="http://sodipodi.sourceforge.net/DTD/sodipodi-0.dtd"
   xmlns:inkscape="http://www.inkscape.org/namespaces/inkscape"
   height="24px"
   width="24px"
   viewBox="0 0 100 100"
   enable-background="new 0 0 100 100"
   version="1.1"
   id="svg32"
   sodipodi:docname="icon.ink.svg"
   inkscape:version="0.92.2 5c3e80d, 2017-08-06">
  <metadata
     id="metadata38">
    <rdf:RDF>
      <cc:Work
         rdf:about="">
        <dc:format>image/svg+xml</dc:format>
        <dc:type
           rdf:resource="http://purl.org/dc/dcmitype/StillImage" />
        <dc:title></dc:title>
      </cc:Work>
    </rdf:RDF>
  </metadata>
  <defs
     id="defs36">
    <style
       id="style1183">
      .cls-1 {
        isolation: isolate;
      }

      .cls-2 {
        fill: none;
      }

      .cls-3 {
        fill: #6bc9a7;
      }

      .cls-4 {
        opacity: 0.15;
        mix-blend-mode: multiply;
      }

      .cls-5 {
        fill: #fff;
      }

      .cls-6 {
        fill: #cde6fc;
      }

      .cls-7 {
        fill: #8db7e2;
      }

      .cls-8 {
        opacity: 0.2;
      }

      .cls-9 {
        fill: #231f20;
      }

      .cls-10 {
        fill: #ddd;
      }

      .cls-11 {
        fill: #239630;
      }
    </style>
    <style
       id="style1586">
      .cls-1 {
        fill: #ea964d;
      }

      .cls-2 {
        fill: #f0f1f5;
      }

      .cls-3 {
        fill: #b8b8bf;
      }

      .cls-4 {
        fill: #34495e;
      }

      .cls-5 {
        fill: #e94c3d;
      }

      .cls-6 {
        fill: #c1392b;
      }

      .cls-7 {
        fill: #3497da;
      }

      .cls-8 {
        fill: #2a80bb;
      }

      .cls-9 {
        fill: #2c3e50;
        opacity: 0.1;
      }

      .cls-10 {
        fill: #8e44ad;
      }

      .cls-11 {
        fill: none;
      }
    </style>
    <style
       id="style6156">
      .cls-1 {
        fill: #f06060;
      }

      .cls-2 {
        opacity: 0.15;
      }

      .cls-3 {
        fill: #231f20;
      }

      .cls-4 {
        fill: #fff;
      }

      .cls-5 {
        fill: #79aad3;
      }

      .cls-6 {
        fill: #b0afad;
      }

      .cls-7 {
        fill: none;
      }
    </style>
    <style
       id="style1377">
      .cls-1 {
        isolation: isolate;
      }

      .cls-2 {
        fill: #3d6084;
      }

      .cls-3 {
        opacity: 0.2;
        mix-blend-mode: multiply;
      }

      .cls-4 {
        fill: #fff;
      }

      .cls-5 {
        fill: none;
      }
    </style>
    <style
       id="style169">
      .cls-1 {
        fill: #bbd39f;
      }

      .cls-2 {
        fill: #31387a;
      }

      .cls-3 {
        fill: none;
      }
    </style>
    <style
       id="style397">
      .cls-1 {
        fill: #fff;
      }

      .cls-2 {
        fill: #34495e;
      }

      .cls-3 {
        opacity: 0.25;
      }

      .cls-4 {
        fill: #e58833;
      }

      .cls-5 {
        fill: #97baf6;
      }

      .cls-6 {
        fill: none;
      }
    </style>
  </defs>
  <sodipodi:namedview
     pagecolor="#ffffff"
     bordercolor="#666666"
     borderopacity="1"
     objecttolerance="10"
     gridtolerance="10"
     guidetolerance="10"
     inkscape:pageopacity="0"
     inkscape:pageshadow="2"
     inkscape:window-width="1440"
     inkscape:window-height="856"
     id="namedview34"
     showgrid="false"
     inkscape:zoom="26.791667"
     inkscape:cx="12"
     inkscape:cy="12"
     inkscape:window-x="113"
     inkscape:window-y="365"
     inkscape:window-maximized="0"
     inkscape:current-layer="svg32" />
  <style
     id="style131"
     type="text/css">
	.st0{fill:#1D1D1D;}
	.st1{fill:#FFFFFF;}
</style>
  <style
     id="style900"
     type="text/css">
	.st0{fill:none;}
	.st1{fill:#88C87A;}
	.st2{opacity:0.15;}
	.st3{fill:#231F20;}
	.st4{fill:#FFFFFF;}
	.st5{fill:#F05F5F;}
</style>
  <style
     id="style214"
     type="text/css">
	.st0{fill:#DDDDDD;}
	.st1{fill:#C6C6C6;}
	.st2{fill:#8DB7E2;}
	.st3{fill:#2376C1;}
	.st4{fill:none;}
</style>
  <style
     id="style796"
     type="text/css">
	.st0{fill:#41CC8D;}
	.st1{fill:#FF2E63;}
	.st2{fill:none;}
</style>
  <style
     id="style256"
     type="text/css">
	.st0{fill:none;}
	.st1{fill:#F5C357;}
	.st2{fill:#34485E;}
	.st3{fill:#54B3ED;}
	.st4{fill:#FFFFFF;}
</style>
  <style
     id="style5811"
     type="text/css">
	.st0{fill:none;}
	.st1{fill:#345EA5;}
	.st2{fill:#DBDBDE;}
	.st3{fill:#FFFFFF;}
	.st4{opacity:0.15;}
	.st5{fill:#9AB7DE;}
	.st6{fill:#3D6083;}
	.st7{opacity:0.1;}
	.st8{fill:#030403;}
	.st9{fill:#B7B7BE;}
	.st10{fill:#46B08D;}
	.st11{fill:#295849;}
</style>
  <g
     id="Layer_2-7"
     transform="matrix(0.32644737,0,0,0.32644737,-15.147966,15.038387)">
    <g
       id="course_presentation">
      <rect
         id="rect5815"
         height="225"
         width="400"
         class="st0"
         y="0"
         x="0"
         style="fill:none" />
      <path
         id="path5817"
         d="m 75.1,30.2 v 144.2 c 0,5.6 4.5,10.1 10.1,10.1 h 87.6 V 20.2 H 85.2 c -5.6,0 -10.1,4.5 -10.1,10 z"
         class="st1"
         inkscape:connector-curvature="0"
         style="fill:#345ea5" />
      <path
         id="path5819"
         d="m 172.8,20.2 h 142 c 5.6,0 10.1,4.5 10.1,10.1 v 144.2 c 0,5.6 -4.5,10.1 -10.1,10.1 h -142 z"
         class="st2"
         inkscape:connector-curvature="0"
         style="fill:#dbdbde" />
      <rect
         id="rect5821"
         height="5.5"
         width="39"
         class="st3"
         y="56.400002"
         x="93.900002"
         style="fill:#ffffff" />
      <rect
         id="rect5823"
         height="5.5"
         width="58.900002"
         class="st3"
         y="68.900002"
         x="93.900002"
         style="fill:#ffffff" />
      <rect
         id="rect5825"
         height="5.5"
         width="45.400002"
         class="st3"
         y="81.699997"
         x="93.900002"
         style="fill:#ffffff" />
      <rect
         id="rect5827"
         height="5.5"
         width="25.700001"
         class="st3"
         y="113.6"
         x="93.900002"
         style="fill:#ffffff" />
      <rect
         id="rect5829"
         height="5.5"
         width="58.900002"
         class="st3"
         y="126.8"
         x="93.900002"
         style="fill:#ffffff" />
      <rect
         id="rect5831"
         height="5.5"
         width="42.299999"
         class="st3"
         y="139.39999"
         x="93.900002"
         style="fill:#ffffff" />
      <g
         id="g5835"
         class="st4"
         style="opacity:0.15" />
      <rect
         id="rect5837"
         height="81.5"
         width="122"
         class="st3"
         y="33.799999"
         x="187.89999"
         style="fill:#ffffff" />
      <rect
         id="rect5839"
         height="40.400002"
         width="122.1"
         class="st3"
         y="111.5"
         x="187.8"
         style="fill:#ffffff" />
      <g
         id="g5855">
        <rect
           id="rect5841"
           height="43.400002"
           width="97.599998"
           class="st5"
           y="46.099998"
           x="200.60001"
           style="fill:#9ab7de" />
        <circle
           id="circle5843"
           r="7.8000002"
           cy="58.5"
           cx="248.5"
           class="st3"
           style="fill:#ffffff" />
        <polygon
           id="polygon5845"
           points="200.6,67.6 200.6,89.5 298.1,89.5 274,63.2 254.6,79.5 236.4,65.6 219.2,79.4 "
           class="st6"
           style="fill:#3d6083" />
        <g
           id="g5849"
           class="st7"
           style="opacity:0.1">
          <polygon
             id="polygon5847"
             points="243.4,89.5 254.7,79.6 253.2,78.4 240.5,89.5 "
             class="st8"
             style="fill:#030403" />
        </g>
        <g
           id="g5853"
           class="st7"
           style="opacity:0.1">
          <polygon
             id="polygon5851"
             points="207.9,89.5 219.5,79.4 217.9,78.5 205.2,89.5 "
             class="st8"
             style="fill:#030403" />
        </g>
      </g>
      <path
         id="path5857"
         d="m 248.6,104.8 h -47 c -0.2,0 -0.4,-0.2 -0.4,-0.4 v -5.9 c 0,-0.2 0.2,-0.4 0.4,-0.4 h 47 c 0.2,0 0.4,0.2 0.4,0.4 v 5.9 c 0,0.2 -0.1,0.4 -0.4,0.4 z"
         class="st9"
         inkscape:connector-curvature="0"
         style="fill:#b7b7be" />
      <path
         id="path5859"
         d="m 260.1,133.4 h -58.5 c -0.2,0 -0.4,-0.2 -0.4,-0.4 v -5.9 c 0,-0.2 0.2,-0.4 0.4,-0.4 h 58.5 c 0.2,0 0.4,0.2 0.4,0.4 v 5.9 c 0.1,0.2 -0.1,0.4 -0.4,0.4 z"
         class="st9"
         inkscape:connector-curvature="0"
         style="fill:#b7b7be" />
      <path
         id="path5861"
         d="m 286.6,120.8 h -85 c -0.2,0 -0.4,-0.2 -0.4,-0.4 v -9.8 c 0,-0.2 0.2,-0.4 0.4,-0.4 h 85 c 0.2,0 0.4,0.2 0.4,0.4 v 9.8 c 0,0.2 -0.2,0.4 -0.4,0.4 z"
         class="st10"
         inkscape:connector-curvature="0"
         style="fill:#46b08d" />
      <path
         id="path5863"
         d="m 271.6,117.4 h -67 c -0.2,0 -0.4,-0.2 -0.4,-0.4 v -3.1 c 0,-0.2 0.2,-0.4 0.4,-0.4 h 67 c 0.2,0 0.4,0.2 0.4,0.4 v 3.1 c 0,0.2 -0.2,0.4 -0.4,0.4 z"
         class="st11"
         inkscape:connector-curvature="0"
         style="fill:#295849" />
      <path
         id="path5865"
         d="m 283.5,114.3 -2.5,2.5 -0.5,0.5 c -0.1,0.1 -0.3,0.1 -0.5,0 l -0.5,-0.5 -1.3,-1.3 c -0.1,-0.1 -0.1,-0.3 0,-0.5 l 0.5,-0.5 c 0.1,-0.1 0.3,-0.1 0.5,0 l 1,1 2.3,-2.3 c 0.1,-0.1 0.3,-0.1 0.5,0 l 0.5,0.5 c 0.1,0.3 0.1,0.5 0,0.6 z"
         class="st3"
         inkscape:connector-curvature="0"
         style="fill:#ffffff" />
      <g
         id="g5869">
        <circle
           id="circle5867"
           r="22.700001"
           cy="184.2"
           cx="221.89999"
           class="st1"
           style="fill:#345ea5" />
      </g>
      <g
         id="g5873">
        <circle
           id="circle5871"
           r="22.700001"
           cy="184.2"
           cx="273.29999"
           class="st1"
           style="fill:#345ea5" />
      </g>
      <polygon
         id="polygon5875"
         points="212.4,184.3 225.2,197.1 229.2,193.2 220.3,184.3 229.2,175.4 225.2,171.4 "
         class="st3"
         style="fill:#ffffff" />
      <polygon
         id="polygon5877"
         points="283.1,184.3 270.3,171.4 266.3,175.4 275.2,184.3 266.3,193.2 270.3,197.1 "
         class="st3"
         style="fill:#ffffff" />
    </g>
  </g>
</svg>
