<?xml version="1.0" encoding="UTF-8"?>
<!-- Generated by Pixelmator Pro 3.3.2 -->
<svg width="512" height="512" viewBox="0 0 512 512" xmlns="http://www.w3.org/2000/svg" xmlns:xlink="http://www.w3.org/1999/xlink">
    <path id="Path" fill="#000000" stroke="none" d="M 214.5 114.331238 C 214.5 106.928131 209.832809 100.410156 203.878128 95.984375 C 194.543747 88.983582 188.75 79.327332 188.75 68.625 C 188.75 47.300781 211.844528 30 240.25 30 C 268.655457 30 291.75 47.300781 291.75 68.625 C 291.75 79.327332 285.956238 88.983582 276.621887 95.984375 C 270.667175 100.410156 266 106.928131 266 114.331238 L 266 114.331238 C 266 124.631256 274.368744 133 284.668762 133 L 330.375 133 C 351.699219 133 369 150.300781 369 171.625 L 369 217.331238 C 369 227.631256 377.368744 236 387.668762 236 L 387.668762 236 C 395.071869 236 401.589844 231.332825 406.015625 225.378113 C 413.016418 216.043762 422.672668 210.25 433.375 210.25 C 454.699219 210.25 472 233.344543 472 261.75 C 472 290.155457 454.699219 313.25 433.375 313.25 C 422.672668 313.25 413.016418 307.456238 406.015625 298.121887 C 401.589844 292.167175 395.071869 287.5 387.668762 287.5 L 387.668762 287.5 C 377.368744 287.5 369 295.868744 369 306.168762 L 369 403.375 C 369 424.699219 351.699219 442 330.375 442 L 284.668762 442 C 274.368744 442 266 433.631256 266 423.331238 L 266 423.331238 C 266 415.928131 270.667175 409.410156 276.621887 404.984375 C 285.956238 397.983582 291.75 388.327332 291.75 377.625 C 291.75 356.300781 268.655457 339 240.25 339 C 211.844528 339 188.75 356.300781 188.75 377.625 C 188.75 388.327332 194.543747 397.983582 203.878128 404.984375 C 209.832809 409.410156 214.5 415.928131 214.5 423.331238 L 214.5 423.331238 C 214.5 433.631256 206.131256 442 195.831253 442 L 98.625 442 C 77.300781 442 60 424.699219 60 403.375 L 60 306.168762 C 60 295.868744 68.368752 287.5 78.668747 287.5 L 78.668747 287.5 C 86.071877 287.5 92.589844 292.167175 97.015625 298.121887 C 104.016403 307.456238 113.672653 313.25 124.375 313.25 C 145.699219 313.25 163 290.155457 163 261.75 C 163 233.344543 145.699219 210.25 124.375 210.25 C 113.672653 210.25 104.016403 216.043762 97.015625 225.378113 C 92.589844 231.332825 86.071877 236 78.668747 236 L 78.668747 236 C 68.368752 236 60 227.631256 60 217.331238 L 60 171.625 C 60 150.300781 77.300781 133 98.625 133 L 195.831253 133 C 206.131256 133 214.5 124.631256 214.5 114.331238 L 214.5 114.331238 Z"/>
</svg>
