<?xml version="1.0" encoding="UTF-8" standalone="no"?>
<!DOCTYPE svg PUBLIC "-//W3C//DTD SVG 1.1//EN" "http://www.w3.org/Graphics/SVG/1.1/DTD/svg11.dtd">
<!-- Created with Vectornator (http://vectornator.io/) -->
<svg height="100%" stroke-miterlimit="10" style="fill-rule:nonzero;clip-rule:evenodd;stroke-linecap:round;stroke-linejoin:round;" version="1.1" viewBox="0 0 48 48" width="100%" xml:space="preserve" xmlns="http://www.w3.org/2000/svg" xmlns:vectornator="http://vectornator.io" xmlns:xlink="http://www.w3.org/1999/xlink">
<defs/>
<clipPath id="ArtboardFrame">
<rect height="48" width="48" x="0" y="0"/>
</clipPath>
<g clip-path="url(#ArtboardFrame)" id="Untitled" vectornator:layerName="Untitled">
<g opacity="1" vectornator:layerName="g">
<path d="M35.2014 19.4897L36.9098 17.7762L37.0463 17.9728C38.8726 20.6074 39.935 23.7506 39.935 27.1497C39.935 35.9871 32.7561 43.1659 23.9188 43.1659C15.0815 43.1659 7.90258 35.9871 7.90258 27.1497C7.90258 18.3124 15.0815 11.1335 23.9188 11.1335C27.317 11.1335 30.504 12.1954 33.0971 14.0232L33.2908 14.1596L31.5821 15.8682L31.4462 15.7785C29.2533 14.3306 26.6906 13.5039 23.9208 13.5039C16.3956 13.5039 10.275 19.6245 10.275 27.1497C10.275 34.675 16.3956 40.7956 23.9208 40.7956C31.4461 40.7956 37.5666 34.675 37.5666 27.1497C37.5666 24.3791 36.7395 21.7742 35.2929 19.6257L35.2014 19.4897Z" fill="#000000" fill-rule="evenodd" opacity="1" stroke="none" vectornator:layerName="path"/>
<path d="M29.2895 17.836C27.7376 16.9133 25.8905 16.4102 23.9188 16.4102C18.0023 16.4102 13.2202 21.1921 13.2202 27.1088C13.2202 33.0253 18.0023 37.8075 23.9188 37.8075C29.8354 37.8075 34.6174 33.0253 34.6174 27.1088C34.6174 25.1372 34.1143 23.3328 33.1917 21.7382L31.7231 23.2064C32.3098 24.3815 32.646 25.7239 32.646 27.1086C32.646 31.9335 28.7436 35.8359 23.9188 35.8359C19.0938 35.8359 15.1916 31.9337 15.1916 27.1086C15.1916 22.2837 19.0938 18.3817 23.9188 18.3817C25.3037 18.3817 26.646 18.7176 27.8209 19.3043L29.2895 17.836Z" fill="#000000" fill-rule="nonzero" opacity="1" stroke="none" vectornator:layerName="path"/>
<path d="M23.6694 23.4995L25.4739 21.6951C25.0117 21.5687 24.5085 21.4851 23.9627 21.4851C20.8587 21.4851 18.3417 24.0026 18.3417 27.1064C18.3417 30.2102 20.8589 32.7277 23.9627 32.7277C27.0669 32.7277 29.5839 30.2102 29.5839 27.1064C29.5839 26.6033 29.5003 26.1002 29.3743 25.5954L27.5698 27.3572C27.4435 29.2452 25.8489 30.7135 23.9609 30.7135C21.9468 30.7135 20.3111 29.078 20.3111 27.0638C20.3127 25.22 21.7812 23.6254 23.6693 23.4993L23.6694 23.4995Z" fill="#000000" fill-rule="nonzero" opacity="1" stroke="none" vectornator:layerName="path"/>
<path d="M47.9189 9.19459C47.7519 8.81754 47.4158 8.56517 46.9962 8.56517L42.4647 8.56517L42.4647 4.0747C42.4647 3.65515 42.2123 3.3192 41.8354 3.15202C41.4994 2.98484 41.0799 3.06844 40.7865 3.3617L35.7091 8.43929C35.5419 8.60647 35.4156 8.85884 35.4156 9.1521L35.4156 14.2702L23.2487 26.4374C22.8717 26.8144 22.8717 27.4436 23.2487 27.8222C23.4583 28.0319 23.7108 28.1155 23.9615 28.1155C24.2138 28.1155 24.4646 28.0319 24.6745 27.8222L36.8414 15.6551L41.919 15.6551C42.1713 15.6551 42.4221 15.5715 42.6319 15.3619L47.7092 10.2842C48.0027 9.99098 48.0863 9.57144 47.9191 9.19439L47.9189 9.19459ZM37.3873 9.57144L40.4914 6.46747L40.4931 9.15189L37.389 12.2559L37.3873 9.57144ZM41.4993 13.6835L38.7721 13.6835L41.8764 10.5793L44.6033 10.5793L41.4993 13.6835Z" fill="#000000" fill-rule="nonzero" opacity="1" stroke="none" vectornator:layerName="path"/>
</g>
</g>
</svg>
