<?xml version="1.0" encoding="UTF-8" standalone="no"?>
<!DOCTYPE svg PUBLIC "-//W3C//DTD SVG 1.1//EN" "http://www.w3.org/Graphics/SVG/1.1/DTD/svg11.dtd">
<!-- Created with Vectornator (http://vectornator.io/) -->
<svg height="100%" stroke-miterlimit="10" style="fill-rule:nonzero;clip-rule:evenodd;stroke-linecap:round;stroke-linejoin:round;" version="1.1" viewBox="0 0 74.4 74.4" width="100%" xml:space="preserve" xmlns="http://www.w3.org/2000/svg" xmlns:vectornator="http://vectornator.io" xmlns:xlink="http://www.w3.org/1999/xlink">
<defs/>
<g id="Untitled" vectornator:layerName="Untitled">
<path d="M37.6078 72.6738C36.7617 72.6738 36.0002 71.997 36.0002 71.1509L36.0002 71.0663L36.0002 63.8747L18.7404 63.8747C17.2174 63.8747 16.0329 62.6902 16.0329 61.1673L16.0329 61.1673L16.0329 12.4336C16.0329 10.9107 17.2174 9.72617 18.7404 9.72617L47.5068 9.72617C48.1836 9.72617 48.9451 9.97999 49.3681 10.4876L59.6056 20.7251C60.1132 21.2327 60.3671 21.9096 60.3671 22.5864L60.3671 61.0827C60.3671 62.6056 59.1826 63.7901 57.6596 63.7901L57.6596 63.7901L40.3152 63.7901L40.3152 70.9817C40.3152 71.9124 39.5537 72.6738 38.7076 72.6738L37.6078 72.6738ZM55.9675 59.3059L55.9675 27.9167L44.9686 27.9167C43.4456 27.9167 42.2611 26.7322 42.2611 25.2939L42.2611 25.2939L42.2611 14.295L20.5171 14.295L20.5171 59.3905L36.0002 59.3905L36.0002 52.7912L31.6853 52.7912C30.7546 52.7912 29.9931 52.0297 29.9931 51.099C29.9931 50.7606 30.1623 50.4222 30.3315 50.0837L37.0155 41.2C37.6078 40.5231 38.5384 40.4385 39.2999 40.9462C39.3845 41.0308 46.0685 50.0837 46.0685 50.0837C46.6607 50.8452 46.4915 51.8605 45.73 52.4527C45.4762 52.622 45.1378 52.7912 44.7994 52.7912L40.3998 52.7912L40.3998 59.3905L55.9675 59.3059ZM47.253 22.9249L54.9522 22.9249L47.253 15.2256L47.253 22.9249Z" fill="#000000" fill-rule="nonzero" opacity="1" stroke="none" vectornator:layerName="path"/>
</g>
</svg>
