<?xml version="1.0" encoding="UTF-8" standalone="no"?>
<!DOCTYPE svg PUBLIC "-//W3C//DTD SVG 1.1//EN" "http://www.w3.org/Graphics/SVG/1.1/DTD/svg11.dtd">
<!-- Created with Vectornator (http://vectornator.io/) -->
<svg height="100%" stroke-miterlimit="10" style="fill-rule:nonzero;clip-rule:evenodd;stroke-linecap:round;stroke-linejoin:round;" version="1.1" viewBox="0 0 512 512" width="100%" xml:space="preserve" xmlns="http://www.w3.org/2000/svg" xmlns:vectornator="http://vectornator.io" xmlns:xlink="http://www.w3.org/1999/xlink">
<defs/>
<g id="Untitled" vectornator:layerName="Untitled">
<path d="M142.422 372.08C153.493 364.012 167.826 361.952 180.7 366.587C203.444 374.826 228.935 379.547 256.056 379.547C363.081 379.547 434.574 310.457 434.574 242.225C434.574 173.993 363.081 104.903 256.056 104.903C149.031 104.903 77.5374 173.993 77.5374 242.225C77.5374 269.689 88.1798 296.124 108.177 318.782C115.558 327.107 119.163 338.093 118.305 349.25C117.103 364.785 113.413 379.032 108.606 391.648C123.197 384.868 135.298 377.315 142.422 372.166L142.422 372.08ZM54.536 406.925C56.0808 404.608 57.5399 402.291 58.9131 399.973C67.4957 385.726 75.6492 367.016 77.2799 345.989C51.5321 316.722 36.3408 280.932 36.3408 242.225C36.3408 143.611 134.698 63.7066 256.056 63.7066C377.414 63.7066 475.77 143.611 475.77 242.225C475.77 340.839 377.414 420.743 256.056 420.743C224.214 420.743 194.003 415.25 166.711 405.38C156.497 412.847 139.847 423.06 120.107 431.643C107.147 437.308 92.3853 442.457 77.1082 445.461C76.4216 445.633 75.735 445.719 75.0484 445.89C71.2721 446.577 67.5815 447.178 63.7194 447.521C63.5477 447.521 63.2902 447.607 63.1186 447.607C58.7415 448.036 54.3643 448.293 49.9872 448.293C44.4085 448.293 39.4306 444.946 37.2849 439.797C35.1393 434.647 36.3408 428.811 40.203 424.863C43.7219 421.258 46.8974 417.396 49.9014 413.276C51.3604 411.302 52.7336 409.328 54.021 407.354C54.1068 407.183 54.1927 407.097 54.2785 406.925L54.536 406.925Z" fill="#000000" fill-rule="nonzero" opacity="1" stroke="none" vectornator:layerName="path"/>
</g>
</svg>
