<?xml version="1.0" encoding="UTF-8" standalone="no"?>
<!DOCTYPE svg PUBLIC "-//W3C//DTD SVG 1.1//EN" "http://www.w3.org/Graphics/SVG/1.1/DTD/svg11.dtd">
<!-- Created with Vectornator (http://vectornator.io/) -->
<svg height="100%" stroke-miterlimit="10" style="fill-rule:nonzero;clip-rule:evenodd;stroke-linecap:round;stroke-linejoin:round;" version="1.1" viewBox="0 0 640 640" width="100%" xml:space="preserve" xmlns="http://www.w3.org/2000/svg" xmlns:vectornator="http://vectornator.io" xmlns:xlink="http://www.w3.org/1999/xlink">
<defs/>
<g id="Untitled" vectornator:layerName="Untitled">
<path d="M115.662 366.811C124.301 350.679 121.656 330.843 109.05 317.62C90.2723 297.873 80.2224 274.158 80.2224 249.474C80.2224 193.495 136.467 136.633 221.274 136.633C306.081 136.633 362.325 193.495 362.325 249.474C362.325 305.454 306.081 362.315 221.274 362.315C209.725 362.315 198.529 361.169 187.95 359.142C178.782 357.379 169.261 358.613 160.886 362.844C157.272 364.696 153.569 366.459 149.778 368.134C135.673 374.481 120.775 380.035 105.788 384.002C108.256 379.947 110.548 375.98 112.752 372.013C113.722 370.338 114.692 368.575 115.573 366.811L115.662 366.811ZM37.9069 249.474C37.9069 286.324 53.07 320.088 78.3711 346.712C77.5776 348.21 76.6961 349.797 75.9027 351.208C66.8225 367.429 56.2436 383.385 43.6372 397.137C37.8188 403.308 36.3201 412.3 39.5819 419.97C43.0201 427.816 50.6016 432.841 59.0646 432.841C96.9722 432.841 135.321 421.116 167.233 406.658C171.465 404.719 175.697 402.691 179.752 400.664C193.063 403.308 206.992 404.631 221.274 404.631C322.566 404.631 404.641 335.163 404.641 249.474C404.641 163.786 322.566 94.3178 221.274 94.3178C119.981 94.3178 37.9069 163.786 37.9069 249.474ZM418.746 517.472C433.027 517.472 446.868 516.061 460.268 513.505C464.323 515.532 468.554 517.56 472.786 519.5C504.699 533.957 543.047 545.682 580.955 545.682C589.418 545.682 596.999 540.657 600.349 532.899C603.699 525.142 602.112 516.15 596.294 510.067C583.776 496.314 573.197 480.358 564.029 464.137C563.235 462.638 562.354 461.14 561.56 459.641C586.949 432.929 602.112 399.165 602.112 362.315C602.112 279.095 524.622 211.126 427.385 207.335C430.999 220.735 432.851 234.84 432.851 249.474L432.851 250.003C509.724 255.91 559.797 309.509 559.797 362.315C559.797 386.999 549.747 410.714 530.97 430.373C518.363 443.596 515.718 463.52 524.358 479.564C525.328 481.328 526.297 483.091 527.179 484.766C529.383 488.733 531.763 492.7 534.143 496.755C519.157 492.788 504.258 487.322 490.153 480.887C486.362 479.212 482.66 477.449 479.045 475.597C470.67 471.366 461.149 470.132 451.981 471.895C441.314 474.01 430.206 475.068 418.657 475.068C364.265 475.068 321.685 451.707 298.059 420.146C283.953 424.907 269.143 428.433 253.98 430.549C283.865 482.033 346.457 517.472 418.746 517.472Z" fill="#000000" fill-rule="nonzero" opacity="1" stroke="none" vectornator:layerName="path"/>
</g>
</svg>
