<?xml version="1.0" encoding="UTF-8" standalone="no"?>
<!DOCTYPE svg PUBLIC "-//W3C//DTD SVG 1.1//EN" "http://www.w3.org/Graphics/SVG/1.1/DTD/svg11.dtd">
<!-- Created with Vectornator (http://vectornator.io/) -->
<svg height="100%" stroke-miterlimit="10" style="fill-rule:nonzero;clip-rule:evenodd;stroke-linecap:round;stroke-linejoin:round;" version="1.1" viewBox="0 0 74.4 74.4" width="100%" xml:space="preserve" xmlns="http://www.w3.org/2000/svg" xmlns:vectornator="http://vectornator.io" xmlns:xlink="http://www.w3.org/1999/xlink">
<defs/>
<g id="Untitled" vectornator:layerName="Untitled">
<g opacity="1" vectornator:layerName="g">
<path d="M25.4399 53.1364C25.3404 53.7 25.0504 54.305 24.5697 54.9514C24.089 55.5978 23.6663 55.9874 23.3017 56.12C23.2022 56.1531 23.0199 56.0951 22.7547 55.9459C22.4895 55.7967 22.274 55.7222 22.1083 55.7222C22.042 55.7222 21.9757 55.7387 21.9094 55.7719C20.8817 56.0702 19.854 56.468 18.8264 56.9653C16.3733 58.0924 14.119 59.5344 12.0637 61.2914C8.74866 59.9323 6.94196 59.1864 6.64361 59.0538C4.58829 58.1587 3.56062 57.4957 3.56062 57.0647L3.56062 19.6711C3.56062 19.439 3.95014 19.1075 4.72917 18.6766C5.50821 18.2456 6.08005 18.0467 6.44471 18.0799C6.84251 18.113 7.63812 18.3699 8.83154 18.8506C10.025 19.3313 11.0029 19.5716 11.7653 19.5716C12.7599 19.5716 14.0527 19.1241 15.6439 18.2291C17.1026 17.3671 18.0142 17.0025 18.3789 17.1351C19.1745 17.4003 20.3596 18.2705 21.9342 19.7457C23.5089 21.2209 24.3625 22.2734 24.4951 22.9032C24.5614 23.2016 24.2548 23.7154 23.5752 24.4447C22.8956 25.1741 22.3403 25.5387 21.9094 25.5387C21.5447 25.5387 21.2795 25.489 21.1138 25.3895C20.948 25.2901 20.832 25.2569 20.7657 25.2901C19.5723 25.5553 18.4617 25.8702 17.4341 26.2349C14.9809 27.0636 13.1742 28.025 12.014 29.119L12.014 37.2242C13.1742 36.6275 14.6826 36.0142 16.539 35.3844C17.0694 35.3181 18.1882 36.0557 19.8955 37.5972C21.6027 39.1387 22.4564 40.2078 22.4564 40.8045C22.4564 41.1691 22.2243 41.6001 21.7602 42.0973C21.2961 42.5946 20.8486 42.9095 20.4176 43.0421C20.0861 43.0421 19.506 43.0753 18.6772 43.1416C17.4175 43.3736 15.1964 44.4344 12.014 46.324L12.014 51.5452C13.0085 50.9485 14.3594 50.244 16.0666 49.4319C17.7739 48.6197 18.8264 48.2136 19.2242 48.2136C19.6883 48.2136 20.8568 48.9346 22.7298 50.3766C24.6028 51.8187 25.5062 52.7386 25.4399 53.1364Z" fill="#000000" fill-rule="nonzero" opacity="1" stroke="none" vectornator:layerName="path"/>
<path d="M36.7276 53.4845C36.7939 53.8492 36.595 54.479 36.1309 55.3741C35.6005 56.3686 35.3353 57.1642 35.3353 57.7609C35.3684 58.0261 35.3684 58.4073 35.3353 58.9046C35.2027 59.866 34.9375 60.4295 34.5397 60.5953C34.0756 60.7942 32.9816 60.4958 31.2578 59.7002C29.534 58.9046 28.5726 58.2913 28.3737 57.8604C28.208 57.562 28.44 56.6338 29.0699 55.0757C29.6003 53.7497 30.0644 52.7552 30.4622 52.0922C30.6611 51.7607 31.0257 51.5949 31.5561 51.5949C31.3572 51.5949 32.3518 51.7938 34.5397 52.1916C35.8657 52.4237 36.595 52.8546 36.7276 53.4845Z" fill="#000000" fill-rule="nonzero" opacity="1" stroke="none" vectornator:layerName="path"/>
<path d="M66.4138 41.6995C66.3143 43.0255 65.7342 43.8709 64.6734 44.2355C64.4745 44.2687 64.2424 44.2107 63.9772 44.0615C63.712 43.9123 63.4966 43.8377 63.3308 43.8377C63.1319 43.8377 62.9164 43.8875 62.6844 43.9869C61.3915 48.9263 60.3804 52.2414 59.6511 53.932C58.3251 57.0813 56.6013 59.1366 54.4797 60.098C53.9161 60.3632 53.336 60.4958 52.7393 60.4958C52.1425 60.4958 50.6674 60.0649 48.3137 59.2029C47.4186 58.9709 46.0097 58.4902 44.087 57.7609C42.1643 56.8327 40.6725 54.6945 39.6117 51.3463C38.6503 48.2965 38.1696 44.6665 38.1696 40.4564C38.1696 34.9866 38.9321 30.1135 40.457 25.8371C42.1145 21.1629 44.3025 18.544 47.0208 17.9804C47.2529 17.9473 47.5181 17.9307 47.8164 17.9307C49.4739 17.9307 51.4961 18.4611 53.8829 19.5219C56.4355 20.649 58.1593 21.8922 59.0544 23.2513C59.7837 24.3453 60.2644 25.7376 60.4964 27.4283C60.7948 29.351 60.9771 30.3952 61.0434 30.561C61.1429 31.1245 61.2755 31.8041 61.4412 32.5997C61.4744 33.0307 61.3086 33.5362 60.944 34.1164C60.5793 34.6965 60.2312 35.0529 59.8997 35.1855C59.4688 35.3512 58.1759 35.1109 56.0211 34.4645C53.8664 33.818 52.5735 33.3125 52.1425 32.9478C51.5458 32.55 51.2972 31.771 51.3967 30.6107C51.3967 30.445 51.4795 30.2378 51.6453 29.9891C51.811 29.7405 51.8939 29.5168 51.8939 29.3179C51.8939 26.9642 51.6287 25.7873 51.0983 25.7873C49.9712 25.7542 48.9767 27.6438 48.1148 31.4561C47.3192 35.0363 46.9214 38.948 46.9214 43.1913C46.9214 49.4899 47.7998 53.1033 49.5568 54.0315C50.0872 54.2967 50.8082 53.385 51.7199 51.2966C52.6315 49.2081 53.1702 47.2522 53.336 45.429C52.8056 45.0311 51.7945 44.5173 50.3027 43.8875C49.1093 43.3902 48.4629 42.9592 48.3634 42.5946C48.2308 42.0973 48.3966 41.3929 48.8607 40.4813C49.3248 39.5696 49.8137 38.9812 50.3276 38.716C50.8414 38.4508 51.5624 38.3016 52.4906 38.2685C53.7503 38.2685 54.5128 38.2353 54.778 38.169C55.3416 38.0696 56.2532 37.7878 57.5129 37.3237C58.5406 36.9259 59.3196 36.727 59.85 36.727C60.0489 36.727 60.2312 36.7435 60.397 36.7767C61.2258 36.9424 62.444 37.6883 64.0518 39.0143C65.6596 40.3404 66.4469 41.2354 66.4138 41.6995Z" fill="#000000" fill-rule="nonzero" opacity="1" stroke="none" vectornator:layerName="path"/>
<path d="M71.7842 53.4845C71.8505 53.8492 71.6516 54.479 71.1875 55.3741C70.657 56.3686 70.3918 57.1642 70.3918 57.7609C70.425 58.0261 70.425 58.4073 70.3918 58.9046C70.2592 59.866 69.994 60.4295 69.5962 60.5953C69.1321 60.7942 68.0382 60.4958 66.3143 59.7002C64.5905 58.9046 63.6292 58.2913 63.4303 57.8604C63.2645 57.562 63.4966 56.6338 64.1264 55.0757C64.6568 53.7497 65.1209 52.7552 65.5187 52.0922C65.7176 51.7607 66.0823 51.5949 66.6127 51.5949C66.4138 51.5949 67.4083 51.7938 69.5962 52.1916C70.9223 52.4237 71.6516 52.8546 71.7842 53.4845Z" fill="#000000" fill-rule="nonzero" opacity="1" stroke="none" vectornator:layerName="path"/>
</g>
</g>
</svg>
