<?xml version="1.0" encoding="UTF-8" standalone="no"?>
<!DOCTYPE svg PUBLIC "-//W3C//DTD SVG 1.1//EN" "http://www.w3.org/Graphics/SVG/1.1/DTD/svg11.dtd">
<!-- Created with Vectornator (http://vectornator.io/) -->
<svg height="100%" stroke-miterlimit="10" style="fill-rule:nonzero;clip-rule:evenodd;stroke-linecap:round;stroke-linejoin:round;" version="1.1" viewBox="0 0 512 512" width="100%" xml:space="preserve" xmlns="http://www.w3.org/2000/svg" xmlns:vectornator="http://vectornator.io" xmlns:xlink="http://www.w3.org/1999/xlink">
<defs/>
<g id="Untitled" vectornator:layerName="Untitled">
<path d="M60.6077 231.576C60.6077 245.086 71.5222 256 85.0318 256C98.5413 256 109.456 245.086 109.456 231.576C109.456 191.124 142.276 158.304 182.728 158.304L327.746 158.304L327.746 182.728C327.746 192.574 333.699 201.504 342.858 205.32C352.017 209.136 362.474 206.999 369.495 200.054L418.344 151.206C427.884 141.665 427.884 126.171 418.344 116.63L369.495 67.7823C362.474 60.7604 352.017 58.6996 342.858 62.5159C333.699 66.3321 327.746 75.1858 327.746 85.0318L327.746 109.456L182.728 109.456C115.257 109.456 60.6077 164.105 60.6077 231.576ZM451.392 280.424C451.392 266.914 440.478 256 426.968 256C413.459 256 402.544 266.914 402.544 280.424C402.544 320.876 369.724 353.696 329.272 353.696L184.254 353.696L184.254 329.272C184.254 319.426 178.301 310.496 169.142 306.68C159.983 302.864 149.526 305.001 142.505 311.946L93.6565 360.794C84.1159 370.335 84.1159 385.829 93.6565 395.37L142.505 444.218C149.526 451.24 159.983 453.3 169.142 449.484C178.301 445.668 184.254 436.814 184.254 426.892L184.254 402.544L329.272 402.544C396.743 402.544 451.392 347.895 451.392 280.424Z" fill="#000000" fill-rule="nonzero" opacity="1" stroke="none" vectornator:layerName="path"/>
</g>
</svg>
