<?xml version="1.0" encoding="UTF-8" standalone="no"?>
<!DOCTYPE svg PUBLIC "-//W3C//DTD SVG 1.1//EN" "http://www.w3.org/Graphics/SVG/1.1/DTD/svg11.dtd">
<!-- Created with Vectornator (http://vectornator.io/) -->
<svg height="100%" stroke-miterlimit="10" style="fill-rule:nonzero;clip-rule:evenodd;stroke-linecap:round;stroke-linejoin:round;" version="1.1" viewBox="0 0 512 512" width="100%" xml:space="preserve" xmlns="http://www.w3.org/2000/svg" xmlns:vectornator="http://vectornator.io" xmlns:xlink="http://www.w3.org/1999/xlink">
<defs/>
<g id="Untitled" vectornator:layerName="Untitled">
<path d="M338.181 250.454C349.43 234.361 355.992 214.753 355.992 193.505C355.992 138.275 311.23 93.5136 256 93.5136C200.77 93.5136 156.008 138.275 156.008 193.505C156.008 214.753 162.57 234.361 173.819 250.454C176.71 254.594 180.147 259.281 183.819 264.281L183.819 264.281C193.896 278.108 205.926 294.669 214.91 310.995C223.034 325.838 227.174 341.305 229.205 355.914L191.162 355.914C189.443 346.539 186.553 337.399 181.944 328.963C174.21 314.901 164.601 301.699 154.993 288.497L154.993 288.497L154.993 288.497C150.931 282.951 146.869 277.404 142.963 271.78C127.573 249.672 118.511 222.643 118.511 193.505C118.511 117.574 180.069 56.0167 256 56.0167C331.931 56.0167 393.489 117.574 393.489 193.505C393.489 222.643 384.427 249.672 368.959 271.858C365.053 277.483 360.991 283.029 356.929 288.575L356.929 288.575L356.929 288.575C347.32 301.699 337.712 314.901 329.978 329.041C325.369 337.478 322.479 346.617 320.76 355.992L282.873 355.992C284.904 341.383 289.044 325.838 297.168 311.074C306.152 294.747 318.182 278.186 328.26 264.359L328.26 264.359L328.26 264.359L328.26 264.359C331.931 259.359 335.29 254.672 338.181 250.532L338.181 250.454ZM256 156.008C235.299 156.008 218.503 172.804 218.503 193.505C218.503 200.38 212.879 206.004 206.004 206.004C199.13 206.004 193.505 200.38 193.505 193.505C193.505 158.977 221.472 131.01 256 131.01C262.874 131.01 268.499 136.635 268.499 143.509C268.499 150.384 262.874 156.008 256 156.008ZM256 455.983C221.472 455.983 193.505 428.017 193.505 393.489L193.505 380.99L318.495 380.99L318.495 393.489C318.495 428.017 290.528 455.983 256 455.983Z" fill="#000000" fill-rule="nonzero" opacity="1" stroke="none" vectornator:layerName="path"/>
</g>
</svg>
