<?xml version="1.0" encoding="UTF-8" standalone="no"?>
<!DOCTYPE svg PUBLIC "-//W3C//DTD SVG 1.1//EN" "http://www.w3.org/Graphics/SVG/1.1/DTD/svg11.dtd">
<!-- Created with Vectornator (http://vectornator.io/) -->
<svg height="100%" stroke-miterlimit="10" style="fill-rule:nonzero;clip-rule:evenodd;stroke-linecap:round;stroke-linejoin:round;" version="1.1" viewBox="0 0 512 512" width="100%" xml:space="preserve" xmlns="http://www.w3.org/2000/svg" xmlns:vectornator="http://vectornator.io" xmlns:xlink="http://www.w3.org/1999/xlink">
<defs/>
<g id="Untitled" vectornator:layerName="Untitled">
<path d="M307.446 50.2167L204.554 50.2167L178.831 50.2167C164.603 50.2167 153.108 61.7116 153.108 75.9396C153.108 90.1676 164.603 101.663 178.831 101.663L178.831 208.413C178.831 217.898 176.179 227.303 171.195 235.341L84.2192 376.737C78.8334 385.579 75.9396 395.627 75.9396 405.997C75.9396 436.784 100.939 461.783 131.726 461.783L380.274 461.783C411.061 461.783 436.06 436.784 436.06 405.997C436.06 395.708 433.167 385.579 427.781 376.737L340.805 235.422C335.821 227.303 333.169 217.978 333.169 208.493L333.169 101.663C347.397 101.663 358.892 90.1676 358.892 75.9396C358.892 61.7116 347.397 50.2167 333.169 50.2167L307.446 50.2167ZM230.277 208.413L230.277 101.663L281.723 101.663L281.723 208.413C281.723 227.464 287.028 246.113 296.996 262.35L324.728 307.446L187.272 307.446L215.004 262.35C224.972 246.113 230.277 227.464 230.277 208.413Z" fill="#000000" fill-rule="nonzero" opacity="1" stroke="none" vectornator:layerName="path"/>
</g>
</svg>
