<?xml version="1.0" encoding="UTF-8" standalone="no"?>
<!DOCTYPE svg PUBLIC "-//W3C//DTD SVG 1.1//EN" "http://www.w3.org/Graphics/SVG/1.1/DTD/svg11.dtd">
<!-- Created with Vectornator (http://vectornator.io/) -->
<svg height="100%" stroke-miterlimit="10" style="fill-rule:nonzero;clip-rule:evenodd;stroke-linecap:round;stroke-linejoin:round;" version="1.1" viewBox="0 0 640 640" width="100%" xml:space="preserve" xmlns="http://www.w3.org/2000/svg" xmlns:vectornator="http://vectornator.io" xmlns:xlink="http://www.w3.org/1999/xlink">
<defs/>
<g id="Untitled" vectornator:layerName="Untitled">
<path d="M550.175 330.366C600.233 280.308 600.233 199.242 550.175 149.185C505.877 104.886 436.062 99.1273 385.119 135.541L383.701 136.515C370.943 145.641 368.02 163.36 377.145 176.03C386.271 188.699 403.99 191.711 416.66 182.586L418.077 181.611C446.517 161.322 485.411 164.512 510.041 189.231C537.949 217.139 537.949 262.323 510.041 290.231L410.635 389.815C382.727 417.723 337.542 417.723 309.634 389.815C284.916 365.096 281.726 326.202 302.015 297.851L302.989 296.433C312.115 283.675 309.103 265.956 296.433 256.919C283.764 247.882 265.956 250.806 256.919 263.475L255.944 264.893C219.442 315.747 225.201 385.562 269.5 429.86C319.557 479.918 400.623 479.918 450.681 429.86L550.175 330.366ZM89.8246 309.634C39.7672 359.692 39.7672 440.758 89.8246 490.815C134.123 535.114 203.938 540.873 254.881 504.459L256.299 503.485C269.057 494.359 271.98 476.64 262.855 463.97C253.729 451.301 236.01 448.289 223.34 457.414L221.923 458.389C193.483 478.678 154.589 475.488 129.959 450.769C102.051 422.773 102.051 377.588 129.959 349.68L229.365 250.185C257.273 222.277 302.458 222.277 330.366 250.185C355.084 274.904 358.274 313.798 337.985 342.238L337.011 343.655C327.885 356.413 330.897 374.133 343.567 383.17C356.236 392.207 374.044 389.283 383.081 376.614L384.056 375.196C420.558 324.253 414.799 254.438 370.5 210.14C320.443 160.082 239.377 160.082 189.319 210.14L89.8246 309.634Z" fill="#000000" fill-rule="nonzero" opacity="1" stroke="none" vectornator:layerName="path"/>
</g>
</svg>
