<?xml version="1.0" encoding="UTF-8" standalone="no"?>
<!DOCTYPE svg PUBLIC "-//W3C//DTD SVG 1.1//EN" "http://www.w3.org/Graphics/SVG/1.1/DTD/svg11.dtd">
<!-- Created with Vectornator (http://vectornator.io/) -->
<svg height="100%" stroke-miterlimit="10" style="fill-rule:nonzero;clip-rule:evenodd;stroke-linecap:round;stroke-linejoin:round;" version="1.1" viewBox="0 0 512 512" width="100%" xml:space="preserve" xmlns="http://www.w3.org/2000/svg" xmlns:vectornator="http://vectornator.io" xmlns:xlink="http://www.w3.org/1999/xlink">
<defs/>
<g id="Untitled" vectornator:layerName="Untitled">
<g opacity="1" vectornator:layerName="g">
<path d="M350.132 72.4386L388.374 72.4386C422.122 72.4386 449.562 99.8777 449.562 133.626L449.562 439.562C449.562 473.31 422.122 500.749 388.374 500.749L143.626 500.749C109.877 500.749 82.4382 473.31 82.4382 439.562L82.4382 133.626C82.4382 99.8777 109.877 72.4386 143.626 72.4386L181.868 72.4386L191.045 72.4386C198.121 37.5427 229.001 11.2513 266 11.2513C302.999 11.2513 333.879 37.5427 340.954 72.4386L350.132 72.4386ZM143.626 118.329C135.212 118.329 128.329 125.212 128.329 133.626L128.329 439.562C128.329 447.976 135.212 454.859 143.626 454.859L388.374 454.859C396.788 454.859 403.671 447.976 403.671 439.562L403.671 133.626C403.671 125.212 396.788 118.329 388.374 118.329L373.077 118.329L373.077 141.274C373.077 153.99 362.847 164.22 350.132 164.22L266 164.22L181.868 164.22C169.152 164.22 158.923 153.99 158.923 141.274L158.923 118.329L143.626 118.329ZM266 110.681C278.673 110.681 288.945 100.408 288.945 87.7353C288.945 75.0626 278.673 64.7902 266 64.7902C253.327 64.7902 243.055 75.0626 243.055 87.7353C243.055 100.408 253.327 110.681 266 110.681Z" fill="#000000" fill-rule="nonzero" opacity="1" stroke="none" vectornator:layerName="path"/>
<g opacity="1" vectornator:layerName="g">
<path d="M153.105 370.982C153.105 363.209 159.385 356.929 167.158 356.929L364.379 356.929C372.152 356.929 378.432 363.209 378.432 370.982C378.432 378.755 372.152 385.033 364.379 385.033L167.158 385.033C159.385 385.033 153.105 378.755 153.105 370.982Z" fill="#000000" fill-rule="nonzero" opacity="1" stroke="none" vectornator:layerName="path"/>
<path d="M153.105 301.19C153.105 293.417 159.385 287.137 167.158 287.137L364.379 287.137C372.152 287.137 378.432 293.417 378.432 301.19C378.432 308.963 372.152 315.242 364.379 315.242L167.158 315.242C159.385 315.242 153.105 308.963 153.105 301.19Z" fill="#000000" fill-rule="nonzero" opacity="1" stroke="none" vectornator:layerName="path"/>
<path d="M153.105 230.442C153.105 222.669 159.385 216.389 167.158 216.389L364.379 216.389C372.152 216.389 378.432 222.669 378.432 230.442C378.432 238.215 372.152 244.494 364.379 244.494L167.158 244.494C159.385 244.494 153.105 238.215 153.105 230.442Z" fill="#000000" fill-rule="nonzero" opacity="1" stroke="none" vectornator:layerName="path"/>
</g>
</g>
</g>
</svg>
