<?xml version="1.0" encoding="UTF-8" standalone="no"?>
<!DOCTYPE svg PUBLIC "-//W3C//DTD SVG 1.1//EN" "http://www.w3.org/Graphics/SVG/1.1/DTD/svg11.dtd">
<!-- Created with Vectornator (http://vectornator.io/) -->
<svg height="100%" stroke-miterlimit="10" style="fill-rule:nonzero;clip-rule:evenodd;stroke-linecap:round;stroke-linejoin:round;" version="1.1" viewBox="0 0 512 512" width="100%" xml:space="preserve" xmlns="http://www.w3.org/2000/svg" xmlns:vectornator="http://vectornator.io" xmlns:xlink="http://www.w3.org/1999/xlink">
<defs/>
<g id="Untitled" vectornator:layerName="Untitled">
<g opacity="1">
<path d="M138.214 20.4285C105.731 20.4285 79.3214 46.8383 79.3214 79.3214L79.3214 432.679C79.3214 465.162 105.731 491.571 138.214 491.571L373.786 491.571C406.269 491.571 432.679 465.162 432.679 432.679L432.679 162.6C432.679 146.956 426.525 131.946 415.482 120.903L332.09 37.6248C321.046 26.5824 306.151 20.4285 290.508 20.4285L138.214 20.4285ZM138.214 64.5982L285.446 64.5982L285.446 138.214C285.446 154.502 298.605 167.661 314.893 167.661L388.509 167.661L388.509 432.679C388.509 440.776 381.884 447.402 373.786 447.402L138.214 447.402C130.116 447.402 123.491 440.776 123.491 432.679L123.491 79.3214C123.491 71.2236 130.116 64.5982 138.214 64.5982Z" fill="#000000" fill-rule="nonzero" opacity="1" stroke="none" vectornator:layerName="path"/>
<path d="M212.094 206.983C216.28 210.745 216.617 217.127 212.855 221.311L182.423 255.126C180.563 257.196 177.942 258.422 175.153 258.464C172.363 258.507 169.7 257.45 167.714 255.506L150.764 238.599C146.834 234.626 146.834 228.201 150.764 224.228C154.695 220.255 161.162 220.255 165.093 224.228L174.434 233.569L197.724 207.701C201.485 203.517 207.868 203.179 212.052 206.94L212.094 206.983Z" fill="#000000" fill-rule="nonzero" opacity="1" stroke="none" vectornator:layerName="path"/>
<path d="M212.094 274.611C216.28 278.373 216.617 284.755 212.855 288.94L182.423 322.753C180.563 324.825 177.942 326.05 175.153 326.093C172.363 326.135 169.7 325.079 167.714 323.134L150.764 306.227C146.791 302.254 146.791 295.829 150.764 291.898C154.738 287.968 161.162 287.925 165.093 291.898L174.434 301.239L197.724 275.372C201.485 271.187 207.868 270.849 212.052 274.611L212.094 274.611Z" fill="#000000" fill-rule="nonzero" opacity="1" stroke="none" vectornator:layerName="path"/>
<path d="M242.485 231.413C242.485 223.932 248.529 217.888 256.01 217.888L350.69 217.888C358.171 217.888 364.216 223.932 364.216 231.413C364.216 238.894 358.171 244.939 350.69 244.939L256.01 244.939C248.529 244.939 242.485 238.894 242.485 231.413Z" fill="#000000" fill-rule="nonzero" opacity="1" stroke="none" vectornator:layerName="path"/>
<path d="M242.485 299.041C242.485 291.56 248.529 285.515 256.01 285.515L350.69 285.515C358.171 285.515 364.216 291.56 364.216 299.041C364.216 306.523 358.171 312.568 350.69 312.568L256.01 312.568C248.529 312.568 242.485 306.523 242.485 299.041Z" fill="#000000" fill-rule="nonzero" opacity="1" stroke="none" vectornator:layerName="path"/>
<path d="M212.094 342.385C216.28 346.147 216.617 352.529 212.855 356.713L182.423 390.527C180.563 392.598 177.942 393.824 175.153 393.866C172.363 393.909 169.7 392.852 167.714 390.908L150.764 374.001C146.791 370.028 146.791 363.603 150.764 359.672C154.738 355.742 161.162 355.699 165.093 359.672L174.434 369.013L197.724 343.146C201.485 338.961 207.868 338.623 212.052 342.385L212.094 342.385Z" fill="#000000" fill-rule="nonzero" opacity="1" stroke="none" vectornator:layerName="path"/>
<path d="M242.485 366.815C242.485 359.334 248.529 353.289 256.01 353.289L350.69 353.289C358.171 353.289 364.216 359.334 364.216 366.815C364.216 374.296 358.171 380.341 350.69 380.341L256.01 380.341C248.529 380.341 242.485 374.296 242.485 366.815Z" fill="#000000" fill-rule="nonzero" opacity="1" stroke="none" vectornator:layerName="path"/>
</g>
</g>
</svg>
