<?xml version="1.0" encoding="UTF-8" standalone="no"?>
<!DOCTYPE svg PUBLIC "-//W3C//DTD SVG 1.1//EN" "http://www.w3.org/Graphics/SVG/1.1/DTD/svg11.dtd">
<!-- Created with Vectornator (http://vectornator.io/) -->
<svg height="100%" stroke-miterlimit="10" style="fill-rule:nonzero;clip-rule:evenodd;stroke-linecap:round;stroke-linejoin:round;" version="1.1" viewBox="0 0 640 640" width="100%" xml:space="preserve" xmlns="http://www.w3.org/2000/svg" xmlns:vectornator="http://vectornator.io" xmlns:xlink="http://www.w3.org/1999/xlink">
<defs/>
<g id="Untitled" vectornator:layerName="Untitled">
<g opacity="1" vectornator:layerName="use">
<clipPath id="ClipPath">
<path d="M53.0938 70.2812L53.0938 569.719L586.906 569.719L586.906 70.2812L53.0938 70.2812ZM274.423 108.524C316.636 108.524 353.455 131.415 373.173 165.584C383.994 158.323 397.071 154.071 411.095 154.071C448.823 154.071 479.46 184.68 479.46 222.407C479.46 231.091 477.839 239.418 474.92 247.035C516.493 255.435 547.796 292.256 547.796 336.32C547.796 386.647 506.999 427.415 456.672 427.415L434.773 427.415C430.797 436.287 424.895 444.537 417.415 451.895C421.803 458.854 424.418 467.034 424.418 475.87C424.418 478.311 424.197 480.685 423.824 483.021C424.332 482.99 424.821 482.843 425.338 482.843C438.769 482.843 449.669 493.744 449.669 507.175C449.669 520.605 438.769 531.476 425.338 531.476C414.49 531.476 405.415 524.341 402.282 514.533C395.532 518.554 387.713 521.002 379.286 521.002C357.976 521.003 340.165 506.203 335.43 486.344C331.054 486.699 326.612 486.938 322.107 486.938C269.364 486.938 224.736 461.936 209.41 427.415L194.722 427.415C138.13 427.415 92.2037 381.488 92.2037 324.896C92.2037 280.193 120.824 242.187 160.688 228.163C160.617 226.242 160.54 224.329 160.54 222.407C160.54 159.48 211.495 108.524 274.423 108.524Z"/>
</clipPath>
<g clip-path="url(#ClipPath)">
<path d="M272 70.2812C194.761 70.2812 131.623 129.831 125.656 205.531C81.845 228.392 53.0937 274.008 53.0938 325.156C53.0938 399.574 113.399 459.972 187.781 460.125C213.154 497.832 263.22 521.754 318.75 522.719C331.921 544.478 355.708 558.689 382.438 558.688C387.389 558.688 392.241 558.04 397 557.063C406.225 564.951 418.064 569.719 430.938 569.719C459.99 569.719 483.563 546.185 483.562 517.125C483.562 497.043 472.171 479.803 455.625 470.938C455.174 468.476 454.726 466.017 454.031 463.625C454.879 462.469 455.702 461.305 456.5 460.125L463.938 460.125C531.855 460.125 586.906 405.099 586.906 337.187C586.906 287.884 557.599 244.663 514.562 225.219C514.776 222.562 514.937 219.902 514.938 217.219C514.938 162.576 470.585 118.25 415.938 118.25C405.261 118.25 394.836 120.042 384.938 123.313C357.463 90.27 316.513 70.2813 272 70.2812ZM272 124.281C305.647 124.281 336.085 142.213 352.625 170.875C360.437 184.412 378.053 188.521 391.031 179.812C398.313 174.926 406.922 172.25 415.938 172.25C440.768 172.25 460.937 192.406 460.938 217.219C460.938 222.869 459.9 228.379 457.938 233.5C451.962 249.094 461.443 266.318 477.812 269.625C509.619 276.051 532.906 304.258 532.906 337.187C532.906 375.271 502.037 406.125 463.938 406.125L440.875 406.125C430.236 406.125 420.57 412.385 416.219 422.094C413.47 428.228 409.249 434.155 403.656 439.656C394.605 448.559 392.98 462.573 399.75 473.312C401.863 476.665 402.969 480.326 402.969 484.156C402.969 485.092 402.891 486.165 402.688 487.438C402.09 491.177 402.399 494.779 403.25 498.188C399.696 498.637 396.135 499.709 392.812 501.688C389.437 503.698 385.955 504.688 382.438 504.688C372.91 504.688 364.685 498.102 362.5 488.938C359.411 475.981 347.339 467.207 334.062 468.281C329.839 468.623 325.945 468.812 322.219 468.812C277.592 468.812 239.907 448.586 228.188 422.187C223.856 412.431 214.205 406.125 203.531 406.125L188.062 406.125C143.373 406.125 107.094 369.846 107.094 325.156C107.094 290.522 129.063 260.051 161.188 248.75C172.343 244.826 179.625 234.099 179.188 222.281C179.097 219.844 179.062 218.521 179.062 217.219C179.062 165.858 220.639 124.281 272 124.281Z" fill="#000000" fill-rule="nonzero" opacity="1" stroke="none"/>
</g>
</g>
</g>
</svg>
