<?xml version="1.0" encoding="UTF-8" standalone="no"?>
<!DOCTYPE svg PUBLIC "-//W3C//DTD SVG 1.1//EN" "http://www.w3.org/Graphics/SVG/1.1/DTD/svg11.dtd">
<!-- Created with Vectornator (http://vectornator.io/) -->
<svg height="100%" stroke-miterlimit="10" style="fill-rule:nonzero;clip-rule:evenodd;stroke-linecap:round;stroke-linejoin:round;" version="1.1" viewBox="0 0 576 576" width="100%" xml:space="preserve" xmlns="http://www.w3.org/2000/svg" xmlns:vectornator="http://vectornator.io" xmlns:xlink="http://www.w3.org/1999/xlink">
<defs/>
<g id="Untitled" vectornator:layerName="Untitled">
<path d="M372.924 486.117L415.377 486.117C425.46 486.117 434.747 480.81 439.788 472.054L538.846 302.24C543.976 293.484 543.976 282.693 538.935 273.849C533.893 265.004 524.607 259.698 514.435 259.698L160.656 259.698C150.573 259.698 141.286 265.004 136.245 273.76L75.7488 377.418L75.7488 146.488C75.7488 138.705 82.1168 132.337 89.9 132.337L193.823 132.337C197.537 132.337 201.164 133.841 203.817 136.494L227.255 159.932C245.828 178.505 271.035 188.942 297.303 188.942L401.226 188.942C409.009 188.942 415.377 195.31 415.377 203.093L415.377 231.395L457.831 231.395L457.831 203.093C457.831 171.872 432.447 146.488 401.226 146.488L297.303 146.488C282.268 146.488 267.851 140.562 257.238 129.949L233.8 106.423C223.186 95.8092 208.77 89.8834 193.734 89.8834L89.9 89.8834C58.6789 89.8834 33.2952 115.267 33.2952 146.488L33.2952 429.512C33.2952 460.733 58.6789 486.117 89.9 486.117L110.861 486.117L372.924 486.117Z" fill="#000000" fill-rule="nonzero" opacity="1" stroke="none" vectornator:layerName="path"/>
</g>
</svg>
