<?xml version="1.0" encoding="UTF-8" standalone="no"?>
<!DOCTYPE svg PUBLIC "-//W3C//DTD SVG 1.1//EN" "http://www.w3.org/Graphics/SVG/1.1/DTD/svg11.dtd">
<!-- Created with Vectornator (http://vectornator.io/) -->
<svg height="100%" stroke-miterlimit="10" style="fill-rule:nonzero;clip-rule:evenodd;stroke-linecap:round;stroke-linejoin:round;" version="1.1" viewBox="0 0 512 512" width="100%" xml:space="preserve" xmlns="http://www.w3.org/2000/svg" xmlns:vectornator="http://vectornator.io" xmlns:xlink="http://www.w3.org/1999/xlink">
<defs/>
<g id="Untitled" vectornator:layerName="Untitled">
<g opacity="1" vectornator:layerName="g">
<path d="M350.132 72.4386L388.374 72.4386C422.122 72.4386 449.562 99.8777 449.562 133.626L449.562 439.562C449.562 473.31 422.122 500.749 388.374 500.749L143.626 500.749C109.877 500.749 82.4382 473.31 82.4382 439.562L82.4382 133.626C82.4382 99.8777 109.877 72.4386 143.626 72.4386L181.868 72.4386L191.045 72.4386C198.121 37.5427 229.001 11.2513 266 11.2513C302.999 11.2513 333.879 37.5427 340.954 72.4386L350.132 72.4386ZM143.626 118.329C135.212 118.329 128.329 125.212 128.329 133.626L128.329 439.562C128.329 447.976 135.212 454.859 143.626 454.859L388.374 454.859C396.788 454.859 403.671 447.976 403.671 439.562L403.671 133.626C403.671 125.212 396.788 118.329 388.374 118.329L373.077 118.329L373.077 141.274C373.077 153.99 362.847 164.22 350.132 164.22L266 164.22L181.868 164.22C169.152 164.22 158.923 153.99 158.923 141.274L158.923 118.329L143.626 118.329ZM266 110.681C278.673 110.681 288.945 100.408 288.945 87.7353C288.945 75.0626 278.673 64.7902 266 64.7902C253.327 64.7902 243.055 75.0626 243.055 87.7353C243.055 100.408 253.327 110.681 266 110.681Z" fill="#000000" fill-rule="nonzero" opacity="1" stroke="none" vectornator:layerName="path"/>
</g>
<path d="M214.287 202.732C218.835 206.82 219.202 213.756 215.114 218.303L182.042 255.05C180.021 257.3 177.173 258.632 174.142 258.678C171.11 258.724 168.216 257.576 166.058 255.463L147.638 237.09C143.367 232.772 143.367 225.79 147.638 221.473C151.91 217.155 158.938 217.155 163.21 221.473L173.361 231.624L198.67 203.513C202.758 198.966 209.694 198.598 214.241 202.686L214.287 202.732ZM214.287 276.225C218.835 280.313 219.202 287.249 215.114 291.796L182.042 328.542C180.021 330.793 177.173 332.125 174.142 332.171C171.11 332.217 168.216 331.069 166.058 328.956L147.638 310.583C143.321 306.265 143.321 299.283 147.638 295.011C151.956 290.74 158.938 290.694 163.21 295.011L173.361 305.162L198.67 277.052C202.758 272.504 209.694 272.137 214.241 276.225L214.287 276.225ZM247.313 229.281C247.313 221.151 253.881 214.583 262.011 214.583L364.901 214.583C373.031 214.583 379.6 221.151 379.6 229.281C379.6 237.411 373.031 243.98 364.901 243.98L262.011 243.98C253.881 243.98 247.313 237.411 247.313 229.281ZM247.313 302.774C247.313 294.644 253.881 288.075 262.011 288.075L364.901 288.075C373.031 288.075 379.6 294.644 379.6 302.774C379.6 310.904 373.031 317.473 364.901 317.473L262.011 317.473C253.881 317.473 247.313 310.904 247.313 302.774ZM217.916 376.267C217.916 368.137 224.484 361.568 232.614 361.568L364.901 361.568C373.031 361.568 379.6 368.137 379.6 376.267C379.6 384.397 373.031 390.965 364.901 390.965L232.614 390.965C224.484 390.965 217.916 384.397 217.916 376.267ZM166.471 354.219C178.648 354.219 188.519 364.09 188.519 376.267C188.519 388.443 178.648 398.314 166.471 398.314C154.294 398.314 144.423 388.443 144.423 376.267C144.423 364.09 154.294 354.219 166.471 354.219Z" fill="#000000" fill-rule="nonzero" opacity="1" stroke="none" vectornator:layerName="path"/>
</g>
</svg>
