<?xml version="1.0" encoding="UTF-8" standalone="no"?>
<!DOCTYPE svg PUBLIC "-//W3C//DTD SVG 1.1//EN" "http://www.w3.org/Graphics/SVG/1.1/DTD/svg11.dtd">
<!-- Created with Vectornator (http://vectornator.io/) -->
<svg height="100%" stroke-miterlimit="10" style="fill-rule:nonzero;clip-rule:evenodd;stroke-linecap:round;stroke-linejoin:round;" version="1.1" viewBox="0 0 576 576" width="100%" xml:space="preserve" xmlns="http://www.w3.org/2000/svg" xmlns:vectornator="http://vectornator.io" xmlns:xlink="http://www.w3.org/1999/xlink">
<defs/>
<g id="Untitled" vectornator:layerName="Untitled">
<path d="M543.633 185.988C537.832 164.146 520.74 146.943 499.038 141.106C459.703 130.497 301.973 130.497 301.973 130.497C301.973 130.497 144.244 130.497 104.908 141.106C83.2062 146.944 66.1145 164.146 60.3135 185.988C49.7735 225.58 49.7735 308.183 49.7735 308.183C49.7735 308.183 49.7735 390.786 60.3135 430.378C66.1145 452.22 83.2062 468.706 104.908 474.544C144.244 485.153 301.973 485.153 301.973 485.153C301.973 485.153 459.702 485.153 499.038 474.544C520.74 468.706 537.832 452.22 543.633 430.378C554.172 390.786 554.172 308.183 554.172 308.183C554.172 308.183 554.172 225.58 543.633 185.988ZM250.387 383.181L250.387 233.185L382.217 308.185L250.387 383.181Z" fill="#000000" fill-rule="nonzero" opacity="1" stroke="none" vectornator:layerName="path"/>
</g>
</svg>
