<?xml version="1.0" encoding="UTF-8" standalone="no"?>
<!DOCTYPE svg PUBLIC "-//W3C//DTD SVG 1.1//EN" "http://www.w3.org/Graphics/SVG/1.1/DTD/svg11.dtd">
<!-- Created with Vectornator (http://vectornator.io/) -->
<svg height="100%" stroke-miterlimit="10" style="fill-rule:nonzero;clip-rule:evenodd;stroke-linecap:round;stroke-linejoin:round;" version="1.1" viewBox="0 0 24 24" width="100%" xml:space="preserve" xmlns="http://www.w3.org/2000/svg" xmlns:vectornator="http://vectornator.io" xmlns:xlink="http://www.w3.org/1999/xlink">
<defs/>
<g id="Untitled" vectornator:layerName="Untitled">
<g opacity="1">
<g opacity="1">
<path d="M1.85392 0.717338L14.1649 0.717338L14.1649 2.86669L1.85392 2.86669L1.85392 0.717338Z" fill="#000000" fill-rule="nonzero" opacity="1" stroke="none"/>
<path d="M1.81982 0.717338L14.0601 0.717338L14.0601 7.49114L10.6917 7.50178L10.6497 10.1329L1.81982 10.1329L1.81982 0.717338Z" fill="none" opacity="1" stroke="#000000" stroke-linecap="butt" stroke-linejoin="miter" stroke-width="1.29907"/>
</g>
<g opacity="1">
<path d="M10.7003 6.84818L21.9486 6.84818L21.9486 8.99757L10.7003 8.99757L10.7003 6.84818Z" fill="#000000" fill-rule="nonzero" opacity="1" stroke="none"/>
<path d="M10.7003 6.84818L22.1802 6.84818L22.1802 16.2638L17.9691 16.2638L17.9434 14.0623L10.7003 14.029L10.7003 6.84818Z" fill="none" opacity="1" stroke="#000000" stroke-linecap="butt" stroke-linejoin="miter" stroke-width="1.29907"/>
</g>
<g opacity="1">
<path d="M6.42855 13.867L17.6771 13.867L17.6771 16.0165L6.42855 16.0165L6.42855 13.867Z" fill="#000000" fill-rule="nonzero" opacity="1" stroke="none"/>
<path d="M6.42855 13.867L17.9085 13.867L17.9085 23.2827L6.42855 23.2827L6.42855 13.867Z" fill="none" opacity="1" stroke="#000000" stroke-linecap="butt" stroke-linejoin="miter" stroke-width="1.29907"/>
</g>
</g>
</g>
</svg>
