<?xml version="1.0" encoding="UTF-8" standalone="no"?>
<!DOCTYPE svg PUBLIC "-//W3C//DTD SVG 1.1//EN" "http://www.w3.org/Graphics/SVG/1.1/DTD/svg11.dtd">
<!-- Created with Vectornator (http://vectornator.io/) -->
<svg height="100%" stroke-miterlimit="10" style="fill-rule:nonzero;clip-rule:evenodd;stroke-linecap:round;stroke-linejoin:round;" version="1.1" viewBox="0 0 32 32" width="100%" xml:space="preserve" xmlns="http://www.w3.org/2000/svg" xmlns:vectornator="http://vectornator.io" xmlns:xlink="http://www.w3.org/1999/xlink">
<defs/>
<g id="Untitled" vectornator:layerName="Untitled">
<path d="M16 0C7.16344 0 0 7.16344 0 16C0 24.8366 7.16344 32 16 32C24.8366 32 32 24.8366 32 16C32 7.16344 24.8366 0 16 0ZM11.7812 7.9375C12.7937 7.75 13.7563 7.94375 14.4062 8.59375C15.2063 9.29375 15.3 10.3937 15 11.5938L15.5938 12.4062C17.5937 11.4063 19.7063 11.4875 20.9062 12.6875C22.5062 14.2875 22.0938 17.2875 20.0938 19.6875L23.0938 23.8125L18.9062 20.9062C16.5062 22.9063 13.5063 23.2875 11.9062 21.6875C10.7063 20.4875 10.5937 18.4063 11.5938 16.4062L10.8125 15.8125C9.7125 16.1125 8.5125 15.8875 7.8125 15.1875C6.6125 13.8875 7.0125 11.3937 8.8125 9.59375C9.7125 8.69375 10.7688 8.125 11.7812 7.9375Z" fill="#000000" fill-rule="nonzero" opacity="1" stroke="none"/>
</g>
</svg>
