<?xml version="1.0" encoding="UTF-8"?>
<svg width="20px" height="20px" viewBox="0 0 20 20" version="1.1" xmlns="http://www.w3.org/2000/svg" xmlns:xlink="http://www.w3.org/1999/xlink">
    <title>icon(4)</title>
    <g id="Page-1" stroke="none" stroke-width="1" fill="none" fill-rule="evenodd">
        <g id="icon(4)">
            <rect id="Rectangle" fill="#FFFFFF" fill-rule="nonzero" x="16.0059143" y="7.42555992" width="2.36788333" height="1.10501222"></rect>
            <circle id="Oval" fill="#647684" fill-rule="nonzero" cx="10.086206" cy="19.0873853" r="1"></circle>
            <circle id="Oval" fill="#647684" fill-rule="nonzero" cx="11.7239919" cy="19.0873853" r="1"></circle>
            <circle id="Oval" fill="#1F2E3A" fill-rule="nonzero" cx="8.49775089" cy="19.0873853" r="1"></circle>
            <path d="M3.65345625,8.53057214 C3.71265333,8.71802957 3.77185041,8.905487 3.82118132,9.09294443 C3.81131513,9.09294443 3.81131513,9.09294443 3.80144895,9.09294443 C3.68305479,9.06334589 3.56466062,9.04361352 3.44626645,9.01401498 C3.30813993,8.98441644 3.16014722,8.9548179 3.02202069,8.91535318 C2.94309125,8.89562082 2.87402798,8.88575464 2.79509854,8.86602228 C2.78523236,8.86602228 2.77536618,8.86602228 2.7655,8.86602228 C2.72603528,8.86602228 2.68657055,8.87588846 2.63723965,8.87588846 C2.56817639,8.87588846 2.49911312,8.87588846 2.43004986,8.87588846 C2.39058514,8.87588846 2.35112042,8.86602228 2.31165569,8.86602228 C2.25245861,8.85615609 2.19326153,8.84628991 2.13406444,8.83642373 C1.99593792,8.80682519 1.86767757,8.76736047 1.73941722,8.71802957 C1.54209361,8.62923394 1.35463618,8.51083978 1.19677729,8.36284707 C1.06851695,8.23458672 0.95998896,8.08659401 0.881059516,7.91886894 C0.831728613,7.80047478 0.792263891,7.68208061 0.77253153,7.56368644 C0.76266535,7.47489082 0.752799169,7.38609519 0.76266535,7.28743339 C0.782397711,7.04077888 0.861327155,6.8237229 1.00931986,6.62639929 C1.11784785,6.47840659 1.25597438,6.35014624 1.40396708,6.25148443 C1.55195979,6.15282263 1.70981868,6.08375936 1.87754375,6.03442846 C1.96633937,6.00482992 2.055135,5.98509756 2.14393062,5.97523138 C2.21299389,5.9653652 2.28205715,5.95549902 2.35112042,5.95549902 C2.39058514,5.95549902 2.43004986,5.95549902 2.46951458,5.95549902 C2.52871167,5.95549902 2.58790875,5.95549902 2.64710583,5.9653652 C2.72603528,5.97523138 2.79509854,5.98509756 2.87402798,5.99496374 C3.16014722,6.05416082 3.42653409,6.17255499 3.65345625,6.35014624 C3.80144895,6.45867422 3.91984312,6.59680075 4.01850493,6.75465964 C4.09743437,6.88291999 4.16649763,7.0309127 4.19609618,7.1789054 C4.21582854,7.24796867 4.21582854,7.31703193 4.22569472,7.38609519 C4.22569472,7.4354261 4.22569472,7.484757 4.22569472,7.5340879 C4.21582854,7.60315117 4.20596236,7.67221443 4.18622999,7.74127769 C4.12703291,7.97806603 4.00863875,8.18525582 3.84091368,8.36284707 C3.78171659,8.42204415 3.72251951,8.48124123 3.65345625,8.52070596 C3.66332243,8.52070596 3.65345625,8.52070596 3.65345625,8.53057214 C3.65345625,8.53057214 3.65345625,8.53057214 3.65345625,8.53057214 Z" id="Path" fill="#61C385" fill-rule="nonzero"></path>
            <path d="M10.9346975,2.49246965 C10.8952328,2.33461076 10.8360357,2.18661805 10.7472401,2.04849153 C10.6485782,1.88076646 10.5104517,1.74263993 10.362459,1.62424576 C10.1158045,1.43678833 9.83955144,1.31839417 9.54356602,1.2493309 C9.46463658,1.22959854 9.38570714,1.21973236 9.30677769,1.20986618 C9.24758061,1.2 9.17851735,1.2 9.11932026,1.2 C9.07985554,1.2 9.04039082,1.2 8.99105991,1.2 C8.92199665,1.2 8.85293339,1.20986618 8.77400394,1.21973236 C8.68520832,1.22959854 8.58654651,1.2493309 8.49775089,1.27892944 C8.32015964,1.32826035 8.15243457,1.40718979 7.99457568,1.5058516 C7.82685061,1.61437958 7.68872408,1.74263993 7.5801961,1.90049882 C7.43220339,2.10768861 7.34340777,2.34447694 7.3236754,2.60099764 C7.31380922,2.69965944 7.3236754,2.78845507 7.33354159,2.88711687 C7.35327395,3.01537722 7.39273867,3.14363757 7.44206957,3.26203173 C7.52099902,3.43962298 7.63939318,3.58761569 7.77751971,3.72574222 C7.94524478,3.88360111 8.13270221,4.00199527 8.339892,4.10065708 C8.47801853,4.15985416 8.61614505,4.19931888 8.75427158,4.22891742 C8.81346867,4.2387836 8.87266575,4.24864979 8.94172901,4.25851597 C8.98119373,4.25851597 9.02065846,4.26838215 9.06998936,4.26838215 C9.13905262,4.26838215 9.21798207,4.26838215 9.28704533,4.26838215 C9.32651005,4.26838215 9.37584096,4.25851597 9.41530568,4.25851597 C9.42517186,4.25851597 9.43503804,4.25851597 9.44490422,4.25851597 C9.52383366,4.27824833 9.60276311,4.29798069 9.68169255,4.30784687 C9.82968526,4.33744541 9.97767797,4.37691013 10.1256707,4.40650867 C10.2440648,4.43610722 10.3723252,4.46570576 10.4907194,4.48543812 C10.5005855,4.48543812 10.5005855,4.48543812 10.5104517,4.48543812 C10.4512546,4.28811451 10.3920576,4.0907909 10.3328605,3.90333347 C10.3328605,3.90333347 10.3328605,3.90333347 10.3328605,3.89346729 C10.3328605,3.89346729 10.3427266,3.88360111 10.3427266,3.88360111 C10.4216561,3.8342702 10.4808532,3.77507312 10.5400503,3.71587604 C10.7176415,3.52841861 10.8360357,3.31136263 10.8952328,3.06470812 C10.9050989,3.03510958 10.9149651,3.00551104 10.9149651,2.96604632 C10.9149651,2.96604632 10.9149651,2.95618014 10.9149651,2.95618014 C10.9149651,2.95618014 10.9149651,2.94631395 10.9149651,2.94631395 C10.9248313,2.91671541 10.9248313,2.87725069 10.9248313,2.84765215 C10.9248313,2.80818743 10.9248313,2.7687227 10.9248313,2.72925798 C10.9248313,2.70952562 10.9248313,2.69965944 10.9248313,2.67992708 C10.964296,2.63059618 10.9544298,2.56153291 10.9346975,2.49246965 Z" id="Path" fill="#3497DA" fill-rule="nonzero"></path>
            <path d="M3.41666791,7.09997596 L2.56817639,7.94846749 L2.4103175,8.10632637 C2.39058514,8.12605873 2.3609866,8.13592492 2.33138805,8.13592492 C2.30178951,8.13592492 2.27219097,8.12605873 2.25245861,8.10632637 L2.09459972,7.94846749 L1.67035396,7.52422172 C1.6506216,7.50448936 1.64075542,7.47489082 1.64075542,7.44529228 C1.64075542,7.41569374 1.6506216,7.38609519 1.67035396,7.36636283 L1.82821285,7.20850395 C1.84794521,7.18877158 1.87754375,7.1789054 1.90714229,7.1789054 C1.93674083,7.1789054 1.96633937,7.18877158 1.98607174,7.20850395 L2.33138805,7.55382026 L3.10095014,6.78425818 C3.1206825,6.76452582 3.15028104,6.75465964 3.17987958,6.75465964 C3.20947812,6.75465964 3.23907666,6.76452582 3.25880902,6.78425818 L3.41666791,6.94211707 C3.43640027,6.96184943 3.44626645,6.99144797 3.44626645,7.02104652 C3.45613264,7.05064506 3.44626645,7.0802436 3.41666791,7.09997596 Z" id="Path" fill="#FFFFFF" fill-rule="nonzero"></path>
            <path d="M9.48436894,2.86738451 C9.4054395,2.91671541 9.35610859,3.00551104 9.35610859,3.04497576 C9.35610859,3.0745743 9.33637623,3.10417284 9.30677769,3.10417284 L8.99105991,3.10417284 C8.96146137,3.10417284 8.94172901,3.05484194 8.94172901,3.03510958 L8.94172901,2.9759125 C8.94172901,2.81805361 9.0995879,2.67992708 9.21798207,2.63059618 C9.31664387,2.58126527 9.35610859,2.54180055 9.35610859,2.45300493 C9.35610859,2.38394166 9.25744679,2.3148784 9.15878498,2.3148784 C9.0995879,2.3148784 9.050257,2.33461076 9.02065846,2.35434312 C8.99105991,2.37407548 8.96146137,2.40367403 8.88253193,2.50233583 C8.87266575,2.51220201 8.85293339,2.52206819 8.84306721,2.52206819 C8.83320103,2.52206819 8.82333485,2.52206819 8.81346867,2.51220201 L8.59641269,2.34447694 C8.57668033,2.32474458 8.56681415,2.29514604 8.58654651,2.27541368 C8.72467304,2.03862535 8.92199665,1.93009736 9.19824971,1.93009736 C9.47450276,1.93009736 9.79022054,2.15701951 9.79022054,2.45300493 C9.77048818,2.69965944 9.60276311,2.79832125 9.48436894,2.86738451 Z M9.35610859,3.55801715 C9.35610859,3.58761569 9.33637623,3.60734805 9.30677769,3.60734805 L8.99105991,3.60734805 C8.96146137,3.60734805 8.94172901,3.58761569 8.94172901,3.55801715 L8.94172901,3.24229937 C8.94172901,3.21270083 8.96146137,3.19296847 8.99105991,3.19296847 L9.30677769,3.19296847 C9.33637623,3.19296847 9.35610859,3.21270083 9.35610859,3.24229937 L9.35610859,3.55801715 Z" id="Shape" fill="#FFFFFF" fill-rule="nonzero"></path>
            <path d="M18.1863402,9.12254297 C18.2455373,9.3100004 18.2948682,9.48759165 18.3540652,9.67504908 C18.3441991,9.67504908 18.3441991,9.67504908 18.3343329,9.67504908 C18.2159387,9.64545054 18.0975445,9.62571818 17.9890166,9.59611963 C17.85089,9.56652109 17.7127635,9.53692255 17.5647708,9.50732401 C17.4957075,9.48759165 17.4167781,9.47772547 17.3477148,9.45799311 C17.3378486,9.45799311 17.3279825,9.45799311 17.3181163,9.45799311 C17.2786516,9.45799311 17.2391868,9.46785929 17.1898559,9.46785929 C17.1207927,9.46785929 17.0517294,9.46785929 16.9826661,9.46785929 C16.9432014,9.46785929 16.9037367,9.45799311 16.864272,9.45799311 C16.8050749,9.44812693 16.7458778,9.43826075 16.6866807,9.42839457 C16.5485542,9.39879602 16.4202939,9.3593313 16.2920335,9.3100004 C16.0947099,9.22120477 15.9171186,9.11267679 15.7592598,8.96468408 C15.6309994,8.83642373 15.5224714,8.69829721 15.443542,8.53057214 C15.3942111,8.42204415 15.3547464,8.30364998 15.335014,8.17538964 C15.3251478,8.08659401 15.3152816,7.99779839 15.3251478,7.90900276 C15.3448802,7.66234825 15.4238096,7.44529228 15.5718023,7.24796867 C15.6803303,7.09997596 15.8085907,6.97171561 15.9664496,6.87305381 C16.1144423,6.774392 16.2723011,6.70532874 16.4400262,6.65599784 C16.5288218,6.62639929 16.6077513,6.61653311 16.6965469,6.59680075 C16.7656102,6.58693457 16.8346734,6.57706839 16.8938705,6.57706839 C16.9333352,6.57706839 16.9728,6.57706839 17.0122647,6.57706839 C17.0714618,6.57706839 17.1306589,6.57706839 17.1898559,6.58693457 C17.2687854,6.59680075 17.3378486,6.60666693 17.4167781,6.61653311 C17.7028973,6.6757302 17.959418,6.79412436 18.1863402,6.97171561 C18.3343329,7.0802436 18.452727,7.21837013 18.5513889,7.36636283 C18.6303183,7.49462318 18.6895154,7.63274971 18.7289801,7.78074242 C18.7487125,7.84980568 18.7487125,7.91886894 18.7585786,7.98793221 C18.7585786,8.03726311 18.7585786,8.08659401 18.7585786,8.13592492 C18.7487125,8.20498818 18.7388463,8.27405144 18.7191139,8.34311471 C18.6599168,8.57003686 18.5415227,8.77722665 18.3836638,8.9548179 C18.3244667,9.01401498 18.2652696,9.07321207 18.1962064,9.11267679 C18.1962064,9.11267679 18.1962064,9.11267679 18.1863402,9.12254297 C18.1863402,9.11267679 18.1863402,9.11267679 18.1863402,9.12254297 Z M16.0947099,7.96819985 C16.0947099,7.99779839 16.0947099,8.02739693 16.1045761,8.05699547 C16.1243084,8.13592492 16.1637732,8.21485436 16.2229702,8.26418526 C16.2821673,8.31351617 16.3413644,8.34311471 16.4202939,8.34311471 C16.4893571,8.34311471 16.5485542,8.32338235 16.5978851,8.2937838 C16.647216,8.25431908 16.6866807,8.21485436 16.7162793,8.15565728 C16.7458778,8.08659401 16.755744,8.01753075 16.755744,7.9386013 C16.7458778,7.86953804 16.7261455,7.81034096 16.6866807,7.75114387 C16.647216,7.69194679 16.5880189,7.64261589 16.5189557,7.61301735 C16.4794909,7.60315117 16.4400262,7.59328499 16.4005615,7.59328499 C16.3610968,7.59328499 16.3216321,7.60315117 16.2920335,7.61301735 C16.2328364,7.64261589 16.1835055,7.68208061 16.1440408,7.75114387 C16.1045761,7.83007332 16.0848437,7.89913658 16.0947099,7.96819985 Z M17.0122647,7.97806603 C17.0122647,7.99779839 17.0122647,8.02739693 17.0221309,8.04712929 C17.0319971,8.11619255 17.0517294,8.17538964 17.0911941,8.22472054 C17.1207927,8.26418526 17.1503912,8.2937838 17.1898559,8.31351617 C17.2391868,8.34311471 17.2885177,8.35298089 17.3477148,8.34311471 C17.4069119,8.33324853 17.4463766,8.31351617 17.4858414,8.27405144 C17.5253061,8.23458672 17.5549046,8.195122 17.5647708,8.1457911 C17.5943693,8.07672783 17.5943693,7.99779839 17.5845032,7.92873512 C17.574637,7.86953804 17.5549046,7.82020714 17.5154399,7.78074242 C17.4957075,7.75114387 17.466109,7.72154533 17.4365105,7.70181297 C17.3871795,7.67221443 17.3477148,7.66234825 17.2885177,7.66234825 C17.2293207,7.66234825 17.1701236,7.68208061 17.1207927,7.72154533 C17.0911941,7.75114387 17.0615956,7.78074242 17.0418632,7.82020714 C17.0221309,7.86953804 17.0122647,7.92873512 17.0122647,7.97806603 Z M17.8015591,8.00766457 C17.8015591,8.03726311 17.8015591,8.06686165 17.8114253,8.09646019 C17.8212915,8.15565728 17.85089,8.20498818 17.8903548,8.25431908 C17.9100871,8.28391762 17.9396857,8.30364998 17.9791504,8.32338235 C18.0186151,8.34311471 18.067946,8.35298089 18.1074107,8.34311471 C18.1468755,8.33324853 18.1863402,8.31351617 18.2258049,8.28391762 C18.2554034,8.25431908 18.2751358,8.22472054 18.2948682,8.18525582 C18.3343329,8.09646019 18.3343329,8.00766457 18.3146005,7.91886894 C18.2948682,7.85967186 18.2751358,7.81034096 18.2356711,7.77087624 C18.1863402,7.72154533 18.1370093,7.70181297 18.067946,7.70181297 C18.0087489,7.70181297 17.9692842,7.72154533 17.9199533,7.75114387 C17.8903548,7.77087624 17.8706224,7.80047478 17.8607562,7.83007332 C17.8114253,7.87940422 17.8015591,7.9386013 17.8015591,8.00766457 Z" id="Shape" fill="#EA964D" fill-rule="nonzero"></path>
            <path d="M2.91376034,10.217689 C2.91376034,9.99076686 2.92376034,9.75397852 2.94376034,9.52705637 C2.94376034,9.52705637 2.94376034,9.52705637 2.94376034,9.52705637 C2.92376034,9.75397852 2.91376034,9.98090068 2.91376034,10.217689 C2.91376034,10.2078228 2.91376034,10.2571537 2.91376034,10.2374214 C2.91376034,10.5038082 2.94376034,10.7603289 2.97376034,11.0069835 C2.94376034,10.7504628 2.91376034,10.5038082 2.91376034,10.2374214 C2.91376034,10.2275552 2.91376034,10.217689 2.91376034,10.217689 Z" id="Path"></path>
            <path d="M2.9141618,10.2181574 C2.9141618,10.2181574 2.9141618,10.2281574 2.9141618,10.2481574 C2.9141618,10.2381574 2.9141618,10.2281574 2.9141618,10.2181574 Z" id="Path" fill="#294159" fill-rule="nonzero"></path>
            <path d="M4.74860229,6.53760367 C5.33070694,5.50165471 6.1594661,4.69262791 7.14608416,4.1894527 C7.1756827,4.17958652 7.20528124,4.15985416 7.23487978,4.14998798 C6.81063402,4.22891742 6.40612062,4.35717777 6.01147339,4.55450138 C5.34057312,4.88995152 4.77820083,5.37339437 4.32435652,5.93576666 C4.36382124,5.97523138 4.40328597,6.0146961 4.44275069,6.064027 C4.57101104,6.22188589 4.66967284,6.3698786 4.74860229,6.53760367 Z" id="Path" fill="#294159" fill-rule="nonzero"></path>
            <path d="M3.20947812,12.1613266 C3.39693555,12.7927621 3.68305479,13.4044653 4.05796965,13.9471053 C4.76833465,14.973188 5.82401596,15.792081 7.05728853,16.0683341 C7.11648561,16.0782002 7.1756827,16.0880664 7.23487978,16.0979326 C6.38638825,15.6934192 5.61682617,15.0323851 5.03472152,14.1838936 C4.6400743,13.6116551 4.3342227,12.9802196 4.12703291,12.2895869 C4.02837111,11.964003 3.95930784,11.638419 3.90997694,11.3227012 C3.86064604,10.9773849 3.81131513,10.6320686 3.81131513,10.2571537 C3.81131513,10.0795625 3.82118132,9.89210505 3.8310475,9.7145138 C3.70278715,9.69478144 3.58439298,9.6651829 3.45613264,9.64545054 C3.28840757,9.615852 3.11081632,9.57638727 2.94309125,9.54678873 C2.92335889,9.77371088 2.91349271,10.0104992 2.91349271,10.2374214 C2.91349271,10.2275552 2.91349271,10.2867523 2.91349271,10.2670199 C2.91349271,10.5334068 2.94309125,10.7800613 2.97268979,11.036582 C2.98255597,11.1155114 2.99242215,11.1944409 3.01215451,11.2733703 C3.05161923,11.5594896 3.1206825,11.8653412 3.20947812,12.1613266 Z" id="Path" fill="#294159" fill-rule="nonzero"></path>
            <path d="M2.9141618,10.2181773 C2.9141618,10.2281773 2.9141618,10.2381773 2.9141618,10.2481773 C2.9141618,10.2581773 2.9141618,10.1981773 2.9141618,10.2181773 Z" id="Path" fill="#294159" fill-rule="nonzero"></path>
            <path d="M2.9141618,10.2382912 C2.9141618,10.2282912 2.9141618,10.2182912 2.9141618,10.2082912 C2.9141618,10.2182912 2.9141618,10.2182912 2.9141618,10.2382912 Z" id="Path" fill="#97B9F5" fill-rule="nonzero"></path>
            <path d="M2.9141618,10.2082713 C2.9141618,10.2182713 2.9141618,10.2282713 2.9141618,10.2382713 C2.9141618,10.2582713 2.9141618,10.1982713 2.9141618,10.2082713 Z" id="Path" fill="#97B9F5" fill-rule="nonzero"></path>
            <path d="M4.92619353,7.09010978 C4.93605972,7.15917304 4.9459259,7.21837013 4.9459259,7.28743339 C4.9459259,7.29729957 4.9459259,7.29729957 4.9459259,7.30716575 C4.9459259,7.37622901 4.9459259,7.4354261 4.9459259,7.50448936 C4.9459259,7.51435554 4.9459259,7.52422172 4.9459259,7.52422172 C4.9459259,7.54395408 4.9459259,7.57355263 4.9459259,7.59328499 C4.93605972,7.67221443 4.92619353,7.74127769 4.90646117,7.82020714 C4.86699645,7.99779839 4.79793319,8.17538964 4.70913756,8.34311471 C4.62034194,8.52070596 4.50194777,8.67856484 4.36382124,8.82655755 C4.36382124,8.83642373 4.36382124,8.84628991 4.35395506,8.85615609 C4.35395506,8.85615609 4.35395506,8.85615609 4.35395506,8.85615609 C4.40328597,9.03374734 4.46248305,9.21133859 4.51181395,9.38892984 C4.55127867,9.53692255 4.60060958,9.68491526 4.6400743,9.83290797 C4.6400743,9.84277415 4.6400743,9.85264033 4.6400743,9.85264033 C4.6400743,9.85264033 4.63020812,9.85264033 4.63020812,9.85264033 C4.63020812,9.85264033 4.62034194,9.85264033 4.62034194,9.85264033 C4.5907434,9.84277415 4.56114486,9.84277415 4.53154631,9.83290797 C4.43288451,9.81317561 4.32435652,9.79344325 4.22569472,9.77371088 C4.21582854,9.92170359 4.21582854,10.0696963 4.21582854,10.2078228 C4.21582854,10.1979566 4.21582854,10.2571537 4.21582854,10.2374214 C4.21582854,10.5827377 4.26515944,10.9083216 4.31449034,11.2437718 C4.36382124,11.5496234 4.43288451,11.855475 4.52168013,12.1514604 C4.70913756,12.7828959 4.9952568,13.3945991 5.37017166,13.9372391 C6.08053666,14.9633218 7.13621797,15.7822148 8.36949054,16.0584679 C8.45828617,16.0782002 8.54708179,16.0979326 8.63587742,16.1077988 C8.63587742,16.1077988 8.63587742,16.1077988 8.63587742,16.1077988 C7.80711825,15.6934192 7.06715471,15.0422513 6.49491624,14.2036259 C6.10026902,13.6313875 5.79441742,12.9900857 5.58722763,12.2895869 C5.48856583,11.964003 5.40963638,11.638419 5.37017166,11.312835 C5.32084076,10.9675187 5.27150985,10.6123362 5.27150985,10.2374214 C5.27150985,8.99428262 5.55762909,7.7906086 6.09040284,6.73492728 C6.54424714,5.83710485 7.1756827,5.10700749 7.9353786,4.56436756 C7.84658297,4.51503666 7.76765353,4.45583958 7.68872408,4.39664249 C7.57032992,4.4459734 7.45193575,4.4953043 7.34340777,4.55450138 C6.23839555,5.11687367 5.43923492,6.02456228 4.92619353,7.09010978 Z" id="Path" fill="#294159" fill-rule="nonzero"></path>
            <path d="M7.37300631,4.13099163 C7.36314013,4.12099163 7.35327395,4.11099163 7.34340777,4.10099163 C7.30394304,4.12099163 7.2743445,4.13099163 7.23487978,4.15099163 C7.28421068,4.15099163 7.33354159,4.14099163 7.37300631,4.13099163 Z" id="Path" fill="#97B9F5" fill-rule="nonzero"></path>
            <path d="M4.0290402,10.2181574 C4.0290402,10.2181574 4.0290402,10.2281574 4.0290402,10.2481574 C4.0290402,10.2381574 4.0290402,10.2281574 4.0290402,10.2181574 Z" id="Path" fill="#97B9F5" fill-rule="nonzero"></path>
            <path d="M4.34469107,8.83702592 C4.34469107,8.84702592 4.34469107,8.84702592 4.34469107,8.85702592 C4.34469107,8.84702592 4.34469107,8.83702592 4.35469107,8.82702592 C4.35469107,8.82702592 4.35469107,8.82702592 4.35469107,8.82702592 C4.35469107,8.82702592 4.35469107,8.83702592 4.34469107,8.83702592 Z" id="Path" fill="#97B9F5" fill-rule="nonzero"></path>
            <path d="M4.0290402,10.2181773 C4.0290402,10.2281773 4.0290402,10.2381773 4.0290402,10.2481773 C4.0290402,10.2581773 4.0290402,10.1981773 4.0290402,10.2181773 Z" id="Path" fill="#97B9F5" fill-rule="nonzero"></path>
            <path d="M4.22636381,10.2083581 C4.22636381,10.2183581 4.22636381,10.2183581 4.22636381,10.2083581 C4.22636381,10.2183581 4.22636381,10.2183581 4.22636381,10.2183581 C4.22636381,10.2183581 4.22636381,10.2283581 4.22636381,10.2283581 C4.22636381,10.2283581 4.22636381,10.2183581 4.22636381,10.2083581 Z" id="Path" fill="#97B9F5" fill-rule="nonzero"></path>
            <path d="M4.22636381,10.2084417 C4.22636381,10.2184417 4.22636381,10.2184417 4.22636381,10.2084417 C4.22636381,10.2184417 4.22636381,10.2184417 4.22636381,10.2084417 C4.22636381,10.2084417 4.22636381,10.2084417 4.22636381,10.2084417 Z" id="Path" fill="#97B9F5" fill-rule="nonzero"></path>
            <path d="M4.22636381,10.2281574 C4.22636381,10.2281574 4.22636381,10.2381574 4.22636381,10.2381574 L4.22636381,10.2381574 C4.22636381,10.2381574 4.22636381,10.2281574 4.22636381,10.2281574 Z" id="Path" fill="#97B9F5" fill-rule="nonzero"></path>
            <path d="M4.22636381,10.2382713 C4.22636381,10.2382713 4.22636381,10.2382713 4.22636381,10.2382713 C4.22636381,10.2582713 4.22636381,10.1982713 4.22636381,10.2082713 C4.22636381,10.2082713 4.22636381,10.2082713 4.22636381,10.2082713 C4.22636381,10.2182713 4.22636381,10.2282713 4.22636381,10.2382713 Z" id="Path" fill="#97B9F5" fill-rule="nonzero"></path>
            <path d="M15.9763157,9.7549989 C15.936851,9.7349989 15.8875201,9.7149989 15.8480554,9.6949989 C15.8480554,9.6949989 15.8480554,9.6949989 15.8480554,9.7049989 C15.8875201,9.7249989 15.936851,9.7449989 15.9763157,9.7549989 C15.9763157,9.7649989 15.9763157,9.7649989 15.9763157,9.7549989 Z" id="Path" fill="#405F84" fill-rule="nonzero"></path>
            <path d="M14.9995639,7.15917304 C15.0291624,7.09997596 15.0686271,7.04077888 15.1080918,6.98158179 C15.1080918,6.98158179 15.1080918,6.98158179 15.1080918,6.97171561 C15.0686271,7.0309127 15.0291624,7.09010978 14.9995639,7.15917304 Z" id="Path"></path>
            <path d="M14.8813704,7.42555992 C14.8813704,7.42555992 14.8813704,7.4354261 14.8813704,7.42555992 C14.9013704,7.37622901 14.9213704,7.30716575 14.9513704,7.24796867 C14.9413704,7.27756721 14.9313704,7.29729957 14.9213704,7.32689811 C14.9113704,7.36636283 14.9013704,7.39596138 14.8813704,7.42555992 Z" id="Path" fill="#405F84" fill-rule="nonzero"></path>
            <path d="M14.9505675,7.25917304 C14.9605675,7.22917304 14.9805675,7.18917304 15.0005675,7.15917304 C15.0005675,7.16917304 14.9905675,7.16917304 14.9905675,7.17917304 C14.9805675,7.19917304 14.9705675,7.22917304 14.9505675,7.25917304 Z" id="Path" fill="#405F84" fill-rule="nonzero"></path>
            <path d="M15.8480554,9.70464762 C15.7296612,9.63558436 15.6211332,9.56652109 15.5126052,9.47772547 C15.3251478,9.31986658 15.1672889,9.14227533 15.0390286,8.92521936 C14.9009021,8.68843103 14.8121064,8.42204415 14.7923741,8.1457911 C14.7923741,8.12605873 14.7923741,8.10632637 14.7923741,8.08659401 C14.7923741,8.07672783 14.7923741,8.06686165 14.7825079,8.05699547 L14.7825079,7.92873512 C14.7923741,7.91886894 14.7923741,7.90900276 14.7923741,7.89913658 C14.7923741,7.82020714 14.8022402,7.74127769 14.8219726,7.66234825 C14.8318388,7.62288353 14.841705,7.58341881 14.8515712,7.54395408 C14.8614373,7.50448936 14.8713035,7.46502464 14.8811697,7.4354261 C14.8811697,7.4354261 14.8811697,7.4354261 14.8811697,7.4354261 C14.8811697,7.4354261 14.8811697,7.42555992 14.8811697,7.42555992 C14.8910359,7.39596138 14.9009021,7.36636283 14.9206344,7.32689811 C14.9305006,7.29729957 14.9403668,7.27756721 14.950233,7.24796867 C14.9600991,7.21837013 14.9798315,7.18877158 14.9896977,7.16903922 C14.9896977,7.15917304 14.9995639,7.15917304 14.9995639,7.14930686 C15.0291624,7.09010978 15.0686271,7.0309127 15.0982257,6.97171561 C14.9798315,6.73492728 14.841705,6.50800513 14.6937123,6.30081534 C14.0326782,5.353662 13.1249896,4.66302937 12.1285053,4.34731159 C11.7930552,4.2387836 11.4477389,4.17958652 11.1024225,4.15985416 C11.0826902,4.17958652 11.0629578,4.20918506 11.0432255,4.22891742 C11.0432255,4.22891742 11.0333593,4.2387836 11.0333593,4.2387836 C11.0333593,4.24864979 11.0333593,4.24864979 11.0432255,4.25851597 C11.0530916,4.27824833 11.0530916,4.29798069 11.0629578,4.31771305 C11.1122887,4.47557194 11.1517535,4.62356465 11.2010844,4.78142353 C11.2405491,4.92941624 11.28988,5.07740895 11.3293447,5.22540166 C11.3293447,5.22540166 11.3293447,5.23526784 11.3293447,5.23526784 C11.3293447,5.23526784 11.3293447,5.24513402 11.3293447,5.24513402 C11.3293447,5.24513402 11.3194785,5.24513402 11.3194785,5.24513402 C11.3194785,5.24513402 11.3096123,5.24513402 11.3096123,5.24513402 C11.2800138,5.23526784 11.2504153,5.23526784 11.2208167,5.22540166 C11.0333593,5.18593694 10.8459019,5.15633839 10.6485782,5.11687367 C10.4808532,5.08727513 10.3131281,5.04781041 10.145403,5.01821187 C9.96781179,4.98861333 9.80008672,4.9491486 9.62249547,4.91955006 C9.60276311,4.91955006 9.59289693,4.91955006 9.57316457,4.91955006 C9.51396748,4.92941624 9.4547704,4.92941624 9.39557332,4.93928242 C9.28704533,4.9491486 9.18838353,4.9491486 9.07985554,4.93928242 C8.98119373,4.92941624 8.89239811,4.91955006 8.7937363,4.90968388 C8.6950745,4.88995152 8.59641269,4.87021916 8.49775089,4.84062062 C6.85009874,5.86670339 5.79441742,7.92873512 5.77468506,10.2275552 L5.77468506,10.2472875 C5.77468506,10.2571537 5.77468506,10.2670199 5.77468506,10.2768861 C5.77468506,10.6222024 5.82401596,10.9477864 5.87334687,11.2733703 C5.92267777,11.5693557 5.99174103,11.8752073 6.08053666,12.1810589 C6.27786027,12.8223607 6.55411332,13.4143315 6.919162,13.9471053 C7.64925936,15.0126527 8.66547596,15.7427501 9.79022054,16.0190032 C9.81981908,16.0288693 9.8592838,16.0387355 9.88888234,16.0387355 C10.1256707,16.0880664 10.3525928,16.117665 10.579515,16.1373973 C12.7402085,16.2656577 14.4865225,14.6772026 15.2462184,13.0098181 C15.719795,11.9442706 15.9171186,10.8096598 15.8480554,9.70464762 Z" id="Path" fill="#405F84" fill-rule="nonzero"></path>
            <path d="M5.53856583,10.2382912 C5.53856583,10.2282912 5.53856583,10.2182912 5.53856583,10.2082912 C5.53856583,10.2182912 5.53856583,10.2282912 5.53856583,10.2382912 Z" id="Path" fill="#97B9F5" fill-rule="nonzero"></path>
            <path d="M5.53856583,10.2181773 C5.53856583,10.2281773 5.53856583,10.2381773 5.53856583,10.2481773 C5.53856583,10.2581773 5.53856583,10.1981773 5.53856583,10.2181773 Z" id="Path" fill="#97B9F5" fill-rule="nonzero"></path>
            <path d="M15.1278242,6.00482992 C14.3977268,4.95901478 13.3913764,4.19931888 12.2863642,3.84413638 C12.0101112,3.75534076 11.7141257,3.69614368 11.4280065,3.65667895 C11.4181403,3.68627749 11.398408,3.71587604 11.3885418,3.74547458 C11.3490771,3.81453784 11.3096123,3.89346729 11.2602814,3.96253055 C11.2109505,4.03159381 11.1616196,4.0907909 11.1122887,4.15985416 C11.457605,4.17958652 11.8029214,4.24864979 12.1383715,4.34731159 C13.1348557,4.66302937 14.0425443,5.353662 14.7035784,6.30081534 C14.8515712,6.51787131 14.9896977,6.74479346 15.1080918,6.97171561 C15.1080918,6.97171561 15.1080918,6.97171561 15.1080918,6.98158179 C15.2067537,6.83358908 15.335014,6.69546256 15.4731405,6.57706839 C15.4731405,6.57706839 15.4830067,6.56720221 15.4830067,6.56720221 C15.3744787,6.37974478 15.2560846,6.18242117 15.1278242,6.00482992 Z" id="Path" fill="#97B9F5" fill-rule="nonzero"></path>
            <g id="Group" transform="translate(2.479381, 3.775073)" fill="#97B9F5" fill-rule="nonzero">
                <path d="M4.79496374,0.246654513 C4.72590048,0.167725069 4.66670339,0.0887956248 4.61737249,0 C4.18326055,0.0887956248 3.75901478,0.226922152 3.35450138,0.424245763 C2.65400256,0.779428262 2.04229937,1.28260347 1.53912416,1.91403902 C1.63778597,1.98310229 1.73644777,2.06203173 1.8252434,2.15082736 C1.83510958,2.16069354 1.84497576,2.17055972 1.84497576,2.1804259 C2.29882006,1.61805361 2.86119235,1.13461076 3.53209263,0.799160623 C3.91687367,0.601837013 4.33125325,0.463710485 4.75549902,0.394647221 C4.79496374,0.37491486 4.82456228,0.355182499 4.864027,0.345316319 C4.84429464,0.305851597 4.8146961,0.276253055 4.79496374,0.246654513 Z" id="Path"></path>
                <path d="M5.11068152,0.56237229 C5.09094916,0.542639929 5.07121679,0.522907568 5.05148443,0.503175207 C5.00215353,0.453844305 4.95282263,0.404513402 4.90349173,0.355182499 C4.85416082,0.36504868 4.8146961,0.36504868 4.7653652,0.37491486 C4.73576666,0.384781041 4.70616811,0.404513402 4.67656957,0.414379582 C3.68995152,0.907688609 2.86119235,1.71671541 2.2790877,2.76253055 C2.31855243,2.85132617 2.35801715,2.9401218 2.38761569,3.02891742 C2.40734805,3.08811451 2.42708041,3.14731159 2.43694659,3.21637485 C2.44681277,3.2459734 2.44681277,3.28543812 2.45667895,3.31503666 C2.96972034,2.24948916 3.76888096,1.33193437 4.864027,0.779428262 C4.98242117,0.720231179 5.09094916,0.670900276 5.20934332,0.621569374 C5.1698786,0.611703193 5.14028006,0.582104652 5.11068152,0.56237229 Z" id="Path"></path>
                <path d="M13.9014484,6.14663047 C13.8521175,6.13676429 13.7929204,6.11703193 13.7435895,6.09729957 C13.6547939,6.06770103 13.5758644,6.02823631 13.496935,5.98877158 C13.4574702,5.96903922 13.4081393,5.94930686 13.3686746,5.9295745 C13.4377379,7.03458672 13.2404143,8.16919748 12.7668376,9.19528026 C12.0071417,10.8725309 10.2608278,12.4511198 8.10013422,12.3228595 C7.87321207,12.3129933 7.64628991,12.2735286 7.40950158,12.2241977 C7.37990304,12.2143315 7.34043832,12.2044653 7.31083978,12.2044653 C6.18609519,11.9282123 5.1698786,11.1981149 4.43978124,10.1325674 C4.07473256,9.59979366 3.78861333,9.00782283 3.60115589,8.36652109 C3.51236027,8.0606695 3.44329701,7.7548179 3.3939661,7.45883248 C3.3446352,7.13324853 3.2953043,6.80766457 3.2953043,6.46234825 C3.2953043,6.45248207 3.2953043,6.44261589 3.2953043,6.43274971 L3.2953043,6.41301735 C3.30517048,4.11419728 4.3608518,2.05216555 6.01837013,1.02608278 C5.96903922,1.0162166 5.91970832,0.996484234 5.87037742,0.976751873 C5.82104652,0.957019512 5.78158179,0.937287151 5.73225089,0.91755479 C5.63358908,0.878090068 5.53492728,0.828759165 5.43626547,0.779428262 C4.67656957,1.32206819 4.0550002,2.05216555 3.59128971,2.94998798 C3.05851597,3.99580312 2.77239673,5.20934332 2.77239673,6.45248207 C2.77239673,6.83726311 2.82172763,7.18257943 2.87105854,7.52789575 C2.92038944,7.85347971 2.99931888,8.17906366 3.08811451,8.50464762 C3.2953043,9.19528026 3.60115589,9.84644817 3.99580312,10.4186866 C4.56804159,11.257312 5.30800513,11.9084799 6.13676429,12.3228595 C6.13676429,12.3228595 6.13676429,12.3228595 6.13676429,12.3228595 C6.04796867,12.3129933 5.95917304,12.2932609 5.87037742,12.2735286 C4.63710485,11.9972755 3.58142353,11.1882487 2.87105854,10.1522998 C2.49614368,9.60965984 2.21002444,8.99795665 2.02256701,8.36652109 C1.93377138,8.07053568 1.86470812,7.76468408 1.81537722,7.45883248 C1.76604632,7.12338235 1.71671541,6.79779839 1.71671541,6.45248207 C1.71671541,6.45248207 1.71671541,6.45248207 1.71671541,6.45248207 C1.71671541,6.44261589 1.71671541,6.44261589 1.71671541,6.44261589 C1.71671541,6.44261589 1.71671541,6.44261589 1.71671541,6.43274971 C1.71671541,6.43274971 1.71671541,6.42288353 1.71671541,6.42288353 C1.71671541,6.42288353 1.71671541,6.42288353 1.71671541,6.42288353 C1.71671541,6.27489082 1.72658159,6.12689811 1.72658159,5.98877158 C1.66738451,5.9789054 1.59832125,5.96903922 1.53912416,5.94930686 C1.50952562,5.93944068 1.48979326,5.93944068 1.46019472,5.9295745 C1.41086382,5.91970832 1.37139909,5.90984214 1.32206819,5.89997596 C1.31220201,6.07756721 1.30233583,6.26502464 1.30233583,6.44261589 C1.30233583,6.81753075 1.35166673,7.16284707 1.40099764,7.50816339 C1.45032854,7.82388116 1.5193918,8.14946512 1.61805361,8.47504908 C1.8252434,9.16568172 2.131095,9.79711727 2.52574222,10.3693557 C3.11771305,11.2178473 3.87740895,11.8788814 4.72590048,12.2833948 C4.66670339,12.2735286 4.60750631,12.2636624 4.54830923,12.2537962 C3.31503666,11.9775432 2.25935534,11.1685164 1.54899034,10.1325674 C1.17407548,9.58992748 0.887956248,8.97822429 0.700498818,8.34678873 C0.611703193,8.05080332 0.542639929,7.74495172 0.493309027,7.43910012 C0.483442846,7.36017068 0.473576666,7.28124123 0.453844305,7.20231179 C0.414379582,6.9457911 0.394647221,6.69913658 0.394647221,6.43274971 C0.394647221,6.41301735 0.394647221,6.40315117 0.394647221,6.40315117 C0.394647221,6.17622901 0.404513402,5.93944068 0.434111944,5.71251853 C0.424245763,5.71251853 0.424245763,5.71251853 0.414379582,5.71251853 C0.394647221,5.71251853 0.37491486,5.71251853 0.36504868,5.71251853 C0.305851597,5.72238471 0.246654513,5.72238471 0.18745743,5.73225089 C0.138126527,5.73225089 0.0789294443,5.73225089 0.0295985416,5.73225089 C0.00986618053,5.96903922 2.80413716e-15,6.19596138 2.80413716e-15,6.43274971 C2.80413716e-15,6.80766457 0.0493309027,7.15298089 0.0986618053,7.49829721 C0.147992708,7.81401498 0.217055972,8.13959894 0.315717777,8.4651829 C0.522907568,9.15581554 0.828759165,9.78725109 1.22340639,10.3594896 C2.04229937,11.5434312 3.19664249,12.3623242 4.46937978,12.6385773 C4.73576666,12.6977743 5.01201971,12.7372391 5.27840659,12.7471053 L5.27840659,12.7471053 L5.35733603,12.7471053 C5.39680075,12.7471053 5.43626547,12.7471053 5.4757302,12.7471053 C5.49546256,12.7471053 5.51519492,12.7471053 5.5250611,12.7471053 L8.02120477,12.7964362 L8.5145138,12.7964362 C9.47153331,12.7471053 10.4088205,12.4116551 11.2474458,11.7999519 C12.0860712,11.1882487 12.7668376,10.3397572 13.2108157,9.36300533 C13.7139909,8.38625345 13.9310469,7.26150887 13.9014484,6.14663047 Z" id="Path"></path>
            </g>
            <path d="M5.53856583,10.2382713 C5.53856583,10.2182713 5.53856583,10.2182713 5.53856583,10.2082713 C5.53856583,10.1982713 5.53856583,10.2582713 5.53856583,10.2382713 Z" id="Path" fill="#97B9F5" fill-rule="nonzero"></path>
            <path d="M4.0290402,10.2181375 C4.0290402,10.2081375 4.0290402,10.2681375 4.0290402,10.2481375 C4.0290402,10.2281375 4.0290402,10.2181375 4.0290402,10.2181375 Z" id="Path" fill="#97B9F5" fill-rule="nonzero"></path>
            <g id="Group" transform="translate(9.208116, 6.835129)" fill="#FFFFFF" fill-rule="nonzero">
                <path d="M0,2.84978618 C0.0394647221,2.72152583 0.118394166,2.59326548 0.276253055,2.64259639 C0.463710485,2.70179347 0.443978124,2.9385818 0.443978124,3.09644069 C0.443978124,3.51082027 0.503175207,3.9054675 0.700498818,4.27051618 C1.05568132,4.91181791 1.80551104,5.32619749 2.52574222,5.0203459 C3.2953043,4.70462812 3.58142353,3.87586895 3.58142353,3.10630687 C3.58142353,2.96818035 3.59128971,2.72152583 3.78861333,2.71165965 C3.99580312,2.71165965 4.0056693,2.95831416 4.0056693,3.09644069 C4.0056693,3.51082027 3.95633839,3.91533368 3.80834569,4.30011472 C3.6504868,4.68489576 3.41369846,5.04007826 3.08811451,5.29659895 C2.93025562,5.4248593 2.74279819,5.5235211 2.54547458,5.58271819 C2.39748187,5.63204909 2.40734805,5.62218291 2.40734805,5.77017562 C2.40734805,5.8787036 2.39748187,5.98723159 2.40734805,6.09575957 C2.67373492,6.07602721 3.48276173,5.8293727 3.46302937,6.29308319 C3.44329701,6.68773041 2.80199527,6.61866714 2.52574222,6.64826568 C2.08176409,6.69759659 1.63778597,6.74692749 1.19380784,6.79625839 C1.00635041,6.81599075 0.818892984,6.83572311 0.769562082,6.61866714 C0.710364998,6.37201263 0.907688609,6.25361846 1.1148784,6.22401992 C1.23327257,6.21415374 1.36153291,6.20428756 1.47992708,6.19442138 C1.54899034,6.1845552 1.80551104,6.20428756 1.84497576,6.16482284 C1.8745743,6.1352243 1.89430666,5.71097853 1.86470812,5.68137999 C1.84497576,5.65178145 1.64765215,5.65178145 1.60818743,5.64191527 C1.49965944,5.62218291 1.40099764,5.58271819 1.30233583,5.54325346 C1.13461076,5.46432402 0.966885692,5.36566222 0.828759165,5.24726805 C0.118394166,4.62569868 0,3.72787625 0,2.84978618 C0.00986618053,2.82018764 0,2.97804653 0,2.84978618 Z" id="Path"></path>
                <path d="M0.937287151,2.16901972 C0.937287151,1.47838708 0.809026804,0.570698475 1.49965944,0.146452713 C2.16069354,-0.258060689 2.92038944,0.235248337 3.14731159,0.896282433 C3.28543812,1.29092965 3.23610722,1.7250416 3.23610722,2.129555 C3.23610722,2.5340684 3.28543812,2.98791271 3.20650867,3.38255993 C3.07824833,4.07319257 2.39748187,4.63556486 1.67725069,4.33957944 C1.32206819,4.19158673 1.08527986,3.84627041 0.986618053,3.49108791 C0.957019512,3.35296139 0.897822429,2.16901972 0.937287151,2.16901972 C0.937287151,1.86316813 0.937287151,2.16901972 0.937287151,2.16901972 Z" id="Path"></path>
            </g>
            <rect id="Rectangle" x="0" y="0" width="20" height="20"></rect>
        </g>
    </g>
</svg>