<?xml version="1.0" encoding="UTF-8" standalone="no"?>
<!DOCTYPE svg PUBLIC "-//W3C//DTD SVG 1.1//EN" "http://www.w3.org/Graphics/SVG/1.1/DTD/svg11.dtd">
<!-- Created with Vectornator (http://vectornator.io/) -->
<svg height="100%" stroke-miterlimit="10" style="fill-rule:nonzero;clip-rule:evenodd;stroke-linecap:round;stroke-linejoin:round;" version="1.1" viewBox="0 0 144 144" width="100%" xml:space="preserve" xmlns="http://www.w3.org/2000/svg" xmlns:vectornator="http://vectornator.io" xmlns:xlink="http://www.w3.org/1999/xlink">
<defs/>
<g id="Untitled" vectornator:layerName="Untitled">
<g opacity="1">
<path d="M82.625 0.061L82.625 0L0.306999 0L0.306999 143.709L82.362 143.709L82.362 143.77L143.693 143.77L143.693 0.061L82.625 0.061ZM79.36 86.976C75.682 89.879 70.227 89.504 67.323 85.827L65.811 84.255L57.464 85.404C52.818 86.178 49.323 86.408 48.936 86.795C48.743 87.183 50.303 91.259 51.658 93.388C53.981 97.066 57.452 100.126 61.517 101.675C62.098 102.062 63.114 102.255 63.694 102.642C63.888 102.835 58.638 102.824 52.444 102.824L40.831 102.824L40.831 79.838L19.904 79.838L19.904 103.065L0.549 103.065L0.549 40.524L19.904 40.524L19.904 67.44L41.194 67.44L41.194 40.524L56.678 40.524L56.497 41.129C56.11 42.484 50.303 67.79 49.723 70.887C49.336 72.049 49.179 73.235 49.179 74.395C49.372 74.395 53.001 75.145 57.646 75.726L65.993 76.936L67.324 75.364C70.139 71.798 75.354 71.166 79.021 73.778C79.135 73.86 79.654 74.205 79.802 74.369C79.892 74.468 80.364 75.001 80.509 75.001C81.555 76.326 82.169 77.875 82.363 79.449L82.363 81.571C82.109 83.635 81.115 85.59 79.36 86.976ZM142.967 66.048C141.225 72.435 136.18 77.504 129.6 79.052C124.568 80.019 119.342 80.394 114.116 80.2L108.915 80.2L108.915 103.427L97.665 103.427C93.987 103.427 90.335 103.45 86.657 103.064C87.044 102.871 87.77 102.471 88.35 102.277C95.899 99.761 101.717 90.665 101.717 80.988C102.104 75.761 100.193 70.935 96.515 67.258C94.193 64.742 91.278 62.782 87.987 61.815C86.41 61.42 84.61 61.369 82.626 61.282L82.626 61.21C81.75 61.169 81.673 60.968 80.206 60.968C75.175 60.968 74.811 60.98 72.102 61.754C70.36 62.141 69.223 62.528 68.836 62.722C68.449 62.915 68.412 62.734 68.412 62.54C68.606 62.153 68.981 60.024 69.561 57.702L70.529 53.468L82.362 53.468L82.626 53.468L98.633 53.468L98.633 40.524L113.33 40.524C126.878 40.718 128.063 40.73 130.387 41.31C136.968 43.052 140.851 46.5 142.786 52.5C143.366 54.629 143.706 57.193 143.512 59.516C143.706 61.645 143.547 63.726 142.967 66.048Z" fill="#000000" fill-rule="nonzero" opacity="1" stroke="none"/>
<path d="M119.823 53.71C117.694 53.323 115.722 53.105 113.594 53.105L108.573 52.924L108.573 67.44L113.412 67.258C115.735 67.258 117.876 67.234 120.005 66.654C122.327 65.88 124.069 64.307 124.844 62.178C125.811 58.5 123.694 54.677 119.823 53.71Z" fill="#000000" fill-rule="nonzero" opacity="1" stroke="none"/>
</g>
</g>
</svg>
