<?xml version="1.0" encoding="UTF-8" standalone="no"?>
<!DOCTYPE svg PUBLIC "-//W3C//DTD SVG 1.1//EN" "http://www.w3.org/Graphics/SVG/1.1/DTD/svg11.dtd">
<!-- Created with Vectornator (http://vectornator.io/) -->
<svg height="100%" stroke-miterlimit="10" style="fill-rule:nonzero;clip-rule:evenodd;stroke-linecap:round;stroke-linejoin:round;" version="1.1" viewBox="0 0 24 24" width="100%" xml:space="preserve" xmlns="http://www.w3.org/2000/svg" xmlns:vectornator="http://vectornator.io" xmlns:xlink="http://www.w3.org/1999/xlink">
<defs/>
<g id="g40" vectornator:layerName="g40">
<g opacity="1">
<path d="M8.5462 8.55153C10.3762 8.55153 12.0951 9.26952 13.3896 10.5686C14.6856 11.8677 15.4006 13.6018 15.4006 15.447L18.2193 15.447C18.2193 10.0894 13.8824 5.73129 8.5462 5.73129L8.5462 8.55153L8.5462 8.55153Z" fill="#000000" fill-rule="nonzero" opacity="1" stroke="none"/>
<path d="M8.54925 3.55147C15.075 3.55147 20.3808 8.89075 20.3808 15.4515L23.2041 15.4515C23.2041 7.3346 16.6327 0.731238 8.54925 0.731238L8.54925 3.55147Z" fill="#000000" fill-rule="nonzero" opacity="1" stroke="none"/>
<path d="M13.1006 16.8449C13.1006 18.6125 12.5012 20.123 11.301 21.3795C10.0993 22.6405 8.65268 23.2688 6.95963 23.2688C5.25289 23.2688 3.79866 22.6466 2.59694 21.3916C1.39522 20.1413 0.795887 18.6247 0.795887 16.8449L0.795887 7.79247C0.795887 7.18552 0.978426 6.71853 1.34046 6.38387C1.70402 6.05226 2.13299 5.88189 2.62889 5.88189C3.12174 5.88189 3.55375 6.05226 3.91731 6.38387C4.28087 6.71853 4.46341 7.19161 4.46341 7.79855L4.46341 16.8632C4.46341 17.6055 4.70527 18.2292 5.19661 18.7448C5.68642 19.2635 6.27815 19.5161 6.96876 19.5161C7.64568 19.5161 8.23284 19.2605 8.72874 18.7448C9.22616 18.2307 9.47563 17.5994 9.47563 16.8586C9.47563 16.1178 9.24442 15.5397 8.78959 15.1351C8.33628 14.7274 7.71869 14.519 6.93529 14.519C6.37246 14.519 5.92372 14.3289 5.59059 13.9364C5.28635 13.6033 5.13576 13.1835 5.13576 12.6769C5.13576 12.1841 5.29244 11.7536 5.61188 11.3824C5.92981 11.0189 6.37246 10.8333 6.93529 10.8333C8.72722 10.8333 10.2058 11.3915 11.3649 12.5126C12.5256 13.6352 13.1006 15.0819 13.1006 16.8449Z" fill="#000000" fill-rule="nonzero" opacity="1" stroke="none"/>
</g>
</g>
</svg>
