<?xml version="1.0" encoding="UTF-8" standalone="no"?>
<!DOCTYPE svg PUBLIC "-//W3C//DTD SVG 1.1//EN" "http://www.w3.org/Graphics/SVG/1.1/DTD/svg11.dtd">
<!-- Created with Vectornator (http://vectornator.io/) -->
<svg height="100%" stroke-miterlimit="10" style="fill-rule:nonzero;clip-rule:evenodd;stroke-linecap:round;stroke-linejoin:round;" version="1.1" viewBox="0 0 640 640" width="100%" xml:space="preserve" xmlns="http://www.w3.org/2000/svg" xmlns:vectornator="http://vectornator.io" xmlns:xlink="http://www.w3.org/1999/xlink">
<defs/>
<g id="Untitled" vectornator:layerName="Untitled">
<path d="M486.232 146.086C536.74 187.177 569.037 249.825 569.037 320.023C569.037 390.22 536.74 452.946 486.232 493.96C478.217 500.497 466.465 499.252 459.928 491.236C453.391 483.22 454.636 471.469 462.652 464.931C504.832 430.689 531.682 378.546 531.682 320.023C531.682 261.499 504.832 209.357 462.652 175.036C454.636 168.499 453.469 156.747 459.928 148.732C466.387 140.716 478.217 139.548 486.232 146.008L486.232 146.086ZM439.149 204.065C472.769 231.459 494.326 273.25 494.326 320.023C494.326 366.795 472.769 408.587 439.149 435.981C431.133 442.518 419.382 441.273 412.844 433.257C406.307 425.241 407.552 413.49 415.568 406.952C440.861 386.407 456.971 355.121 456.971 320.023C456.971 284.924 440.861 253.639 415.568 233.015C407.552 226.478 406.385 214.727 412.844 206.711C419.304 198.695 431.133 197.527 439.149 203.987L439.149 204.065ZM392.065 262.044C408.797 275.741 419.615 296.598 419.615 320.023C419.615 343.448 408.797 364.305 392.065 378.002C384.049 384.539 372.298 383.294 365.761 375.278C359.223 367.262 360.469 355.51 368.484 348.973C376.889 342.125 382.259 331.696 382.259 320.023C382.259 308.349 376.889 297.921 368.484 290.994C360.469 284.457 359.301 272.706 365.761 264.69C372.22 256.674 384.049 255.506 392.065 261.966L392.065 262.044ZM305.291 147.876C314.241 151.922 320 160.794 320 170.6L320 469.445C320 479.251 314.241 488.123 305.291 492.17C296.341 496.217 285.835 494.582 278.52 488.045L173.535 394.734L120.77 394.734C93.2981 394.734 70.9626 372.398 70.9626 344.926L70.9626 295.119C70.9626 267.647 93.2981 245.311 120.77 245.311L173.535 245.311L278.52 152C285.835 145.463 296.341 143.906 305.291 147.876Z" fill="#000000" fill-rule="nonzero" opacity="1" stroke="none" vectornator:layerName="path"/>
</g>
</svg>
