<?xml version="1.0" encoding="UTF-8"?>
<svg width="20px" height="20px" viewBox="0 0 20 20" version="1.1" xmlns="http://www.w3.org/2000/svg" xmlns:xlink="http://www.w3.org/1999/xlink">
    <title>icon(4)</title>
    <g id="Page-1" stroke="none" stroke-width="1" fill="none" fill-rule="evenodd">
        <g id="icon(4)">
            <g id="Group" transform="translate(1.210000, 2.208008)" fill-rule="nonzero">
                <path d="M18,7.08655627 C18,6.12019023 16.9028117,5.33430163 15.5477984,5.33430163 C14.1927851,5.33430163 13.0955968,6.1173255 13.0955968,7.08655627 C13.0955968,8.05578704 14.1927851,8.83881092 15.5477984,8.83881092 L15.6251459,8.83881092 L17.2580371,9.26851914 L16.9667905,8.51032285 C17.0049867,8.49313452 17.0412732,8.4769011 17.074695,8.45971277 C17.5502387,8.21525654 18,7.64231224 18,7.08655627 Z" id="Path" fill="#EA964D"></path>
                <g transform="translate(13.968491, 6.644863)" fill="#FFFFFF" id="Path">
                    <path d="M0.401907126,0.000641130278 C0.574357786,-0.00983042622 0.734652574,0.108739643 0.806598267,0.299991205 C0.878543961,0.491242767 0.847630093,0.716602984 0.72855101,0.868950961 C0.609471927,1.02129894 0.42624426,1.06990816 0.26596196,0.991673118 C0.105679659,0.913438074 0.000669484154,0.724137707 0.000846118036,0.513752516 C-0.00637431876,0.379425778 0.0328654245,0.247545993 0.109057895,0.150066499 C0.185250365,0.0525870048 0.291443323,-0.00159760674 0.401907126,0.000641130278 L0.401907126,0.000641130278 Z"></path>
                    <path d="M1.59936071,0.000641130278 C1.77181137,-0.00983042622 1.93210615,0.108739643 2.00405185,0.299991205 C2.07599754,0.491242767 2.04508367,0.716602984 1.92600459,0.868950961 C1.80692551,1.02129894 1.62369784,1.06990816 1.46341554,0.991673118 C1.30313324,0.913438074 1.19812307,0.724137707 1.1982997,0.513752516 C1.19107926,0.379425778 1.23031901,0.247545993 1.30651148,0.150066499 C1.38270395,0.0525870048 1.4888969,-0.00159760674 1.59936071,0.000641130278 L1.59936071,0.000641130278 Z"></path>
                    <path d="M2.77771614,0.000641130278 C2.9501668,-0.00983042622 3.11046159,0.108739643 3.18240729,0.299991205 C3.25435298,0.491242767 3.22343911,0.716602984 3.10436003,0.868950961 C2.98528095,1.02129894 2.80205328,1.06990816 2.64177098,0.991673118 C2.48148868,0.913438074 2.3764785,0.724137707 2.37665514,0.513752516 C2.3694347,0.379425778 2.40867444,0.247545993 2.48486691,0.150066499 C2.56105938,0.0525870048 2.66725234,-0.00159760674 2.77771614,0.000641130278 L2.77771614,0.000641130278 Z"></path>
                </g>
                <path d="M1.35700469e-15,2.40273664 C1.35700469e-15,1.38480561 1.15639257,0.556901101 2.58397878,0.556901101 C4.01156499,0.556901101 5.16795756,1.38194089 5.16795756,2.40273664 C5.16795756,3.4235324 4.01061008,4.24857219 2.58302387,4.24857219 L2.50185676,4.24857219 L0.783023873,4.70119818 L1.08954907,3.9028958 C1.04944297,3.88475256 1.01124668,3.86756423 0.975915119,3.84942099 C0.469814324,3.59255097 1.35700469e-15,2.98809473 1.35700469e-15,2.40273664 Z" id="Path" fill="#3497DA"></path>
                <path d="M3.55034483,1.94247139 C3.55182663,2.06651017 3.51876314,2.18851445 3.45485411,2.29483214 C3.42431592,2.33922402 3.38766841,2.37908623 3.34599469,2.41324062 C3.31018037,2.44451891 3.27220852,2.47323711 3.23236074,2.49918227 L3.11108753,2.5698454 C3.05606549,2.60113333 3.00951784,2.64538638 2.97549072,2.69875786 C2.94572068,2.73729019 2.92691476,2.78315023 2.92106101,2.83148996 C2.92052477,2.85489404 2.91211434,2.87743398 2.89718833,2.89546874 C2.88478662,2.91404646 2.8641329,2.92544161 2.84180371,2.92602577 L2.36435013,2.92602577 C2.34196756,2.92449631 2.32237228,2.91044687 2.31374005,2.8897393 C2.30029801,2.86719599 2.29305079,2.84150131 2.2927321,2.81525654 L2.2927321,2.72645017 C2.29523892,2.61049088 2.34125432,2.49971306 2.42164456,2.41610534 C2.50054825,2.32469268 2.59826752,2.25140323 2.70811671,2.20125123 C2.77053225,2.17615252 2.82709654,2.138443 2.87427056,2.090482 C2.90882142,2.04801244 2.92650063,1.99429484 2.92392573,1.93960667 C2.91982624,1.8773203 2.8836667,1.82163461 2.82843501,1.79255097 C2.7656744,1.75003709 2.69128023,1.72801908 2.61549072,1.7295271 C2.54005113,1.72667583 2.46550538,1.74664345 2.40159151,1.78682153 C2.32237262,1.85447543 2.2512376,1.93105772 2.18960212,2.01504434 C2.17527616,2.03452346 2.15266511,2.04618229 2.12848806,2.04655627 C2.11074917,2.04586593 2.09355389,2.0402444 2.07883289,2.03032285 L1.75320955,1.78204699 C1.73685976,1.77018598 1.72587296,1.75233243 1.72265252,1.73239182 C1.7191565,1.71326645 1.72290067,1.69352446 1.7331565,1.6770072 C1.91589783,1.34150834 2.27182444,1.13733053 2.653687,1.14894354 C2.7628505,1.14956038 2.87096687,1.17027729 2.97262599,1.2100576 C3.075991,1.24975596 3.17261692,1.30515482 3.25909814,1.37430163 C3.34543465,1.44366059 3.41688723,1.52972846 3.46917772,1.62735203 C3.522541,1.72380008 3.55047379,1.83224503 3.55034483,1.94247139 Z M2.92392573,3.13133081 L2.92392573,3.60878439 C2.92291723,3.65213238 2.88801642,3.68703319 2.84466844,3.68804168 L2.36721485,3.68804168 C2.32386686,3.68703319 2.28896606,3.65213238 2.28795756,3.60878439 L2.28795756,3.13133081 C2.28896606,3.08798282 2.32386686,3.05308201 2.36721485,3.05207351 L2.84466844,3.05207351 C2.88801642,3.05308201 2.92291723,3.08798282 2.92392573,3.13133081 L2.92392573,3.13133081 Z" id="Shape" fill="#FFFFFF"></path>
                <g transform="translate(0.043964, 0.000000)" id="Path">
                    <path d="M13.5911551,4.86257749 C14.0236694,4.65279063 14.4892001,4.51936651 14.9671763,4.46820084 C13.2179384,0.826069436 8.99664928,-0.901965382 5.19561133,0.468094735 C5.5943733,0.77315669 5.89538979,1.18800853 6.06171212,1.66172869 C9.01328284,0.803591756 12.1610456,2.14174022 13.5911551,4.86257749 Z" fill="#97B9F5"></path>
                    <path d="M1.40272008,7.87053505 C1.40205973,6.94456417 1.60106461,6.02933714 1.98616835,5.18724593 L0.327494615,5.6236385 C-0.240502344,7.53083252 -0.0651336662,9.5823731 0.818316896,11.3654953 C1.22138329,11.1145034 1.66653774,10.9385121 2.13226915,10.8460258 C1.65316588,9.92736267 1.40289508,8.90662473 1.40272008,7.87053505 L1.40272008,7.87053505 Z" fill="#97B9F5"></path>
                    <path d="M15.5009694,9.60273664 C15.0431568,9.60411327 14.587822,9.53552322 14.1507307,9.39934142 C13.3102866,12.8579478 9.83259236,14.9869044 6.37014713,14.1624183 C6.17405646,14.5991661 5.86111138,14.9732462 5.46585005,15.2433732 C5.42638056,15.2713839 5.38627446,15.2987579 5.34553175,15.3254953 C7.45757936,16.0400624 9.77362578,15.825031 11.71802,14.733847 C13.6624141,13.642663 15.0525771,11.7777886 15.5429853,9.60273664 L15.5009694,9.60273664 Z" fill="#97B9F5"></path>
                    <path d="M2.13226915,10.8460258 C2.44139711,10.7821991 2.75624952,10.7502019 3.0718978,10.7505351 C3.97333016,10.7505351 4.82606225,11.0045404 5.4725344,11.4667154 C6.16388719,11.9604024 6.54394024,12.6307473 6.54394024,13.3555218 C6.54360277,13.6333522 6.48674689,13.9082097 6.37683148,14.1633732 C9.83927671,14.9878593 13.3169709,12.8589027 14.157415,9.40029633 C13.7885859,9.2864216 13.4399335,9.11531766 13.1242055,8.89324062 C12.4385821,8.40337325 12.0604389,7.73780296 12.0604389,7.01971277 C12.0604389,6.30162259 12.4424018,5.63509739 13.1242055,5.14618492 C13.2754151,5.03804215 13.4350815,4.94224228 13.6016591,4.85971277 C12.1711309,2.13668687 9.02048626,0.798162033 6.06744156,1.65886397 C6.13912178,1.87444969 6.17587208,2.10010947 6.17630098,2.32729898 C6.17630098,3.08454036 5.77810469,3.78544221 5.05619488,4.30109208 C4.38012061,4.7833202 3.48919223,5.0497393 2.54574395,5.0497393 L2.49990841,5.0497393 L1.9918978,5.1834263 C1.16511936,6.99205438 1.21689236,9.08058433 2.13226915,10.8460258 L2.13226915,10.8460258 Z" fill="#405F84"></path>
                </g>
                <path d="M0.640742706,13.4223653 C0.640742706,12.44836 1.7465252,11.6567419 3.11204244,11.6567419 C4.47755968,11.6567419 5.58334218,12.4454953 5.58334218,13.4223653 C5.58334218,14.3992353 4.47755968,15.1879886 3.11204244,15.1879886 L3.03564987,15.1879886 L1.39034483,15.6205616 L1.68350133,14.8566358 C1.64530504,14.8394475 1.60806366,14.8222592 1.57464191,14.8050709 C1.09050398,14.5606146 0.640742706,13.9828958 0.640742706,13.4223653 Z" id="Path" fill="#61C385"></path>
                <path d="M4.49092838,12.8713839 C4.49177894,12.915143 4.47449884,12.9573064 4.44318302,12.9878825 L3.20180371,14.2292618 L2.96880637,14.4622592 C2.9043648,14.526355 2.80025059,14.526355 2.73580902,14.4622592 L2.50281167,14.2292618 L1.88212202,13.6085722 C1.81802618,13.5441306 1.81802618,13.4400164 1.88212202,13.3755748 L2.11511936,13.1425775 C2.17956093,13.0784817 2.28367514,13.0784817 2.34811671,13.1425775 L2.85230769,13.6477234 L3.97623342,12.5218878 C4.04067499,12.457792 4.1447892,12.457792 4.20923077,12.5218878 L4.44222812,12.7548852 C4.47389503,12.7852977 4.49152955,12.8274822 4.49092838,12.8713839 Z" id="Path" fill="#FFFFFF"></path>
                <path d="M10.1974536,7.03403621 C10.0443165,7.03386954 9.91812774,7.15416946 9.91098143,7.30713983 L9.91098143,7.59934142 C9.91098143,8.65410275 9.05592843,9.50915574 8.00116711,9.50915574 C6.94640578,9.50915574 6.09135279,8.65410275 6.09135279,7.59934142 L6.09135279,7.30713983 C6.10307645,7.21464097 6.06031053,7.12369459 5.98159316,7.07372401 C5.90287579,7.02375343 5.8023762,7.02375343 5.72365883,7.07372401 C5.64494146,7.12369459 5.60217554,7.21464097 5.6138992,7.30713983 L5.6138992,7.59934142 C5.6138992,8.86459341 6.47331565,9.90735203 7.71469496,10.0439038 L7.71469496,10.5309064 L6.71872679,10.5309064 C6.56051259,10.5309064 6.43225464,10.6591644 6.43225464,10.8173786 C6.43225464,10.9755928 6.56051259,11.1038507 6.71872679,11.1038507 L9.4535809,11.1038507 C9.6117951,11.1038507 9.74005305,10.9755928 9.74005305,10.8173786 C9.74005305,10.6591644 9.6117951,10.5309064 9.4535809,10.5309064 L8.38312997,10.5309064 L8.38312997,10.0439038 C9.52901857,9.90735203 10.4839257,8.86459341 10.4839257,7.59934142 L10.4839257,7.30713983 C10.4767794,7.15416946 10.3505907,7.03386954 10.1974536,7.03403621 Z" id="Path" fill="#FFFFFF"></path>
                <rect id="Rectangle" fill="#FFFFFF" x="6.69485411" y="4.34692763" width="2.81220159" height="4.44604775" rx="1.4061008"></rect>
            </g>
            <rect id="Rectangle" x="0" y="0" width="20" height="20"></rect>
        </g>
    </g>
</svg>