<?xml version="1.0" encoding="UTF-8" standalone="no"?>
<!DOCTYPE svg PUBLIC "-//W3C//DTD SVG 1.1//EN" "http://www.w3.org/Graphics/SVG/1.1/DTD/svg11.dtd">
<!-- Created with Vectornator (http://vectornator.io/) -->
<svg height="100%" stroke-miterlimit="10" style="fill-rule:nonzero;clip-rule:evenodd;stroke-linecap:round;stroke-linejoin:round;" version="1.1" viewBox="0 0 157 144" width="100%" xml:space="preserve" xmlns="http://www.w3.org/2000/svg" xmlns:vectornator="http://vectornator.io" xmlns:xlink="http://www.w3.org/1999/xlink">
<defs/>
<g id="Untitled" vectornator:layerName="Untitled">
<g opacity="1">
<path d="M80.8 78.6966C80.079 78.7716 79.386 79.0856 78.855 79.6916L66.898 95.6356C66.594 96.2416 66.281 96.8776 66.281 97.4856C66.281 99.1566 67.648 100.523 69.318 100.523L77.052 100.523L77.052 139.754L77.052 140.654C77.052 142.173 78.428 143.406 79.947 143.406L81.892 143.406C83.411 143.406 84.787 142.04 84.787 140.37L84.93 100.523L92.853 100.523C93.461 100.523 94.059 100.211 94.515 99.9056C95.881 98.8436 96.194 97.0026 95.131 95.6356C95.131 95.6356 83.136 79.4166 82.985 79.2646C82.3 78.8086 81.52 78.6206 80.8 78.6966Z" fill="#000000" fill-rule="nonzero" opacity="1" stroke="none"/>
<path d="M0 106.153C0 113.17 5.543 118.858 12.297 118.858L144.272 118.858C151.022 118.858 156.567 113.17 156.567 106.153L156.567 12.706C156.567 5.694 151.022-0.000999451 144.272 0L12.297 0C5.543 0 9.53674e-07 5.693 9.53674e-07 12.706C9.53674e-07 12.706 9.53674e-07 106.153 0 106.153ZM13.472 101.649L13.472 17.21C13.472 14.144 15.822 11.655 18.657 11.655L137.91 11.655C140.789 11.655 143.094 14.092 143.094 17.21L143.094 101.649C143.094 104.667 140.694 107.203 137.91 107.203L18.657 107.203C15.775 107.203 13.472 104.771 13.472 101.649Z" fill="#000000" fill-rule="nonzero" opacity="1" stroke="none"/>
<path d="M78.4483 35.9502C67.9375 35.9502 59.4498 44.5406 59.4498 55.0521C59.4498 65.5621 67.9375 74.0498 78.4483 74.0498C88.9591 74.0498 97.5502 65.5621 97.5502 55.0521C97.5502 44.5406 88.9591 35.9502 78.4483 35.9502ZM72.1502 44.623L81.0299 49.7855L89.9096 54.9479L81.0299 60.0077L72.1502 65.1701L72.1502 54.9487L72.1502 44.623Z" fill="#000000" fill-rule="nonzero" opacity="1" stroke="none"/>
</g>
</g>
</svg>
