<?xml version="1.0" encoding="UTF-8" standalone="no"?>
<!DOCTYPE svg PUBLIC "-//W3C//DTD SVG 1.1//EN" "http://www.w3.org/Graphics/SVG/1.1/DTD/svg11.dtd">
<!-- Created with Vectornator (http://vectornator.io/) -->
<svg height="100%" stroke-miterlimit="10" style="fill-rule:nonzero;clip-rule:evenodd;stroke-linecap:round;stroke-linejoin:round;" version="1.1" viewBox="0 0 24 24" width="100%" xml:space="preserve" xmlns="http://www.w3.org/2000/svg" xmlns:vectornator="http://vectornator.io" xmlns:xlink="http://www.w3.org/1999/xlink">
<defs/>
<g id="Untitled" vectornator:layerName="Untitled">
<path d="M21.902 17.655C21.902 17.655 21.618 17.375 21.368 15.947C21.118 14.519 21.902 13.675 21.902 13.675" fill="none" opacity="1" stroke="#000000" stroke-linecap="butt" stroke-linejoin="miter" stroke-width="0.5" vectornator:layerName="path"/>
<path d="M21.902 13.655C21.902 13.655 21.618 13.375 21.368 11.947C21.118 10.519 21.902 9.675 21.902 9.675" fill="none" opacity="1" stroke="#000000" stroke-linecap="butt" stroke-linejoin="miter" stroke-width="0.5" vectornator:layerName="path"/>
<path d="M21.902 9.655C21.902 9.655 21.618 9.375 21.368 7.947C21.118 6.519 21.902 5.675 21.902 5.675" fill="none" opacity="1" stroke="#000000" stroke-linecap="butt" stroke-linejoin="miter" stroke-width="0.5" vectornator:layerName="path"/>
<path d="M21.438 15.947C21.188 14.519 21.973 13.675 21.973 13.675L12.086 15.93C11.376 15.957 10.313 15.987 9.031 15.735C7.288 15.391 3.56 14.212 2.859 13.987C0.579 15.272 1.754 17.483 2.455 17.707C3.156 17.929 7.288 19.372 9.031 19.716C10.312 19.968 11.376 19.939 12.086 19.912L21.973 17.657C21.973 17.655 21.688 17.375 21.438 15.947Z" fill="none" opacity="1" stroke="#000000" stroke-linecap="round" stroke-linejoin="round" stroke-width="1" vectornator:layerName="path"/>
<path d="M2.859 13.986C0.579 15.271 1.754 17.482 2.455 17.705C3.156 17.927 10.772 19.916 10.772 19.916L21.972 17.655" fill="none" opacity="1" stroke="#000000" stroke-linecap="round" stroke-linejoin="round" stroke-width="1" vectornator:layerName="path"/>
<path d="M21.438 11.947C21.188 10.519 21.973 9.675 21.973 9.675L12.086 11.93C11.376 11.957 10.313 11.987 9.031 11.735C7.288 11.391 3.56 10.212 2.859 9.987C0.579 11.272 1.754 13.483 2.455 13.707C3.156 13.929 7.288 15.372 9.031 15.716C10.312 15.968 11.376 15.939 12.086 15.912L21.973 13.657C21.973 13.655 21.688 13.375 21.438 11.947Z" fill="none" opacity="1" stroke="#000000" stroke-linecap="round" stroke-linejoin="round" stroke-width="1" vectornator:layerName="path"/>
<path d="M2.859 9.986C0.579 11.271 1.754 13.482 2.455 13.705C3.156 13.927 10.772 15.916 10.772 15.916L21.972 13.655" fill="none" opacity="1" stroke="#000000" stroke-linecap="round" stroke-linejoin="round" stroke-width="1" vectornator:layerName="path"/>
<path d="M21.438 7.947C21.188 6.519 21.973 5.675 21.973 5.675L12 7.665C11.29 7.692 10.312 7.986 9.031 7.734C7.288 7.391 3.561 6.211 2.859 5.986C0.579 7.271 1.754 9.482 2.455 9.706C3.156 9.928 7.288 11.371 9.031 11.715C10.312 11.967 11.376 11.938 12.086 11.911L21.973 9.656C21.973 9.655 21.688 9.375 21.438 7.947Z" fill="none" opacity="1" stroke="#000000" stroke-linecap="round" stroke-linejoin="round" stroke-width="1" vectornator:layerName="path"/>
<path d="M2.859 5.986C0.579 7.271 1.754 9.482 2.455 9.705C3.156 9.927 10.772 11.916 10.772 11.916L21.972 9.655" fill="none" opacity="1" stroke="#000000" stroke-linecap="round" stroke-linejoin="round" stroke-width="1" vectornator:layerName="path"/>
<path d="M22.579 5.161L14.267 3.741L2.859 5.986L10.626 7.626L22.579 5.161Z" fill="none" opacity="1" stroke="#000000" stroke-linecap="round" stroke-linejoin="round" stroke-width="1" vectornator:layerName="path"/>
</g>
</svg>
