<?xml version="1.0" encoding="utf-8"?>
<!-- Generator: Adobe Illustrator 15.0.0, SVG Export Plug-In . SVG Version: 6.00 Build 0)  -->
<!DOCTYPE svg PUBLIC "-//W3C//DTD SVG 1.1//EN" "http://www.w3.org/Graphics/SVG/1.1/DTD/svg11.dtd">
<svg version="1.1" id="Layer_1" xmlns:vectornator="http://vectornator.io"
	 xmlns="http://www.w3.org/2000/svg" xmlns:xlink="http://www.w3.org/1999/xlink" x="0px" y="0px" width="216px" height="144px"
	 viewBox="0 0 216 144" enable-background="new 0 0 216 144" xml:space="preserve">
<g>
	<g id="Untitled" vectornator:layerName="Untitled">
		<path d="M172.723,135.954H43.081c-7.272,0-13.189-5.92-13.189-13.197V21.236c0-7.273,5.917-13.19,13.189-13.19H172.92
			c7.272,0,13.188,5.917,13.188,13.19v101.521c0,0.517-0.098,1.01-0.275,1.462C185.103,130.811,179.502,135.954,172.723,135.954z
			 M43.081,16.046c-2.861,0-5.189,2.328-5.189,5.19v101.521c0,2.866,2.328,5.197,5.189,5.197h129.642c2.862,0,5.19-2.331,5.19-5.197
			c0-0.433,0.068-0.849,0.195-1.238V21.236c0-2.862-2.327-5.19-5.188-5.19H43.081z"/>
		<path fill="none" stroke="#000000" stroke-width="4" stroke-linecap="round" stroke-linejoin="round" stroke-miterlimit="10" d="
			M107.534,110.402h55.816 M110.994,104.361c0,0,5.514-8.854,9.898-5.042c5.799,5.042-3.197,17.041,0.623,17.484
			c2.857,0.322,11.271-21.913,11.271-21.913v18.146l13.471-13.717l-7.826,17.483l14.393-12.442h6.723 M129.59,25.778h38.182
			 M129.59,35.932h38.182 M76.378,25.778h38.181 M76.378,35.932h38.181"/>
		<path fill="none" stroke="#000000" stroke-width="6" stroke-linecap="round" stroke-linejoin="round" stroke-miterlimit="10" d="
			M77.189,66.583h64.692 M70.157,54.797h80.437"/>
		
			<line fill="none" stroke="#000000" stroke-width="4" stroke-linecap="round" stroke-linejoin="round" stroke-miterlimit="10" x1="74.135" y1="77.725" x2="146.615" y2="77.725"/>
		<path fill="none" stroke="#000000" stroke-width="5" stroke-linecap="round" stroke-linejoin="round" stroke-miterlimit="10" d="
			M76.708,113.284l3.625-2.446l-0.293-4.271l1.748-3.745l-2.454-3.628l-0.383-4.508l-3.917-1.809l-2.356-3.393l-4.428,0.21
			l-4.083-1.913l-3.467,2.535l-4.277,0.279l-1.824,3.917l-3.691,2.62l0.458,4.352l-1.915,3.67l2.597,3.713l0.218,4.446l3.91,1.798
			l2.364,3.385l4.45-0.195l4.083,1.894l3.451-2.544l4.278-0.271L76.708,113.284z"/>
	</g>
	<g id="g4216" vectornator:layerName="g4216">
		<path d="M56.322,34.893l-7.269,5.628c2.086,3.399,4.321,5.234,7.269,6.098c3.842-1.126,5.978-3.996,7.269-6.098L56.322,34.893z
			 M56.322,37.706c1.148,0,2.111,1.473,2.111,3.283c0,1.812-0.963,3.283-2.111,3.283s-2.111-1.472-2.111-3.283
			C54.211,39.179,55.174,37.706,56.322,37.706z"/>
		<path d="M47.176,23.637c0,1.186,0.022,7.338,0,9.145c0.007,1.275-0.028,2.354,0.235,3.517l8.911-6.801l8.911,6.801
			c0.263-1.17,0.447-2.476,0.469-3.752c-0.022-1.936,0-8.618,0-8.911L47.176,23.637L47.176,23.637z M50.694,24.574
			c1.148,0,2.111,0.963,2.111,2.111c0,1.147-0.963,2.111-2.111,2.111s-2.111-0.965-2.111-2.112
			C48.583,25.536,49.546,24.574,50.694,24.574z M56.322,24.574c1.148,0,2.111,0.963,2.111,2.111c0,1.147-0.963,2.111-2.111,2.111
			s-2.111-0.965-2.111-2.112C54.211,25.536,55.174,24.574,56.322,24.574z M62.185,24.574c1.151,0,2.111,0.958,2.111,2.111
			s-0.958,2.111-2.111,2.111c-1.153,0-2.111-0.958-2.111-2.111S61.033,24.574,62.185,24.574z"/>
	</g>
</g>
</svg>
