<?xml version="1.0" encoding="UTF-8" standalone="no"?>
<!-- Generator: Adobe Illustrator 20.1.0, SVG Export Plug-In . SVG Version: 6.00 Build 0)  -->

<svg
   xmlns:dc="http://purl.org/dc/elements/1.1/"
   xmlns:cc="http://creativecommons.org/ns#"
   xmlns:rdf="http://www.w3.org/1999/02/22-rdf-syntax-ns#"
   xmlns:svg="http://www.w3.org/2000/svg"
   xmlns="http://www.w3.org/2000/svg"
   xmlns:sodipodi="http://sodipodi.sourceforge.net/DTD/sodipodi-0.dtd"
   xmlns:inkscape="http://www.inkscape.org/namespaces/inkscape"
   version="1.1"
   id="Layer_1"
   x="0px"
   y="0px"
   viewBox="0 0 172.10001 133.10001"
   xml:space="preserve"
   sodipodi:docname="carousel.svg"
   width="172.10001"
   height="133.10001"
   inkscape:version="0.92.4 (5da689c313, 2019-01-14)"><metadata
   id="metadata47"><rdf:RDF><cc:Work
       rdf:about=""><dc:format>image/svg+xml</dc:format><dc:type
         rdf:resource="http://purl.org/dc/dcmitype/StillImage" /><dc:title>flashcards</dc:title></cc:Work></rdf:RDF></metadata><defs
   id="defs45" /><sodipodi:namedview
   pagecolor="#ffffff"
   bordercolor="#666666"
   borderopacity="1"
   objecttolerance="10"
   gridtolerance="10"
   guidetolerance="10"
   inkscape:pageopacity="0"
   inkscape:pageshadow="2"
   inkscape:window-width="640"
   inkscape:window-height="480"
   id="namedview43"
   showgrid="false"
   inkscape:zoom="0.71"
   inkscape:cx="26.549296"
   inkscape:cy="65.5"
   inkscape:window-x="0"
   inkscape:window-y="0"
   inkscape:window-maximized="0"
   inkscape:current-layer="flashcards" />
<style
   type="text/css"
   id="style2">
	.st0{fill:none;}
	.st1{fill:#F5C357;}
	.st2{fill:#34485E;}
	.st3{fill:#54B3ED;}
	.st4{fill:#FFFFFF;}
</style>
<title
   id="title4">flashcards</title>
<g
   id="g40"
   transform="translate(-115,-44.9)">
	<g
   id="Layer_2">
		<g
   id="flashcards">
			<rect
   y="0"
   class="st0"
   width="400"
   height="225"
   id="rect6"
   x="0"
   style="fill:none" />
			<path
   class="st1"
   d="m 214.1,90.4 c -0.8,10.6 7.9,19.3 18.5,18.5 8.3,-0.7 15,-7.4 15.7,-15.7 0.8,-10.6 -7.9,-19.3 -18.5,-18.5 -8.3,0.7 -15,7.4 -15.7,15.7 z"
   id="path8"
   inkscape:connector-curvature="0"
   style="fill:#f5c357" />
			<g
   id="g12">
				<path
   class="st2"
   d="m 119.5,90.2 c 0,-0.6 0.2,-1.1 0.6,-1.5 l 4.5,-4.5 c 0.2,-0.3 0.3,-0.7 0.3,-1.1 0,-0.6 -0.2,-1.1 -0.6,-1.5 l -1.2,-1.2 c -0.4,-0.4 -0.9,-0.6 -1.5,-0.6 -0.6,0 -1.1,0.2 -1.5,0.6 l -8.4,8.3 c -0.4,0.4 -0.6,0.9 -0.6,1.5 0,0.6 0.2,1.1 0.6,1.5 l 8.4,8.4 c 0.4,0.4 0.9,0.6 1.5,0.6 0.6,0 1.1,-0.2 1.5,-0.6 l 1.2,-1.2 c 0.4,-0.4 0.6,-0.9 0.6,-1.5 0,-0.3 -0.1,-0.7 -0.3,-1 L 120,91.8 c -0.3,-0.5 -0.5,-1 -0.5,-1.6 z"
   id="path10"
   inkscape:connector-curvature="0"
   style="fill:#34485e" />
			</g>
			<g
   id="g16">
				<path
   class="st2"
   d="m 280.3,90.2 c 0,0.6 -0.2,1.1 -0.6,1.5 l -4.5,4.5 c -0.2,0.3 -0.3,0.7 -0.3,1.1 0,0.6 0.2,1.1 0.6,1.5 l 1.2,1.2 c 0.4,0.4 0.9,0.6 1.5,0.6 0.6,0 1.1,-0.2 1.5,-0.6 l 8.4,-8.3 c 0.4,-0.4 0.6,-0.9 0.6,-1.5 0,-0.6 -0.2,-1.1 -0.6,-1.5 l -8.4,-8.4 c -0.4,-0.4 -0.9,-0.6 -1.5,-0.6 -0.6,0 -1.1,0.2 -1.5,0.6 l -1.2,1.2 c -0.4,0.4 -0.6,0.9 -0.6,1.5 0,0.3 0.1,0.7 0.3,1 l 4.6,4.6 c 0.3,0.5 0.5,1 0.5,1.6 z"
   id="path14"
   inkscape:connector-curvature="0"
   style="fill:#34485e" />
			</g>
			<g
   id="g28">
				<path
   class="st3"
   d="m 277,110 v 46 c 0,7.3 -5.6,13 -12.9,13 h -31.2 c 0.6,1 1,2.4 1,3.9 0,2 -0.6,4.1 -1.7,5.1 h 32 c 12.6,0 22.9,-9.4 22.9,-22 v -45 c 0,0.5 -2.8,0.9 -4.2,0.9 -2.2,-0.1 -3.9,-0.8 -5.9,-1.9 z"
   id="path18"
   inkscape:connector-curvature="0"
   style="fill:#54b3ed" />
				<path
   class="st3"
   d="m 167.1,169 h -29.6 c -7.3,0 -13.5,-5.6 -13.5,-13 v -45.7 c -1,1 -3,1.5 -4.9,1.5 v 0 c -1.6,0 -4.1,-0.4 -4.1,-1.1 V 156 c 0,12.6 10,22 22.5,22 h 30.3 c -1.1,-1 -1.7,-3.1 -1.7,-5.1 0.1,-1.5 0.4,-2.9 1,-3.9 z"
   id="path20"
   inkscape:connector-curvature="0"
   style="fill:#54b3ed" />
				<path
   class="st3"
   d="m 119.1,70.1 c 0.9,0 1.6,0.1 2.4,0.3 1,0.2 2.5,0.5 2.5,1 V 66.9 C 124,59.6 130.2,54 137.5,54 H 264 c 7.3,0 12.9,5.6 12.9,12.9 v 4.8 c 2,-0.5 1.9,-0.9 2.9,-1.2 0.9,-0.3 2.1,-0.5 3.1,-0.5 0.9,0 1.9,0.1 2.7,0.4 0.4,0.1 1.2,0.2 1.2,0.3 v -3.9 c 0,-12.6 -10.4,-21.9 -22.9,-21.9 H 137.5 C 125,45 115,54.3 115,66.9 v 4.2 c 0,-0.2 0.7,-0.3 1.1,-0.4 1,-0.4 1.9,-0.6 3,-0.6 z"
   id="path22"
   inkscape:connector-curvature="0"
   style="fill:#54b3ed" />
				<path
   class="st4"
   d="m 280.2,70.6 c 1,-0.3 2.1,-0.4 3.1,-0.4 0.9,0 1.7,0.1 2.5,0.3 -0.9,-0.3 -1.8,-0.4 -2.7,-0.4 -1,0 -2,0.2 -2.9,0.5 z"
   id="path24"
   inkscape:connector-curvature="0"
   style="fill:#ffffff" />
				<path
   class="st4"
   d="m 121.6,70.5 c -0.8,-0.2 -1.6,-0.3 -2.5,-0.3 v 0 c -1.1,0 -2.1,0.2 -3.1,0.5 1,-0.3 2.1,-0.4 3.1,-0.4 0.8,-0.1 1.7,0 2.5,0.2 z"
   id="path26"
   inkscape:connector-curvature="0"
   style="fill:#ffffff" />
			</g>
			<path
   class="st2"
   d="m 204.1,170.7 c 2.6,4.6 -2.1,9.3 -6.7,6.7 -0.6,-0.3 -1,-0.8 -1.4,-1.4 -2.6,-4.6 2.1,-9.3 6.7,-6.7 0.6,0.3 1.1,0.8 1.4,1.4 z"
   id="path30"
   inkscape:connector-curvature="0"
   style="fill:#34485e" />
			<path
   class="st2"
   d="m 189.2,170.7 c 2.6,4.6 -2.1,9.3 -6.7,6.7 -0.6,-0.3 -1,-0.8 -1.4,-1.4 -2.6,-4.6 2.1,-9.3 6.7,-6.7 0.6,0.3 1,0.8 1.4,1.4 z"
   id="path32"
   inkscape:connector-curvature="0"
   style="fill:#34485e" />
			<path
   class="st2"
   d="m 219,170.7 c 2.6,4.6 -2.1,9.3 -6.7,6.7 -0.6,-0.3 -1,-0.8 -1.4,-1.4 -2.6,-4.6 2.1,-9.3 6.7,-6.7 0.6,0.3 1,0.8 1.4,1.4 z"
   id="path34"
   inkscape:connector-curvature="0"
   style="fill:#34485e" />
			<path
   class="st2"
   d="m 243.8,118 -14.4,18.9 -47.6,-51.3 -43.6,47 v 13 1.4 c 0,5 4.1,9 9,9 h 0.2 107.1 c 2.1,0 3.9,-0.7 5.5,-1.9 2.2,-1.9 3.5,-5.1 3.5,-8.6 v -1.7 z"
   id="path36"
   inkscape:connector-curvature="0"
   style="fill:#34485e" />
		</g>
	</g>
</g>
</svg>