<?xml version="1.0" encoding="UTF-8" standalone="no"?>
<!-- Generator: Adobe Illustrator 20.1.0, SVG Export Plug-In . SVG Version: 6.00 Build 0)  -->

<svg
   xmlns:dc="http://purl.org/dc/elements/1.1/"
   xmlns:cc="http://creativecommons.org/ns#"
   xmlns:rdf="http://www.w3.org/1999/02/22-rdf-syntax-ns#"
   xmlns:svg="http://www.w3.org/2000/svg"
   xmlns="http://www.w3.org/2000/svg"
   xmlns:sodipodi="http://sodipodi.sourceforge.net/DTD/sodipodi-0.dtd"
   xmlns:inkscape="http://www.inkscape.org/namespaces/inkscape"
   version="1.1"
   id="Layer_1"
   x="0px"
   y="0px"
   viewBox="0 0 170.39999 98.900002"
   xml:space="preserve"
   sodipodi:docname="dropdown.svg"
   inkscape:version="0.92.4 (5da689c313, 2019-01-14)"
   width="170.39999"
   height="98.900002"><metadata
   id="metadata47"><rdf:RDF><cc:Work
       rdf:about=""><dc:format>image/svg+xml</dc:format><dc:type
         rdf:resource="http://purl.org/dc/dcmitype/StillImage" /><dc:title>dropdown</dc:title></cc:Work></rdf:RDF></metadata><defs
   id="defs45" /><sodipodi:namedview
   pagecolor="#ffffff"
   bordercolor="#666666"
   borderopacity="1"
   objecttolerance="10"
   gridtolerance="10"
   guidetolerance="10"
   inkscape:pageopacity="0"
   inkscape:pageshadow="2"
   inkscape:window-width="1280"
   inkscape:window-height="961"
   id="namedview43"
   showgrid="false"
   inkscape:zoom="1"
   inkscape:cx="-19.7507"
   inkscape:cy="48.700005"
   inkscape:window-x="-8"
   inkscape:window-y="-8"
   inkscape:window-maximized="1"
   inkscape:current-layer="g36" />
<style
   type="text/css"
   id="style2">
	.st0{fill:#DDDDDD;}
	.st1{fill:#C6C6C6;}
	.st2{fill:#8DB7E2;}
	.st3{fill:#2376C1;}
	.st4{fill:none;}
</style>
<title
   id="title4">dropdown</title>
<g
   id="Layer_2"
   transform="translate(-119.8,-62.3)">
	<g
   id="accordion">
		<g
   id="g36">
			<rect
   x="125.9"
   y="81.900002"
   class="st0"
   width="157.89999"
   height="79.300003"
   id="rect6"
   style="fill:#dddddd" />
			<rect
   x="125.9"
   y="81.900002"
   class="st1"
   width="157.89999"
   height="13.2"
   id="rect8"
   style="fill:#c6c6c6" />
			
			<path
   class="st2"
   d="m 122.8,62.3 h 164.4 c 1.7,0 3,1.4 3,3 v 21.6 c 0,1.7 -1.4,3 -3,3 H 122.8 c -1.7,0 -3,-1.4 -3,-3 V 65.3 c 0,-1.7 1.3,-3 3,-3 z"
   id="path12"
   inkscape:connector-curvature="0"
   style="fill:#8db7e2" />
			
			
			<rect
   x="148.10001"
   y="71.400002"
   class="st3"
   width="43.200001"
   height="9.3000002"
   id="rect18"
   style="fill:#2376c1" />
			<rect
   x="134.89999"
   y="98.300003"
   class="st2"
   width="120.1"
   height="9.3000002"
   id="rect20"
   style="fill:#8db7e2" />
			<rect
   x="134.89999"
   y="113.4"
   class="st2"
   width="99"
   height="9.3000002"
   id="rect22"
   style="fill:#8db7e2" />
			<rect
   x="134.89999"
   y="128.60001"
   class="st2"
   width="78.699997"
   height="9.3999996"
   id="rect24"
   style="fill:#8db7e2" />
			<rect
   x="134.89999"
   y="143.7"
   class="st2"
   width="93.599998"
   height="9.3999996"
   id="rect26"
   style="fill:#8db7e2" />
			
			
			
			<path
   class="st3"
   d="m 135.5,81.2 c -0.3,0.3 -0.7,0.3 -0.9,0 0,0 0,0 0,0 L 127,73.6 c -0.3,-0.3 -0.3,-0.7 0,-0.9 l 1.7,-1.7 c 0.3,-0.3 0.7,-0.3 0.9,0 0,0 0,0 0,0 l 5.4,5.4 5.5,-5.4 c 0.3,-0.3 0.7,-0.3 0.9,0 0,0 0,0 0,0 l 1.7,1.7 c 0.3,0.3 0.3,0.7 0,0.9 z"
   id="path34"
   inkscape:connector-curvature="0"
   style="fill:#2376c1" />
		</g>
		<rect
   class="st4"
   width="400"
   height="225"
   id="rect38"
   x="0"
   y="0"
   style="fill:none" />
	</g>
</g>
</svg>