<?xml version="1.0" encoding="UTF-8" standalone="no"?>
<!-- Generator: Adobe Illustrator 20.1.0, SVG Export Plug-In . SVG Version: 6.00 Build 0)  -->

<svg
   xmlns:dc="http://purl.org/dc/elements/1.1/"
   xmlns:cc="http://creativecommons.org/ns#"
   xmlns:rdf="http://www.w3.org/1999/02/22-rdf-syntax-ns#"
   xmlns:svg="http://www.w3.org/2000/svg"
   xmlns="http://www.w3.org/2000/svg"
   xmlns:sodipodi="http://sodipodi.sourceforge.net/DTD/sodipodi-0.dtd"
   xmlns:inkscape="http://www.inkscape.org/namespaces/inkscape"
   version="1.1"
   id="Layer_1"
   x="0px"
   y="0px"
   viewBox="0 0 143.58714 70.602745"
   xml:space="preserve"
   sodipodi:docname="imageleft.svg"
   width="143.58714"
   height="70.602745"
   inkscape:version="0.92.4 (5da689c313, 2019-01-14)"><metadata
   id="metadata125"><rdf:RDF><cc:Work
       rdf:about=""><dc:format>image/svg+xml</dc:format><dc:type
         rdf:resource="http://purl.org/dc/dcmitype/StillImage" /><dc:title>interactive video</dc:title></cc:Work></rdf:RDF></metadata><defs
   id="defs123" /><sodipodi:namedview
   pagecolor="#ffffff"
   bordercolor="#666666"
   borderopacity="1"
   objecttolerance="10"
   gridtolerance="10"
   guidetolerance="10"
   inkscape:pageopacity="0"
   inkscape:pageshadow="2"
   inkscape:window-width="1280"
   inkscape:window-height="961"
   id="namedview121"
   showgrid="true"
   inkscape:zoom="3.6840263"
   inkscape:cx="49.298649"
   inkscape:cy="-4.7858141"
   inkscape:window-x="-8"
   inkscape:window-y="-8"
   inkscape:window-maximized="1"
   inkscape:current-layer="g28"><inkscape:grid
     type="xygrid"
     id="grid53"
     originx="11.488231"
     originy="0.30273663" /></sodipodi:namedview>
<style
   type="text/css"
   id="style2">
	.st0{fill:none;}
	.st1{fill:#CECECE;}
	.st2{fill:#FFFFFF;}
	.st3{fill:#FAC361;}
	.st4{fill:#97BAF6;}
	.st5{fill:#F0F1F5;}
	.st6{fill:#3C5F84;}
	.st7{opacity:0.2;}
	.st8{fill:#51BC86;}
</style>
<title
   id="title4">interactive video</title>
<g
   id="Layer_2"
   transform="translate(-93.111759,-40.6)">
	<g
   id="interactive_video">
		<rect
   class="st0"
   width="400"
   height="225"
   id="rect6"
   x="0"
   y="0"
   style="fill:none" />
		<g
   id="g14">
			
		</g>
		<g
   id="g28">
			<g
   id="g22"
   transform="matrix(1.1823532,0,0,1.0043065,-30.562386,-0.17484422)">
				<rect
   x="109.3"
   y="45"
   class="st2"
   width="53.700001"
   height="45.299999"
   id="rect16"
   style="fill:#ffffff" />
				
				<path
   class="st4"
   d="M 163.1,53.9 163,100.64144 H 109.1 L 109.2,50 c 0.004,-1.899995 1.6,-3.5 3.5,-3.5 h 47 c 1.9,0 3.5,1.6 3.5,3.5 v 3.9 z m -2.5,-13.3 h -49 c -3.9,0 -7,3.1 -7,7 v 56.3 c 0,3.9 3.1,7 7,7 h 49 c 3.9,0 7,-3.1 7,-7 V 47.6 c 0,-3.8 -3.1,-7 -7,-7 z"
   id="path20"
   inkscape:connector-curvature="0"
   style="fill:#97baf6"
   sodipodi:nodetypes="cccssssccsssssssss" />
			</g>
			
			
		<circle
   class="st3"
   cx="115.10352"
   cy="62.000591"
   r="7.4488254"
   id="circle18"
   style="fill:#fac361;stroke-width:1.18235314" /></g>
		
		
		
		
		
		
		
		
		<path
   class="st6"
   d="m 158.49588,83.401184 3.6653,2.837647 V 100.90001 H 98.432341 v -6.148236 l 11.823529,-8.631178 c 1.41882,-1.064118 3.78353,-1.064118 5.32059,0 l 4.61118,3.310589 5.67529,-4.138236 14.89765,-10.877649 c 1.41883,-1.064118 3.78354,-1.064118 5.32059,0 z"
   id="path94"
   inkscape:connector-curvature="0"
   style="fill:#3c5f84;stroke-width:1.18235314" />
		
	<rect
   x="169.95784"
   y="41.171444"
   class="st2"
   width="66.741066"
   height="9.3000002"
   id="rect20"
   style="fill:#8db7e2;stroke-width:0.74546129" /><rect
   x="169.95784"
   y="56.171444"
   class="st2"
   width="55.015541"
   height="9.3000002"
   id="rect22"
   style="fill:#8db7e2;stroke-width:0.74546129" /><rect
   x="169.95784"
   y="71.17144"
   class="st2"
   width="43.734573"
   height="9.3999996"
   id="rect24"
   style="fill:#8db7e2;stroke-width:0.74546129" /><rect
   x="169.95784"
   y="86.17144"
   class="st2"
   width="52.01469"
   height="9.3999996"
   id="rect26"
   style="fill:#8db7e2;stroke-width:0.74546129" /><rect
   x="169.95784"
   y="101.17144"
   class="st2"
   width="66.741066"
   height="9.3000002"
   id="rect20-7"
   style="fill:#8db7e2;stroke-width:0.74546129" /></g>
</g>
</svg>