<?xml version="1.0" encoding="UTF-8" standalone="no"?>
<!-- Generator: Adobe Illustrator 20.1.0, SVG Export Plug-In . SVG Version: 6.00 Build 0)  -->

<svg
   xmlns:dc="http://purl.org/dc/elements/1.1/"
   xmlns:cc="http://creativecommons.org/ns#"
   xmlns:rdf="http://www.w3.org/1999/02/22-rdf-syntax-ns#"
   xmlns:svg="http://www.w3.org/2000/svg"
   xmlns="http://www.w3.org/2000/svg"
   xmlns:sodipodi="http://sodipodi.sourceforge.net/DTD/sodipodi-0.dtd"
   xmlns:inkscape="http://www.inkscape.org/namespaces/inkscape"
   version="1.1"
   id="Layer_1"
   x="0px"
   y="0px"
   viewBox="0 0 132.0989 70.300003"
   xml:space="preserve"
   sodipodi:docname="imagecaptionedleft.svg"
   width="132.09891"
   height="70.300003"
   inkscape:version="0.92.4 (5da689c313, 2019-01-14)"><metadata
   id="metadata125"><rdf:RDF><cc:Work
       rdf:about=""><dc:format>image/svg+xml</dc:format><dc:type
         rdf:resource="http://purl.org/dc/dcmitype/StillImage" /><dc:title>interactive video</dc:title></cc:Work></rdf:RDF></metadata><defs
   id="defs123" /><sodipodi:namedview
   pagecolor="#ffffff"
   bordercolor="#666666"
   borderopacity="1"
   objecttolerance="10"
   gridtolerance="10"
   guidetolerance="10"
   inkscape:pageopacity="0"
   inkscape:pageshadow="2"
   inkscape:window-width="1280"
   inkscape:window-height="961"
   id="namedview121"
   showgrid="false"
   inkscape:zoom="3.6840263"
   inkscape:cx="49.075257"
   inkscape:cy="-5.0885577"
   inkscape:window-x="-8"
   inkscape:window-y="-8"
   inkscape:window-maximized="1"
   inkscape:current-layer="interactive_video"><inkscape:grid
     type="xygrid"
     id="grid53"
     originx="-1.9999999e-06"
     originy="-6.1035156e-06" /></sodipodi:namedview>
<style
   type="text/css"
   id="style2">
	.st0{fill:none;}
	.st1{fill:#CECECE;}
	.st2{fill:#FFFFFF;}
	.st3{fill:#FAC361;}
	.st4{fill:#97BAF6;}
	.st5{fill:#F0F1F5;}
	.st6{fill:#3C5F84;}
	.st7{opacity:0.2;}
	.st8{fill:#51BC86;}
</style>
<title
   id="title4">interactive video</title>
<g
   id="Layer_2"
   transform="translate(-104.6,-40.6)">
	<g
   id="interactive_video">
		<rect
   class="st0"
   width="400"
   height="225"
   id="rect6"
   x="0"
   y="0"
   style="fill:none" />
		<g
   id="g14">
			
		</g>
		<g
   id="g28">
			<g
   id="g22">
				<rect
   x="109.3"
   y="45"
   class="st2"
   width="53.700001"
   height="45.299999"
   id="rect16"
   style="fill:#ffffff" />
				<circle
   class="st3"
   cx="123.2"
   cy="58.700001"
   r="6.3000002"
   id="circle18"
   style="fill:#fac361" />
				<path
   class="st4"
   d="M 163.1,53.9 V 90.7 H 109.2 V 50 c 0,-1.9 1.6,-3.5 3.5,-3.5 h 47 c 1.9,0 3.5,1.6 3.5,3.5 v 3.9 z m -2.5,-13.3 h -49 c -3.9,0 -7,3.1 -7,7 v 56.3 c 0,3.9 3.1,7 7,7 h 49 c 3.9,0 7,-3.1 7,-7 V 47.6 c 0,-3.8 -3.1,-7 -7,-7 z"
   id="path20"
   inkscape:connector-curvature="0"
   style="fill:#97baf6" />
			</g>
			<path
   class="st5"
   d="m 154.5,98.6 h -36.8 c -0.7,0 -1.3,-0.6 -1.3,-1.3 v -1 c 0,-0.7 0.6,-1.3 1.3,-1.3 h 36.8 c 0.7,0 1.3,0.6 1.3,1.3 v 1 c 0,0.7 -0.6,1.3 -1.3,1.3 z"
   id="path24"
   inkscape:connector-curvature="0"
   style="fill:#f0f1f5" />
			<path
   class="st5"
   d="m 145.9,101.9 h -19.5 c -0.7,0 -1.3,0.6 -1.3,1.3 v 1 c 0,0.7 0.6,1.3 1.3,1.3 h 19.5 c 0.7,0 1.3,-0.6 1.3,-1.3 v -1 c -0.1,-0.7 -0.6,-1.3 -1.3,-1.3 z"
   id="path26"
   inkscape:connector-curvature="0"
   style="fill:#f0f1f5" />
		</g>
		
		
		
		
		
		
		
		
		<path
   class="st6"
   d="m 159.9,76.8 3.1,2.4 v 12.4 h -53.9 v -5.2 l 10,-7.3 c 1.2,-0.9 3.2,-0.9 4.5,0 l 3.9,2.8 4.8,-3.5 12.6,-9.2 c 1.2,-0.9 3.2,-0.9 4.5,0 z"
   id="path94"
   inkscape:connector-curvature="0"
   style="fill:#3c5f84" />
		
	<rect
   x="169.95784"
   y="41.171444"
   class="st2"
   width="66.741066"
   height="9.3000002"
   id="rect20"
   style="fill:#8db7e2;stroke-width:0.74546129" /><rect
   x="169.95784"
   y="56.171444"
   class="st2"
   width="55.015541"
   height="9.3000002"
   id="rect22"
   style="fill:#8db7e2;stroke-width:0.74546129" /><rect
   x="169.95784"
   y="71.17144"
   class="st2"
   width="43.734573"
   height="9.3999996"
   id="rect24"
   style="fill:#8db7e2;stroke-width:0.74546129" /><rect
   x="169.95784"
   y="86.17144"
   class="st2"
   width="52.01469"
   height="9.3999996"
   id="rect26"
   style="fill:#8db7e2;stroke-width:0.74546129" /><rect
   x="169.95784"
   y="101.17144"
   class="st2"
   width="66.741066"
   height="9.3000002"
   id="rect20-7"
   style="fill:#8db7e2;stroke-width:0.74546129" /></g>
</g>
</svg>