<?xml version="1.0" encoding="UTF-8" standalone="no"?>
<!-- Generator: Adobe Illustrator 20.1.0, SVG Export Plug-In . SVG Version: 6.00 Build 0)  -->

<svg
   xmlns:dc="http://purl.org/dc/elements/1.1/"
   xmlns:cc="http://creativecommons.org/ns#"
   xmlns:rdf="http://www.w3.org/1999/02/22-rdf-syntax-ns#"
   xmlns:svg="http://www.w3.org/2000/svg"
   xmlns="http://www.w3.org/2000/svg"
   xmlns:sodipodi="http://sodipodi.sourceforge.net/DTD/sodipodi-0.dtd"
   xmlns:inkscape="http://www.inkscape.org/namespaces/inkscape"
   version="1.1"
   id="Layer_1"
   x="0px"
   y="0px"
   viewBox="0 0 170.79812 84"
   xml:space="preserve"
   sodipodi:docname="imagecaptionedcenter.svg"
   width="170.79813"
   height="84"
   inkscape:version="0.92.4 (5da689c313, 2019-01-14)"><metadata
   id="metadata125"><rdf:RDF><cc:Work
       rdf:about=""><dc:format>image/svg+xml</dc:format><dc:type
         rdf:resource="http://purl.org/dc/dcmitype/StillImage" /><dc:title>interactive video</dc:title></cc:Work></rdf:RDF></metadata><defs
   id="defs123" /><sodipodi:namedview
   pagecolor="#ffffff"
   bordercolor="#666666"
   borderopacity="1"
   objecttolerance="10"
   gridtolerance="10"
   guidetolerance="10"
   inkscape:pageopacity="0"
   inkscape:pageshadow="2"
   inkscape:window-width="1280"
   inkscape:window-height="961"
   id="namedview121"
   showgrid="true"
   inkscape:zoom="3.6840263"
   inkscape:cx="53.209473"
   inkscape:cy="-6.0885573"
   inkscape:window-x="-8"
   inkscape:window-y="-8"
   inkscape:window-maximized="1"
   inkscape:current-layer="interactive_video"><inkscape:grid
     type="xygrid"
     id="grid53"
     originx="15.399064"
     originy="-1.0000036" /></sodipodi:namedview>
<style
   type="text/css"
   id="style2">
	.st0{fill:none;}
	.st1{fill:#CECECE;}
	.st2{fill:#FFFFFF;}
	.st3{fill:#FAC361;}
	.st4{fill:#97BAF6;}
	.st5{fill:#F0F1F5;}
	.st6{fill:#3C5F84;}
	.st7{opacity:0.2;}
	.st8{fill:#51BC86;}
</style>
<title
   id="title4">interactive video</title>
<g
   id="Layer_2"
   transform="translate(-89.200936,-25.900012)">
	<g
   id="interactive_video">
		<rect
   class="st0"
   width="400"
   height="225"
   id="rect6"
   x="0"
   y="0"
   style="fill:none" />
		<g
   id="g14">
			
		</g>
		<g
   id="g28"
   transform="translate(38.699998,-0.99999084)">
			<g
   id="g22">
				<rect
   x="109.3"
   y="32.157467"
   class="st2"
   width="53.700001"
   height="54.128017"
   id="rect16"
   style="fill:#ffffff;stroke-width:1.0931052" />
				<ellipse
   class="st3"
   cx="123.2"
   cy="48.527313"
   id="circle18"
   style="fill:#fac361;stroke-width:1.0931052"
   rx="6.3000002"
   ry="7.5277381" />
				<path
   class="st4"
   d="M 163.1,42.791894 V 86.763443 H 109.2 V 38.131866 c 0,-2.27027 1.6,-4.182077 3.5,-4.182077 h 47 c 1.9,0 3.5,1.911807 3.5,4.182077 v 4.660028 z m -2.5,-15.891891 h -49 c -3.9,0 -7,3.704125 -7,8.364153 v 67.271684 c 0,4.66004 3.1,8.36416 7,8.36416 h 49 c 3.9,0 7,-3.70412 7,-8.36416 V 35.264156 c 0,-4.54054 -3.1,-8.364153 -7,-8.364153 z"
   id="path20"
   inkscape:connector-curvature="0"
   style="fill:#97baf6;stroke-width:1.0931052" />
			</g>
			<path
   class="st5"
   d="m 154.5,96.202988 h -36.8 c -0.7,0 -1.3,-0.716927 -1.3,-1.553343 v -1.194879 c 0,-0.836415 0.6,-1.553343 1.3,-1.553343 h 36.8 c 0.7,0 1.3,0.716928 1.3,1.553343 v 1.194879 c 0,0.836416 -0.6,1.553343 -1.3,1.553343 z"
   id="path24"
   inkscape:connector-curvature="0"
   style="fill:#ffffff;fill-opacity:1;stroke-width:1.0931052" />
			<path
   class="st5"
   d="m 145.9,100.14609 h -19.5 c -0.7,0 -1.3,0.71693 -1.3,1.55334 v 1.19488 c 0,0.83642 0.6,1.55334 1.3,1.55334 h 19.5 c 0.7,0 1.3,-0.71692 1.3,-1.55334 v -1.19488 c -0.1,-0.83641 -0.6,-1.55334 -1.3,-1.55334 z"
   id="path26"
   inkscape:connector-curvature="0"
   style="fill:#ffffff;fill-opacity:1;stroke-width:1.0931052" />
		</g>
		
		
		
		
		
		
		
		
		<path
   class="st6"
   d="m 197.63046,70.349502 3.1,2.867709 v 14.816501 h -53.9 V 81.82034 l 10,-8.722616 c 1.2,-1.075392 3.2,-1.075392 4.5,0 l 3.9,3.345661 4.8,-4.182077 12.6,-10.992888 c 1.2,-1.07539 3.2,-1.07539 4.5,0 z"
   id="path94"
   inkscape:connector-curvature="0"
   style="fill:#3c5f84;stroke-width:1.0931052" />
		
	<path
   class="st3"
   d="m 259.30955,67.954641 c 0.91935,0.98961 0.91935,2.309091 0,2.968832 0,0 0,0 0,0 l -23.29012,25.070199 c -0.91935,0.989611 -2.14514,0.989611 -2.75805,0 l -5.20962,-5.607806 c -0.91935,-0.989611 -0.91935,-2.309092 0,-2.968844 0,0 0,0 0,0 L 244.6,69.274121 228.05176,51.131221 c -0.91935,-0.989622 -0.91935,-2.309104 0,-2.968844 0,0 0,0 0,0 l 5.20962,-5.607806 c 0.91935,-0.989612 2.14515,-0.989612 2.75805,0 z"
   id="path32"
   inkscape:connector-curvature="0"
   style="fill:#2376c1;stroke-width:3.17944336" /><path
   class="st3"
   d="m 89.890448,67.954641 c -0.91935,0.98961 -0.91935,2.309091 0,2.968844 0,0 0,0 0,0 l 23.290122,25.070187 c 0.91935,0.989612 2.14514,0.989612 2.75805,0 l 5.20962,-5.607806 c 0.91935,-0.989611 0.91935,-2.309092 0,-2.968844 0,0 0,0 0,0 L 104.6,69.274121 121.14824,51.13122 c 0.91935,-0.989613 0.91935,-2.309097 0,-2.968838 0,0 0,0 0,0 l -5.20962,-5.607807 c -0.91935,-0.989611 -2.14515,-0.989611 -2.75805,0 z"
   id="path32-5"
   inkscape:connector-curvature="0"
   style="fill:#2376c1;stroke-width:3.17944336" /></g>
<rect
   style="fill:#2376c1;fill-opacity:1;stroke-width:1.04957116"
   id="rect107"
   width="44.044315"
   height="13.946643"
   x="209.59999"
   y="62.443794"
   ry="1.1948791" /><rect
   style="fill:#2376c1;fill-opacity:1;stroke-width:1.06089711"
   id="rect107-4"
   width="45.000004"
   height="13.946643"
   x="94.599991"
   y="62.599236"
   ry="1.1948791" /></g>
</svg>