<?xml version="1.0" encoding="UTF-8" standalone="no"?>
<!DOCTYPE svg PUBLIC "-//W3C//DTD SVG 1.1//EN" "http://www.w3.org/Graphics/SVG/1.1/DTD/svg11.dtd">
<!-- Created with Vectornator (http://vectornator.io/) -->
<svg height="100%" stroke-miterlimit="10" style="fill-rule:nonzero;clip-rule:evenodd;stroke-linecap:round;stroke-linejoin:round;" version="1.1" viewBox="0 0 1044 524.592" width="100%" xml:space="preserve" xmlns="http://www.w3.org/2000/svg" xmlns:vectornator="http://vectornator.io" xmlns:xlink="http://www.w3.org/1999/xlink">
<defs/>
<g id="Untitled" vectornator:layerName="Untitled">
<path d="M26.0439 390.4L91.2746 390.4C104.779 390.4 115.736 377.922 115.736 362.543L115.736 288.257C115.736 272.877 104.779 260.4 91.2746 260.4L50.5054 260.4L50.5054 223.257C50.5054 202.77 65.1314 186.114 83.1208 186.114L87.1977 186.114C93.9756 186.114 99.4285 179.904 99.4285 172.185L99.4285 144.328C99.4285 136.61 93.9756 130.4 87.1977 130.4L83.1208 130.4C38.0708 130.4 1.5823 171.953 1.5823 223.257L1.5823 362.543C1.5823 377.922 12.5391 390.4 26.0439 390.4ZM172.813 390.4L238.044 390.4C251.549 390.4 262.505 377.922 262.505 362.543L262.505 288.257C262.505 272.877 251.549 260.4 238.044 260.4L197.275 260.4L197.275 223.257C197.275 202.77 211.901 186.114 229.89 186.114L233.967 186.114C240.745 186.114 246.198 179.904 246.198 172.185L246.198 144.328C246.198 136.61 240.745 130.4 233.967 130.4L229.89 130.4C184.84 130.4 148.352 171.953 148.352 223.257L148.352 362.543C148.352 377.922 159.308 390.4 172.813 390.4Z" fill="#000000" fill-rule="nonzero" opacity="1" stroke="none" vectornator:layerName="path"/>
<path d="M1017.78 130.4L952.553 130.4C939.048 130.4 928.091 142.877 928.091 158.257L928.091 232.543C928.091 247.922 939.048 260.4 952.553 260.4L993.322 260.4L993.322 297.543C993.322 318.029 978.696 334.685 960.706 334.685L956.629 334.685C949.852 334.685 944.399 340.895 944.399 348.614L944.399 376.471C944.399 384.19 949.852 390.4 956.629 390.4L960.706 390.4C1005.76 390.4 1042.24 348.846 1042.24 297.543L1042.24 158.257C1042.24 142.877 1031.29 130.4 1017.78 130.4ZM871.014 130.4L805.783 130.4C792.279 130.4 781.322 142.877 781.322 158.257L781.322 232.543C781.322 247.922 792.279 260.4 805.783 260.4L846.553 260.4L846.553 297.543C846.553 318.029 831.927 334.685 813.937 334.685L809.86 334.685C803.082 334.685 797.629 340.895 797.629 348.614L797.629 376.471C797.629 384.19 803.082 390.4 809.86 390.4L813.937 390.4C858.987 390.4 895.476 348.846 895.476 297.543L895.476 158.257C895.476 142.877 884.519 130.4 871.014 130.4Z" fill="#000000" fill-rule="nonzero" opacity="1" stroke="none" vectornator:layerName="path"/>
</g>
<g id="g106" vectornator:layerName="g106">
<path d="M316.25 113.548L732.71 113.548L732.71 113.548L732.71 183.948L732.71 183.948L316.25 183.948L316.25 183.948L316.25 113.548L316.25 113.548Z" fill="#8db7e2" fill-rule="nonzero" opacity="1" stroke="none" vectornator:layerName="rect"/>
<path d="M316.25 227.221L732.71 227.221L732.71 227.221L732.71 297.62L732.71 297.62L316.25 297.62L316.25 297.62L316.25 227.221L316.25 227.221Z" fill="#8db7e2" fill-rule="nonzero" opacity="1" stroke="none" vectornator:layerName="rect"/>
<path d="M316.25 341.313L732.71 341.313L732.71 341.313L732.71 411.713L732.71 411.713L316.25 411.713L316.25 411.713L316.25 341.313L316.25 341.313Z" fill="#8db7e2" fill-rule="nonzero" opacity="1" stroke="none" vectornator:layerName="rect"/>
</g>
</svg>
