<?xml version="1.0" encoding="UTF-8"?>
<svg version="1.1" xmlns="http://www.w3.org/2000/svg" width="1614" height="369">
<path d="M0 0 C97.26998391 0 97.26998391 0 112.375 13.5625 C120.06194705 21.98231277 124.14938445 32.73722002 125 44 C125.06960938 44.82886719 125.13921875 45.65773437 125.2109375 46.51171875 C125.70300677 58.26460391 122.3835267 68.85084735 115 78 C112.46930076 80.53526729 109.80969001 82.78454328 107 85 C106.34 85.66 105.68 86.32 105 87 C105.87011719 87.52787109 105.87011719 87.52787109 106.7578125 88.06640625 C116.77120516 94.3950026 123.11235204 102.49273431 126.3125 114.0625 C129.00188074 128.67307807 127.43029726 144.58891581 119.7734375 157.4375 C112.72425004 167.62311007 102.60143742 174.11058115 90.6875 177.375 C60.87861467 182.42735345 30.23401925 179 0 179 C0 119.93 0 60.86 0 0 Z M35 30 C35 43.86 35 57.72 35 72 C41.290625 72.061875 47.58125 72.12375 54.0625 72.1875 C56.03484619 72.21481201 58.00719238 72.24212402 60.03930664 72.27026367 C61.6212503 72.27903425 63.20320079 72.28667683 64.78515625 72.29296875 C65.59142456 72.30831665 66.39769287 72.32366455 67.22839355 72.33947754 C74.71277659 72.34290812 80.50079986 70.34644458 86 65 C89.78685009 59.31972486 90.51338256 53.05270232 89.66796875 46.37890625 C88.29274135 40.54971658 85.86849296 37.21401031 81.328125 33.375 C75.54451284 29.95917537 69.75798445 29.71705759 63.22265625 29.8046875 C62.14220032 29.80770874 62.14220032 29.80770874 61.03991699 29.81079102 C58.38071207 29.82115829 55.7215988 29.84907995 53.0625 29.875 C47.101875 29.91625 41.14125 29.9575 35 30 Z M35 103 C35 117.85 35 132.7 35 148 C44.838125 148.1546875 44.838125 148.1546875 54.875 148.3125 C57.94917236 148.38078003 57.94917236 148.38078003 61.08544922 148.45043945 C74.39065958 148.84215932 74.39065958 148.84215932 86 143 C92.07295399 135.59364033 92.68939858 128.38074498 92 119 C90.85289196 114.32722166 88.43200009 110.3416843 85 107 C78.76800422 103.34679469 73.27892083 102.43559776 66.15234375 102.609375 C64.95695984 102.61541748 64.95695984 102.61541748 63.73742676 102.62158203 C60.80387846 102.64226937 57.87066232 102.69811204 54.9375 102.75 C45.0684375 102.87375 45.0684375 102.87375 35 103 Z " fill="#FFFFFF" transform="translate(333,3)"/>
<path d="M0 0 C6.40397211 2.38308195 12.12033412 5.58094549 17.96264648 9.10644531 C20.09892032 10.37412247 22.23565498 11.64102328 24.37280273 12.90722656 C25.46995605 13.56029785 26.56710938 14.21336914 27.69750977 14.88623047 C33.07183964 18.06824383 38.48592755 21.1804521 43.90014648 24.29394531 C46.08511168 25.55293952 48.27000718 26.81205471 50.45483398 28.07128906 C51.53990234 28.69632324 52.6249707 29.32135742 53.74291992 29.96533203 C59.17174591 33.0932468 64.5983393 36.22502979 70.02514648 39.35644531 C72.19180231 40.6064641 74.35846898 41.8564641 76.52514648 43.10644531 C89.52514648 50.60644531 89.52514648 50.60644531 92.77807617 52.4831543 C94.93495552 53.72749529 97.0918564 54.97179895 99.2487793 56.21606445 C104.23550296 59.09281742 109.22205149 61.96987179 114.20774841 64.84840393 C115.93529485 65.84576892 117.66295953 66.84292911 119.390625 67.84008789 C121.61543459 69.12445283 123.83989183 70.40942835 126.06396484 71.69506836 C130.60823177 74.3198257 135.15433177 76.93904572 139.73217773 79.50488281 C140.7332959 80.06767944 140.7332959 80.06767944 141.75463867 80.6418457 C143.42678805 81.5788106 145.10272527 82.50900736 146.77905273 83.43847656 C149.02514648 84.85644531 149.02514648 84.85644531 150.02514648 86.85644531 C150.40014648 89.73144531 150.40014648 89.73144531 150.02514648 92.85644531 C146.87034312 95.72977662 143.45981828 97.8924978 139.76342773 100.00097656 C138.74055664 100.5875 137.71768555 101.17402344 136.66381836 101.77832031 C135.56618164 102.40222656 134.46854492 103.02613281 133.33764648 103.66894531 C132.17527931 104.33385943 131.01317467 104.99923268 129.85131836 105.66503906 C127.43973188 107.04653661 125.02703304 108.42606096 122.61352539 109.80419922 C117.07343693 112.96983086 111.55020667 116.16468418 106.02514648 119.35644531 C103.85855852 120.60658173 101.69189161 121.85658131 99.52514648 123.10644531 C98.45264648 123.72519531 97.38014648 124.34394531 96.27514648 124.98144531 C60.52514649 145.60644531 60.52514649 145.60644531 57.27172852 147.48339844 C55.11643338 148.72685041 52.96115976 149.97033967 50.8059082 151.21386719 C45.80176975 154.10107406 40.79744128 156.98794962 35.79229736 159.87341309 C34.04173408 160.88263635 32.29124238 161.89198368 30.54077148 162.90136719 C28.36122484 164.15812191 26.18154816 165.41465117 24.00170898 166.67089844 C23.00139648 167.24775391 22.00108398 167.82460938 20.97045898 168.41894531 C19.99496094 168.9796875 19.01946289 169.54042969 18.0144043 170.11816406 C15.92558766 171.33283039 13.84757219 172.56617731 11.77807617 173.81347656 C10.19494629 174.76287109 10.19494629 174.76287109 8.57983398 175.73144531 C7.63350098 176.30636719 6.68716797 176.88128906 5.7121582 177.47363281 C3.00434127 178.86715227 1.06806519 179.70804042 -1.97485352 179.85644531 C-4.09328461 178.7979126 -4.09328461 178.7979126 -5.97485352 176.85644531 C-6.47821808 173.77825928 -6.47821808 173.77825928 -6.48278809 169.91015625 C-6.48902805 169.19917156 -6.49526801 168.48818687 -6.50169706 167.7556572 C-6.51768532 165.36704348 -6.50500094 162.97944206 -6.49243164 160.59082031 C-6.4978502 158.88097537 -6.50497136 157.1711351 -6.51367188 155.46130371 C-6.5319399 150.81255189 -6.52482343 146.16415431 -6.51215553 141.51539612 C-6.50204583 136.65608752 -6.51141555 131.79680976 -6.5177002 126.9375 C-6.52498253 118.77631165 -6.51537354 110.61526796 -6.49633789 102.45410156 C-6.47456802 93.01149782 -6.48161898 83.56923951 -6.50364351 74.12664413 C-6.52178083 66.02721062 -6.52436402 57.92788125 -6.51388884 49.82843399 C-6.50764471 44.98757513 -6.50684345 40.14687877 -6.52003479 35.30603027 C-6.53156845 30.75543505 -6.52361331 26.20528625 -6.50045776 21.65473938 C-6.49515733 19.98217003 -6.49670718 18.30956326 -6.50550842 16.63700867 C-6.51639557 14.35840575 -6.50278545 12.0812447 -6.48278809 9.80273438 C-6.48127998 8.52626038 -6.47977188 7.24978638 -6.47821808 5.93463135 C-5.97485352 2.85644531 -5.97485352 2.85644531 -4.06653595 0.91333008 C-1.97485352 -0.14355469 -1.97485352 -0.14355469 0 0 Z " fill="#96CC64" transform="translate(108.974853515625,95.1435546875)"/>
<path d="M0 0 C95.54307155 0 95.54307155 0 111.375 14.5625 C123.12031161 27.09210766 125.6185954 41.94223298 125.30859375 58.4921875 C124.83718931 69.94281641 121.44338642 79.19463224 114 88 C113.47664062 88.63421875 112.95328125 89.2684375 112.4140625 89.921875 C108.97895209 93.70887477 105.19469391 96.17347324 100.76171875 98.70703125 C99.14269653 99.63672729 99.14269653 99.63672729 97.4909668 100.58520508 C96.66894775 101.0520874 95.84692871 101.51896973 95 102 C95.46353882 102.9204158 95.92707764 103.8408316 96.40466309 104.78913879 C100.76690591 113.45287605 105.12284867 122.11975474 109.47260284 130.78976917 C111.7091921 135.247275 113.94800577 139.70363435 116.19189453 144.1574707 C118.35625876 148.45366359 120.51479035 152.75273977 122.66926575 157.05389977 C123.49331 158.69643437 124.31946993 160.33790928 125.14775085 161.97831154 C126.30524885 164.27161128 127.45524685 166.56852362 128.60351562 168.86645508 C128.94949295 169.5476239 129.29547028 170.22879272 129.65193176 170.93060303 C131.08777906 173.82131777 132 175.72594265 132 179 C118.8 179 105.6 179 92 179 C90.185 175.08125 88.37 171.1625 86.5 167.125 C80.5132511 154.21303043 74.46272047 141.33171439 68.3828125 128.46337891 C59 108.59083026 59 108.59083026 59 106 C50.75 106 42.5 106 34 106 C34 130.09 34 154.18 34 179 C22.78 179 11.56 179 0 179 C0 119.93 0 60.86 0 0 Z M34 30 C34 45.51 34 61.02 34 77 C40.27 77.061875 46.54 77.12375 53 77.1875 C54.96324219 77.21481201 56.92648437 77.24212402 58.94921875 77.27026367 C60.5286396 77.27903648 62.10806731 77.28667853 63.6875 77.29296875 C64.48865234 77.30831665 65.28980469 77.32366455 66.11523438 77.33947754 C72.49805751 77.34240365 78.18188189 76.34679522 83.2421875 72.1328125 C84.05042969 71.13894531 84.05042969 71.13894531 84.875 70.125 C85.42929687 69.46757813 85.98359375 68.81015625 86.5546875 68.1328125 C91.14735173 61.3555296 90.65206469 53.85821544 90 46 C88.56258294 40.06838024 85.09882141 36.77397539 80.29296875 33.2265625 C74.39402597 30.07108033 68.76497815 29.71696382 62.22265625 29.8046875 C61.14220032 29.80770874 61.14220032 29.80770874 60.03991699 29.81079102 C57.38071207 29.82115829 54.7215988 29.84907995 52.0625 29.875 C46.101875 29.91625 40.14125 29.9575 34 30 Z " fill="#FFFFFF" transform="translate(485,3)"/>
<path d="M0 0 C0.07020285 17.55946939 0.12304327 35.11889473 0.15543652 52.67847252 C0.17087966 60.83240842 0.19192012 68.98625693 0.22631836 77.14013672 C0.25629915 84.25030282 0.27559354 91.36040559 0.28226548 98.47063315 C0.2861631 102.23251986 0.29526923 105.99422548 0.31719017 109.75605392 C0.33769283 113.30354507 0.34380629 116.8507821 0.33932304 120.39832687 C0.34052996 122.3072714 0.35659952 124.21618884 0.3732605 126.12506104 C0.32913879 138.51501741 -2.48177327 148.08896111 -11.07421875 157.19921875 C-20.10342763 165.72417862 -29.28344466 168.47925301 -41.55859375 168.24609375 C-55.59572887 167.24230316 -65.33780798 158.34303264 -76 150 C-77.55292558 148.79628152 -79.10630062 147.59314265 -80.66015625 146.390625 C-83.67261225 144.05439503 -86.67780024 141.70916321 -89.6796875 139.359375 C-94.32270318 135.7350539 -99.02965217 132.20083132 -103.75073242 128.67919922 C-109.36219702 124.48972841 -114.93399798 120.24963653 -120.5 116 C-128.12554678 110.17992169 -135.77470347 104.39333612 -143.45703125 98.6484375 C-144.02502441 98.22143555 -144.59301758 97.79443359 -145.17822266 97.35449219 C-146.51782092 96.35850034 -147.86808246 95.37681018 -149.22412109 94.40332031 C-149.95840332 93.87061523 -150.69268555 93.33791016 -151.44921875 92.7890625 C-152.46568481 92.06130615 -152.46568481 92.06130615 -153.50268555 91.31884766 C-153.99679932 90.88362793 -154.49091309 90.4484082 -155 90 C-155 89.34 -155 88.68 -155 88 C-154.2678125 87.65710938 -153.535625 87.31421875 -152.78125 86.9609375 C-141.58301321 81.54845639 -130.95709268 75.21615742 -120.24707031 68.90576172 C-114.89014474 65.76168946 -109.50778564 62.66202384 -104.125 59.5625 C-103.04573242 58.94052734 -101.96646484 58.31855469 -100.85449219 57.67773438 C-98.66385034 56.4153306 -96.473095 55.15312377 -94.28222656 53.89111328 C-88.85340058 50.76319852 -83.42680719 47.63141552 -78 44.5 C-75.83334417 43.24998121 -73.6666775 41.99998122 -71.5 40.75 C-70.4275 40.13125 -69.355 39.5125 -68.25 38.875 C-58.5 33.25 -58.5 33.25 -55.24658203 31.37304688 C-53.09128689 30.1295949 -50.93601327 28.88610564 -48.78076172 27.64257812 C-43.77662326 24.75537125 -38.7722948 21.8684957 -33.76715088 18.98303223 C-32.01658759 17.97380896 -30.26609589 16.96446164 -28.515625 15.95507812 C-26.33607835 14.6983234 -24.15640168 13.44179414 -21.9765625 12.18554688 C-20.47609375 11.32026367 -20.47609375 11.32026367 -18.9453125 10.4375 C-17.9749707 9.87804687 -17.00462891 9.31859375 -16.00488281 8.7421875 C-11.7557414 6.2785969 -7.52514078 3.78355988 -3.29638672 1.28515625 C-1 0 -1 0 0 0 Z " fill="#F0C418" transform="translate(267,200)"/>
<path d="M0 0 C9.257977 6.636249 15.45182654 15.08172768 17.375 26.375 C17.4612455 28.29493477 17.4970291 30.21748843 17.49525452 32.13935852 C17.49731651 33.86615593 17.49731651 33.86615593 17.49942017 35.62783813 C17.49582489 36.88156219 17.49222961 38.13528625 17.48852539 39.42700195 C17.48824316 40.76762388 17.48840196 42.10824596 17.4889679 43.4488678 C17.48925445 47.08070089 17.48338055 50.71250086 17.47639394 54.34432626 C17.47013689 58.14265032 17.46955474 61.94097517 17.46836853 65.73930359 C17.46526215 72.92858575 17.4570581 80.11785268 17.44701904 87.30712813 C17.43583639 95.49330146 17.43034203 103.67947552 17.42532361 111.86565459 C17.41487491 128.70211197 17.39728888 145.53855404 17.375 162.375 C15.60750949 161.41142745 13.84008047 160.44774211 12.07267761 159.48400879 C11.08843402 158.94736855 10.10419043 158.4107283 9.09012127 157.85782623 C-6.26437937 149.47217635 -21.44221087 140.78339382 -36.53515625 131.9375 C-42.84070419 128.2428669 -49.16794436 124.58647319 -55.5 120.9375 C-56.58015381 120.31496338 -57.66030762 119.69242676 -58.77319336 119.05102539 C-60.96296334 117.78923174 -63.15282355 116.52759466 -65.34277344 115.26611328 C-70.77159944 112.13819851 -76.19817941 109.00639233 -81.625 105.875 C-83.77603629 104.63410526 -85.92707797 103.39321986 -88.078125 102.15234375 C-92.56816478 99.56198817 -97.05768612 96.9707361 -101.546875 94.37890625 C-106.97741012 91.24372813 -112.40938498 88.11105822 -117.84228516 84.97998047 C-120.31677926 83.55277181 -122.78951048 82.12256888 -125.26171875 80.69140625 C-126.52855916 79.9607872 -127.79547716 79.23030265 -129.0625 78.5 C-130.09246094 77.90445313 -131.12242187 77.30890625 -132.18359375 76.6953125 C-134.64974239 75.27057188 -134.64974239 75.27057188 -137.625 74.375 C-136.3748391 70.6245173 -135.06450819 69.98052213 -131.875 67.6875 C-130.7802856 66.88934188 -129.68662022 66.08974388 -128.59375 65.2890625 C-127.66175781 64.6089209 -127.66175781 64.6089209 -126.7109375 63.91503906 C-122.55941752 60.84998896 -118.47359373 57.69773958 -114.375 54.5625 C-108.14442508 49.80703735 -101.90317646 45.06745148 -95.625 40.375 C-89.51369867 35.80714594 -83.43949078 31.19229667 -77.375 26.5625 C-70.22208218 21.10672923 -63.06083609 15.66236525 -55.875 10.25 C-55.07803711 9.64696045 -54.28107422 9.0439209 -53.45996094 8.42260742 C-36.98075096 -3.96108521 -19.55653197 -12.01425172 0 0 Z " fill="#23A8CC" transform="translate(249.625,7.625)"/>
<path d="M0 0 C94.19013158 0 94.19013158 0 110.453125 15.296875 C124.45967167 30.71822436 127.49881754 50.71714235 127.3984375 70.8125 C127.40046788 72.27970524 127.40338722 73.74690947 127.40713501 75.21411133 C127.41151323 78.26295751 127.40527521 81.31153686 127.39111328 84.36035156 C127.3740239 88.22275551 127.38388968 92.08453355 127.40183067 95.94691467 C127.412792 98.96883665 127.40916644 101.99061589 127.4014473 105.01254272 C127.39947917 106.43476439 127.40178178 107.85700004 127.40888596 109.27920532 C127.48634161 129.13014256 123.75838511 147.57800232 109.78515625 162.33984375 C82.53902123 188.87943394 30.47606289 179 0 179 C0 119.93 0 60.86 0 0 Z M34 30 C34 68.94 34 107.88 34 148 C61.81529698 150.31994868 61.81529698 150.31994868 82.25 141.875 C94.72623856 128.83165968 93.18690835 109.11094573 93.18530273 92.3659668 C93.18748124 89.83429938 93.20568206 87.30307477 93.22460938 84.77148438 C93.65587441 60.54035744 93.65587441 60.54035744 84.8125 38.625 C70.4332717 25.20438692 54.02350916 30 34 30 Z " fill="#FFFFFF" transform="translate(1486,3)"/>
<path d="M0 0 C11.22 0 22.44 0 34 0 C34.33 26.4 34.66 52.8 35 80 C44.5465884 67.28356828 44.5465884 67.28356828 54 54.5 C58.78044028 47.99563989 63.59609689 41.51984311 68.45214844 35.07177734 C71.18230163 31.4409457 73.89100207 27.79563407 76.578125 24.1328125 C77.18914062 23.30007812 77.80015625 22.46734375 78.4296875 21.609375 C79.59829995 20.0144447 80.76512417 18.41820173 81.9296875 16.8203125 C83.03373695 15.31336349 84.1591499 13.82184858 85.3046875 12.34619141 C87.08211005 10.00546578 87.08211005 10.00546578 88.4453125 7.22802734 C90.37962243 3.9592518 91.83219204 2.13594346 95 0 C101.98652126 -1.65700047 109.39124915 -0.93658104 116.5 -0.625 C118.4868675 -0.57479386 120.47385651 -0.52917442 122.4609375 -0.48828125 C127.31030822 -0.37852842 132.15381386 -0.2062612 137 0 C136.05311888 1.26520088 135.10586077 2.53011962 134.15844727 3.79492188 C133.36725243 4.85157043 133.36725243 4.85157043 132.56007385 5.92956543 C130.38685734 8.81372543 128.17095372 11.66235971 125.9375 14.5 C125.24140625 15.38558594 125.24140625 15.38558594 124.53125 16.2890625 C120.35663178 21.58207977 116.10274368 26.80894657 111.84204102 32.03271484 C106.94512734 38.04550047 102.14633586 44.131184 97.37353516 50.24267578 C94.94201966 53.35359803 92.50188796 56.45774992 90.0625 59.5625 C89.61374512 60.13436035 89.16499023 60.7062207 88.70263672 61.29541016 C86.15185207 64.54387825 83.58526897 67.77891082 81 71 C82.424206 74.80962064 84.17908883 78.24403968 86.203125 81.76953125 C87.16810913 83.4548999 87.16810913 83.4548999 88.15258789 85.17431641 C88.85159872 86.38711721 89.55073939 87.59984319 90.25 88.8125 C90.9747148 90.07459978 91.69924024 91.33680831 92.42358398 92.59912109 C97.50211297 101.43992145 102.62684402 110.25369448 107.77612305 119.0534668 C112.70168888 127.47248026 117.57353328 135.92182484 122.43212891 144.37963867 C125.5256934 149.75372067 128.64832929 155.10685708 131.8359375 160.42578125 C132.44236084 161.43946777 133.04878418 162.4531543 133.67358398 163.49755859 C134.8235113 165.41415717 135.97901445 167.32742471 137.14086914 169.23681641 C137.64996826 170.08550293 138.15906738 170.93418945 138.68359375 171.80859375 C139.35733032 172.91932251 139.35733032 172.91932251 140.04467773 174.05249023 C141 176 141 176 141 179 C127.8 179 114.6 179 101 179 C94.16391704 166.94084241 87.35247398 154.87008249 80.625 142.75 C79.70231323 141.08771362 79.70231323 141.08771362 78.76098633 139.3918457 C75.77738177 134.01363296 72.79692772 128.63368962 69.81924438 123.25219727 C68.42490228 120.73293384 67.02928834 118.21437629 65.63348389 115.69592285 C64.64058554 113.90314132 63.64962046 112.10930024 62.65869141 110.31542969 C62.06233887 109.23938477 61.46598633 108.16333984 60.8515625 107.0546875 C60.32385254 106.10062012 59.79614258 105.14655273 59.25244141 104.16357422 C58.17653539 102.09063064 58.17653539 102.09063064 57 101 C56.33355469 101.84820312 55.66710937 102.69640625 54.98046875 103.5703125 C53.14713542 105.90364583 51.31380208 108.23697917 49.48046875 110.5703125 C48.9702417 111.25109863 48.46001465 111.93188477 47.93432617 112.63330078 C46 115 46 115 43.20043945 117.70654297 C34.20449564 126.83978338 33.62776256 135.52111744 33.67773438 148.00390625 C33.72145907 150.294294 33.76639552 152.58465892 33.8125 154.875 C33.81947061 157.22004254 33.82146432 159.56510541 33.81835938 161.91015625 C33.81231622 167.61087032 33.90828675 173.29671587 34 179 C22.78 179 11.56 179 0 179 C0 119.93 0 60.86 0 0 Z " fill="#FFFFFF" transform="translate(857,3)"/>
<path d="M0 0 C37.62 0 75.24 0 114 0 C114 9.9 114 19.8 114 30 C87.93 30 61.86 30 35 30 C35 44.19 35 58.38 35 73 C57.11 73 79.22 73 102 73 C102 83.23 102 93.46 102 104 C79.89 104 57.78 104 35 104 C35 118.52 35 133.04 35 148 C61.07 148 87.14 148 114 148 C114 158.23 114 168.46 114 179 C76.38 179 38.76 179 0 179 C0 119.93 0 60.86 0 0 Z " fill="#FFFFFF" transform="translate(1215,3)"/>
<path d="M0 0 C10.64861622 9.01425582 16.79618082 21.22512555 18.46875 35.08984375 C18.46875 39.37984375 18.46875 43.66984375 18.46875 48.08984375 C6.91875 48.08984375 -4.63125 48.08984375 -16.53125 48.08984375 C-17.19125 43.79984375 -17.85125 39.50984375 -18.53125 35.08984375 C-21.20231557 28.06593059 -24.79078855 23.63796197 -31.45703125 20.0546875 C-40.32850653 16.4626589 -51.90515191 16.57113498 -60.7421875 20.1953125 C-68.42584648 24.03714199 -71.08769397 30.90353127 -73.78125 38.71484375 C-75.56952213 46.76206835 -75.70432539 54.63435693 -75.734375 62.84765625 C-75.74292511 64.67863358 -75.74292511 64.67863358 -75.75164795 66.54660034 C-75.76106555 69.12350609 -75.76761899 71.7004237 -75.77148438 74.27734375 C-75.78116658 78.18120823 -75.81221258 82.08454058 -75.84375 85.98828125 C-75.85028361 88.50390316 -75.85553268 91.01952879 -75.859375 93.53515625 C-75.8717218 94.68460724 -75.8840686 95.83405823 -75.89678955 97.01834106 C-75.8644674 109.0195118 -74.47419237 121.57636505 -66.53125 131.08984375 C-60.47900087 136.70410116 -52.71425729 138.09690507 -44.6640625 138.0859375 C-35.87161895 137.51357622 -28.8267212 135.52839384 -22.53125 129.08984375 C-17.85756305 122.61740228 -17.77900072 116.20022342 -16.53125 108.08984375 C-4.98125 108.08984375 6.56875 108.08984375 18.46875 108.08984375 C17.2120494 128.1970534 14.68452587 141.97114614 0.171875 155.83203125 C-14.95218809 168.46455793 -35.41385255 171.47858135 -54.53125 170.08984375 C-68.18761704 168.68950569 -81.00355748 165.33590414 -91.53125 156.08984375 C-92.42070313 155.33960938 -92.42070313 155.33960938 -93.328125 154.57421875 C-106.71603335 142.37108105 -110.80005794 123.86558555 -111.72402954 106.45785522 C-111.80887505 102.67105139 -111.83469454 98.88930671 -111.83203125 95.1015625 C-111.83593706 93.70498024 -111.84027544 92.30839913 -111.84501648 90.91181946 C-111.85240656 88.00668461 -111.85224088 85.10167143 -111.84692383 82.1965332 C-111.84229132 79.25562248 -111.84922377 76.31512512 -111.86743164 73.37426758 C-112.16912073 24.21009746 -112.16912073 24.21009746 -96.53125 5.08984375 C-95.95890625 4.38085938 -95.3865625 3.671875 -94.796875 2.94140625 C-72.53267698 -21.8917377 -24.52341516 -18.92108324 0 0 Z " fill="#FFFFFF" transform="translate(813.53125,13.91015625)"/>
<path d="M0 0 C37.62 0 75.24 0 114 0 C114 9.9 114 19.8 114 30 C87.93 30 61.86 30 35 30 C35 44.85 35 59.7 35 75 C57.44 75 79.88 75 103 75 C103 84.9 103 94.8 103 105 C80.56 105 58.12 105 35 105 C35 129.42 35 153.84 35 179 C23.45 179 11.9 179 0 179 C0 119.93 0 60.86 0 0 Z " fill="#FFFFFF" transform="translate(1014,3)"/>
<path d="M0 0 C0 56.76 0 113.52 0 172 C-4.44116164 170.22353535 -7.39379565 168.3280534 -11 165.375 C-12.23569317 164.3838113 -13.47276383 163.39433835 -14.7109375 162.40625 C-15.38866211 161.86484375 -16.06638672 161.3234375 -16.76464844 160.765625 C-21.00880436 157.41331661 -25.31940853 154.14776937 -29.625 150.875 C-30.99785156 149.83061768 -30.99785156 149.83061768 -32.3984375 148.76513672 C-36.92105559 145.32824107 -41.45104175 141.90194299 -46 138.5 C-51.59730968 134.31010634 -57.17785399 130.09830239 -62.75 125.875 C-63.63816406 125.20533203 -64.52632812 124.53566406 -65.44140625 123.84570312 C-80.90712703 112.10149387 -80.90712703 112.10149387 -84.375 105.9375 C-85.06722656 104.74447266 -85.06722656 104.74447266 -85.7734375 103.52734375 C-90.26948092 94.26320333 -90.49336955 83.48093387 -88.1953125 73.5078125 C-83.12088868 60.03434236 -72.29109948 52.70471511 -61.046875 44.6484375 C-56.20543853 41.17620236 -51.49681776 37.55535356 -46.8125 33.875 C-40.02036033 28.55580134 -33.16903322 23.32863793 -26.25 18.17578125 C-23.02736366 15.77507211 -19.82377784 13.35037273 -16.625 10.91796875 C-15.71218262 10.22630615 -14.79936523 9.53464355 -13.85888672 8.82202148 C-12.06086766 7.45929709 -10.26553576 6.09301863 -8.47314453 4.72290039 C-7.65958496 4.10793701 -6.84602539 3.49297363 -6.0078125 2.859375 C-5.28223145 2.30733398 -4.55665039 1.75529297 -3.80908203 1.18652344 C-2 0 -2 0 0 0 Z " fill="#F05466" transform="translate(89,99)"/>
<path d="M0 0 C11.55 0 23.1 0 35 0 C35 48.84 35 97.68 35 148 C60.74 148 86.48 148 113 148 C113 158.23 113 168.46 113 179 C75.71 179 38.42 179 0 179 C0 119.93 0 60.86 0 0 Z " fill="#FFFFFF" transform="translate(1352,3)"/>
<path d="M0 0 C11.55 0 23.1 0 35 0 C35 59.07 35 118.14 35 179 C23.45 179 11.9 179 0 179 C0 119.93 0 60.86 0 0 Z " fill="#FFFFFF" transform="translate(1149,3)"/>
<path d="M0 0 C11.22 0 22.44 0 34 0 C34 59.07 34 118.14 34 179 C22.78 179 11.56 179 0 179 C0 119.93 0 60.86 0 0 Z " fill="#FFFFFF" transform="translate(639,3)"/>
<path d="M0 0 C28.71 0 57.42 0 87 0 C87 4.95 87 9.9 87 15 C63.57 15 40.14 15 16 15 C16 30.84 16 46.68 16 63 C36.13 63 56.26 63 77 63 C77 67.62 77 72.24 77 77 C56.87 77 36.74 77 16 77 C16 93.83 16 110.66 16 128 C39.43 128 62.86 128 87 128 C87 132.95 87 137.9 87 143 C58.29 143 29.58 143 0 143 C0 95.81 0 48.62 0 0 Z " fill="#FFFFFF" transform="translate(332,225)"/>
<path d="M0 0 C4.95 0 9.9 0 15 0 C15 47.19 15 94.38 15 143 C10.05 143 5.1 143 0 143 C-0.33 139.7 -0.66 136.4 -1 133 C-2.175625 134.093125 -3.35125 135.18625 -4.5625 136.3125 C-13.25413738 143.91384365 -22.77103021 144.70671838 -34 144 C-43.44729421 142.43868247 -50.67492249 137.40980191 -56.68359375 130.05859375 C-62.11133682 121.5706988 -63.15680716 112.10640834 -63.203125 102.30859375 C-63.20882507 101.36750259 -63.21452515 100.42641144 -63.22039795 99.45680237 C-63.22982923 97.4655977 -63.23637448 95.47437756 -63.24023438 93.4831543 C-63.24988872 90.47220696 -63.28090884 87.46195772 -63.3125 84.45117188 C-63.39750787 69.2208455 -62.6400792 56.94200895 -52.2890625 45.03125 C-45.59286184 38.36330335 -36.61079906 35.87858949 -27.3125 35.5625 C-16.1435304 36.03465761 -8.84646656 40.15353344 -1 48 C-0.67 32.16 -0.34 16.32 0 0 Z M-41.3125 56.25 C-46.89670011 63.44269254 -48.14672401 70.97146195 -48.23828125 79.90625 C-48.246353 80.66740112 -48.25442474 81.42855225 -48.26274109 82.21276855 C-48.27653526 83.823138 -48.28727817 85.43353611 -48.29516602 87.04394531 C-48.30662155 88.66708132 -48.32697014 90.2901816 -48.35668945 91.91308594 C-48.58067536 104.17099623 -48.54259862 116.29119806 -40 126 C-34.53101273 130.52293023 -28.18242147 130.60540071 -21.34375 130.37890625 C-15.12863324 129.67462316 -11.10952898 127.41348355 -6.75 123 C-0.01391362 114.08401395 0.64919559 103.47307071 0.52148438 92.7097168 C0.50005195 90.56769224 0.52138467 88.42903237 0.546875 86.28710938 C0.56864771 75.59424657 -0.29152741 63.36545245 -8.25 55.3671875 C-17.82393468 47.88755103 -32.67584377 46.83011759 -41.3125 56.25 Z " fill="#FFFFFF" transform="translate(500,225)"/>
<path d="M0 0 C4.95 0 9.9 0 15 0 C15.33 16.17 15.66 32.34 16 49 C17.98 46.69 19.96 44.38 22 42 C24.6328125 40.2578125 24.6328125 40.2578125 27.125 39.125 C27.95257812 38.73570312 28.78015625 38.34640625 29.6328125 37.9453125 C38.81355252 34.27907639 48.69007281 35.41649362 57.8828125 38.546875 C66.24645538 42.44571604 72.68328244 49.39035401 76 58 C77.90322428 64.37512961 78.32068271 70.19035292 78.3359375 76.82421875 C78.3459227 78.35910698 78.3459227 78.35910698 78.35610962 79.92500305 C78.36619322 82.08238948 78.37092798 84.23980683 78.37060547 86.3972168 C78.37496398 89.66053021 78.41129035 92.92247344 78.44921875 96.18554688 C78.52452166 109.97184714 78.52131275 123.03044617 69.05078125 134.0625 C60.70790245 141.94453406 51.4502485 144.53981516 40.2265625 144.3125 C30.992712 143.41818034 23.43771874 140.73034232 17 134 C16.505 133.01 16.505 133.01 16 132 C15.67 135.63 15.34 139.26 15 143 C10.05 143 5.1 143 0 143 C0 95.81 0 48.62 0 0 Z M20.5625 59.0625 C15.1002665 68.73407501 14.51803002 79.11283276 14.625 90 C14.61339844 91.18078125 14.60179687 92.3615625 14.58984375 93.578125 C14.62242834 103.44039361 15.32532201 114.21287568 22 122 C27.61923924 127.55218388 32.21579507 130.27803347 40.3125 130.375 C47.20044546 130.23506431 51.88480625 129.21276134 56.74609375 124.19921875 C67.51202589 110.90316347 64.99745143 88.03396068 63.375 71.875 C62.17300845 64.30080665 59.98508264 58.11999353 53.8046875 53.28125 C42.63748599 46.81791793 28.44922216 48.40476735 20.5625 59.0625 Z " fill="#FFFFFF" transform="translate(1437,225)"/>
<path d="M0 0 C8.66045216 7.18593552 11.45369189 14.55078669 12.8125 25.50390625 C12.89590837 28.0626413 12.93034258 30.6232591 12.92602539 33.18334961 C12.92617142 33.91588959 12.92631744 34.64842957 12.9264679 35.40316772 C12.92577686 37.80005968 12.91802276 40.19687179 12.91015625 42.59375 C12.90828919 44.26526344 12.90686665 45.93677744 12.90586853 47.60829163 C12.90206603 51.98944634 12.89225529 56.37056746 12.88116455 60.75170898 C12.8709015 65.22965033 12.86636046 69.70759714 12.86132812 74.18554688 C12.85063083 82.95835041 12.83305257 91.73112027 12.8125 100.50390625 C7.8625 100.50390625 2.9125 100.50390625 -2.1875 100.50390625 C-2.6825 96.04890625 -2.6825 96.04890625 -3.1875 91.50390625 C-4.1775 92.43203125 -5.1675 93.36015625 -6.1875 94.31640625 C-15.24100501 102.08702593 -26.79745005 102.13732662 -38.1875 101.50390625 C-48.36507585 99.89825143 -55.84804692 95.9796427 -61.9609375 87.6640625 C-66.73555536 79.25526098 -66.80440273 67.57293183 -64.34765625 58.3515625 C-60.92525968 50.87299223 -55.23613091 45.51655533 -47.67578125 42.32421875 C-39.07566731 39.32020699 -29.98164908 40.08141693 -21 40.25390625 C-19.17124358 40.27400782 -17.34246576 40.2922521 -15.51367188 40.30859375 C-11.07107815 40.35228642 -6.62952996 40.42110979 -2.1875 40.50390625 C-2.43828491 37.29367926 -2.716722 34.08641623 -3 30.87890625 C-3.07025391 29.97527344 -3.14050781 29.07164062 -3.21289062 28.140625 C-3.831484 21.36084157 -4.977562 16.66473451 -10 11.75390625 C-16.92638835 6.86469094 -23.97420245 6.86130106 -32.1875 7.50390625 C-37.70969132 8.63304441 -41.79728154 10.95132718 -45.1875 15.50390625 C-46.44679887 18.81464361 -47.31447815 22.05776736 -48.1875 25.50390625 C-52.8075 25.50390625 -57.4275 25.50390625 -62.1875 25.50390625 C-62.82301082 16.60675477 -61.3453017 10.32548117 -55.42578125 3.4609375 C-41.65241657 -9.64191855 -15.48142928 -10.80474752 0 0 Z M-46.93896484 57.22998047 C-50.83703653 62.08698056 -50.80003775 67.49795611 -50.54296875 73.5078125 C-49.94260646 78.56800893 -48.47190987 81.2870969 -44.8125 84.75390625 C-37.41210805 89.68750088 -28.99813498 90.14575721 -20.375 88.81640625 C-13.52738204 87.35324002 -9.1462096 84.30058817 -5.1875 78.50390625 C-2.15745985 72.28435016 -2.04538292 65.90248243 -2.125 59.12890625 C-2.12951172 58.39285156 -2.13402344 57.65679687 -2.13867188 56.8984375 C-2.15034858 55.10022467 -2.16827989 53.30205428 -2.1875 51.50390625 C-6.70404375 51.40403371 -11.21997989 51.33197195 -15.73730469 51.28417969 C-17.26964534 51.26422901 -18.80191152 51.23705809 -20.33398438 51.20214844 C-34.70800184 50.63101582 -34.70800184 50.63101582 -46.93896484 57.22998047 Z " fill="#FFFFFF" transform="translate(1395.1875,267.49609375)"/>
<path d="M0 0 C6.00856116 5.15840145 10.32859232 11.96313234 11.21632385 19.94504547 C11.56110343 25.59745278 11.45906057 31.2546934 11.390625 36.9140625 C11.38315257 38.73822404 11.37746438 40.56239368 11.37347412 42.38656616 C11.35829654 47.15751822 11.31908388 51.92797309 11.2746582 56.69873047 C11.23353434 61.57903318 11.21542676 66.45941723 11.1953125 71.33984375 C11.15258097 80.89344605 11.08442659 90.44668147 11 100 C6.38 100 1.76 100 -3 100 C-3.495 95.545 -3.495 95.545 -4 91 C-4.886875 91.9075 -5.77375 92.815 -6.6875 93.75 C-15.75740821 101.42034321 -27.65890295 101.83579513 -39 101 C-47.2575377 100.10563761 -54.72790063 96.82983758 -60.375 90.625 C-66.21213595 83.07391278 -67.67580007 74.60062261 -66.71484375 65.21484375 C-65.20287615 56.79102428 -62.20177816 50.78908472 -55.14453125 45.6484375 C-47.92778352 40.87449606 -41.51145583 39.69423273 -33.00390625 39.8046875 C-31.75358864 39.80893234 -31.75358864 39.80893234 -30.47801208 39.81326294 C-27.8393564 39.82437711 -25.20105152 39.84946485 -22.5625 39.875 C-20.76367681 39.88504115 -18.96484825 39.89416501 -17.16601562 39.90234375 C-12.77721045 39.92428765 -8.38866452 39.95875613 -4 40 C-4.01641541 39.40904541 -4.03283081 38.81809082 -4.04974365 38.20922852 C-4.07167786 37.41959717 -4.09361206 36.62996582 -4.11621094 35.81640625 C-4.1514386 34.58108154 -4.1514386 34.58108154 -4.18737793 33.32080078 C-4.23329657 31.61903618 -4.26860735 29.91697655 -4.29785156 28.21484375 C-4.58442548 21.18020833 -6.33074483 15.66925517 -11.375 10.625 C-18.81135459 6.0215424 -27.53988077 5.71698133 -35.92578125 7.6875 C-40.04723333 9.15290519 -42.53267055 10.48593761 -45.5 13.75 C-47.23470786 17.50853369 -48.16208372 20.95007129 -49 25 C-53.62 25 -58.24 25 -63 25 C-63.51622606 15.83698736 -62.18832584 9.25536642 -56 2.25 C-41.788397 -10.94868097 -15.58016754 -10.29076612 0 0 Z M-46.8125 56.125 C-50.6510399 61.16993815 -52.37746281 66.32413549 -51.9375 72.6875 C-51.02829475 78.23945549 -48.61228828 81.65017726 -44.3125 85.25 C-35.29938806 90.01164404 -25.29245263 89.8510227 -15.625 86.875 C-10.39199327 84.64007004 -7.15149168 80.540284 -4.84375 75.44921875 C-3.66815682 70.64343738 -3.78823221 66.05074076 -3.875 61.125 C-3.88402344 60.15046875 -3.89304687 59.1759375 -3.90234375 58.171875 C-3.92578377 55.78099272 -3.95859558 53.39062739 -4 51 C-8.41077344 50.92528659 -12.82120184 50.87113487 -17.23242188 50.83520508 C-18.72988307 50.82021112 -20.22730105 50.79980895 -21.72460938 50.77368164 C-35.02688932 50.43510719 -35.02688932 50.43510719 -46.8125 56.125 Z " fill="#FFFFFF" transform="translate(816,268)"/>
<path d="M0 0 C8.27689761 7.00352874 12.31498618 15.01227667 14.03125 25.71875 C14.19775506 28.80293486 14.21902907 31.88443391 14.234375 34.97265625 C14.24007507 35.86935532 14.24577515 36.76605438 14.25164795 37.68992615 C14.26107714 39.58697336 14.26762364 41.4840368 14.27148438 43.38110352 C14.28113537 46.24720896 14.31215584 49.11257991 14.34375 51.97851562 C14.42519025 65.9967807 14.06335641 79.0663423 4.05859375 89.84375 C-5.61569008 99.12560256 -16.23711049 101.06724094 -29.3046875 100.9296875 C-39.82598045 100.32398407 -49.2792189 97.12435056 -57.00390625 89.78515625 C-66.98402267 78.23703853 -66.58259929 64.03369897 -66.43530273 49.6340332 C-66.4062099 46.52696688 -66.4147563 43.42159906 -66.42773438 40.31445312 C-66.42149879 38.30988766 -66.41310926 36.3053275 -66.40234375 34.30078125 C-66.40674721 32.93008232 -66.40674721 32.93008232 -66.41123962 31.5316925 C-66.26380911 21.32375326 -63.40719137 11.76342727 -56.96875 3.71875 C-41.89799313 -9.7111372 -16.60019924 -12.26971248 0 0 Z M-45.40625 13.90625 C-50.30746806 20.62107436 -51.42893707 27.89382368 -51.3671875 36.03125 C-51.37005768 36.88501221 -51.37292786 37.73877441 -51.37588501 38.6184082 C-51.37791179 40.4100003 -51.37247982 42.20161524 -51.35986328 43.99316406 C-51.34378932 46.71209906 -51.35975914 49.42954791 -51.37890625 52.1484375 C-51.37692357 53.9010449 -51.37307939 55.65365138 -51.3671875 57.40625 C-51.37326019 58.20651611 -51.37933289 59.00678223 -51.3855896 59.83129883 C-51.27880492 68.53874241 -48.97694004 75.72396494 -42.8984375 82.0546875 C-36.82610068 87.2911561 -30.01031298 87.19875801 -22.2421875 87 C-15.09672179 86.38606977 -9.74385067 83.02579194 -4.96875 77.71875 C-1.11968911 71.35515663 -0.80541483 64.51641982 -0.765625 57.26953125 C-0.75707489 56.0505439 -0.75707489 56.0505439 -0.74835205 54.80693054 C-0.73892968 53.08980601 -0.73237908 51.37266362 -0.72851562 49.65551758 C-0.71884629 47.05712426 -0.68781216 44.45953492 -0.65625 41.86132812 C-0.41982719 25.80291923 -0.41982719 25.80291923 -8.12109375 12.19140625 C-14.2831245 7.28002022 -21.28014295 6.0319289 -29.0078125 6.33984375 C-35.4345551 7.16226332 -40.89248691 9.13740939 -45.40625 13.90625 Z " fill="#FFFFFF" transform="translate(1037.96875,268.28125)"/>
<path d="M0 0 C6.26820545 4.69793632 9.26044277 10.40429359 11 18 C11 19.98 11 21.96 11 24 C6.05 24 1.1 24 -4 24 C-4.226875 22.80375 -4.45375 21.6075 -4.6875 20.375 C-5.83564773 15.901183 -7.57762673 13.19917502 -11 10 C-18.78465842 5.59358957 -29.30131166 5.63877485 -37.89453125 7.69140625 C-42.86087212 9.65982328 -45.71045536 12.03931994 -48 17 C-49.37903076 21.37297911 -49.36972091 24.96073531 -47.6875 29.25 C-44.70121948 34.22734989 -40.34665197 35.33066562 -35 37 C-29.18625689 38.3922007 -23.31211277 39.4659795 -17.43164062 40.53515625 C-8.51396318 42.29439289 0.64872984 44.93953006 7 51.875 C12.45680989 60.40126545 13.25461767 68.60792831 11.56640625 78.5546875 C9.58468821 85.66917836 5.42992193 90.82127494 -0.7734375 94.76171875 C-14.31241221 101.94886085 -29.49378615 103.24591529 -44.28125 98.97265625 C-53.2815334 95.75272727 -58.60590171 91.14966637 -63.8125 83.25 C-65.54117181 78.51889821 -65.69371784 74.02302735 -66 69 C-61.05 69 -56.1 69 -51 69 C-50.773125 70.19625 -50.54625 71.3925 -50.3125 72.625 C-49.18324297 76.94364514 -47.59778265 80.24875445 -44 83 C-34.93994493 87.84607597 -25.39937971 88.39165464 -15.5625 85.75 C-11.06407807 84.21201626 -7.46497198 82.37087338 -4.89453125 78.2109375 C-2.86502937 73.19478875 -3.28110636 67.11175006 -5 62.0625 C-12.00405948 54.83956366 -23.00129993 54.14733534 -32.3828125 52.37695312 C-43.1438298 50.23525391 -53.46746599 47.91627877 -60.6953125 39.16015625 C-65.01888507 32.00166634 -64.6994924 24.09534494 -64 16 C-63.09670518 12.6615341 -61.82981944 9.92387232 -60 7 C-59.46375 6.113125 -58.9275 5.22625 -58.375 4.3125 C-43.56987557 -10.10301589 -17.05108955 -11.37966884 0 0 Z " fill="#FFFFFF" transform="translate(1602,268)"/>
<path d="M0 0 C8.06411545 7.51623499 10.77465895 16.45804313 11.26202393 27.2925415 C11.34586884 31.88398889 11.31518306 36.47455968 11.28515625 41.06640625 C11.28141932 42.75605094 11.27857556 44.44569782 11.27658081 46.13534546 C11.26899786 50.55102678 11.24939615 54.96657348 11.22717285 59.38220215 C11.20659849 63.90061625 11.19755447 68.41905241 11.1875 72.9375 C11.16614444 81.78001614 11.13100675 90.62239761 11.08984375 99.46484375 C6.13984375 99.46484375 1.18984375 99.46484375 -3.91015625 99.46484375 C-3.9241748 96.23417114 -3.9241748 96.23417114 -3.93847656 92.93823242 C-3.97239334 85.78555868 -4.02802293 78.633169 -4.09405899 71.48072338 C-4.13340258 67.14834874 -4.16565483 62.81617335 -4.18115234 58.48364258 C-4.19640611 54.29475708 -4.2310037 50.10641988 -4.27846527 45.91777992 C-4.29318987 44.32762762 -4.30119209 42.73739699 -4.3020401 41.14717674 C-4.17949974 26.36956206 -4.17949974 26.36956206 -10.61773682 13.47721863 C-16.38688546 8.02826734 -22.42840724 7.04676225 -30.16015625 7.21484375 C-35.57916616 7.70748101 -39.41476734 9.27532984 -43.66015625 12.65234375 C-50.81134823 21.59133373 -50.51399662 29.9433195 -50.51953125 40.87109375 C-50.53452778 42.56361462 -50.551258 44.25612093 -50.56964111 45.9486084 C-50.61316188 50.38070381 -50.63327963 54.81260185 -50.64837646 59.24487305 C-50.6680029 63.77664791 -50.70996655 68.30821135 -50.75 72.83984375 C-50.82513671 81.71481409 -50.8734609 90.58963113 -50.91015625 99.46484375 C-55.86015625 99.46484375 -60.81015625 99.46484375 -65.91015625 99.46484375 C-65.91015625 64.81484375 -65.91015625 30.16484375 -65.91015625 -5.53515625 C-61.29015625 -5.53515625 -56.67015625 -5.53515625 -51.91015625 -5.53515625 C-51.58015625 -2.56515625 -51.25015625 0.40484375 -50.91015625 3.46484375 C-49.96140625 2.55734375 -49.01265625 1.64984375 -48.03515625 0.71484375 C-35.08113569 -10.39986354 -13.32228517 -10.70686722 0 0 Z " fill="#FFFFFF" transform="translate(1144.91015625,268.53515625)"/>
<path d="M0 0 C4.95 0 9.9 0 15 0 C15.01458252 2.12872559 15.02916504 4.25745117 15.04418945 6.45068359 C15.09472096 13.51552573 15.1613478 20.58015173 15.23571491 27.64478111 C15.28027861 31.9244635 15.3195648 36.20405377 15.34643555 40.48388672 C15.37260924 44.6208255 15.41310883 48.75740706 15.46318626 52.89412308 C15.47976052 54.46556755 15.49133319 56.03707367 15.49761391 57.60859299 C15.40424043 72.28582125 15.40424043 72.28582125 21.25 85.4375 C27.80251342 91.54325114 33.733898 91.48310685 42.4609375 91.28515625 C48.17173676 90.82501459 51.18896924 89.39943286 55.75 85.875 C62.34735874 77.44504161 61.47244305 67.07729602 61.51171875 56.93359375 C61.52858821 55.28734517 61.54674146 53.6411093 61.56611633 51.99488831 C61.61337668 47.68944265 61.64334033 43.38404853 61.66955566 39.07843018 C61.69948295 34.67392812 61.7459711 30.26960318 61.79101562 25.86523438 C61.8767758 17.24356247 61.94270842 8.62190812 62 0 C66.95 0 71.9 0 77 0 C77.09074242 9.83229033 77.16396903 19.66429783 77.20724869 29.49691391 C77.22803159 34.06369464 77.25617696 38.63017146 77.30175781 43.19677734 C77.34555031 47.61236769 77.36920683 52.02766763 77.37950897 56.44345856 C77.38684091 58.11940322 77.40115674 59.79533387 77.42292023 61.47115326 C77.57524121 73.69787796 76.96753473 85.39227755 68.74609375 95.25390625 C60.26014497 103.73985503 50.24154141 106.08686401 38.5 106.375 C26.81367543 106.08821903 16.54064393 103.79882725 8.21875 95.1484375 C1.71610254 87.14763106 -0.16669992 77.65411891 -0.11352539 67.54760742 C-0.11367142 66.8153595 -0.11381744 66.08311157 -0.1139679 65.32867432 C-0.11327413 62.92090845 -0.10550692 60.51322102 -0.09765625 58.10546875 C-0.09579017 56.43109682 -0.09436716 54.75672435 -0.09336853 53.08235168 C-0.08955835 48.68472779 -0.0797409 44.28713716 -0.06866455 39.88952637 C-0.05841816 35.39836069 -0.053864 30.90718963 -0.04882812 26.41601562 C-0.03811725 17.61066016 -0.02053263 8.80533805 0 0 Z " fill="#FFFFFF" transform="translate(545,263)"/>
<path d="M0 0 C7.61600041 6.41501573 11.11864928 12.83906669 13.03125 22.7109375 C13.03125 25.0209375 13.03125 27.3309375 13.03125 29.7109375 C8.08125 29.7109375 3.13125 29.7109375 -1.96875 29.7109375 C-2.21625 28.0196875 -2.46375 26.3284375 -2.71875 24.5859375 C-3.6232054 19.76011038 -4.55346299 16.39585243 -7.96875 12.7109375 C-16.27763825 7.50739132 -25.00232345 6.32983836 -34.6484375 8.2421875 C-40.88297538 10.17342482 -45.11224475 12.76708237 -48.21875 18.6484375 C-50.99695262 24.37563389 -51.14851626 30.0639391 -51.20703125 36.34375 C-51.215103 37.1762326 -51.22317474 38.00871521 -51.23149109 38.86642456 C-51.24528851 40.6264236 -51.25602998 42.38644892 -51.26391602 44.14648438 C-51.27540329 45.92879191 -51.29580331 47.71106592 -51.32543945 49.49316406 C-51.95839607 65.30725947 -51.95839607 65.30725947 -45.62695312 79.36376953 C-38.72754998 85.68364114 -30.8649311 86.42463996 -21.93359375 86.125 C-15.00655178 85.40158478 -10.25002762 83.106279 -5.46875 78.0859375 C-3.36645796 73.3557804 -2.71815297 68.8318578 -1.96875 63.7109375 C2.98125 63.7109375 7.93125 63.7109375 13.03125 63.7109375 C13.03125 74.96625992 10.55091568 83.51075052 2.5234375 91.6171875 C-7.77974028 100.27314877 -19.94624697 101.59405665 -32.96875 100.7109375 C-44.56403803 99.15881233 -52.97934898 94.97437237 -60.46484375 85.92578125 C-66.09935106 77.62768866 -67.12664555 68.80354911 -67.20703125 59.0546875 C-67.215103 58.11596802 -67.22317474 57.17724854 -67.23149109 56.21008301 C-67.24529943 54.22308173 -67.25603607 52.23605707 -67.26391602 50.24902344 C-67.27539069 48.2378839 -67.29577019 46.22677373 -67.32543945 44.21582031 C-67.75494619 15.06694976 -67.75494619 15.06694976 -57.1015625 3.72265625 C-42.75498334 -10.2410071 -16.18220369 -12.01939042 0 0 Z " fill="#FFFFFF" transform="translate(715.96875,268.2890625)"/>
<path d="M0 0 C5.28 0 10.56 0 16 0 C16 42.24 16 84.48 16 128 C39.43 128 62.86 128 87 128 C87 132.95 87 137.9 87 143 C58.29 143 29.58 143 0 143 C0 95.81 0 48.62 0 0 Z " fill="#FFFFFF" transform="translate(1231,225)"/>
<path d="M0 0 C0 10.23 0 20.46 0 31 C7.92 31 15.84 31 24 31 C24 34.96 24 38.92 24 43 C16.08 43 8.16 43 0 43 C0.063028 51.87580446 0.13853106 60.75126585 0.23571491 69.62676334 C0.28035347 73.74846994 0.31962368 77.87007919 0.34643555 81.99194336 C0.37253391 85.97326569 0.41298178 89.95421207 0.46318626 93.93530083 C0.47981099 95.45060979 0.49135256 96.96598371 0.49761391 98.48137093 C0.50730342 100.61175642 0.53541756 102.74118961 0.56762695 104.87133789 C0.57873001 106.0815712 0.58983307 107.2918045 0.60127258 108.53871155 C1.1084978 112.94185193 2.13362356 117.49512891 5.734375 120.3984375 C11.00725656 121.79847847 16.58459341 121.69914408 22 122 C22 126.62 22 131.24 22 136 C-0.50023375 136.52734923 -0.50023375 136.52734923 -10 128 C-14.23067526 121.95617821 -15.12605536 116.11210802 -15.11352539 108.84472656 C-15.11367142 108.13213181 -15.11381744 107.41953705 -15.1139679 106.68534851 C-15.11327291 104.33707605 -15.10549994 101.98888355 -15.09765625 99.640625 C-15.0957906 98.00966434 -15.09436739 96.37870312 -15.09336853 94.7477417 C-15.08955494 90.46025031 -15.07973454 86.17279292 -15.06866455 81.88531494 C-15.05842553 77.50818339 -15.05386557 73.13104633 -15.04882812 68.75390625 C-15.03811123 60.16925351 -15.02052381 51.58463491 -15 43 C-20.28 43 -25.56 43 -31 43 C-31 39.04 -31 35.08 -31 31 C-25.72 31 -20.44 31 -15 31 C-15 23.08 -15 15.16 -15 7 C-12.710625 5.845 -10.42125 4.69 -8.0625 3.5 C-7.34070557 3.13455078 -6.61891113 2.76910156 -5.87524414 2.39257812 C-1.11111111 0 -1.11111111 0 0 0 Z " fill="#FFFFFF" transform="translate(880,232)"/>
<path d="M0 0 C4.95 0 9.9 0 15 0 C15 34.65 15 69.3 15 105 C10.05 105 5.1 105 0 105 C0 70.35 0 35.7 0 0 Z " fill="#FFFFFF" transform="translate(929,263)"/>
<path d="M0 0 C5.28 0 10.56 0 16 0 C16 6.6 16 13.2 16 20 C10.72 20 5.44 20 0 20 C0 13.4 0 6.8 0 0 Z " fill="#FFFFFF" transform="translate(928,227)"/>
</svg>
