<?xml version="1.0" encoding="UTF-8" standalone="no"?>
<!DOCTYPE svg PUBLIC "-//W3C//DTD SVG 1.1//EN" "http://www.w3.org/Graphics/SVG/1.1/DTD/svg11.dtd">
<!-- Created with Vectornator (http://vectornator.io/) -->
<svg height="100%" stroke-miterlimit="10" style="fill-rule:nonzero;clip-rule:evenodd;stroke-linecap:round;stroke-linejoin:round;" version="1.1" viewBox="0 0 1023.05 391.838" width="100%" xml:space="preserve" xmlns="http://www.w3.org/2000/svg" xmlns:vectornator="http://vectornator.io" xmlns:xlink="http://www.w3.org/1999/xlink">
<defs/>
<g id="layer1" vectornator:layerName="layer1">
<g opacity="1">
<path d="M298.468 66.0688L65.2475 66.0688L65.2524 68.0921C65.2574 68.9318 65.5407 154.966 65.2524 178.84C65.6571 212.821 73.2139 242.932 89.0611 273.625C105.363 300.564 132.657 337.979 181.18 351.945L181.736 352.102L182.293 351.945C205.661 345.218 240.669 329.775 274.72 273.493C290.517 242.876 298.064 212.79 298.458 178.784C298.165 154.591 298.454 68.8761 298.458 68.087L298.468 66.0688Z" fill="#231f20" fill-rule="nonzero" opacity="1" stroke="none"/>
<path d="M181.939 205.122L93.7602 273.407L93.6792 273.478L93.7349 273.559C118.965 314.565 146.097 337.499 181.701 347.908L181.731 347.908L181.762 347.908C228.251 334.297 254.387 298.925 270.001 273.508L270.052 273.417L182 205.168L181.939 205.122Z" fill="#003d2c" fill-rule="nonzero" opacity="1" stroke="none"/>
<path d="M289.313 222.811L289.348 222.644C292.596 208.521 294.255 194.176 294.432 178.795C294.154 155.33 294.417 73.6762 294.422 70.2114L294.422 70.1001L69.2788 70.1001L69.2788 70.2114C69.3243 84.5057 69.5418 156.928 69.2788 178.85C69.4558 194.227 71.12 208.567 74.3774 222.714L74.4128 222.871L181.934 141.076L289.171 222.714L289.313 222.811Z" fill="#003d2c" fill-rule="nonzero" opacity="1" stroke="none"/>
<path d="M288.276 227.166L288.291 227.095L181.938 146.124L75.5401 227.064L75.4895 227.115L75.4945 227.186C75.5198 227.333 75.5451 227.51 75.5754 227.682C77.2345 234.111 79.2881 240.625 81.6705 247.054C85.2972 256.569 89.2172 265.213 91.8879 269.609L91.9587 269.715L181.938 200.034L271.826 269.695L271.927 269.765L271.993 269.664C272.418 268.961 272.878 268.142 273.369 267.226C279.955 253.802 284.831 240.691 288.275 227.166" fill="#ffc937" fill-rule="nonzero" opacity="1" stroke="none"/>
<path d="M212.864 92.5735L207.088 92.528L202.065 87.0955L201.519 87.2675C199.501 87.8745 198.074 87.743 195.879 86.8376C193.416 85.4415 191.57 84.9155 189.061 84.9155C186.587 84.9155 183.704 86.2002 181.924 87.9959C180.138 86.2053 177.26 84.9155 174.787 84.9155C172.278 84.9155 170.432 85.4415 168.069 86.792C165.702 87.7784 164.347 87.8846 162.328 87.2726L161.782 87.1006L156.744 92.5583L150.978 92.5786L150.974 135.118L176.988 135.234C177.858 136.321 179.734 137.07 181.93 137.07C184.125 137.07 186.006 136.321 186.866 135.234L212.875 135.118L212.864 92.5735Z" fill="#231f20" fill-rule="nonzero" opacity="1" stroke="none"/>
<path d="M169.44 119.619C170.826 118.891 172.561 117.986 174.969 117.925C177.538 117.854 179.703 118.962 180.952 119.862L180.952 89.918C179.673 88.2589 176.941 86.9489 174.787 86.9489C172.591 86.9489 171.039 87.3889 168.853 88.6383C166.304 89.7106 164.675 89.8826 162.657 89.4324L162.657 119.427C163.694 120.262 164.473 120.707 166.618 120.707C167.523 120.702 168.413 120.161 169.44 119.619" fill="#ffc937" fill-rule="nonzero" opacity="1" stroke="none"/>
<path d="M161.079 122.143C162.318 123.003 164.078 123.448 166.142 123.357C167.118 123.312 168.054 122.948 169.132 122.523C170.619 121.936 172.308 121.273 174.68 121.213C177.629 121.152 179.359 122.336 180.158 123.069C180.209 122.988 180.26 122.892 180.3 122.811C180.548 122.351 180.791 121.921 181.028 121.536L181.028 121.405C180.032 120.596 177.781 119.109 174.999 119.195C172.859 119.24 171.337 120.044 169.991 120.747C168.874 121.334 167.811 121.896 166.623 121.896C164.387 121.896 163.315 121.486 162.151 120.601L161.079 122.143Z" fill="#ffc937" fill-rule="nonzero" opacity="1" stroke="none"/>
<path d="M194.402 119.695C195.434 120.236 196.319 120.626 197.224 120.626C199.359 120.626 200.148 120.252 201.18 119.422L201.18 89.4273C199.167 89.8775 197.493 89.6853 195.09 88.6889C192.804 87.394 191.251 86.7921 189.061 86.7921C186.906 86.7921 184.174 88.264 182.895 89.923L182.895 119.867C184.139 118.957 186.294 117.864 188.873 117.93C191.286 117.986 193.016 118.972 194.402 119.695" fill="#ffc937" fill-rule="nonzero" opacity="1" stroke="none"/>
<path d="M153.937 93.7318L153.937 129.963L178.191 129.963C178.105 129.751 178.039 129.518 177.983 129.28C177.913 129.002 177.862 128.704 177.862 128.39C177.862 128.264 177.872 128.208 177.887 128.082C177.74 128.112 177.594 128.152 177.437 128.158L156.355 128.203L156.355 93.7318L153.937 93.7318Z" fill="#ffc937" fill-rule="nonzero" opacity="1" stroke="none"/>
<path d="M158.312 124.035L158.727 123.428L158.727 93.2462L158.312 93.7217L158.312 124.035Z" fill="#ffc937" fill-rule="nonzero" opacity="1" stroke="none"/>
<path d="M185.707 133.216L185.743 133.155L210.795 133.034L210.795 131.127L184.62 131.147C183.896 131.789 182.94 132.189 181.878 132.189C180.821 132.189 179.86 131.789 179.142 131.147L153.057 131.147L153.057 133.039L178.105 133.16L178.196 133.292C178.636 134.253 180.138 134.961 181.929 134.961C183.775 134.961 185.313 134.212 185.707 133.216" fill="#ffc937" fill-rule="nonzero" opacity="1" stroke="none"/>
<path d="M185.545 129.963L209.905 129.948L209.905 93.7166L207.493 93.7166L207.493 128.203L186.441 128.158C186.233 128.153 186.046 128.102 185.859 128.061C185.88 128.203 185.894 128.264 185.894 128.39C185.894 128.785 185.808 129.159 185.692 129.513C185.646 129.67 185.601 129.812 185.545 129.963" fill="#ffc937" fill-rule="nonzero" opacity="1" stroke="none"/>
<path d="M158.312 126.185L177.407 126.149C177.725 126.134 178.039 125.962 178.342 125.694C177.594 125.193 175.94 124.384 173.219 124.465C171.003 124.521 169.521 124.92 168.216 125.269C167.139 125.553 166.213 125.8 165.115 125.8C162.435 125.8 160.523 125.391 159.334 124.642L158.307 126.109L158.307 126.185L158.312 126.185Z" fill="#ffc937" fill-rule="nonzero" opacity="1" stroke="none"/>
<path d="M182.814 121.536C183.057 121.921 183.294 122.351 183.537 122.811C183.588 122.902 183.638 122.993 183.689 123.074C184.493 122.341 186.233 121.167 189.162 121.223C191.539 121.273 193.223 121.936 194.716 122.523C195.793 122.948 196.729 123.312 197.7 123.352C199.789 123.448 201.534 123.003 202.768 122.143L201.686 120.606C200.527 121.481 199.46 121.891 197.224 121.891C196.031 121.891 194.974 121.334 193.851 120.742C192.505 120.044 190.978 119.235 188.843 119.184C186.086 119.083 183.82 120.591 182.814 121.395L182.814 121.536Z" fill="#ffc937" fill-rule="nonzero" opacity="1" stroke="none"/>
<path d="M181.924 123.565C181.909 123.595 181.888 123.625 181.873 123.666C181.15 124.991 180.29 126.544 179.086 127.353C178.945 127.672 178.853 128.021 178.853 128.39C178.853 129.938 180.214 131.192 181.873 131.192C183.542 131.192 184.898 129.938 184.898 128.39C184.898 127.97 184.787 127.581 184.599 127.227C183.477 126.387 182.662 124.925 181.969 123.656C181.959 123.625 181.939 123.595 181.924 123.565" fill="#ffc937" fill-rule="nonzero" opacity="1" stroke="none"/>
<path d="M161.474 119.498L161.474 90.1355L160.659 91.0611L160.659 120.671L161.474 119.498Z" fill="#ffc937" fill-rule="nonzero" opacity="1" stroke="none"/>
<path d="M165.115 125.214C166.137 125.214 167.027 124.976 168.064 124.693C169.4 124.334 170.912 123.924 173.208 123.863C176.218 123.813 177.983 124.718 178.772 125.259C179.162 124.789 179.526 124.207 179.87 123.605C179.197 122.968 177.553 121.749 174.706 121.815C172.435 121.87 170.801 122.513 169.354 123.074C168.226 123.519 167.25 123.909 166.178 123.944C163.972 124.045 162.096 123.555 160.75 122.624L159.683 124.151C160.755 124.844 162.551 125.214 165.115 125.214" fill="#ffc937" fill-rule="nonzero" opacity="1" stroke="none"/>
<path d="M160.067 121.526L160.067 91.7288L159.324 92.5786L159.324 122.578L160.067 121.526Z" fill="#ffc937" fill-rule="nonzero" opacity="1" stroke="none"/>
<path d="M198.732 125.806C197.634 125.806 196.714 125.553 195.631 125.269C194.321 124.915 192.844 124.521 190.634 124.465C187.907 124.394 186.258 125.204 185.51 125.694C185.818 125.962 186.137 126.134 186.466 126.149L205.54 126.185L205.54 126.109L204.513 124.637C203.33 125.401 201.418 125.806 198.732 125.806" fill="#ffc937" fill-rule="nonzero" opacity="1" stroke="none"/>
<path d="M205.54 124.03L205.54 93.7217L205.115 93.2462L205.115 123.428L205.54 124.03Z" fill="#ffc937" fill-rule="nonzero" opacity="1" stroke="none"/>
<path d="M204.518 122.578L204.518 92.5786L203.78 91.7288L203.78 121.521L204.518 122.578Z" fill="#ffc937" fill-rule="nonzero" opacity="1" stroke="none"/>
<path d="M197.68 123.944C196.607 123.904 195.626 123.519 194.503 123.074C193.062 122.513 191.418 121.87 189.152 121.82C186.324 121.749 184.66 122.973 183.992 123.615C184.326 124.207 184.695 124.784 185.085 125.249C185.874 124.708 187.649 123.782 190.649 123.863C192.935 123.924 194.453 124.334 195.788 124.693C196.825 124.971 197.715 125.214 198.737 125.214C201.296 125.214 203.092 124.844 204.179 124.157L203.107 122.629C201.757 123.56 199.86 124.035 197.68 123.944" fill="#ffc937" fill-rule="nonzero" opacity="1" stroke="none"/>
<path d="M203.188 120.666L203.188 91.0561L202.369 90.1355L202.369 119.498L203.188 120.666Z" fill="#ffc937" fill-rule="nonzero" opacity="1" stroke="none"/>
<path d="M135.48 88.5776C133.011 88.5776 130.902 90.1102 130.062 92.27C129.87 92.2497 129.673 92.2397 129.476 92.2397C128.57 92.2397 127.71 92.4218 126.926 92.7607C126.279 93.0389 125.682 93.4182 125.166 93.8836C125.131 93.919 125.09 93.9544 125.055 93.9898C123.805 95.1532 123.032 96.8122 123.032 98.6332C123.032 99.6397 123.264 100.591 123.679 101.44C124.362 102.831 125.545 103.939 126.982 104.536C127.043 108.542 126.152 111.041 124.974 111.354C123.962 111.633 122.551 110.419 120.862 107.905C120.472 107.328 120.083 106.681 119.693 105.973C119.294 106.676 118.874 107.303 118.464 107.869C116.78 110.11 114.923 111.132 114.003 110.813C113.204 110.53 112.662 109.139 112.576 107.161C112.551 106.514 112.576 105.821 112.647 105.092L112.658 105.087C112.683 104.794 112.759 104.374 112.774 104.086L112.774 104.066L112.778 104.005L112.778 104.005L112.844 104.015C113.36 104.086 113.921 104.056 114.503 103.924C114.609 103.894 114.715 103.863 114.816 103.833C115.363 103.671 115.919 103.428 116.45 103.1C117.821 102.255 118.524 101.076 118.873 99.9534C119.273 98.6939 119.212 97.5154 119.156 96.9944C119.01 95.5882 118.175 93.7825 116.627 92.9327C116.207 92.7 115.449 92.4016 114.564 92.2499L114.493 92.2397L114.507 92.1689C114.846 90.788 114.674 89.3515 114.022 88.1325C113.415 86.9995 112.494 86.1902 111.128 85.5781C110.41 85.2595 109.545 85.1077 108.498 85.0976C107.446 85.1078 106.581 85.2595 105.863 85.5781C104.492 86.1902 103.567 86.9995 102.965 88.1325C102.317 89.3515 102.14 90.788 102.479 92.1689L102.494 92.2397L102.428 92.2499C101.538 92.3965 100.779 92.695 100.355 92.9277C98.8118 93.7825 97.9721 95.5882 97.8255 96.9944C97.7749 97.5154 97.7192 98.6939 98.1087 99.9534C98.4628 101.076 99.1608 102.26 100.532 103.1C101.118 103.464 101.74 103.732 102.347 103.894C102.423 103.914 102.494 103.924 102.565 103.944C103.111 104.061 103.642 104.081 104.133 104.015L104.163 104.005L104.199 104.005L104.204 104.076C104.214 104.243 104.219 104.399 104.229 104.566C104.239 104.698 104.244 104.819 104.249 104.956C104.305 105.674 104.366 106.499 104.34 107.161C104.259 109.134 103.713 110.525 102.919 110.808C102.003 111.127 100.137 110.11 98.4627 107.864C98.048 107.308 97.6281 106.676 97.2235 105.968C96.834 106.676 96.4496 107.323 96.0652 107.9C94.3707 110.419 92.9595 111.628 91.9529 111.349C90.7693 111.036 89.8791 108.537 89.9398 104.531C91.3813 103.934 92.5649 102.826 93.2478 101.435C93.6676 100.591 93.9003 99.6347 93.9003 98.6282C93.9003 96.8022 93.1213 95.1482 91.872 93.9848C91.8366 93.9494 91.7961 93.914 91.7607 93.8786C91.2448 93.4132 90.6479 93.0338 90.0005 92.7556C89.2165 92.4218 88.3515 92.2347 87.4461 92.2347C87.2488 92.2347 87.0566 92.2448 86.8644 92.265C86.0248 90.1001 83.9105 88.5726 81.4421 88.5726C78.2403 88.5726 75.6404 91.1573 75.6404 94.3237C75.6404 96.9236 77.3855 99.5842 79.778 100.297L84.4315 126.261L84.7653 128.426L84.7653 128.456C85.2256 129.053 89.09 133.175 108.286 133.175L108.29 133.175L108.3 133.175C127.602 133.175 131.461 129.012 131.891 128.456L131.902 128.451C131.902 128.446 131.902 128.446 131.902 128.446C131.902 128.436 131.906 128.436 131.906 128.436L131.906 128.436C132.017 127.753 132.128 127.075 132.245 126.398C133.868 117.546 135.497 109.149 137.126 100.297C139.604 99.4427 141.263 96.7366 141.263 94.3238C141.284 90.9197 137.955 88.5778 135.477 88.5778" fill="#231f20" fill-rule="nonzero" opacity="1" stroke="none"/>
<path d="M129.198 127.905C127.316 126.797 121.934 124.683 108.378 124.683C94.8123 124.683 89.4001 126.797 87.4932 127.905C89.3748 129.012 94.7567 131.122 108.307 131.122C121.878 131.122 127.296 129.012 129.198 127.905" fill="#ffc937" fill-rule="nonzero" opacity="1" stroke="none"/>
<path d="M134.61 102.508L135.055 100.53L135.379 98.5421C137.265 98.3297 139.268 96.2609 139.268 94.3287C139.268 92.2599 137.569 90.5755 135.48 90.5755C133.952 90.5755 132.637 91.4759 132.04 92.7657C131.818 93.2462 131.691 93.7672 131.691 94.3287C131.691 94.5108 131.702 94.6827 131.732 94.8497C131.12 94.5007 130.422 94.2832 129.673 94.2528C129.607 94.2478 129.547 94.2427 129.471 94.2427C128.763 94.2427 128.095 94.4096 127.488 94.708C126.81 95.0469 126.223 95.5628 125.793 96.19C125.318 96.8881 125.04 97.7277 125.04 98.6382C125.04 100.09 125.753 101.38 126.851 102.184C127.453 102.614 128.166 102.907 128.94 103.003C128.985 103.696 129.005 104.369 129.005 105.017C129.005 105.583 128.985 106.139 128.95 106.671C128.596 111.471 126.881 112.922 125.505 113.292C125.247 113.362 124.974 113.398 124.665 113.398C123.345 113.398 121.762 112.609 119.612 109.64C118.034 111.592 116.062 112.872 114.382 112.872C114.023 112.872 113.664 112.811 113.32 112.695C111.656 112.108 110.675 110.171 110.563 107.242C110.533 106.554 110.553 105.831 110.619 105.077L110.629 105.077C110.634 105.006 110.655 104.824 110.66 104.759C110.681 104.324 110.716 103.863 110.756 103.352C110.77 103.201 110.781 103.049 110.796 102.882L110.923 101.304C110.993 101.349 111.069 101.39 111.15 101.445C111.444 101.597 111.833 101.769 112.298 101.865C112.607 101.936 112.946 101.977 113.32 101.966C113.366 101.966 113.411 101.966 113.457 101.956C113.841 101.936 114.605 101.82 115.374 101.334C115.875 101.036 116.33 100.555 116.669 99.9584C117.104 99.1845 117.321 98.2133 117.109 97.2118C117.098 97.1309 116.709 95.3858 115.182 94.622C114.504 94.2882 113.882 94.2781 113.158 94.2781C112.405 94.2679 111.651 94.3792 110.928 94.5967C111.413 94.0201 111.808 93.3777 112.101 92.6949C112.298 92.2295 112.602 91.5113 112.577 90.6514C112.566 90.3732 112.551 89.7662 112.213 89.1137C112.177 89.0429 112.071 88.8456 111.889 88.6129C111.535 88.1678 111.019 87.7935 110.311 87.4799C109.85 87.2877 109.264 87.1764 108.515 87.1663C107.761 87.1765 107.17 87.2877 106.714 87.4799C106.001 87.7935 105.49 88.1628 105.131 88.6129C104.949 88.8406 104.843 89.0429 104.812 89.1137C104.474 89.7611 104.458 90.3732 104.448 90.6514C104.423 91.5062 104.732 92.2295 104.924 92.6949C105.212 93.3828 105.607 94.0201 106.097 94.5967C105.364 94.3792 104.615 94.268 103.851 94.2781C103.133 94.2781 102.516 94.2882 101.838 94.622C100.311 95.3858 99.9212 97.1309 99.9111 97.2118C99.6987 98.2184 99.9111 99.1845 100.351 99.9584C100.68 100.555 101.145 101.036 101.641 101.334C102.415 101.82 103.174 101.936 103.558 101.956C103.593 101.956 103.634 101.956 103.664 101.966C103.978 101.977 104.276 101.956 104.549 101.896C105.07 101.805 105.505 101.633 105.829 101.461C105.93 101.41 106.016 101.354 106.092 101.304L106.224 102.882C106.234 103.039 106.249 103.185 106.259 103.332C106.305 103.919 106.34 104.465 106.365 104.956C106.401 105.694 106.421 106.549 106.396 107.237C106.274 110.166 105.298 112.103 103.639 112.69C103.285 112.806 102.931 112.867 102.572 112.867C100.892 112.867 98.9248 111.587 97.3466 109.635C95.202 112.604 93.6188 113.393 92.2885 113.393C91.985 113.393 91.7119 113.352 91.4539 113.287C90.0781 112.922 88.3634 111.466 88.0144 106.665C87.979 106.134 87.9587 105.578 87.9587 105.011C87.9587 104.364 87.979 103.691 88.0245 102.998C88.7933 102.897 89.5065 102.609 90.1084 102.179C91.201 101.375 91.9142 100.085 91.9142 98.6331C91.9142 97.7227 91.636 96.8881 91.1656 96.185C90.7407 95.5578 90.154 95.0419 89.4661 94.703C88.8641 94.4045 88.1914 94.2376 87.4833 94.2376C87.4175 94.2376 87.3517 94.2426 87.2809 94.2478C86.5374 94.2781 85.8394 94.4956 85.2324 94.8446C85.2527 94.6777 85.2627 94.5057 85.2627 94.3236C85.2627 93.7672 85.1413 93.2412 84.9188 92.7607C84.3219 91.4708 83.0017 90.5705 81.4792 90.5705C79.3852 90.5705 77.6856 92.2549 77.6856 94.3236C77.6856 96.2558 79.6886 98.3297 81.5804 98.5371L81.8991 100.525L82.3442 102.503L86.6891 125.684L86.7094 125.795L86.7094 125.795L86.7347 125.907C89.3953 124.501 95.3892 122.614 108.389 122.614L108.389 122.614L108.393 122.614C121.625 122.614 127.573 124.571 130.143 125.988L130.157 125.866C130.161 125.866 130.168 125.866 130.172 125.866L130.172 125.846L131.679 118.011L134.61 102.508Z" fill="#ffc937" fill-rule="nonzero" opacity="1" stroke="none"/>
<path d="M282.216 88.5776C279.748 88.5776 277.639 90.1102 276.799 92.27C276.607 92.2497 276.415 92.2397 276.223 92.2397C275.312 92.2397 274.447 92.4218 273.663 92.7607C273.021 93.0389 272.424 93.4182 271.908 93.8836C271.867 93.919 271.832 93.9544 271.797 93.9898C270.547 95.1532 269.773 96.8122 269.773 98.6332C269.773 99.6397 270.006 100.591 270.421 101.44C271.109 102.831 272.287 103.939 273.724 104.536C273.784 108.542 272.894 111.041 271.716 111.354C270.704 111.633 269.293 110.419 267.603 107.905C267.214 107.328 266.824 106.681 266.44 105.973C266.035 106.676 265.616 107.303 265.206 107.869C263.532 110.11 261.665 111.132 260.745 110.813C259.945 110.53 259.404 109.139 259.328 107.161C259.303 106.514 259.324 105.821 259.394 105.092L259.404 105.087C259.43 104.794 259.506 104.374 259.521 104.086L259.521 104.066L259.521 104.005L259.521 104.005L259.592 104.015C260.108 104.086 260.669 104.056 261.251 103.924C261.357 103.894 261.463 103.863 261.564 103.833C262.111 103.671 262.667 103.428 263.198 103.1C264.569 102.255 265.272 101.076 265.621 99.9534C266.015 98.6939 265.96 97.5154 265.904 96.9944C265.757 95.5882 264.923 93.7825 263.375 92.9327C262.955 92.7 262.197 92.4016 261.306 92.2499L261.24 92.2397L261.255 92.1689C261.594 90.788 261.422 89.3515 260.769 88.1325C260.162 86.9995 259.247 86.1902 257.876 85.5781C257.153 85.2595 256.298 85.1077 255.246 85.0976C254.189 85.1078 253.324 85.2595 252.606 85.5781C251.235 86.1902 250.314 86.9995 249.712 88.1325C249.06 89.3515 248.888 90.788 249.227 92.1689L249.241 92.2397L249.17 92.2499C248.285 92.3965 247.521 92.695 247.102 92.9277C245.559 93.7825 244.719 95.5882 244.567 96.9944C244.512 97.5154 244.461 98.6939 244.856 99.9534C245.2 101.076 245.903 102.26 247.274 103.1C247.86 103.464 248.488 103.732 249.095 103.894C249.17 103.914 249.241 103.924 249.312 103.944C249.858 104.061 250.389 104.081 250.88 104.015L250.905 104.005L250.941 104.005L250.951 104.076C250.955 104.243 250.966 104.399 250.976 104.566C250.987 104.698 250.991 104.819 250.997 104.956C251.053 105.674 251.108 106.499 251.088 107.161C251.012 109.134 250.461 110.525 249.667 110.808C248.746 111.127 246.885 110.11 245.205 107.864C244.796 107.308 244.376 106.676 243.971 105.968C243.587 106.676 243.197 107.323 242.813 107.9C241.124 110.419 239.702 111.628 238.701 111.349C237.517 111.036 236.627 108.537 236.688 104.531C238.134 103.934 239.313 102.826 239.996 101.435C240.415 100.591 240.648 99.6347 240.648 98.6282C240.648 96.8022 239.864 95.1482 238.62 93.9848C238.579 93.9494 238.544 93.914 238.514 93.8786C237.993 93.4132 237.396 93.0338 236.748 92.7556C235.959 92.4218 235.099 92.2347 234.194 92.2347C233.997 92.2347 233.804 92.2448 233.612 92.265C232.773 90.1001 230.663 88.5726 228.195 88.5726C224.993 88.5726 222.388 91.1573 222.388 94.3237C222.388 96.9236 224.138 99.5842 226.531 100.297L231.184 126.261L231.518 128.426L231.518 128.456C231.978 129.053 235.843 133.175 255.039 133.175L255.043 133.175L255.053 133.175C274.35 133.175 278.214 129.012 278.644 128.456L278.655 128.451C278.655 128.446 278.655 128.446 278.655 128.446C278.655 128.436 278.655 128.436 278.655 128.436L278.655 128.436C278.771 127.753 278.877 127.075 278.993 126.398C280.617 117.546 282.256 109.149 283.88 100.297C286.353 99.4427 288.017 96.7366 288.017 94.3238C288.021 90.9197 284.699 88.5778 282.215 88.5778" fill="#231f20" fill-rule="nonzero" opacity="1" stroke="none"/>
<path d="M275.944 127.905C274.058 126.797 268.676 124.683 255.12 124.683C241.564 124.683 236.137 126.797 234.235 127.905C236.122 129.012 241.498 131.122 255.054 131.122C268.615 131.122 274.037 129.012 275.944 127.905" fill="#ffc937" fill-rule="nonzero" opacity="1" stroke="none"/>
<path d="M281.352 102.508L281.797 100.53L282.12 98.5421C284.012 98.3297 286.01 96.2609 286.01 94.3287C286.01 92.2599 284.311 90.5755 282.216 90.5755C280.694 90.5755 279.374 91.4759 278.777 92.7657C278.554 93.2462 278.433 93.7672 278.433 94.3287C278.433 94.5108 278.447 94.6827 278.468 94.8497C277.861 94.5007 277.163 94.2832 276.415 94.2528C276.354 94.2478 276.288 94.2427 276.222 94.2427C275.504 94.2427 274.832 94.4096 274.235 94.708C273.552 95.0469 272.965 95.5628 272.54 96.19C272.06 96.8881 271.787 97.7277 271.787 98.6382C271.787 100.09 272.5 101.38 273.592 102.184C274.194 102.614 274.907 102.907 275.681 103.003C275.727 103.696 275.747 104.369 275.742 105.017C275.742 105.583 275.727 106.139 275.686 106.671C275.332 111.471 273.617 112.922 272.242 113.292C271.989 113.362 271.711 113.398 271.407 113.398C270.087 113.398 268.504 112.609 266.354 109.64C264.771 111.592 262.803 112.872 261.124 112.872C260.765 112.872 260.406 112.811 260.062 112.695C258.398 112.108 257.416 110.171 257.3 107.242C257.275 106.554 257.296 105.831 257.361 105.077L257.371 105.077C257.375 105.006 257.396 104.824 257.401 104.759C257.422 104.324 257.462 103.863 257.497 103.352C257.508 103.201 257.518 103.049 257.533 102.882L257.664 101.304C257.73 101.349 257.811 101.39 257.892 101.445C258.18 101.597 258.575 101.769 259.035 101.865C259.348 101.936 259.687 101.977 260.057 101.966C260.107 101.966 260.148 101.966 260.198 101.956C260.583 101.936 261.341 101.82 262.11 101.334C262.611 101.036 263.066 100.555 263.405 99.9584C263.84 99.1845 264.058 98.2133 263.845 97.2118C263.831 97.1309 263.446 95.3858 261.918 94.622C261.235 94.2882 260.618 94.2781 259.895 94.2781C259.141 94.2679 258.387 94.3792 257.659 94.5967C258.15 94.0201 258.544 93.3777 258.832 92.6949C259.03 92.2295 259.333 91.5113 259.313 90.6514C259.303 90.3732 259.288 89.7662 258.944 89.1137C258.913 89.0429 258.807 88.8456 258.625 88.6129C258.276 88.1678 257.755 87.7935 257.047 87.4799C256.587 87.2877 256 87.1764 255.256 87.1663C254.498 87.1765 253.906 87.2877 253.451 87.4799C252.742 87.7935 252.227 88.1628 251.867 88.6129C251.69 88.8406 251.579 89.0429 251.549 89.1137C251.21 89.7611 251.19 90.3732 251.185 90.6514C251.164 91.5062 251.468 92.2295 251.66 92.6949C251.948 93.3828 252.343 94.0201 252.834 94.5967C252.095 94.3792 251.346 94.268 250.588 94.2781C249.869 94.2781 249.252 94.2882 248.575 94.622C247.042 95.3858 246.658 97.1309 246.642 97.2118C246.43 98.2184 246.647 99.1845 247.082 99.9584C247.416 100.555 247.877 101.036 248.372 101.334C249.146 101.82 249.905 101.936 250.294 101.956C250.33 101.956 250.365 101.956 250.396 101.966C250.709 101.977 251.008 101.956 251.276 101.896C251.802 101.805 252.237 101.633 252.56 101.461C252.662 101.41 252.748 101.354 252.823 101.304L252.95 102.882C252.96 103.039 252.971 103.185 252.985 103.332C253.036 103.919 253.071 104.465 253.086 104.956C253.132 105.694 253.147 106.549 253.122 107.237C253 110.166 252.024 112.103 250.365 112.69C250.016 112.806 249.657 112.867 249.298 112.867C247.624 112.867 245.651 111.587 244.073 109.635C241.928 112.604 240.345 113.393 239.015 113.393C238.716 113.393 238.438 113.352 238.18 113.287C236.804 112.922 235.09 111.466 234.741 106.665C234.7 106.134 234.685 105.578 234.685 105.011C234.685 104.364 234.699 103.691 234.746 102.998C235.524 102.897 236.238 102.609 236.835 102.179C237.932 101.375 238.64 100.085 238.64 98.6331C238.64 97.7227 238.362 96.8881 237.887 96.185C237.462 95.5578 236.875 95.0419 236.192 94.703C235.595 94.4045 234.918 94.2376 234.209 94.2376C234.139 94.2376 234.078 94.2426 234.007 94.2478C233.263 94.2781 232.565 94.4956 231.948 94.8446C231.979 94.6777 231.989 94.5057 231.989 94.3236C231.989 93.7672 231.867 93.2412 231.645 92.7607C231.043 91.4708 229.728 90.5705 228.205 90.5705C226.111 90.5705 224.412 92.2549 224.412 94.3236C224.412 96.2558 226.415 98.3297 228.301 98.5371L228.625 100.525L229.07 102.503L233.415 125.684L233.436 125.795L233.436 125.795L233.461 125.907C236.122 124.501 242.115 122.614 255.115 122.614L255.115 122.614L255.119 122.614C268.356 122.614 274.3 124.571 276.864 125.988L276.885 125.866C276.889 125.866 276.895 125.866 276.899 125.866L276.899 125.846L278.412 118.011L281.352 102.508Z" fill="#ffc937" fill-rule="nonzero" opacity="1" stroke="none"/>
<path d="M208.271 263.908C209.48 261.025 208.914 260.281 208.914 260.281L211.605 252.259L207.928 257.833C207.806 257.707 207.487 257.439 206.855 257.317C206.855 257.317 209.091 255.4 208.231 254.156C208.231 254.156 207.781 253.018 205.095 253.357C205.095 253.357 205.459 250.59 204.619 249.604L205.292 238.162L202.536 247.783C202.536 247.783 201.797 246.827 200.988 246.892C200.988 246.892 201.746 246.169 202.025 245.522C202.025 245.522 203.274 243.251 200.968 242.932C200.968 242.932 199.951 242.831 199.015 243.038C199.015 243.038 199.293 240.185 198.332 239.325L198.378 227.864L195.798 239.017C195.798 239.017 194.964 239.118 194.271 242.477C194.271 242.477 192.804 241.379 190.806 242.239L189.688 231.956L188.388 243.336C188.388 243.336 187.634 243.948 187.543 245.046C187.543 245.046 187.184 244.945 186.825 244.92C186.825 244.92 187.801 243.685 187.877 242.972C187.877 242.972 188.186 241.177 186.663 240.984C186.663 240.984 185.697 240.797 184.402 241.308C184.402 241.308 184.291 238.208 183.289 237.702L182.035 226.311L180.745 237.692C180.745 237.692 179.536 238.116 179.642 241.207C179.642 241.207 176.972 240.494 176.289 241.445C176.289 241.445 175.54 243.235 177.214 244.925C177.214 244.925 176.071 244.985 175.859 245.39L175.439 244.884L174.19 233.503L172.89 244.884C172.89 244.884 172.308 245.198 172.106 246.316C172.106 246.316 171.433 245.663 170.452 245.82C170.452 245.82 171.281 244.606 171.281 243.559C171.281 243.559 171.686 240.863 167.69 242.492C167.69 242.492 167.376 239.745 166.213 238.997L163.826 227.803L163.694 239.371C163.694 239.371 162.561 239.659 163.032 243.094C163.032 243.094 161.347 242.173 159.708 243.372L157.786 236.634L158.459 248.066C158.459 248.066 157.624 248.779 157.989 251.819C157.989 251.819 151.717 250.853 156.223 255.79C156.223 255.79 152.475 256.746 156.011 259.614L155.105 259.968L149.885 253.377L153.057 261.131C153.057 261.131 152.602 262.117 153.967 264.707C153.967 264.707 148.515 265.693 153.972 268.885C154.078 268.794 150.866 270.802 155.17 272.502C155.17 272.502 153.096 274.606 156.501 276.128C156.501 276.128 154.953 278.48 158.559 279.558C158.559 279.558 156.642 281.308 160.451 283.245C159.571 283.68 159.045 284.626 159.94 286.665L161.994 289.952C161.994 289.952 158.999 293.559 161.893 295.466L161.837 296.255C162.09 299.158 154.917 313.452 153.435 316.052C152.393 317.711 153.026 321.454 154.543 322.613C155.696 323.493 157.679 324.054 159.146 323.918C159.682 325.39 160.719 326.538 162.019 327.089C163.218 327.605 164.573 327.681 165.276 327.681C165.636 327.681 166.308 327.651 166.946 327.524C167.79 328.758 169.323 329.866 170.638 330.159C171.184 330.296 171.842 330.357 172.535 330.357C173.208 330.357 174.857 330.286 176.076 329.643C177.33 330.67 179.636 331.49 181.296 331.49L181.574 331.49C183.385 331.388 184.867 330.175 185.656 329.406C186.268 329.79 187.861 330.67 189.545 330.67L189.758 330.67C191.28 330.61 193.192 329.76 194.26 328.682C195.246 328.991 196.809 329.107 198.038 328.662C199.217 328.237 200.714 327.316 201.437 326.006C202.874 326.047 204.275 325.662 205.19 325.04C206.44 324.211 207.704 322.551 207.573 321.049L207.446 320.655C206.89 319.638 199.014 300.599 197.32 295.612C198.25 294.909 199.849 293.457 199.899 291.712C199.899 291.712 200.051 290.979 200.36 290.635C200.36 290.635 202.525 287.392 201.518 285.693L201.736 285.602C204.416 284.615 203.835 283.093 203.835 283.093C203.774 282.835 203.44 282.42 203.44 282.42C207.153 280.265 204.735 279.041 204.735 279.041C208.245 277.827 206.607 275.405 206.607 275.405C210.142 273.27 207.436 271.778 207.436 271.778C211.715 269.911 208.569 268.075 208.569 268.075C213.663 264.509 208.271 263.907 208.271 263.907" fill="#231f20" fill-rule="nonzero" opacity="1" stroke="none"/>
<path d="M163.907 296.705C163.477 301.662 155.313 316.988 155.232 317.145C154.438 318.308 155.166 320.463 155.803 320.949C156.476 321.465 157.751 321.839 158.712 321.839C159.071 321.839 159.258 321.798 159.334 321.758C160.133 319.952 166.097 302.395 166.481 300.944C166.628 300.402 167.199 300.064 167.756 300.205C168.317 300.352 168.651 300.929 168.504 301.48C168.469 301.627 162.253 320.519 161.039 322.957C161.195 323.498 161.656 324.656 162.829 325.162C163.456 325.44 164.347 325.597 165.262 325.597C166.026 325.597 166.517 325.496 166.729 325.42C167.412 323.842 169.845 310.807 170.644 306.482C171.033 304.429 171.276 303.144 171.342 302.836C171.474 302.274 172.03 301.935 172.601 302.046C173.168 302.193 173.517 302.77 173.38 303.331C173.31 303.609 173.082 304.854 172.758 306.584L172.708 306.882C170.083 320.939 169.177 324.803 168.595 326.234C169.015 326.917 170.113 327.904 171.099 328.141C171.479 328.232 171.995 328.268 172.531 328.268C173.901 328.268 174.883 327.98 175.252 327.706C175.682 325.127 177.027 306.553 177.027 304.828C177.027 304.247 177.498 303.791 178.074 303.791C178.651 303.791 179.127 304.247 179.127 304.828C179.127 306.063 177.908 324.171 177.326 327.985C177.973 328.587 179.84 329.426 181.291 329.426L181.463 329.405C182.591 329.355 183.765 328.439 184.503 327.59C184.407 324.398 182.956 307.853 182.804 306.664C182.733 306.092 183.143 305.566 183.714 305.491C183.987 305.46 184.261 305.541 184.483 305.698C184.706 305.875 184.847 306.113 184.888 306.401C184.902 306.517 186.501 322.8 186.527 327.473C187.113 327.898 188.388 328.611 189.546 328.611C190.947 328.541 192.45 327.645 192.875 327.139C192.758 325.627 190.872 317.458 190.249 315.157C190.098 314.595 190.436 314.029 190.988 313.882C191.266 313.801 191.544 313.841 191.787 313.973C192.025 314.11 192.197 314.347 192.273 314.615C192.293 314.696 194.544 323.654 194.908 326.699C195.591 326.897 196.597 326.998 197.321 326.72C198.494 326.295 199.511 325.466 199.708 324.763C199.556 323.994 197.614 318.192 191.21 301.278L191.114 301.03C191.018 300.772 191.023 300.478 191.145 300.231C191.256 299.983 191.464 299.785 191.732 299.679C192.263 299.472 192.875 299.76 193.077 300.291L193.173 300.549C198.14 313.68 200.907 321.333 201.605 323.933L201.63 323.933C202.561 323.933 203.492 323.705 204.023 323.341C204.857 322.79 205.419 321.859 205.49 321.404C204.604 319.371 197.478 302.436 195.464 296.629C192.632 297.509 187.483 297.499 187.483 297.499C187.452 299.366 189.895 304.373 189.895 304.373C183.482 304.651 178.484 297.605 178.484 297.605C172.177 297.388 166.431 296.654 164.539 296.381C164.539 296.361 163.962 296.199 163.907 296.705" fill="#ffc937" fill-rule="nonzero" opacity="1" stroke="none"/>
<path d="M188.236 287.853C188.236 287.853 189.349 289.441 187.634 295.349C187.634 295.349 193.158 295.132 194.195 294.874C194.195 294.874 194.888 294.646 195.206 294.409C195.206 294.409 196.946 293.341 197.316 292.79C197.316 292.79 197.644 292.314 197.831 291.515C197.831 291.515 197.927 290.332 198.418 289.836C198.418 289.836 199.288 288.708 199.663 287.236C199.663 287.236 200.189 286.25 198.363 286.513C198.363 286.513 196.511 286.771 195.5 287.084C195.5 287.095 194.544 287.894 188.236 287.853" fill="#ffc937" fill-rule="nonzero" opacity="1" stroke="none"/>
<path d="M182.91 293.169L180.917 287.499C180.917 287.499 180.224 285.279 177.766 285.709C177.766 285.709 175.424 286.447 177.336 288.683C177.336 288.683 178.262 289.689 178.439 291.49C178.439 291.49 178.408 297.438 186.435 301.627C186.435 301.627 184.711 297.545 185.783 294.039C185.783 294.039 188.388 286.837 183.385 285.279C183.385 285.279 181.701 284.606 182.541 286.108C182.541 286.108 182.976 286.69 182.92 288.895L182.91 293.169Z" fill="#ffc937" fill-rule="nonzero" opacity="1" stroke="none"/>
<path d="M174.483 287.201C174.483 287.201 165.414 285.82 163.674 285.43L162.096 285.046C162.096 285.046 161.281 284.818 161.782 285.668C161.782 285.668 162.01 286.164 162.202 286.402L163.745 288.941C163.745 288.941 164.498 290.215 163.472 291.53C163.472 291.53 160.695 294.13 166.213 294.505C166.213 294.505 175.672 295.542 177.331 295.445C177.331 295.445 176.451 293.104 176.37 291.662C176.324 291.414 176.147 290.499 175.388 289.588C175.393 289.584 174.453 288.405 174.483 287.201" fill="#ffc937" fill-rule="nonzero" opacity="1" stroke="none"/>
<path d="M172.379 282.036C172.369 281.976 172.308 281.642 172.096 281.541C171.974 281.47 171.817 281.49 171.625 281.611L168.555 284.07L168.626 284.08C169.703 284.267 170.836 284.464 172.096 284.672L172.116 284.682L172.127 284.652C172.344 284.04 172.673 282.892 172.38 282.042L172.379 282.036Z" fill="#ffc937" fill-rule="nonzero" opacity="1" stroke="none"/>
<path d="M167.422 267.363L167.579 267.246L165.758 267.97L165.718 268L165.743 268.04C166.244 268.582 166.244 269.462 166.193 269.937L166.189 269.998L166.69 269.674L166.69 269.653C166.386 268.46 167.018 267.711 167.423 267.362" fill="#ffc937" fill-rule="nonzero" opacity="1" stroke="none"/>
<path d="M198.373 253.367C198.155 253.574 198.439 254.298 198.565 254.561L200.973 258.769L197.832 257.413C197.128 257.09 196.881 257.145 196.8 257.236C196.633 257.444 196.962 258.015 197.108 258.213L200.386 262.214L196.845 261.04L196.815 261.03L196.804 261.06C196.739 261.394 196.248 261.829 196.041 262.001L195.99 262.042L196.051 262.052C196.84 262.239 197.315 262.583 197.457 263.069C197.745 264.065 196.592 265.33 196.233 265.704L196.197 265.734L196.243 265.755C196.612 265.892 197.437 266.357 197.239 267.712L197.229 267.773L197.29 267.743C197.32 267.732 197.36 267.722 197.396 267.712L197.416 267.712C197.442 267.692 197.477 267.692 197.492 267.682L197.503 267.682C197.796 267.576 198.1 267.515 198.433 267.515C198.504 267.515 198.565 267.525 198.631 267.525L198.676 267.525L198.666 267.485C198.58 267.171 198.18 265.527 198.924 264.758C199.323 264.333 199.996 264.232 200.912 264.46L200.952 264.47L200.952 264.43C200.897 263.995 200.679 261.774 201.67 261.101C202.141 260.793 202.814 260.894 203.673 261.4L203.688 261.421L203.702 261.4C203.829 261.309 204.942 260.489 205.549 260.252L205.559 260.241C205.625 260.15 206.227 259.412 206.905 259.164L206.955 259.133L206.914 259.093C205.852 258.036 201.694 259.427 201.517 259.498L201.432 259.518L206.161 255.826C206.722 255.244 206.763 254.976 206.692 254.86C206.525 254.592 205.589 254.829 205.579 254.829L203.738 255.568L203.612 250.833L203.612 250.823C203.546 250.595 203.44 250.479 203.298 250.428C203.05 250.358 202.782 250.545 202.757 250.575L202.746 250.586C202.397 251.299 201.189 254.627 201.178 254.667L201.174 254.678L199.323 253.651C198.716 253.267 198.468 253.287 198.372 253.368" fill="#ffc937" fill-rule="nonzero" opacity="1" stroke="none"/>
<path d="M179.663 255.941L179.728 255.952C179.905 255.952 180.229 256.012 180.442 256.139L180.482 256.169L180.493 256.109C180.523 255.871 180.609 255.082 180.644 254.844L180.659 254.707L180.583 254.824C180.436 255.041 180.163 255.416 179.708 255.881L179.663 255.941Z" fill="#ffc937" fill-rule="nonzero" opacity="1" stroke="none"/>
<path d="M178.17 248.197L178.181 248.208L178.206 248.208C179.091 248.208 179.668 248.435 179.906 248.911C180.437 249.938 179.273 251.728 179.036 252.072L179 252.123L179.056 252.123C179.122 252.133 179.172 252.144 179.238 252.163C179.273 252.163 179.304 252.174 179.344 252.184C179.385 252.194 179.43 252.205 179.471 252.214C180.305 252.412 180.715 252.963 180.791 253.074L180.836 253.145L181.696 245.411L182.718 254.946L182.718 255.016L182.768 254.986C183.214 254.551 183.704 254.384 183.896 254.323L183.947 254.303L183.912 254.262C182.981 253.185 182.647 252.284 182.915 251.642C183.239 250.853 184.392 250.635 184.741 250.595L184.802 250.585L184.761 250.544C183.547 249.3 183.775 247.757 183.866 247.312L183.87 247.271L182.216 247.605L184.128 245.44C186.338 243.463 186.313 242.734 186.288 242.613L186.288 242.592L186.267 242.592C186.191 242.571 186.095 242.552 186.004 242.552C185.023 242.552 183.51 243.745 183.445 243.786L183.441 243.796L183.43 243.786C183.132 243.391 182.909 242.117 182.909 242.106C182.833 240.842 182.57 239.658 182.535 239.517L182.535 239.506C182.368 239.142 182.191 238.965 182.004 238.965C181.726 238.975 181.518 239.4 181.478 239.491L181.149 241.646C180.982 242.546 180.633 243.669 180.598 243.791L180.593 243.801L180.579 243.791C178.439 242.268 177.812 242.556 177.746 242.587L177.742 242.597L177.742 242.597C177.525 243.042 178.673 244.337 178.688 244.347L181.167 247.559L181.116 247.538C180.206 247.194 178.476 246.648 178.456 246.648C177.211 246.4 176.877 246.542 176.807 246.699C176.655 247.053 177.742 247.892 178.172 248.196" fill="#ffc937" fill-rule="nonzero" opacity="1" stroke="none"/>
<path d="M165.773 249.158L165.879 249.239L165.758 249.199C165.737 249.188 163.036 248.111 161.519 247.904L161.443 247.894L161.484 247.954C161.731 248.318 162.551 249.593 162.733 250.969L162.733 251.019L162.773 250.999C163.148 250.812 165.065 249.931 165.909 250.69C166.471 251.196 166.42 252.339 165.742 254.089L165.728 254.14L165.773 254.14C165.788 254.14 165.819 254.14 165.849 254.14L165.853 254.14C166.218 254.14 167.118 254.19 167.583 254.742C167.862 255.055 167.948 255.5 167.841 256.067L167.827 256.138L167.887 256.097C168.039 255.996 168.262 255.88 168.469 255.839L168.525 255.829L168.489 255.789C168.186 255.455 167.225 254.296 167.528 253.33C167.705 252.749 168.292 252.354 169.289 252.147L169.334 252.136L168.96 251.61L168.956 251.61L166.553 251.934L168.359 250.326L168.373 250.295L168.369 250.285C168.324 250.128 168.121 249.309 168.572 248.742C168.941 248.287 169.629 248.13 170.61 248.236L170.624 248.236L170.635 248.216C170.802 248.059 171.05 247.74 170.959 247.563C170.898 247.457 170.67 247.346 169.922 247.513C169.836 247.533 167.484 248.342 166.234 249.222L166.163 249.273L169.34 244.776C169.487 244.478 169.841 243.709 169.699 243.572L169.695 243.562C169.619 243.521 168.86 243.294 166.999 245.044L166.985 245.065L166.98 245.044C166.91 244.887 166.262 243.562 166.004 242.206C166.004 242.186 165.751 240.901 165.529 240.537L165.525 240.537C165.489 240.507 165.307 240.36 165.095 240.36C165.08 240.36 165.059 240.36 165.034 240.36C164.892 240.391 164.766 240.466 164.665 240.628L164.661 240.649C164.64 240.887 164.519 242.111 164.509 243.335C164.509 243.482 164.519 244.847 164.17 245.338L164.16 245.338L164.149 245.338C164.139 245.327 162.844 244.372 161.443 244.372L161.422 244.372C161.367 244.372 161.266 244.382 161.22 244.463C161.175 244.534 161.195 244.66 161.286 244.817C161.352 244.928 163.041 247.27 165.778 249.157" fill="#ffc937" fill-rule="nonzero" opacity="1" stroke="none"/>
<path d="M160.179 260.468L160.103 260.468C159.718 260.468 158.368 260.509 156.992 260.954L156.916 260.984L156.992 261.015C157.604 261.313 158.378 261.784 158.464 261.834L158.478 261.855L158.493 261.834C159.302 261.283 159.965 261.121 160.45 261.399C161.472 261.971 161.427 264.196 161.406 264.642L161.406 264.682L161.447 264.672C162.317 264.363 163.005 264.414 163.435 264.798C164.209 265.491 163.976 267.019 163.89 267.474L163.886 267.524L163.931 267.514C164.083 267.493 164.23 267.484 164.371 267.484L164.382 267.484L166.709 265.44L166.723 265.42L166.719 265.399C166.678 265.283 166.567 264.858 166.785 264.423C166.962 264.089 167.29 263.841 167.786 263.699L167.847 263.679L167.796 263.638C167.609 263.501 167.28 263.213 167.119 262.905L167.108 262.884L163.087 264.032L166.698 260.987L166.713 260.966L166.709 260.946C166.673 260.819 166.547 260.147 167.645 259.631L167.67 259.62L167.659 259.59C167.645 259.559 167.609 259.519 167.568 259.489C167.412 259.382 166.951 259.251 165.636 259.605L161.994 260.571L165.13 257.658L165.135 257.647C165.149 257.627 165.195 257.576 165.327 257.43C165.868 256.808 166.485 256.074 166.384 255.771L166.38 255.75C166.339 255.709 166.066 255.502 164.802 256.038L161.752 257.611L164.068 253.924C164.079 253.903 165.014 252.381 164.807 251.946L164.803 251.936L164.788 251.926C164.722 251.895 164.318 251.779 163.2 252.649L162.208 253.615L162.198 253.605C162.117 253.488 161.424 252.32 161.257 251.531C161.207 251.344 160.741 249.695 160.402 249.108L160.398 249.108L160.388 249.108C160.302 249.098 159.887 249.017 159.619 249.255L159.609 249.265L159.609 249.286C159.588 249.534 159.472 250.904 159.649 252.24C159.649 252.25 159.735 253.575 159.427 254.096L159.412 254.121L159.398 254.111C159.17 253.984 157.117 252.917 156.419 253.408L156.404 253.418L156.404 253.429C156.4 253.575 156.455 254.385 158.685 255.71L161.174 257.515L157.987 257.207L157.973 257.207C157.533 257.177 156.486 257.146 156.329 257.505C156.263 257.662 156.38 257.87 156.683 258.158L160.179 260.468Z" fill="#ffc937" fill-rule="nonzero" opacity="1" stroke="none"/>
<path d="M209.172 265.881C209.172 265.83 209.147 265.79 209.126 265.774L209.122 265.774L209.122 265.774C209.118 265.744 209.101 265.704 209.082 265.683L209.096 265.663C209.092 265.663 209.082 265.642 209.061 265.622L209.046 265.653C208.606 265.187 206.411 265.572 206.31 265.592L206.284 265.602L207.493 261.146C207.554 260.898 207.539 260.731 207.453 260.671C207.362 260.59 207.19 260.63 207.053 260.711C206.117 261.48 204.226 264.464 204.205 264.495L204.201 264.525L203.367 263.18C203.058 262.638 202.76 262.547 202.608 262.547C202.547 262.547 202.502 262.558 202.492 262.558C202.107 262.745 202.365 264.07 202.37 264.08L203.033 268.228L201.05 266.205C200.585 265.851 200.241 265.719 200.069 265.851C199.765 266.038 199.973 266.867 199.998 266.948L201.556 270.949L199.179 269.25C198.562 268.916 198.147 268.845 197.939 269.042C197.514 269.437 198.081 270.833 198.207 271.116L200.393 274.879L197.155 272.598C196.675 272.244 196.417 272.264 196.306 272.29C196.179 272.33 196.134 272.416 196.123 272.436L196.123 272.447C195.749 272.872 196.381 274.177 196.387 274.187L197.96 278.228L195.167 275.917L195.157 275.906C194.894 275.815 194.682 275.815 194.535 275.957C194.146 276.28 194.312 277.292 194.333 277.418L196.801 281.511L193.705 279.497C193.26 279.184 192.967 279.072 192.83 279.184C192.613 279.361 192.856 280.084 193.017 280.448L195.39 284.181L191.97 282.117C191.778 282.026 191.621 282.026 191.5 282.087C191.288 282.224 191.267 282.563 191.262 282.613C190.969 283.751 191.723 285.259 191.874 285.567L191.885 285.577L192.016 285.618L192.02 285.618C193.477 285.471 194.028 285.34 194.094 285.32C197.65 284.146 199.466 284.313 200.366 284.677L200.376 284.677L200.381 284.677C202.045 284.181 202.384 283.807 202.379 283.58C202.368 283.215 201.554 283.018 201.519 283.008C199.415 282.467 198.003 282.067 197.932 282.012L197.902 281.991L197.932 281.98C199.44 281.783 202.894 281.025 202.935 281.014C203.405 280.797 203.643 280.579 203.623 280.382C203.592 280.008 202.702 279.79 202.692 279.79L197.922 278.981L204.022 277.808C204.928 277.484 205.393 277.155 205.403 276.801C205.418 276.346 204.695 276.012 204.69 276.012L201.144 274.838L205.884 274.105C206.486 273.908 206.784 273.71 206.799 273.473C206.825 273.109 206.162 272.79 206.147 272.79L202.399 271.399L207.33 270.271C207.705 270.134 208.14 269.917 208.125 269.689C208.104 269.355 207.219 269.138 207.209 269.138L203.805 268.597L207.882 266.877C208.99 266.305 209.167 266.002 209.172 265.88" fill="#ffc937" fill-rule="nonzero" opacity="1" stroke="none"/>
<path d="M186.274 284.287L186.218 284.308L186.268 284.348C186.673 284.657 186.931 284.991 187.022 285.127L187.043 285.158L187.064 285.127C187.569 284.611 187.782 284.247 187.681 284.101C187.509 283.843 186.477 284.217 186.274 284.288" fill="#ffc937" fill-rule="nonzero" opacity="1" stroke="none"/>
<path d="M187.649 280.782C187.543 280.544 186.977 280.595 186.81 280.605L181.984 281.257L182.07 281.227C184.999 279.892 187.295 277.964 187.326 277.949C187.629 277.575 187.746 277.317 187.67 277.17C187.579 276.993 187.22 277.003 187.032 277.013L186.987 277.024C186.936 277.024 186.901 277.024 186.881 277.013L186.877 277.013L180.64 278.536L185.248 275.749C187.817 274.317 187.656 273.291 187.651 273.25C187.636 273.144 187.58 273.073 187.484 273.002C187.145 272.765 186.361 272.932 186.123 272.972L181.894 273.503L186.897 270.519L186.901 270.498C187.25 270.164 187.387 269.886 187.306 269.709C187.205 269.481 186.8 269.441 186.567 269.441C186.547 269.441 186.522 269.441 186.507 269.441L181.484 269.825L184.676 267.908C186.512 266.76 186.861 266.168 186.906 265.91C186.921 265.804 186.886 265.753 186.881 265.753C186.264 265.05 181.676 267.018 181.626 267.048L181.56 267.079L181.595 267.048L184.691 263.907C185.905 262.673 186.061 262.091 186.051 261.854C186.041 261.737 186.006 261.697 185.991 261.687L185.987 261.676C185.916 261.626 185.82 261.616 185.713 261.616C184.924 261.616 183.291 262.673 183.093 262.789L183.073 262.819L182.263 259.016C182.147 258.257 181.965 257.812 181.732 257.691C181.687 257.67 181.626 257.65 181.57 257.67L181.57 257.67L181.55 257.68L181.539 257.68C181.018 257.68 180.816 260.695 180.816 260.75C180.74 261.464 180.31 262.728 180.27 262.865L180.259 262.895L180.245 262.885C178.363 261.352 177.498 261.641 177.402 261.681L177.392 261.681L177.388 261.691C177.251 261.919 177.762 262.708 177.969 262.996L181.449 266.987L177.904 265.733C176.649 265.445 176.482 265.754 176.482 265.754C176.366 265.991 176.836 266.502 177.029 266.684L180.928 269.795L180.868 269.785C176.654 268.905 176.032 269.517 176.022 269.527C175.638 270.149 176.69 270.862 176.7 270.872L181.632 273.598L181.627 273.598L181.642 273.598L182.229 273.922L176.983 273.072C175.871 272.885 175.795 273.072 175.749 273.189C175.745 273.209 175.735 273.229 175.729 273.249L175.718 273.26L175.718 273.26C175.632 273.912 176.507 274.555 176.543 274.575L180.791 277.954L177.802 277.084C177.251 276.937 176.962 276.907 176.922 276.897L176.831 276.897C176.214 276.897 175.86 277.013 175.774 277.241C175.602 277.716 176.487 278.475 176.593 278.566L181.651 281.727L176.593 280.796C176.366 280.705 176.168 280.67 176.012 280.67C175.794 280.67 175.708 280.761 175.688 280.786C175.536 280.973 175.996 281.449 176.264 281.666L180.508 284.079L180.533 284.1L180.548 284.079C181.752 282.243 184.281 283.27 184.387 283.32L184.397 283.331L184.408 283.32C186.102 282.562 187.21 281.55 187.22 281.54C187.443 281.292 187.736 280.968 187.65 280.781" fill="#ffc937" fill-rule="nonzero" opacity="1" stroke="none"/>
<path d="M176.112 283.969C175.925 283.969 175.793 284.009 175.738 284.095C175.667 284.186 175.672 284.302 175.742 284.49L175.756 284.53L175.787 284.499C175.959 284.322 176.146 284.176 176.338 284.044L176.414 283.994L176.333 283.983C176.252 283.987 176.176 283.969 176.11 283.969" fill="#ffc937" fill-rule="nonzero" opacity="1" stroke="none"/>
<path d="M170.558 278.733C170.416 278.627 170.128 278.764 169.708 279.118L166.567 281.586L168.919 277.1L168.919 277.079C168.94 276.902 169.01 275.931 168.611 275.647C168.454 275.531 168.246 275.531 167.988 275.647L164.458 279.836L166.638 274.019C166.688 273.892 167.154 272.648 166.775 272.269L166.764 272.269C166.76 272.228 166.704 272.142 166.572 272.112C166.435 272.081 166.187 272.112 165.747 272.496L162.824 274.681L164.589 271.085C164.62 271.014 165.226 269.487 164.751 269.062C164.533 268.875 164.103 268.961 163.471 269.33L161.139 271.166L162.5 267.074C162.515 266.983 162.662 266.143 162.343 265.976C162.156 265.87 161.832 266.017 161.382 266.421L159.334 268.92L159.915 264.393C159.915 264.372 160.052 262.982 159.683 262.785L159.672 262.764L159.658 262.785C159.567 262.825 159.117 263.032 158.848 263.574L158.115 264.965L158.105 264.934C158.09 264.913 155.975 262.081 154.979 261.388L154.975 261.388C154.848 261.328 154.676 261.287 154.58 261.368C154.499 261.449 154.499 261.605 154.58 261.853L156.118 266.198L156.087 266.198C155.607 266.138 153.235 265.94 153.143 266.542L153.133 266.563C153.129 266.584 153.129 266.603 153.133 266.644C153.174 266.811 153.472 267.089 154.62 267.564L159.38 269.234L155.45 269.765C155.354 269.785 154.524 270.043 154.524 270.357C154.524 270.483 154.676 270.69 155.43 270.908L160.68 271.49L156.785 273.326C156.775 273.326 156.128 273.634 156.158 273.978C156.179 274.226 156.502 274.433 157.164 274.621L163.214 274.995L158.48 276.436C158.282 276.507 157.65 276.77 157.65 277.129C157.65 277.483 158.201 277.832 159.294 278.176L163.781 278.778L160.746 280.063C160.513 280.134 159.749 280.377 159.744 280.705C159.74 280.913 160.032 281.12 160.614 281.318L160.645 281.318C161.843 281.444 164.762 281.773 166.026 281.859L166.057 281.859L166.032 281.869C165.996 281.899 165.642 282.046 163.012 282.896L162.875 282.957L163.017 282.967C163.108 282.988 163.204 282.997 163.28 283.007L163.284 283.007C164.205 283.255 165.859 283.579 168.206 283.994L168.226 283.994L170.452 279.982C170.568 279.694 170.791 278.9 170.558 278.733" fill="#ffc937" fill-rule="nonzero" opacity="1" stroke="none"/>
<path d="M174.099 273.013C174.175 272.461 174.564 271.986 175.247 271.642L175.272 271.621L175.251 271.591C175.064 271.323 174.149 269.972 174.513 268.925C174.7 268.399 175.17 268.035 175.924 267.817L175.975 267.797L175.939 267.756C175.737 267.549 175.064 266.836 174.963 266.234L174.959 266.203L172.88 266.659L174.888 265.288L174.898 265.278L174.898 265.267C174.939 265.161 175.318 264.159 176.724 264.073L176.785 264.073L176.745 264.023C176.461 263.689 175.566 262.47 175.925 261.246L175.936 261.206L174.964 261.206L176.618 260.219C176.72 260.128 176.826 260.062 176.927 259.981L176.937 259.992L176.927 259.981C177.023 259.901 177.114 259.825 177.22 259.764L178.981 258.798L178.985 258.798C179.207 258.631 179.956 258.064 179.845 257.71C179.774 257.513 179.415 257.422 178.762 257.442L174.073 257.817L174.124 257.796C174.159 257.765 178.191 255.307 178.681 254.736C178.833 254.579 179.308 254.043 179.167 253.785C179.101 253.648 178.858 253.557 178.074 253.724C177.872 253.795 176.84 254.109 176.208 254.397L174.27 255.257L177.887 251.028C177.922 250.988 178.671 250.042 178.443 249.733C178.347 249.617 178.054 249.536 177.174 249.91C177.17 249.91 176.162 250.264 175.596 250.907L175.581 250.927L175.571 250.907C175.55 250.846 175.06 249.672 174.893 247.786C174.893 247.735 174.807 246.562 174.534 246.167L174.524 246.167L174.513 246.167C174.422 246.137 173.967 246.051 173.755 246.167L173.744 246.167L173.744 246.198C173.673 246.531 173.446 247.72 173.345 248.904C173.319 249.061 173.102 250.436 172.728 250.907L172.717 250.917L172.707 250.907C172.641 250.846 171.149 249.652 170.152 249.652C170.051 249.652 169.96 249.673 169.874 249.703L169.86 249.703L169.856 249.723C169.81 249.86 169.724 250.654 171.99 252.586L174.084 254.969L170.336 253.755C170.326 253.755 169.036 253.441 168.869 253.795C168.793 253.942 168.9 254.261 169.83 255.009L172.992 257.468L169.724 257.21C169.613 257.22 168.616 257.27 168.48 257.736C168.374 258.09 168.748 258.575 169.598 259.187L174.914 261.883L169.537 261.16C169.527 261.16 168.399 260.993 168.222 261.388C168.111 261.615 168.353 261.99 168.935 262.516L170.594 263.719C170.923 263.967 172.071 264.817 172.688 265.389L172.719 265.419L169.608 264.933L169.557 264.933C169.274 264.933 168.328 264.974 168.192 265.379C168.085 265.687 168.409 266.092 169.188 266.643L173.902 269.39L169.057 268.717C169.031 268.717 168.996 268.717 168.961 268.717C168.829 268.717 168.171 268.727 168.096 268.975C168.055 269.112 168.151 269.349 168.829 269.774L173.316 272.404L168.257 271.979L168.207 271.969L168.217 272.02C168.43 272.839 168.243 273.77 168.182 274.023L168.167 274.073L168.218 274.063C168.774 273.972 169.219 274.093 169.558 274.397C170.347 275.135 170.256 276.779 170.226 277.103L170.226 277.133L170.297 277.133C170.322 277.133 170.342 277.133 170.368 277.133C170.904 277.133 171.318 277.3 171.602 277.629C172.214 278.362 171.991 279.672 171.936 279.93L171.931 279.971L171.967 279.971C172.594 280.031 173.08 280.279 173.403 280.729C174.248 281.867 173.869 283.997 173.666 284.857L173.662 284.887L174.259 284.993L174.245 284.943C174.174 284.715 173.956 283.936 174.234 283.314C174.371 283 174.619 282.773 174.963 282.631L174.998 282.61L174.973 282.58C174.806 282.363 173.986 281.255 174.189 280.319C174.285 279.894 174.578 279.56 175.054 279.323L175.089 279.302L175.068 279.272C174.881 279.014 173.976 277.643 174.294 276.616C174.426 276.171 174.775 275.847 175.321 275.65L175.367 275.619L175.331 275.589C175.089 275.361 173.94 274.147 174.102 273.009" fill="#ffc937" fill-rule="nonzero" opacity="1" stroke="none"/>
<path d="M194.139 246.675L194.149 246.685L194.16 246.685C194.251 246.696 195.06 246.766 195.389 247.409C195.733 248.091 195.449 249.128 194.539 250.519L194.509 250.56L194.564 250.58C194.898 250.631 196.016 250.859 196.32 251.648C196.577 252.33 196.208 253.226 195.212 254.323L195.176 254.374L195.232 254.374C195.53 254.425 196.32 254.632 197.174 255.472L197.306 255.598L197.23 255.431C196.901 254.748 196.481 253.378 197.397 252.012L197.401 252.012L197.401 252.012C199.085 251.688 200.016 252.366 200.254 252.563L200.299 252.614L200.451 251.855L200.421 251.845C199.09 251.45 198.129 251.577 197.679 251.678L197.634 251.688L197.659 251.647C197.907 251.369 198.215 251.096 198.569 250.848L200.663 249.336C200.775 249.219 201.129 248.84 201.028 248.612C200.936 248.405 200.532 248.395 200.203 248.436L196.071 249.265L200.178 245.588C200.284 245.471 200.825 244.849 200.653 244.571C200.582 244.455 200.335 244.364 199.546 244.581C199.541 244.581 198.792 244.89 197.831 245.472L197.81 245.482L197.34 240.95C197.325 240.869 197.213 240.495 196.955 240.434C196.773 240.404 196.561 240.54 196.328 240.839L194.947 245.077L194.927 245.067C194.891 245.006 193.96 243.939 192.792 243.646C192.676 243.595 192.362 243.489 192.256 243.615C192.144 243.742 192.256 244.02 192.377 244.248C192.463 244.414 193.202 245.866 194.138 246.675" fill="#ffc937" fill-rule="nonzero" opacity="1" stroke="none"/>
<path d="M196.623 270.605C196.618 270.575 196.602 270.534 196.592 270.489L196.588 270.458L189.84 271.369L194.555 268.602C195.571 267.823 195.693 267.444 195.617 267.246C195.49 266.933 194.722 266.968 194.489 266.988L190.033 267.722L194.711 264.884C195.561 264.181 195.662 263.878 195.597 263.736C195.485 263.508 194.808 263.61 194.56 263.655L188.571 264.829L194.165 261.46C195.258 260.559 195.728 259.927 195.576 259.603C195.404 259.229 194.504 259.335 194.317 259.366L190.69 259.907L194.62 257.15C195.126 256.746 195.339 256.437 195.263 256.22C195.162 255.941 194.575 255.911 194.327 255.911C194.313 255.911 194.302 255.911 194.297 255.911L189.815 256.235L193.801 253.508C194.57 252.917 194.919 252.502 194.823 252.284C194.681 251.976 193.563 252.178 193.138 252.284L189.653 253.716L193.169 249.634C193.902 248.875 194.216 248.369 194.084 248.182C194.044 248.122 193.958 248.081 193.826 248.081C193.447 248.081 192.703 248.349 192.167 248.597L191.08 249.366L190.078 244.869C189.937 244.581 189.785 244.444 189.643 244.444L189.643 244.444L189.613 244.444L189.613 244.444C189.35 244.485 189.178 244.91 189.173 244.93L188.272 249.148L186.573 248.369C185.774 248.071 185.511 248.142 185.425 248.243C185.248 248.501 185.743 249.184 185.951 249.426L189.102 253.387L186.77 252.431C185.475 251.976 184.732 251.9 184.555 252.153C184.372 252.451 184.914 253.063 185.03 253.19L188.611 256.351L188.556 256.351C185.708 255.79 184.155 255.749 183.968 256.235C183.765 256.73 185.172 257.626 185.192 257.636L189.754 260.049L183.953 259.356L183.907 259.356L184.069 260.433L184.104 260.433C185.87 259.958 186.977 260.028 187.407 260.64C187.696 261.045 187.66 261.698 187.311 262.578L188.611 263.407L186.927 263.306C186.821 263.513 186.694 263.721 186.527 264.009L186.497 264.05L186.547 264.06C187.417 264.197 187.999 264.485 188.247 264.93L188.216 264.951L188.257 264.93C188.292 265.011 188.323 265.077 188.348 265.148C188.474 265.542 188.393 266.028 188.095 266.609C188.095 266.609 188.004 266.746 187.872 266.933L189.162 267.844L187.432 267.53C187.356 267.636 187.281 267.737 187.189 267.864L187.149 267.894L187.205 267.915C188.105 268.102 188.656 268.486 188.843 269.053C189.182 270.039 188.252 271.273 188.064 271.501L188.039 271.542L188.075 271.562C188.768 271.886 189.162 272.341 189.243 272.888C189.43 274.036 188.201 275.326 187.953 275.573L187.913 275.614L187.969 275.624C188.651 275.791 189.071 276.1 189.228 276.545C189.562 277.562 188.454 278.948 188.232 279.211L188.206 279.241L188.247 279.262C188.829 279.449 189.183 279.757 189.294 280.172C189.547 281.138 188.48 282.388 188.262 282.62L188.232 282.651L188.277 282.671C188.697 282.808 188.98 283.046 189.117 283.395C189.446 284.194 188.909 285.332 188.662 285.787L188.636 285.838L188.697 285.838C189.233 285.807 189.739 285.777 190.204 285.747L190.245 285.736L190.235 285.706C190.007 285.023 189.324 282.702 190.118 281.407C190.417 280.921 190.877 280.628 191.504 280.527L191.54 280.516L191.529 280.476C191.458 280.228 191.145 278.933 191.696 278.154C191.964 277.79 192.399 277.582 192.986 277.562L193.021 277.562L193.017 277.522C192.967 277.208 192.754 275.584 193.483 274.785C193.771 274.507 194.15 274.36 194.626 274.36C194.681 274.36 194.737 274.36 194.813 274.36L194.863 274.36L194.843 274.31C194.752 274.022 194.317 272.57 194.929 271.584C195.247 271.058 195.814 270.744 196.603 270.643L196.644 270.643L196.623 270.605Z" fill="#ffc937" fill-rule="nonzero" opacity="1" stroke="none"/>
</g>
<g opacity="1">
<path d="M698.535 270.384C708.879 270.384 714.432 264.415 714.432 241.183C714.432 217.951 708.879 211.988 698.535 211.988C688.221 211.988 682.657 217.951 682.657 241.183C682.657 264.415 686.628 270.384 698.535 270.384M695.758 345.072C716.415 345.072 729.931 334.749 729.931 324.425C729.931 316.868 726.552 312.898 711.645 312.503L674.311 311.714C669.551 314.481 667.159 320.449 667.159 326.206C667.159 335.153 677.887 345.072 695.758 345.072M738.671 216.348L723.588 216.348L723.588 216.747C730.72 221.709 734.296 231.846 734.296 241.183C734.296 260.05 719.607 274.764 698.939 274.764C680.27 274.764 677.108 267.612 674.311 267.612C668.343 267.612 660.406 273.57 660.406 280.308C660.406 310.707 740.659 273.57 740.659 317.465C740.659 333.55 723.588 349.443 697.351 349.443C667.543 349.443 654.453 336.342 654.453 325.624C654.453 318.264 661.813 312.7 667.164 310.915L667.164 310.52C655.242 307.733 649.688 298.598 649.688 288.274C649.688 273.763 659.213 266.216 670.341 263.242C666.173 258.679 662.779 250.338 662.779 240.192C662.779 221.123 678.292 207.633 698.535 207.633C703.709 207.633 710.467 208.811 714.235 210.794L738.676 210.794L738.676 216.348L738.671 216.348Z" fill="#000000" fill-rule="nonzero" opacity="1" stroke="none"/>
<g opacity="1">
<path d="M378.152 68.6752L378.152 71.5786L368.653 71.5786L368.653 137.916C368.653 154.021 377.752 159.16 386.058 159.16C398.597 159.16 407.434 150.728 407.434 136.991L407.434 71.5786L395.567 71.5786L395.567 68.6753L419.042 68.6753L419.042 71.5786L411.121 71.5786L411.121 137.127C411.121 152.433 400.969 162.064 385.537 162.064C364.161 162.064 354.404 153.091 354.404 134.881L354.404 71.5786L346.503 71.5786L346.503 68.6753L378.152 68.6752Z" fill="#000000" fill-rule="nonzero" opacity="1" stroke="none"/>
<path d="M419.436 92.9594L437.899 92.9594L437.899 101.917L438.157 101.917C441.328 96.2371 447.514 90.8299 456.755 90.8299C467.18 90.8299 474.565 95.8526 474.565 110.228L474.565 157.046L481.687 157.046L481.687 159.949L454.515 159.949L454.515 157.046L462.163 157.046L462.163 108.645C462.163 98.8774 459.128 95.5744 452.937 95.5744C445.673 95.5744 438.946 101.917 438.946 115.63L438.946 157.046L446.604 157.046L446.604 159.949L419.436 159.949L419.436 157.046L426.553 157.046L426.553 95.8527L419.436 95.8527L419.436 92.9594Z" fill="#000000" fill-rule="nonzero" opacity="1" stroke="none"/>
<path d="M496.462 70.5366C500.69 70.5366 503.978 73.5564 503.978 78.0429C503.978 82.5396 500.696 85.5593 496.462 85.5593C492.248 85.5593 488.956 82.5396 488.956 78.0429C488.951 73.5564 492.248 70.5366 496.462 70.5366M502.673 157.051L508.996 157.051L508.996 159.944L483.938 159.944L483.938 157.051L490.256 157.051L490.256 95.8476L483.938 95.8476L483.938 92.9594L502.668 92.9594L502.668 157.051L502.673 157.051Z" fill="#000000" fill-rule="nonzero" opacity="1" stroke="none"/>
<path d="M523.108 95.8526L540.523 145.175L540.786 145.175L558.465 95.8526L547.908 95.8526L547.908 92.9594L567.696 92.9594L567.696 95.8526L562.278 95.8526L538.935 160.481L533.523 160.481L510.053 95.8526L504.641 95.8526L504.641 92.9594L533.396 92.9594L533.396 95.8526L523.108 95.8526Z" fill="#000000" fill-rule="nonzero" opacity="1" stroke="none"/>
<path d="M603.052 117.218L603.052 112.064C603.052 98.8774 598.692 93.7383 591.833 93.7383C583.659 93.7383 578.773 101.917 577.721 117.213L603.052 117.213L603.052 117.218ZM577.584 120.111C577.453 121.432 577.453 122.757 577.453 124.067C577.453 149.535 583.786 158.371 593.806 158.371C605.025 158.371 613.072 151.244 614.387 134.881L617.286 134.881C616.628 153.091 605.95 162.064 592.496 162.064C575.743 162.064 563.74 147.547 563.74 126.454C563.74 105.337 576.527 90.8299 592.101 90.8299C607.129 90.8299 616.755 101.396 616.755 120.111L577.584 120.111Z" fill="#000000" fill-rule="nonzero" opacity="1" stroke="none"/>
<path d="M627.407 95.8527L620.29 95.8527L620.29 92.9543L639.547 92.9543L639.547 102.706L639.815 102.706C642.587 95.0535 647.321 90.8299 655.763 90.8299C659.071 90.8299 662.9 92.2867 664.863 93.2022L664.863 119.07L661.959 119.07L657.341 105.473C654.959 98.4778 653.644 95.5795 650.487 95.5795C645.075 95.5795 639.81 105.347 639.81 117.218L639.81 157.051L648.51 157.051L648.51 159.949L620.285 159.949L620.285 157.051L627.402 157.051L627.402 95.8527L627.407 95.8527Z" fill="#000000" fill-rule="nonzero" opacity="1" stroke="none"/>
<path d="M670.831 133.035C675.581 155.205 678.231 159.16 690.098 159.16C700.391 159.16 708.039 153.885 708.039 144.249C708.039 131.462 667.149 134.229 667.149 111.943C667.149 98.756 677.827 90.8299 693.001 90.8299C700.123 90.8299 706.982 92.8127 711.979 95.4581L711.979 116.692L708.302 116.692C702.622 97.1728 701.18 93.7434 691.802 93.7434C683.502 93.7434 675.581 98.3412 675.581 105.615C675.581 122.226 716.461 116.561 716.461 139.646C716.461 153.091 704.862 162.064 689.035 162.064C682.172 162.064 673.871 160.086 667.144 156.262L667.144 133.035L670.831 133.035Z" fill="#000000" fill-rule="nonzero" opacity="1" stroke="none"/>
<path d="M732.824 70.5366C737.052 70.5366 740.35 73.5564 740.35 78.0429C740.35 82.5396 737.052 85.5593 732.824 85.5593C728.615 85.5593 725.307 82.5396 725.307 78.0429C725.307 73.5564 728.615 70.5366 732.824 70.5366M739.04 157.051L745.363 157.051L745.363 159.944L720.31 159.944L720.31 157.051L726.633 157.051L726.633 95.8476L720.31 95.8476L720.31 92.9594L739.04 92.9594L739.04 157.051Z" fill="#000000" fill-rule="nonzero" opacity="1" stroke="none"/>
<path d="M746.152 92.9594L754.473 92.9594L754.473 77.1122L766.86 77.1122L766.86 92.9594L782.161 92.9594L782.161 95.8526L766.86 95.8526L766.86 150.192C766.86 155.195 768.974 157.309 773.982 157.309C779.642 157.309 782.95 153.89 782.95 144.133L782.95 133.576L785.853 133.576L785.853 143.328C785.853 157.309 780.057 162.064 769.227 162.064C759.723 162.064 754.468 157.046 754.468 146.232L754.468 95.8527L746.147 95.8527L746.147 92.9594L746.152 92.9594Z" fill="#000000" fill-rule="nonzero" opacity="1" stroke="none"/>
<path d="M779.268 92.9594L807.482 92.9594L807.482 95.8526L797.593 95.8526L816.85 141.877L832.687 95.8526L821.205 95.8526L821.205 92.9594L842.297 92.9594L842.297 95.8526L836.379 95.8526L812.237 165.352C807.219 180 803.137 182.903 795.621 182.903C790.76 182.903 787.452 181.72 785.595 179.737L785.595 159.16L788.489 159.16L792.055 171.963C793.901 178.811 796.005 180 798.119 180C803.405 180 807.624 170.905 810.785 159.545L784.28 95.8527L779.273 95.8527L779.273 92.9594L779.268 92.9594Z" fill="#000000" fill-rule="nonzero" opacity="1" stroke="none"/>
<path d="M494.196 238.583L505.915 238.583C529.562 238.583 541.075 227.096 541.075 207.415C541.075 193.505 534.12 178.609 512.279 178.609L494.196 178.609L494.196 238.583ZM460.827 311.709L460.827 307.334L472.749 307.334L472.749 178.609L460.827 178.609L460.827 174.234L518.632 174.234C552.005 174.234 563.735 190.147 563.735 207.42C563.735 226.692 548.621 239.989 520.018 241.785L567.301 307.334L577.033 307.334L577.033 311.709L545.45 311.709L495 241.785L494.191 241.785L494.191 307.334L509.294 307.334L509.294 311.709L460.827 311.709Z" fill="#000000" fill-rule="nonzero" opacity="1" stroke="none"/>
<path d="M626.537 247.349L626.537 239.605C626.537 219.727 619.987 211.988 609.663 211.988C597.336 211.988 589.987 224.314 588.399 247.349L626.537 247.349ZM588.191 251.714C587.999 253.702 587.999 255.685 587.999 257.663C587.999 296.013 597.529 309.321 612.627 309.321C629.506 309.321 641.631 298.593 643.613 273.965L647.984 273.965C646.987 301.39 630.897 314.885 610.634 314.885C585.409 314.885 567.331 293.034 567.331 261.244C567.331 229.484 586.598 207.627 610.042 207.627C632.693 207.627 647.194 223.505 647.194 251.719L588.191 251.719L588.191 251.714Z" fill="#000000" fill-rule="nonzero" opacity="1" stroke="none"/>
<path d="M764.356 177.021C770.699 177.021 775.666 181.593 775.666 188.351C775.666 195.109 770.699 199.676 764.356 199.676C757.993 199.676 753.036 195.114 753.036 188.351C753.036 181.593 757.998 177.021 764.356 177.021M773.683 307.334L783.238 307.334L783.238 311.709L745.479 311.709L745.479 307.334L755.024 307.334L755.024 215.174L745.479 215.174L745.479 210.799L773.683 210.799L773.683 307.334Z" fill="#000000" fill-rule="nonzero" opacity="1" stroke="none"/>
<path d="M788.089 210.799L815.899 210.799L815.899 224.309L816.303 224.309C821.073 215.761 830.39 207.617 844.31 207.617C860.001 207.617 871.113 215.164 871.113 236.813L871.113 307.329L881.852 307.329L881.852 311.704L840.931 311.704L840.931 307.329L852.449 307.329L852.449 234.425C852.449 219.727 847.866 214.765 838.549 214.765C827.624 214.765 817.487 224.309 817.487 244.967L817.487 307.334L829.004 307.334L829.004 311.709L788.084 311.709L788.084 307.334L798.802 307.334L798.802 215.164L788.084 215.164L788.084 210.799L788.089 210.799Z" fill="#000000" fill-rule="nonzero" opacity="1" stroke="none"/>
<path d="M943.025 255.685C920.587 266.216 902.115 258.669 902.115 287.278C902.115 302.154 907.679 307.728 918.21 307.728C933.116 307.334 943.025 292.635 943.025 270.789L943.025 255.685ZM894.168 246.944L894.168 214.765C904.492 210.592 914.027 207.617 924.558 207.617C949.383 207.617 960.506 220.733 960.506 233.04L960.506 307.334L970.041 307.334L970.041 311.709L943.02 311.709L943.02 294.233L942.636 294.233C937.866 306.545 926.541 314.87 912.454 314.87C894.543 314.87 882.251 304.557 882.251 287.278C882.251 252.513 923.172 262.64 943.02 250.515L943.02 229.661C943.02 217.132 936.272 211.983 925.751 211.983C911.842 211.983 908.078 219.13 898.523 246.939L894.168 246.939L894.168 246.944Z" fill="#000000" fill-rule="nonzero" opacity="1" stroke="none"/>
<path d="M397.717 262.701C405.173 262.701 409.042 257.334 409.042 238.062C409.042 218.796 405.173 213.429 397.717 213.429C390.276 213.429 386.402 218.796 386.402 238.062C386.402 257.334 390.276 262.701 397.717 262.701M397.717 211.244C410.033 211.244 419.371 222.175 419.371 238.057C419.371 253.955 410.033 264.87 397.717 264.87C385.405 264.87 376.068 253.955 376.068 238.057C376.068 222.175 385.405 211.244 397.717 211.244" fill="#000000" fill-rule="nonzero" opacity="1" stroke="none"/>
<path d="M421.348 212.837L426.118 212.837L426.118 207.375C426.118 198.229 430.883 192.974 441.814 192.974C444.798 192.974 447.777 193.475 450.554 194.37L450.554 207.476L448.364 207.476C444.793 196.145 443.397 195.159 440.22 195.159C437.843 195.159 435.461 196.737 435.461 201.709L435.461 212.832L447.373 212.832L447.373 215.012L435.461 215.012L435.461 261.107L442.608 261.107L442.608 263.292L421.348 263.292L421.348 261.107L426.118 261.107L426.118 215.012L421.348 215.012L421.348 212.837Z" fill="#000000" fill-rule="nonzero" opacity="1" stroke="none"/>
</g>
</g>
</g>
</svg>
