<?xml version="1.0" encoding="UTF-8" standalone="no"?>
<!DOCTYPE svg PUBLIC "-//W3C//DTD SVG 1.1//EN" "http://www.w3.org/Graphics/SVG/1.1/DTD/svg11.dtd">
<!-- Created with Vectornator (http://vectornator.io/) -->
<svg height="45" stroke-miterlimit="10" style="fill-rule:nonzero;clip-rule:evenodd;stroke-linecap:round;stroke-linejoin:round;" version="1.1" viewBox="0 0 135 45" width="135" xml:space="preserve" xmlns="http://www.w3.org/2000/svg" xmlns:vectornator="http://vectornator.io" xmlns:xlink="http://www.w3.org/1999/xlink">
<defs/>
<g id="layer1" vectornator:layerName="layer1">
<g opacity="1">
<g opacity="1">
<path d="M37.8028 3.12206L6.20273 3.12206L6.2034 3.3962C6.20407 3.50997 6.24246 15.1671 6.2034 18.4019C6.25823 23.0062 7.28214 27.086 9.42934 31.2447C11.6381 34.8947 15.3363 39.9643 21.9109 41.8567L21.9862 41.8779L22.0618 41.8567C25.2279 40.9451 29.9713 38.8527 34.585 31.2268C36.7254 27.0784 37.748 23.0018 37.8013 18.3943C37.7617 15.1163 37.8008 3.50244 37.8013 3.3955L37.8028 3.12206Z" fill="#231f20" fill-rule="nonzero" opacity="1" stroke="none"/>
<path d="M22.0137 21.963L10.066 31.2152L10.0551 31.2249L10.0626 31.2357C13.4811 36.7918 17.1573 39.8992 21.9816 41.3096L21.9856 41.3096L21.9898 41.3096C28.2888 39.4655 31.83 34.6726 33.9455 31.2289L33.9526 31.2166L22.022 21.9692L22.0137 21.963Z" fill="#003d2c" fill-rule="nonzero" opacity="1" stroke="none"/>
<path d="M36.5624 24.3597L36.567 24.3371C37.0071 22.4235 37.2319 20.4798 37.2559 18.3958C37.2182 15.2164 37.2538 4.15281 37.2545 3.68336L37.2545 3.66828L6.74895 3.66828L6.74895 3.68336C6.75512 5.62015 6.78458 15.433 6.74895 18.4033C6.77293 20.4867 6.99842 22.4297 7.43977 24.3465L7.44457 24.3679L22.013 13.2851L36.5431 24.3465L36.5624 24.3597Z" fill="#003d2c" fill-rule="nonzero" opacity="1" stroke="none"/>
<path d="M36.4217 24.9498L36.4238 24.9401L22.0136 13.9691L7.59731 24.936L7.59046 24.9429L7.59115 24.9526C7.59457 24.9724 7.59799 24.9964 7.6021 25.0197C7.8269 25.8908 8.10516 26.7734 8.42795 27.6445C8.91936 28.9338 9.45048 30.105 9.81236 30.7006L9.82195 30.7149L22.0136 21.2736L34.193 30.7122L34.2066 30.7217L34.2156 30.708C34.2731 30.6127 34.3355 30.5018 34.402 30.3777C35.2944 28.5588 35.955 26.7823 36.4216 24.9498" fill="#ffc937" fill-rule="nonzero" opacity="1" stroke="none"/>
<path d="M26.204 6.71328L25.4213 6.70712L24.7407 5.97106L24.6668 5.99436C24.3933 6.07659 24.1999 6.05878 23.9025 5.93611C23.5689 5.74695 23.3188 5.67568 22.9787 5.67568C22.6435 5.67568 22.2528 5.84974 22.0117 6.09304C21.7696 5.85044 21.3799 5.67568 21.0448 5.67568C20.7047 5.67568 20.4546 5.74695 20.1345 5.92992C19.8137 6.06357 19.6302 6.07797 19.3566 5.99504L19.2826 5.97174L18.6 6.71123L17.8186 6.71398L17.8182 12.4779L21.343 12.4935C21.4608 12.6408 21.715 12.7423 22.0125 12.7423C22.3099 12.7423 22.5648 12.6408 22.6814 12.4935L26.2053 12.4779L26.204 6.71328Z" fill="#231f20" fill-rule="nonzero" opacity="1" stroke="none"/>
<path d="M20.3203 10.3778C20.5079 10.2792 20.743 10.1565 21.0694 10.1483C21.4173 10.1387 21.7108 10.2888 21.88 10.4107L21.88 6.35348C21.7068 6.12868 21.3365 5.95118 21.0448 5.95118C20.7472 5.95118 20.5369 6.0108 20.2407 6.18009C19.8954 6.32539 19.6746 6.34869 19.4011 6.28769L19.4011 10.3518C19.5416 10.4649 19.6471 10.5252 19.9378 10.5252C20.0604 10.5245 20.1811 10.4513 20.3203 10.3778" fill="#ffc937" fill-rule="nonzero" opacity="1" stroke="none"/>
<path d="M19.1873 10.7198C19.3553 10.8363 19.5937 10.8966 19.8734 10.8843C20.0056 10.8782 20.1324 10.8289 20.2785 10.7713C20.4799 10.6917 20.7088 10.6019 21.0302 10.5937C21.4298 10.5855 21.6642 10.7459 21.7724 10.8452C21.7794 10.8343 21.7862 10.8212 21.7916 10.8103C21.8252 10.748 21.8582 10.6897 21.8903 10.6376L21.8903 10.6198C21.7554 10.5102 21.4503 10.3087 21.0734 10.3204C20.7835 10.3265 20.5772 10.4354 20.395 10.5306C20.2435 10.6102 20.0994 10.6863 19.9385 10.6863C19.6356 10.6863 19.4903 10.6308 19.3326 10.5109L19.1873 10.7198Z" fill="#ffc937" fill-rule="nonzero" opacity="1" stroke="none"/>
<path d="M23.7025 10.3881C23.8422 10.4614 23.9622 10.5142 24.0848 10.5142C24.3741 10.5142 24.481 10.4635 24.6208 10.3511L24.6208 6.287C24.3481 6.34798 24.1213 6.32196 23.7956 6.18695C23.4859 6.01149 23.2755 5.92993 22.9787 5.92993C22.6867 5.92993 22.3165 6.12937 22.1434 6.35416L22.1434 10.4114C22.3119 10.2881 22.6038 10.14 22.9533 10.149C23.2803 10.1565 23.5146 10.2902 23.7025 10.3881" fill="#ffc937" fill-rule="nonzero" opacity="1" stroke="none"/>
<path d="M18.2196 6.87024L18.2196 11.7793L21.5059 11.7793C21.4942 11.7507 21.4854 11.7191 21.4777 11.6868C21.4683 11.6491 21.4613 11.6087 21.4613 11.5662C21.4613 11.5492 21.4627 11.5415 21.4647 11.5245C21.4448 11.5286 21.425 11.534 21.4037 11.5348L18.5473 11.5409L18.5473 6.87024L18.2196 6.87024Z" fill="#ffc937" fill-rule="nonzero" opacity="1" stroke="none"/>
<path d="M18.8124 10.9762L18.8688 10.8939L18.8688 6.80444L18.8124 6.86886L18.8124 10.9762Z" fill="#ffc937" fill-rule="nonzero" opacity="1" stroke="none"/>
<path d="M22.5243 12.2202L22.5292 12.2118L25.9236 12.1954L25.9236 11.9371L22.377 11.9398C22.2789 12.0268 22.1493 12.0811 22.0054 12.0811C21.8623 12.0811 21.7321 12.0268 21.6348 11.9398L18.1004 11.9398L18.1004 12.1961L21.4942 12.2125L21.5065 12.2305C21.5662 12.3606 21.7696 12.4565 22.0124 12.4565C22.2625 12.4565 22.4709 12.3549 22.5243 12.2202" fill="#ffc937" fill-rule="nonzero" opacity="1" stroke="none"/>
<path d="M22.5023 11.7793L25.803 11.7773L25.803 6.86817L25.4761 6.86817L25.4761 11.5409L22.6237 11.5348C22.5956 11.534 22.5702 11.5272 22.5449 11.5216C22.5477 11.5409 22.5496 11.5492 22.5496 11.5662C22.5496 11.6197 22.538 11.6704 22.5223 11.7184C22.5159 11.7397 22.5099 11.759 22.5023 11.7793" fill="#ffc937" fill-rule="nonzero" opacity="1" stroke="none"/>
<path d="M18.8124 11.2675L21.3996 11.2626C21.4427 11.2605 21.4854 11.2373 21.5265 11.2009C21.425 11.133 21.2008 11.0234 20.8322 11.0344C20.532 11.042 20.3312 11.0961 20.1544 11.1433C20.0084 11.1818 19.8829 11.2153 19.7342 11.2153C19.3711 11.2153 19.1119 11.1599 18.9509 11.0584L18.8117 11.2572L18.8117 11.2675L18.8124 11.2675Z" fill="#ffc937" fill-rule="nonzero" opacity="1" stroke="none"/>
<path d="M22.1323 10.6376C22.1652 10.6897 22.1972 10.748 22.2302 10.8103C22.2372 10.8226 22.2439 10.835 22.251 10.8459C22.3599 10.7466 22.5956 10.5876 22.9924 10.5951C23.3145 10.6019 23.5426 10.6917 23.7449 10.7713C23.891 10.8289 24.0178 10.8782 24.1493 10.8836C24.4323 10.8966 24.6688 10.8363 24.836 10.7198L24.6894 10.5116C24.5323 10.6301 24.3877 10.6856 24.0848 10.6856C23.9232 10.6856 23.78 10.6102 23.6277 10.5299C23.4453 10.4354 23.2385 10.3258 22.9492 10.3188C22.5756 10.3052 22.2687 10.5095 22.1323 10.6184L22.1323 10.6376Z" fill="#ffc937" fill-rule="nonzero" opacity="1" stroke="none"/>
<path d="M22.0117 10.9125C22.0097 10.9165 22.0069 10.9206 22.0048 10.9261C21.9068 11.1057 21.7903 11.3161 21.6271 11.4257C21.6081 11.469 21.5956 11.5162 21.5956 11.5662C21.5956 11.776 21.78 11.9459 22.0048 11.9459C22.231 11.9459 22.4147 11.776 22.4147 11.5662C22.4147 11.5094 22.3996 11.4566 22.3742 11.4087C22.2221 11.2948 22.1118 11.0968 22.0178 10.9248C22.0164 10.9206 22.0137 10.9165 22.0117 10.9125" fill="#ffc937" fill-rule="nonzero" opacity="1" stroke="none"/>
<path d="M19.2409 10.3614L19.2409 6.38294L19.1304 6.50836L19.1304 10.5203L19.2409 10.3614Z" fill="#ffc937" fill-rule="nonzero" opacity="1" stroke="none"/>
<path d="M19.7342 11.1359C19.8726 11.1359 19.9933 11.1036 20.1338 11.0653C20.3148 11.0166 20.5198 10.9611 20.8307 10.9528C21.2386 10.946 21.4777 11.0687 21.5847 11.142C21.6376 11.0783 21.6867 10.9995 21.7334 10.9179C21.6422 10.8316 21.4195 10.6664 21.0337 10.6753C20.7261 10.6828 20.5047 10.7699 20.3087 10.8459C20.1557 10.9062 20.0235 10.9591 19.8782 10.9638C19.5793 10.9775 19.3251 10.9111 19.1428 10.7849L18.9981 10.9918C19.1435 11.0858 19.3867 11.1359 19.7342 11.1359" fill="#ffc937" fill-rule="nonzero" opacity="1" stroke="none"/>
<path d="M19.0502 10.6362L19.0502 6.59884L18.9496 6.71398L18.9496 10.7787L19.0502 10.6362Z" fill="#ffc937" fill-rule="nonzero" opacity="1" stroke="none"/>
<path d="M24.289 11.2161C24.1403 11.2161 24.0157 11.1818 23.8689 11.1433C23.6914 11.0954 23.4914 11.042 23.1919 11.0344C22.8223 11.0248 22.5989 11.1345 22.4977 11.2009C22.5394 11.2373 22.5825 11.2605 22.6271 11.2626L25.2115 11.2675L25.2115 11.2572L25.0724 11.0577C24.9121 11.1613 24.6531 11.2161 24.289 11.2161" fill="#ffc937" fill-rule="nonzero" opacity="1" stroke="none"/>
<path d="M25.2115 10.9755L25.2115 6.86886L25.1539 6.80444L25.1539 10.8939L25.2115 10.9755Z" fill="#ffc937" fill-rule="nonzero" opacity="1" stroke="none"/>
<path d="M25.073 10.7787L25.073 6.71398L24.9731 6.59884L24.9731 10.6355L25.073 10.7787Z" fill="#ffc937" fill-rule="nonzero" opacity="1" stroke="none"/>
<path d="M24.1466 10.9638C24.0012 10.9584 23.8684 10.9062 23.7161 10.8459C23.5209 10.7699 23.2981 10.6828 22.9911 10.676C22.6079 10.6664 22.3824 10.8322 22.292 10.9192C22.3372 10.9995 22.3872 11.0776 22.44 11.1406C22.5469 11.0673 22.7874 10.9418 23.1939 10.9528C23.5036 10.9611 23.7093 11.0166 23.8902 11.0653C24.0306 11.1029 24.1514 11.1359 24.2898 11.1359C24.6365 11.1359 24.8799 11.0858 25.0272 10.9927L24.8819 10.7856C24.699 10.9118 24.442 10.9762 24.1466 10.9638" fill="#ffc937" fill-rule="nonzero" opacity="1" stroke="none"/>
<path d="M24.8929 10.5196L24.8929 6.50768L24.7818 6.38294L24.7818 10.3614L24.8929 10.5196Z" fill="#ffc937" fill-rule="nonzero" opacity="1" stroke="none"/>
<path d="M15.7188 6.17188C15.3843 6.17188 15.0985 6.37953 14.9847 6.67216C14.9587 6.6694 14.9319 6.66806 14.9053 6.66806C14.7826 6.66806 14.666 6.69274 14.5597 6.73866C14.4722 6.77635 14.3913 6.82774 14.3214 6.89079C14.3166 6.89559 14.3111 6.90039 14.3063 6.90519C14.137 7.06283 14.0322 7.2876 14.0322 7.53435C14.0322 7.67072 14.0636 7.7996 14.1198 7.91464C14.2124 8.10312 14.3727 8.25324 14.5674 8.33414C14.5757 8.87692 14.4549 9.21552 14.2953 9.25794C14.1583 9.29573 13.967 9.13125 13.7382 8.79061C13.6853 8.71245 13.6327 8.62477 13.5797 8.52885C13.5257 8.6241 13.4688 8.70904 13.4132 8.78574C13.1851 9.08937 12.9335 9.22786 12.8088 9.18464C12.7006 9.1463 12.6271 8.95781 12.6155 8.68982C12.6121 8.60214 12.6155 8.50825 12.6251 8.40948L12.6265 8.40879C12.63 8.36909 12.6403 8.31219 12.6423 8.27315L12.6423 8.27045L12.6429 8.26219L12.6429 8.26219L12.6518 8.26354C12.7217 8.27315 12.7977 8.2691 12.8765 8.25122C12.8909 8.24715 12.9053 8.24295 12.919 8.2389C12.9931 8.21693 13.0684 8.18402 13.1404 8.13957C13.3262 8.02508 13.4214 7.86532 13.4687 7.71322C13.5229 7.54258 13.5147 7.38289 13.507 7.3123C13.4873 7.12177 13.3741 6.87711 13.1644 6.76196C13.1075 6.73043 13.0047 6.68999 12.8848 6.66944L12.8752 6.66806L12.8771 6.65847C12.923 6.47136 12.8997 6.27673 12.8114 6.11156C12.7292 5.95805 12.6044 5.84838 12.4193 5.76546C12.322 5.72228 12.2048 5.70171 12.0629 5.70035C11.9203 5.70174 11.8032 5.72228 11.7059 5.76546C11.5201 5.84838 11.3948 5.95805 11.3132 6.11156C11.2254 6.27673 11.2015 6.47136 11.2474 6.65847L11.2494 6.66806L11.2405 6.66944C11.1199 6.68931 11.017 6.72976 10.9596 6.76128C10.7505 6.87711 10.6367 7.12177 10.6169 7.3123C10.61 7.38289 10.6025 7.54258 10.6552 7.71322C10.7032 7.86532 10.7978 8.02575 10.9836 8.13957C11.063 8.18888 11.1473 8.22519 11.2295 8.24715C11.2398 8.24986 11.2494 8.25122 11.259 8.25392C11.333 8.26978 11.405 8.27249 11.4715 8.26354L11.4756 8.26219L11.4804 8.26219L11.4811 8.27181C11.4825 8.29444 11.4831 8.31557 11.4845 8.3382C11.4859 8.35608 11.4865 8.37248 11.4872 8.39104C11.4948 8.48833 11.5031 8.60011 11.4995 8.68982C11.4886 8.95714 11.4146 9.14561 11.307 9.18395C11.1829 9.22718 10.9301 9.08937 10.7032 8.78506C10.647 8.70973 10.5901 8.6241 10.5353 8.52815C10.4825 8.6241 10.4304 8.71175 10.3783 8.78994C10.1488 9.13125 9.95754 9.29506 9.82115 9.25726C9.66078 9.21486 9.54016 8.87625 9.54839 8.33346C9.74371 8.25257 9.90407 8.10244 9.99661 7.91397C10.0535 7.7996 10.085 7.67004 10.085 7.53366C10.085 7.28626 9.97947 7.06214 9.8102 6.90452C9.80541 6.89971 9.79991 6.89492 9.7951 6.89013C9.72521 6.82705 9.64434 6.77566 9.55662 6.73796C9.45039 6.69274 9.33318 6.66738 9.21051 6.66738C9.18379 6.66738 9.15774 6.66875 9.1317 6.6715C9.01793 6.37815 8.73146 6.17118 8.39701 6.17118C7.96318 6.17118 7.61091 6.52141 7.61091 6.95043C7.61091 7.3027 7.84736 7.6632 8.17152 7.75979L8.80205 11.2777L8.84729 11.5711L8.84729 11.5751C8.90966 11.656 9.43326 12.2145 12.0342 12.2145L12.0347 12.2145L12.0361 12.2145C14.6514 12.2145 15.1743 11.6504 15.2325 11.5751L15.234 11.5745C15.234 11.5739 15.234 11.5739 15.234 11.5739C15.234 11.5724 15.2346 11.5724 15.2346 11.5724L15.2346 11.5724C15.2497 11.4798 15.2645 11.3881 15.2804 11.2963C15.5004 10.0969 15.7212 8.95917 15.9418 7.75979C16.2777 7.64402 16.5024 7.27737 16.5024 6.95044C16.5053 6.4892 16.0542 6.1719 15.7184 6.1719" fill="#231f20" fill-rule="nonzero" opacity="1" stroke="none"/>
<path d="M14.8677 11.5005C14.6126 11.3504 13.8834 11.064 12.0467 11.064C10.2086 11.064 9.47526 11.3504 9.2169 11.5005C9.47184 11.6504 10.2011 11.9365 12.0371 11.9365C13.8758 11.9365 14.6099 11.6504 14.8677 11.5005" fill="#ffc937" fill-rule="nonzero" opacity="1" stroke="none"/>
<path d="M15.601 8.05935L15.6611 7.79134L15.7051 7.522C15.9606 7.49322 16.2321 7.21291 16.2321 6.9511C16.2321 6.67079 16.0019 6.44256 15.7188 6.44256C15.5117 6.44256 15.3336 6.56456 15.2527 6.73932C15.2226 6.80444 15.2055 6.87503 15.2055 6.9511C15.2055 6.97577 15.207 6.99906 15.211 7.02171C15.1281 6.97442 15.0335 6.94494 14.9319 6.94082C14.923 6.94014 14.9149 6.93945 14.9047 6.93945C14.8087 6.93945 14.7181 6.96207 14.636 7.0025C14.5441 7.04842 14.4646 7.11832 14.4063 7.20331C14.342 7.2979 14.3042 7.41165 14.3042 7.53502C14.3042 7.73173 14.4008 7.90651 14.5497 8.01545C14.6312 8.07371 14.7278 8.11341 14.8328 8.12642C14.8389 8.22033 14.8415 8.31151 14.8415 8.39931C14.8415 8.476 14.8389 8.55133 14.834 8.62341C14.7861 9.27379 14.5537 9.4704 14.3673 9.52053C14.3322 9.53001 14.2953 9.53489 14.2535 9.53489C14.0745 9.53489 13.8602 9.42798 13.5688 9.0257C13.355 9.29019 13.0878 9.46362 12.8601 9.46362C12.8115 9.46362 12.7629 9.45536 12.7163 9.43963C12.4909 9.36009 12.3579 9.09764 12.3427 8.70078C12.3387 8.60757 12.3413 8.5096 12.3503 8.40743L12.3516 8.40743C12.3523 8.39782 12.3552 8.37316 12.3558 8.36436C12.3587 8.30541 12.3635 8.24295 12.3689 8.17371C12.3708 8.15325 12.3723 8.13266 12.3743 8.11002L12.3915 7.89622C12.401 7.90232 12.4112 7.90787 12.4222 7.91533C12.4621 7.93593 12.5148 7.95922 12.5778 7.97223C12.6197 7.98185 12.6656 7.98741 12.7163 7.98592C12.7225 7.98592 12.7286 7.98592 12.7348 7.98456C12.7869 7.98185 12.8904 7.96613 12.9945 7.90029C13.0625 7.85991 13.1242 7.79474 13.17 7.7139C13.229 7.60903 13.2584 7.47745 13.2297 7.34176C13.2281 7.33079 13.1755 7.09434 12.9685 6.99084C12.8767 6.94562 12.7924 6.94426 12.6943 6.94426C12.5923 6.94287 12.4902 6.95794 12.3922 6.98741C12.4579 6.9093 12.5114 6.82225 12.5511 6.72975C12.5778 6.66668 12.619 6.56936 12.6156 6.45285C12.6141 6.41517 12.6121 6.33291 12.5663 6.2445C12.5614 6.23491 12.547 6.20818 12.5224 6.17664C12.4744 6.11633 12.4045 6.06562 12.3086 6.02312C12.2461 5.99708 12.1667 5.982 12.0652 5.98064C11.963 5.98202 11.883 5.99708 11.8212 6.02312C11.7246 6.06562 11.6553 6.11566 11.6067 6.17664C11.5821 6.20751 11.5677 6.23491 11.5635 6.2445C11.5177 6.33223 11.5155 6.41517 11.5142 6.45285C11.5108 6.56868 11.5526 6.66668 11.5787 6.72975C11.6177 6.82294 11.6712 6.9093 11.7376 6.98741C11.6383 6.95794 11.5368 6.94288 11.4333 6.94426C11.336 6.94426 11.2524 6.94562 11.1605 6.99084C10.9536 7.09434 10.9008 7.33079 10.8994 7.34176C10.8707 7.47814 10.8994 7.60903 10.9591 7.7139C11.0036 7.79474 11.0666 7.85991 11.1338 7.90029C11.2387 7.96613 11.3416 7.98185 11.3936 7.98456C11.3983 7.98456 11.4039 7.98456 11.4079 7.98592C11.4505 7.98741 11.4909 7.98456 11.5279 7.97644C11.5985 7.9641 11.6574 7.9408 11.7013 7.91749C11.715 7.91058 11.7266 7.90299 11.7369 7.89622L11.7548 8.11002C11.7561 8.13131 11.7582 8.15108 11.7596 8.17101C11.7658 8.25055 11.7705 8.32452 11.7739 8.39104C11.7788 8.49105 11.7815 8.60689 11.7781 8.7001C11.7615 9.09698 11.6294 9.35942 11.4046 9.43896C11.3566 9.45467 11.3086 9.46294 11.26 9.46294C11.0323 9.46294 10.7658 9.28951 10.552 9.02501C10.2614 9.42731 10.0469 9.53421 9.86663 9.53421C9.82551 9.53421 9.78851 9.52865 9.75355 9.51985C9.56713 9.4704 9.3348 9.27312 9.28751 8.62261C9.28271 8.55066 9.27995 8.47532 9.27995 8.3985C9.27995 8.31083 9.28271 8.21963 9.28889 8.12575C9.39305 8.11205 9.48968 8.07305 9.57123 8.01478C9.71928 7.90584 9.81591 7.73105 9.81591 7.53433C9.81591 7.41097 9.77822 7.2979 9.71448 7.20262C9.6569 7.11764 9.57743 7.04774 9.48422 7.00182C9.40265 6.96139 9.3115 6.93876 9.21555 6.93876C9.20663 6.93876 9.19773 6.93944 9.18812 6.94014C9.08738 6.94426 8.99281 6.97372 8.91057 7.021C8.91332 6.99839 8.91468 6.97509 8.91468 6.95042C8.91468 6.87503 8.89822 6.80375 8.86808 6.73866C8.78719 6.56389 8.60832 6.44189 8.40203 6.44189C8.11831 6.44189 7.88802 6.67012 7.88802 6.95042C7.88802 7.21222 8.15942 7.49322 8.41574 7.52132L8.45893 7.79067L8.51923 8.05867L9.10794 11.1996L9.1107 11.2146L9.1107 11.2146L9.11413 11.2298C9.47462 11.0393 10.2868 10.7836 12.0481 10.7836L12.0481 10.7836L12.0487 10.7836C13.8416 10.7836 14.6476 11.0488 14.9957 11.2408L14.9975 11.2242C14.9981 11.2242 14.9991 11.2242 14.9996 11.2242L14.9996 11.2215L15.2037 10.16L15.601 8.05935Z" fill="#ffc937" fill-rule="nonzero" opacity="1" stroke="none"/>
<path d="M35.6007 6.17188C35.2663 6.17188 34.9805 6.37953 34.8667 6.67216C34.8407 6.6694 34.8148 6.66806 34.7887 6.66806C34.6652 6.66806 34.5481 6.69274 34.4418 6.73866C34.3549 6.77635 34.274 6.82774 34.2041 6.89079C34.1985 6.89559 34.1937 6.90039 34.189 6.90519C34.0196 7.06283 33.9147 7.2876 33.9147 7.53435C33.9147 7.67072 33.9464 7.7996 34.0026 7.91464C34.0958 8.10312 34.2553 8.25324 34.45 8.33414C34.4582 8.87692 34.3377 9.21552 34.178 9.25794C34.0409 9.29573 33.8497 9.13125 33.6206 8.79061C33.568 8.71245 33.5151 8.62477 33.4631 8.52885C33.4083 8.6241 33.3514 8.70904 33.2959 8.78574C33.0691 9.08937 32.8161 9.22786 32.6914 9.18464C32.5831 9.1463 32.5098 8.95781 32.4995 8.68982C32.4961 8.60214 32.499 8.50825 32.5085 8.40948L32.5098 8.40879C32.5134 8.36909 32.5237 8.31219 32.5257 8.27315L32.5257 8.27045L32.5257 8.26219L32.5257 8.26219L32.5353 8.26354C32.6052 8.27315 32.6813 8.2691 32.7601 8.25122C32.7744 8.24715 32.7887 8.24295 32.8024 8.2389C32.8766 8.21693 32.9519 8.18402 33.0239 8.13957C33.2096 8.02508 33.3048 7.86532 33.3521 7.71322C33.4056 7.54258 33.398 7.38289 33.3905 7.3123C33.3705 7.12177 33.2576 6.87711 33.0478 6.76196C32.9909 6.73043 32.8882 6.68999 32.7676 6.66944L32.7587 6.66806L32.7606 6.65847C32.8066 6.47136 32.7832 6.27673 32.6948 6.11156C32.6125 5.95805 32.4885 5.84838 32.3027 5.76546C32.2049 5.72228 32.089 5.70171 31.9465 5.70035C31.8032 5.70174 31.686 5.72228 31.5887 5.76546C31.4029 5.84838 31.2782 5.95805 31.1966 6.11156C31.1083 6.27673 31.0849 6.47136 31.1309 6.65847L31.1327 6.66806L31.1231 6.66944C31.0032 6.68931 30.8997 6.72976 30.843 6.76128C30.6339 6.87711 30.5201 7.12177 30.4995 7.3123C30.4919 7.38289 30.4852 7.54258 30.5387 7.71322C30.5853 7.86532 30.6804 8.02575 30.8662 8.13957C30.9457 8.18888 31.0308 8.22519 31.1129 8.24715C31.1231 8.24986 31.1327 8.25122 31.1424 8.25392C31.2164 8.26978 31.2884 8.27249 31.3549 8.26354L31.3583 8.26219L31.363 8.26219L31.3645 8.27181C31.365 8.29444 31.3666 8.31557 31.3679 8.3382C31.3694 8.35608 31.3699 8.37248 31.3707 8.39104C31.3783 8.48833 31.3858 8.60011 31.3831 8.68982C31.3727 8.95714 31.298 9.14561 31.1904 9.18395C31.0657 9.22718 30.8135 9.08937 30.5859 8.78506C30.5304 8.70973 30.4736 8.6241 30.4187 8.52815C30.3666 8.6241 30.3138 8.71175 30.2618 8.78994C30.033 9.13125 29.8404 9.29506 29.7047 9.25726C29.5444 9.21486 29.4236 8.87625 29.4319 8.33346C29.6279 8.25257 29.7876 8.10244 29.8801 7.91397C29.9369 7.7996 29.9685 7.67004 29.9685 7.53366C29.9685 7.28626 29.8622 7.06214 29.6938 6.90452C29.6881 6.89971 29.6835 6.89492 29.6794 6.89013C29.6087 6.82705 29.5278 6.77566 29.44 6.73796C29.3333 6.69274 29.2166 6.66738 29.094 6.66738C29.0673 6.66738 29.0412 6.66875 29.0151 6.6715C28.9015 6.37815 28.6156 6.17118 28.2813 6.17118C27.8473 6.17118 27.4944 6.52141 27.4944 6.95043C27.4944 7.3027 27.7315 7.6632 28.0556 7.75979L28.6862 11.2777L28.7315 11.5711L28.7315 11.5751C28.7937 11.656 29.3174 12.2145 31.9184 12.2145L31.9189 12.2145L31.9202 12.2145C34.5349 12.2145 35.0585 11.6504 35.1168 11.5751L35.1181 11.5745C35.1181 11.5739 35.1181 11.5739 35.1181 11.5739C35.1181 11.5724 35.1181 11.5724 35.1181 11.5724L35.1181 11.5724C35.134 11.4798 35.1483 11.3881 35.1641 11.2963C35.3841 10.0969 35.6061 8.95917 35.8261 7.75979C36.1612 7.64402 36.3867 7.27737 36.3867 6.95044C36.3873 6.4892 35.937 6.1719 35.6006 6.1719" fill="#231f20" fill-rule="nonzero" opacity="1" stroke="none"/>
<path d="M34.7509 11.5005C34.4954 11.3504 33.7661 11.064 31.9294 11.064C30.0925 11.064 29.3571 11.3504 29.0996 11.5005C29.3553 11.6504 30.0836 11.9365 31.9204 11.9365C33.7579 11.9365 34.4926 11.6504 34.7509 11.5005" fill="#ffc937" fill-rule="nonzero" opacity="1" stroke="none"/>
<path d="M35.4837 8.05935L35.544 7.79134L35.5876 7.522C35.8441 7.49322 36.1148 7.21291 36.1148 6.9511C36.1148 6.67079 35.8845 6.44256 35.6007 6.44256C35.3945 6.44256 35.2156 6.56456 35.1348 6.73932C35.1046 6.80444 35.0881 6.87503 35.0881 6.9511C35.0881 6.97577 35.09 6.99906 35.0928 7.02171C35.0105 6.97442 34.916 6.94494 34.8148 6.94082C34.8064 6.94014 34.7974 6.93945 34.7885 6.93945C34.6913 6.93945 34.6002 6.96207 34.5193 7.0025C34.4269 7.04842 34.3472 7.11832 34.2896 7.20331C34.2246 7.2979 34.1877 7.41165 34.1877 7.53502C34.1877 7.73173 34.2842 7.90651 34.4322 8.01545C34.5138 8.07371 34.6104 8.11341 34.7152 8.12642C34.7215 8.22033 34.7242 8.31151 34.7235 8.39931C34.7235 8.476 34.7215 8.55133 34.7159 8.62341C34.6679 9.27379 34.4356 9.4704 34.2493 9.52053C34.215 9.53001 34.1773 9.53489 34.1361 9.53489C33.9573 9.53489 33.7428 9.42798 33.4514 9.0257C33.2371 9.29019 32.9704 9.46362 32.7429 9.46362C32.6942 9.46362 32.6456 9.45536 32.5989 9.43963C32.3735 9.36009 32.2405 9.09764 32.2247 8.70078C32.2214 8.60757 32.2242 8.5096 32.233 8.40743L32.2344 8.40743C32.2349 8.39782 32.2378 8.37316 32.2384 8.36436C32.2412 8.30541 32.2467 8.24295 32.2514 8.17371C32.253 8.15325 32.2543 8.13266 32.2562 8.11002L32.274 7.89622C32.2829 7.90232 32.294 7.90787 32.305 7.91533C32.344 7.93593 32.3975 7.95922 32.4598 7.97223C32.5023 7.98185 32.5482 7.98741 32.5984 7.98592C32.605 7.98592 32.6106 7.98592 32.6174 7.98456C32.6695 7.98185 32.7721 7.96613 32.8765 7.90029C32.9442 7.85991 33.006 7.79474 33.0518 7.7139C33.1108 7.60903 33.1404 7.47745 33.1116 7.34176C33.1097 7.33079 33.0575 7.09434 32.8505 6.99084C32.7579 6.94562 32.6743 6.94426 32.5763 6.94426C32.4742 6.94287 32.372 6.95794 32.2735 6.98741C32.3399 6.9093 32.3934 6.82225 32.4323 6.72975C32.4592 6.66668 32.5002 6.56936 32.4974 6.45285C32.4961 6.41517 32.494 6.33291 32.4474 6.2445C32.4433 6.23491 32.429 6.20818 32.4042 6.17664C32.357 6.11633 32.2863 6.06562 32.1905 6.02312C32.1281 5.99708 32.0486 5.982 31.9478 5.98064C31.8451 5.98202 31.7649 5.99708 31.7032 6.02312C31.6071 6.06562 31.5374 6.11566 31.4886 6.17664C31.4646 6.20751 31.4496 6.23491 31.4455 6.2445C31.3996 6.33223 31.397 6.41517 31.3962 6.45285C31.3933 6.56868 31.4344 6.66668 31.4606 6.72975C31.4996 6.82294 31.5531 6.9093 31.6197 6.98741C31.5194 6.95794 31.418 6.94288 31.3153 6.94426C31.2179 6.94426 31.1342 6.94562 31.0425 6.99084C30.8348 7.09434 30.7827 7.33079 30.7806 7.34176C30.7518 7.47814 30.7814 7.60903 30.8402 7.7139C30.8854 7.79474 30.948 7.85991 31.0151 7.90029C31.12 7.96613 31.2228 7.98185 31.2755 7.98456C31.2804 7.98456 31.285 7.98456 31.2894 7.98592C31.3317 7.98741 31.3722 7.98456 31.4086 7.97644C31.4798 7.9641 31.5388 7.9408 31.5825 7.91749C31.5963 7.91058 31.6079 7.90299 31.618 7.89622L31.6353 8.11002C31.6366 8.13131 31.6381 8.15108 31.6401 8.17101C31.647 8.25055 31.6517 8.32452 31.6538 8.39104C31.6601 8.49105 31.6619 8.60689 31.6587 8.7001C31.6422 9.09698 31.5098 9.35942 31.285 9.43896C31.2377 9.45467 31.1892 9.46294 31.1405 9.46294C30.9136 9.46294 30.6463 9.28951 30.4326 9.02501C30.1419 9.42731 29.9274 9.53421 29.7472 9.53421C29.7066 9.53421 29.6691 9.52865 29.634 9.51985C29.4476 9.4704 29.2153 9.27312 29.1681 8.62261C29.1626 8.55066 29.1606 8.47532 29.1606 8.3985C29.1606 8.31083 29.1623 8.21963 29.1687 8.12575C29.2741 8.11205 29.3709 8.07305 29.4519 8.01478C29.6005 7.90584 29.6965 7.73105 29.6965 7.53433C29.6965 7.41097 29.6587 7.2979 29.5944 7.20262C29.5368 7.11764 29.4573 7.04774 29.3647 7.00182C29.2838 6.96139 29.1921 6.93876 29.096 6.93876C29.0865 6.93876 29.0783 6.93944 29.0686 6.94014C28.9679 6.94426 28.8733 6.97372 28.7897 7.021C28.7939 6.99839 28.7952 6.97509 28.7952 6.95042C28.7952 6.87503 28.7787 6.80375 28.7486 6.73866C28.6671 6.56389 28.4888 6.44189 28.2826 6.44189C27.9988 6.44189 27.7686 6.67012 27.7686 6.95042C27.7686 7.21222 28.04 7.49322 28.2956 7.52132L28.3395 7.79067L28.3997 8.05867L28.9884 11.1996L28.9913 11.2146L28.9913 11.2146L28.9948 11.2298C29.3553 11.0393 30.1672 10.7836 31.9286 10.7836L31.9286 10.7836L31.9293 10.7836C33.7228 10.7836 34.5281 11.0488 34.8756 11.2408L34.8784 11.2242C34.8789 11.2242 34.8797 11.2242 34.8802 11.2242L34.8802 11.2215L35.0852 10.16L35.4837 8.05935Z" fill="#ffc937" fill-rule="nonzero" opacity="1" stroke="none"/>
<path d="M25.5816 29.9281C25.7453 29.5374 25.6688 29.4367 25.6688 29.4367L26.0333 28.3497L25.5352 29.1049C25.5186 29.0879 25.4754 29.0516 25.3897 29.0351C25.3897 29.0351 25.6926 28.7754 25.5761 28.6068C25.5761 28.6068 25.5151 28.4525 25.1512 28.4985C25.1512 28.4985 25.2006 28.1237 25.0867 27.9899L25.1779 26.4397L24.8045 27.7433C24.8045 27.7433 24.7044 27.6138 24.5948 27.6226C24.5948 27.6226 24.6975 27.5246 24.7352 27.4369C24.7352 27.4369 24.9045 27.1292 24.5921 27.086C24.5921 27.086 24.4543 27.0724 24.3275 27.1004C24.3275 27.1004 24.3652 26.7138 24.235 26.5972L24.2412 25.0444L23.8915 26.5555C23.8915 26.5555 23.7785 26.5692 23.6848 27.0243C23.6848 27.0243 23.4859 26.8756 23.2151 26.9921L23.0637 25.5987L22.8876 27.1407C22.8876 27.1407 22.7853 27.2236 22.7731 27.3725C22.7731 27.3725 22.7244 27.3587 22.6758 27.3553C22.6758 27.3553 22.808 27.188 22.8182 27.0915C22.8182 27.0915 22.8601 26.8482 22.6538 26.822C22.6538 26.822 22.523 26.7967 22.3475 26.8659C22.3475 26.8659 22.3324 26.4459 22.1967 26.3774L22.0267 24.8339L21.852 26.3761C21.852 26.3761 21.6882 26.4334 21.7025 26.8521C21.7025 26.8521 21.3408 26.7557 21.2482 26.8845C21.2482 26.8845 21.1467 27.127 21.3735 27.3561C21.3735 27.3561 21.2187 27.3641 21.19 27.4191L21.1331 27.3505L20.9639 25.8084L20.7876 27.3505C20.7876 27.3505 20.7088 27.393 20.6814 27.5445C20.6814 27.5445 20.5902 27.456 20.4573 27.4773C20.4573 27.4773 20.5697 27.3128 20.5697 27.171C20.5697 27.171 20.6245 26.8058 20.083 27.0263C20.083 27.0263 20.0406 26.6542 19.8829 26.5528L19.5596 25.0361L19.5416 26.6036C19.5416 26.6036 19.3882 26.6426 19.452 27.1079C19.452 27.1079 19.2236 26.9832 19.0015 27.1455L18.7412 26.2327L18.8323 27.7817C18.8323 27.7817 18.7193 27.8782 18.7686 28.2902C18.7686 28.2902 17.9189 28.1591 18.5293 28.8282C18.5293 28.8282 18.0215 28.9577 18.5007 29.3463L18.378 29.3943L17.6707 28.5013L18.1004 29.5518C18.1004 29.5518 18.0387 29.6855 18.2237 30.0364C18.2237 30.0364 17.4851 30.1699 18.2244 30.6024C18.2388 30.5902 17.8035 30.8623 18.3867 31.0926C18.3867 31.0926 18.1056 31.3777 18.567 31.5838C18.567 31.5838 18.3572 31.9026 18.8458 32.0486C18.8458 32.0486 18.5862 32.2858 19.1022 32.5482C18.983 32.6071 18.9118 32.7352 19.0331 33.0116L19.3113 33.4569C19.3113 33.4569 18.9055 33.9455 19.2976 34.204L19.29 34.3109C19.3243 34.7043 18.3523 36.6411 18.1517 36.9934C18.0104 37.2181 18.0962 37.7253 18.3017 37.8823C18.4579 38.0015 18.7266 38.0776 18.9255 38.0591C18.998 38.2585 19.1386 38.4141 19.3146 38.4888C19.4772 38.5586 19.6607 38.569 19.7559 38.569C19.8048 38.569 19.8959 38.5648 19.9822 38.5477C20.0966 38.715 20.3043 38.8651 20.4825 38.9048C20.5565 38.9234 20.6456 38.9315 20.7395 38.9315C20.8307 38.9315 21.0542 38.922 21.2194 38.8349C21.3893 38.974 21.7017 39.0851 21.9266 39.0851L21.9643 39.0851C22.2097 39.0712 22.4104 38.9069 22.5174 38.8026C22.6004 38.8548 22.8162 38.974 23.0444 38.974L23.0732 38.974C23.2794 38.9658 23.5385 38.8506 23.6831 38.7046C23.8167 38.7465 24.0285 38.7622 24.1951 38.702C24.3547 38.6443 24.5576 38.5195 24.6556 38.342C24.8503 38.3475 25.0401 38.2954 25.1641 38.2112C25.3334 38.0988 25.5048 37.8739 25.487 37.6704L25.4697 37.617C25.3945 37.4792 24.3273 34.8996 24.0979 34.2239C24.2238 34.1285 24.4405 33.9318 24.4471 33.6954C24.4471 33.6954 24.4679 33.5961 24.5097 33.5496C24.5097 33.5496 24.8031 33.11 24.6667 32.8798L24.6961 32.8676C25.0593 32.7337 24.9805 32.5276 24.9805 32.5276C24.9724 32.4927 24.927 32.4364 24.927 32.4364C25.4302 32.1444 25.1026 31.9786 25.1026 31.9786C25.5781 31.8141 25.3561 31.4859 25.3561 31.4859C25.8351 31.1966 25.4685 30.9945 25.4685 30.9945C26.0483 30.7414 25.622 30.4928 25.622 30.4928C26.3121 30.0094 25.5816 29.928 25.5816 29.928" fill="#231f20" fill-rule="nonzero" opacity="1" stroke="none"/>
<path d="M19.5706 34.3718C19.5124 35.0436 18.4061 37.1202 18.3951 37.1414C18.2875 37.299 18.3862 37.591 18.4724 37.6568C18.5637 37.7268 18.7364 37.7775 18.8667 37.7775C18.9152 37.7775 18.9406 37.7719 18.9509 37.7665C19.0591 37.5216 19.8672 35.1429 19.9193 34.9463C19.9391 34.873 20.0166 34.827 20.0921 34.8461C20.168 34.866 20.2133 34.9442 20.1933 35.0189C20.1886 35.0388 19.3465 37.5985 19.1818 37.9289C19.2031 38.0022 19.2656 38.159 19.4245 38.2277C19.5095 38.2653 19.6302 38.2866 19.7542 38.2866C19.8577 38.2866 19.9241 38.2728 19.9528 38.2627C20.0454 38.0488 20.3751 36.2826 20.4834 35.6967C20.5361 35.4184 20.5689 35.2442 20.578 35.2026C20.5959 35.1265 20.6711 35.0805 20.7485 35.0956C20.8254 35.1155 20.8727 35.1937 20.8541 35.2697C20.8446 35.3073 20.8137 35.4761 20.7698 35.7105L20.763 35.7508C20.4074 37.6555 20.2846 38.179 20.2057 38.373C20.2626 38.4655 20.4114 38.5993 20.5449 38.6313C20.5964 38.6437 20.6665 38.6486 20.7391 38.6486C20.9247 38.6486 21.0578 38.6096 21.1078 38.5723C21.166 38.2229 21.3482 35.7063 21.3482 35.4726C21.3482 35.3937 21.4119 35.3321 21.49 35.3321C21.5683 35.3321 21.6328 35.3937 21.6328 35.4726C21.6328 35.6398 21.4675 38.0933 21.3888 38.6102C21.4764 38.6917 21.7294 38.8055 21.9261 38.8055L21.9492 38.8026C22.1021 38.7958 22.2612 38.6717 22.3612 38.5566C22.3481 38.1242 22.1516 35.8824 22.1311 35.7212C22.1213 35.6437 22.1769 35.5726 22.2542 35.5624C22.2912 35.5583 22.3284 35.5692 22.3586 35.5904C22.3885 35.6144 22.4078 35.6468 22.4133 35.6857C22.4153 35.7014 22.6319 37.9077 22.6354 38.5408C22.7147 38.5985 22.8876 38.695 23.0445 38.695C23.2342 38.6856 23.4379 38.5641 23.4955 38.4954C23.4797 38.2908 23.2242 37.1839 23.1398 36.8721C23.1192 36.7959 23.1651 36.7192 23.2399 36.6993C23.2775 36.6883 23.3151 36.6938 23.348 36.7116C23.3804 36.7301 23.4036 36.7624 23.4139 36.7987C23.4166 36.8096 23.7217 38.0233 23.771 38.4359C23.8635 38.4629 23.9998 38.4765 24.0979 38.4388C24.2569 38.3812 24.3947 38.2689 24.4213 38.1736C24.4008 38.0695 24.1377 37.2833 23.2699 34.9915L23.2568 34.958C23.244 34.923 23.2445 34.8832 23.2612 34.8496C23.2761 34.8161 23.3043 34.7891 23.3406 34.7748C23.4126 34.7469 23.4955 34.7859 23.5228 34.8578L23.5359 34.8927C24.2089 36.6719 24.5839 37.7088 24.6784 38.0612L24.6818 38.0612C24.8079 38.0612 24.9341 38.0303 25.006 37.981C25.119 37.9062 25.1951 37.7802 25.2048 37.7184C25.0847 37.443 24.1192 35.1484 23.8463 34.3616C23.4626 34.4807 22.7649 34.4794 22.7649 34.4794C22.7608 34.7325 23.0918 35.4108 23.0918 35.4108C22.2228 35.4486 21.5457 34.4939 21.5457 34.4939C20.691 34.4643 19.9125 34.3649 19.6562 34.328C19.6562 34.3252 19.578 34.3033 19.5706 34.3718" fill="#ffc937" fill-rule="nonzero" opacity="1" stroke="none"/>
<path d="M22.867 33.1726C22.867 33.1726 23.0178 33.3877 22.7853 34.1882C22.7853 34.1882 23.5338 34.1587 23.6744 34.1238C23.6744 34.1238 23.7683 34.0929 23.8113 34.0608C23.8113 34.0608 24.047 33.9162 24.0972 33.8415C24.0972 33.8415 24.1417 33.777 24.1669 33.6687C24.1669 33.6687 24.18 33.5085 24.2466 33.4411C24.2466 33.4411 24.3645 33.2883 24.4152 33.0889C24.4152 33.0889 24.4866 32.9553 24.2391 32.9909C24.2391 32.9909 23.9881 33.026 23.8512 33.0682C23.8512 33.0699 23.7217 33.1781 22.867 33.1726" fill="#ffc937" fill-rule="nonzero" opacity="1" stroke="none"/>
<path d="M22.1454 33.8927L21.8751 33.1246C21.8751 33.1246 21.7813 32.8238 21.4483 32.882C21.4483 32.882 21.131 32.982 21.3901 33.285C21.3901 33.285 21.5156 33.4213 21.5395 33.6653C21.5395 33.6653 21.5354 34.4713 22.623 35.0388C22.623 35.0388 22.3894 34.4857 22.5346 34.0108C22.5346 34.0108 22.8876 33.0349 22.2097 32.8238C22.2097 32.8238 21.9816 32.7326 22.0954 32.936C22.0954 32.936 22.1543 33.0149 22.1466 33.3138L22.1454 33.8927Z" fill="#ffc937" fill-rule="nonzero" opacity="1" stroke="none"/>
<path d="M21.0035 33.0842C21.0035 33.0842 19.7747 32.897 19.539 32.8442L19.3251 32.7923C19.3251 32.7923 19.2146 32.7613 19.2826 32.8765C19.2826 32.8765 19.3136 32.9437 19.3395 32.9759L19.5485 33.3201C19.5485 33.3201 19.6505 33.4926 19.5115 33.6707C19.5115 33.6707 19.1354 34.0229 19.8829 34.0739C19.8829 34.0739 21.1647 34.2143 21.3893 34.2011C21.3893 34.2011 21.2702 33.8839 21.2591 33.6887C21.2529 33.655 21.2289 33.531 21.1261 33.4076C21.1269 33.407 20.9995 33.2473 21.0035 33.0842" fill="#ffc937" fill-rule="nonzero" opacity="1" stroke="none"/>
<path d="M20.7184 32.3845C20.7171 32.3762 20.7088 32.3309 20.6801 32.3172C20.6636 32.3077 20.6422 32.3104 20.6164 32.3268L20.2003 32.6599L20.2099 32.6613C20.3559 32.6866 20.5093 32.7134 20.6801 32.7415L20.6827 32.7429L20.6843 32.7388C20.7137 32.6558 20.7583 32.5002 20.7186 32.3852L20.7184 32.3845Z" fill="#ffc937" fill-rule="nonzero" opacity="1" stroke="none"/>
<path d="M20.0467 30.3962L20.068 30.3804L19.8213 30.4785L19.8159 30.4826L19.8193 30.488C19.8872 30.5613 19.8872 30.6806 19.8803 30.745L19.8797 30.7534L19.9475 30.7094L19.9475 30.7066C19.9064 30.5449 19.992 30.4435 20.0469 30.3962" fill="#ffc937" fill-rule="nonzero" opacity="1" stroke="none"/>
<path d="M24.2405 28.4999C24.2109 28.5279 24.2494 28.626 24.2665 28.6618L24.5928 29.2318L24.1672 29.0481C24.0718 29.0043 24.0383 29.0117 24.0273 29.024C24.0046 29.0522 24.0493 29.1296 24.069 29.1565L24.5132 29.6986L24.0334 29.5395L24.0293 29.5383L24.0278 29.5423C24.0191 29.5875 23.9525 29.6464 23.9245 29.6697L23.9177 29.6753L23.9258 29.6766C24.0327 29.702 24.0972 29.7485 24.1164 29.8144C24.1554 29.9494 23.9991 30.1208 23.9505 30.1716L23.9457 30.1755L23.9519 30.1783C24.0018 30.197 24.1136 30.2599 24.0869 30.4436L24.0854 30.4518L24.0937 30.4477C24.0979 30.4463 24.1031 30.4449 24.108 30.4436L24.1107 30.4436C24.1143 30.4409 24.119 30.4409 24.1211 30.4393L24.1226 30.4393C24.1623 30.425 24.2035 30.4167 24.2486 30.4167C24.2581 30.4167 24.2665 30.4183 24.2755 30.4183L24.2815 30.4183L24.2801 30.4128C24.2685 30.3702 24.2143 30.1474 24.3152 30.0433C24.3691 29.9858 24.4603 29.972 24.5845 30.0029L24.5899 30.0043L24.5899 29.9989C24.5824 29.9399 24.553 29.6389 24.6872 29.5477C24.751 29.506 24.8422 29.5198 24.9586 29.5883L24.9607 29.5913L24.9625 29.5883C24.9797 29.576 25.1305 29.4649 25.2127 29.4328L25.2142 29.4312C25.223 29.419 25.3047 29.3189 25.3965 29.2853L25.4033 29.2811L25.3977 29.2757C25.2537 29.1325 24.6904 29.321 24.6664 29.3307L24.6549 29.3333L25.2956 28.833C25.3718 28.7542 25.3773 28.7179 25.3676 28.7022C25.3449 28.6659 25.2181 28.698 25.2168 28.698L24.9674 28.7981L24.9503 28.1565L24.9503 28.1552C24.9414 28.1242 24.927 28.1086 24.9078 28.1017C24.8741 28.0921 24.8378 28.1175 24.8345 28.1216L24.8331 28.1229C24.7856 28.2196 24.622 28.6707 24.6206 28.6761L24.62 28.6774L24.3691 28.5383C24.287 28.4863 24.2534 28.489 24.2404 28.5" fill="#ffc937" fill-rule="nonzero" opacity="1" stroke="none"/>
<path d="M21.7053 28.8486L21.7142 28.8502C21.7381 28.8502 21.7821 28.8582 21.8109 28.8755L21.8164 28.8795L21.8179 28.8713C21.8218 28.8392 21.8336 28.7322 21.8382 28.7L21.8403 28.6815L21.83 28.6973C21.8101 28.7267 21.7732 28.7775 21.7114 28.8405L21.7053 28.8486Z" fill="#ffc937" fill-rule="nonzero" opacity="1" stroke="none"/>
<path d="M21.5031 27.7994L21.5046 27.8009L21.508 27.8009C21.6279 27.8009 21.706 27.8316 21.7383 27.8962C21.8103 28.0353 21.6525 28.2778 21.6204 28.3244L21.6156 28.3312L21.623 28.3312C21.6321 28.3327 21.6389 28.3343 21.6478 28.3366C21.6525 28.3366 21.6568 28.3382 21.6622 28.3395C21.6677 28.341 21.6738 28.3425 21.6794 28.3436C21.7923 28.3705 21.8479 28.4452 21.8582 28.4601L21.8643 28.4698L21.9807 27.4219L22.1192 28.7138L22.1192 28.7233L22.1261 28.7192C22.1866 28.6602 22.2528 28.6376 22.2789 28.6294L22.2858 28.6267L22.2811 28.6211C22.1549 28.4752 22.1097 28.353 22.146 28.2662C22.1899 28.1591 22.3461 28.1297 22.3934 28.1242L22.4017 28.1229L22.396 28.1173C22.2316 27.9489 22.2625 27.7397 22.2749 27.6795L22.2755 27.674L22.0514 27.7192L22.3104 27.4258C22.6097 27.158 22.6064 27.0592 22.603 27.0428L22.603 27.0399L22.6002 27.0399C22.5899 27.0371 22.5768 27.0346 22.5646 27.0346C22.4317 27.0346 22.2266 27.196 22.2178 27.2017L22.2173 27.2031L22.2158 27.2017C22.1754 27.1482 22.1452 26.9756 22.1452 26.9741C22.1349 26.803 22.0993 26.6424 22.0945 26.6234L22.0945 26.6218C22.0719 26.5724 22.048 26.5485 22.0225 26.5485C21.9849 26.5498 21.9568 26.6074 21.9513 26.6198L21.9067 26.9118C21.8842 27.0337 21.8367 27.1859 21.832 27.2024L21.8315 27.2038L21.8295 27.2024C21.5395 26.9959 21.4546 27.035 21.4456 27.0392L21.445 27.0405L21.445 27.0405C21.4157 27.1009 21.5712 27.2764 21.5733 27.2777L21.9092 27.713L21.9023 27.7102C21.779 27.6635 21.5446 27.5895 21.5418 27.5895C21.3731 27.5559 21.3279 27.5751 21.3184 27.5964C21.2978 27.6444 21.445 27.7581 21.5033 27.7992" fill="#ffc937" fill-rule="nonzero" opacity="1" stroke="none"/>
<path d="M19.8234 27.9295L19.8377 27.9406L19.8213 27.9352C19.8185 27.9336 19.4524 27.7878 19.247 27.7596L19.2367 27.7583L19.2421 27.7665C19.2757 27.8158 19.3867 27.9885 19.4114 28.175L19.4114 28.1818L19.4168 28.1791C19.4676 28.1537 19.7274 28.0342 19.8417 28.1373C19.918 28.2057 19.911 28.3605 19.8191 28.5977L19.8172 28.6046L19.8234 28.6046C19.8253 28.6046 19.8296 28.6046 19.8336 28.6046L19.8342 28.6046C19.8836 28.6046 20.0056 28.6113 20.0686 28.6861C20.1065 28.7286 20.1181 28.7888 20.1036 28.8657L20.1017 28.8753L20.1098 28.8698C20.1304 28.8561 20.1605 28.8404 20.1886 28.8347L20.1962 28.8334L20.1913 28.8281C20.1503 28.7827 20.0201 28.6258 20.0611 28.4947C20.0851 28.4161 20.1647 28.3627 20.2998 28.3346L20.3058 28.3331L20.2551 28.2617L20.2546 28.2617L19.929 28.3057L20.1737 28.0879L20.1756 28.0835L20.175 28.0822C20.169 28.0609 20.1414 27.9501 20.2026 27.8732C20.2525 27.8116 20.3458 27.7902 20.4788 27.8047L20.4807 27.8047L20.4821 27.802C20.5047 27.7807 20.5383 27.7373 20.526 27.7135C20.5178 27.6991 20.487 27.684 20.3855 27.7066C20.3738 27.7093 20.0551 27.819 19.8857 27.9382L19.8763 27.9451L20.3067 27.3359C20.3266 27.2954 20.3745 27.1914 20.3552 27.1727L20.3547 27.1713C20.3445 27.1657 20.2415 27.135 19.9895 27.3722L19.9876 27.375L19.9869 27.3722C19.9774 27.3509 19.8897 27.1713 19.8547 26.9877C19.8547 26.9848 19.8204 26.8107 19.7904 26.7615L19.7898 26.7615C19.7849 26.7573 19.7602 26.7375 19.7315 26.7375C19.7295 26.7375 19.7266 26.7375 19.7233 26.7375C19.704 26.7417 19.6869 26.7518 19.6733 26.7737L19.6726 26.7767C19.6697 26.8089 19.6533 26.9746 19.652 27.1406C19.652 27.1604 19.6533 27.3455 19.6061 27.412L19.6048 27.412L19.6033 27.412C19.602 27.4105 19.4265 27.2811 19.2367 27.2811L19.2339 27.2811C19.2263 27.2811 19.2127 27.2824 19.2064 27.2933C19.2003 27.3031 19.2031 27.3202 19.2154 27.3414C19.2244 27.3564 19.4532 27.6737 19.824 27.9294" fill="#ffc937" fill-rule="nonzero" opacity="1" stroke="none"/>
<path d="M19.0653 29.4619L19.0551 29.4619C19.003 29.4619 18.82 29.4676 18.6336 29.528L18.6233 29.5319L18.6336 29.5362C18.7165 29.5764 18.8213 29.6402 18.8331 29.6471L18.8349 29.6499L18.837 29.6471C18.9466 29.5725 19.0363 29.5505 19.1021 29.5882C19.2406 29.6658 19.2344 29.9671 19.2316 30.0276L19.2316 30.033L19.2372 30.0316C19.355 29.9897 19.4483 29.9966 19.5065 30.0487C19.6113 30.1426 19.5798 30.3496 19.5682 30.4112L19.5678 30.4181L19.5738 30.4167C19.5944 30.4139 19.6142 30.4126 19.6333 30.4126L19.6349 30.4126L19.9502 30.1357L19.9521 30.1329L19.9515 30.1301C19.946 30.1144 19.9309 30.0569 19.9604 29.9978C19.9845 29.9526 20.0289 29.919 20.096 29.8998L20.1044 29.8972L20.0973 29.8915C20.0722 29.8729 20.0275 29.834 20.0056 29.7922L20.0043 29.7893L19.4594 29.9448L19.9487 29.5323L19.9508 29.5295L19.9502 29.5268C19.9453 29.5095 19.9282 29.4185 20.077 29.3486L20.0804 29.3472L20.0789 29.343C20.077 29.3389 20.0722 29.3335 20.0665 29.3294C20.0454 29.3148 19.983 29.2971 19.8048 29.3451L19.3113 29.4759L19.7362 29.0813L19.7371 29.0797C19.7388 29.077 19.745 29.0702 19.7629 29.0504C19.8362 28.9661 19.9198 28.8667 19.9062 28.8256L19.9056 28.8228C19.9 28.8173 19.8631 28.7892 19.6918 28.8618L19.2785 29.0749L19.5923 28.5753C19.5938 28.5724 19.7207 28.3663 19.6925 28.3073L19.6919 28.3059L19.6899 28.3046C19.6809 28.3004 19.6262 28.2847 19.4747 28.4026L19.3404 28.5334L19.339 28.5321C19.328 28.5162 19.2341 28.3579 19.2114 28.2511C19.2048 28.2257 19.1416 28.0023 19.0955 27.9228L19.0951 27.9228L19.0938 27.9228C19.0819 27.9215 19.0258 27.9105 18.9895 27.9427L18.9882 27.9441L18.9882 27.9469C18.9854 27.9805 18.9697 28.1662 18.9937 28.3472C18.9937 28.3486 19.0053 28.528 18.9636 28.5987L18.9615 28.602L18.9596 28.6007C18.9287 28.5834 18.6505 28.4388 18.5559 28.5054L18.5539 28.5068L18.5539 28.5082C18.5533 28.528 18.5608 28.6379 18.8629 28.8174L19.2002 29.0619L18.7683 29.0202L18.7665 29.0202C18.7069 29.0161 18.565 29.0119 18.5437 29.0605C18.5348 29.0819 18.5506 29.1099 18.5918 29.149L19.0653 29.4619Z" fill="#ffc937" fill-rule="nonzero" opacity="1" stroke="none"/>
<path d="M25.7036 30.1953C25.7036 30.1885 25.7002 30.1831 25.6974 30.1809L25.6969 30.1809L25.6969 30.1809C25.6964 30.1769 25.6941 30.1716 25.6914 30.1687L25.6934 30.1659C25.6928 30.1659 25.6914 30.1631 25.6886 30.1604L25.6866 30.1645C25.6271 30.1014 25.3296 30.1535 25.316 30.1562L25.3124 30.1577L25.4761 29.5538C25.4844 29.5202 25.4824 29.4977 25.4707 29.4895C25.4584 29.4786 25.4352 29.484 25.4166 29.4949C25.2897 29.5992 25.0335 30.0035 25.0307 30.0077L25.0303 30.0117L24.9171 29.8295C24.8753 29.756 24.8348 29.7437 24.8143 29.7437C24.806 29.7437 24.7999 29.7452 24.7985 29.7452C24.7464 29.7705 24.7814 29.95 24.782 29.9513L24.8719 30.5134L24.6032 30.2393C24.5402 30.1913 24.4935 30.1736 24.4703 30.1913C24.429 30.2167 24.4572 30.3291 24.4606 30.3401L24.6717 30.882L24.3496 30.6519C24.266 30.6067 24.2099 30.597 24.1818 30.6237C24.1241 30.6772 24.201 30.8664 24.2179 30.9047L24.5143 31.4147L24.0753 31.1056C24.0104 31.0575 23.9754 31.0603 23.9603 31.0639C23.9432 31.0693 23.9371 31.0809 23.9356 31.0837L23.9356 31.0851C23.885 31.1427 23.9707 31.3195 23.9714 31.3208L24.1846 31.8685L23.806 31.5553L23.8047 31.5538C23.769 31.5415 23.7403 31.5415 23.7204 31.5607C23.6676 31.6044 23.6903 31.7416 23.6931 31.7587L24.0275 32.3132L23.608 32.0403C23.5476 31.9979 23.508 31.9828 23.4894 31.9979C23.4601 32.0219 23.4929 32.1198 23.5147 32.1692L23.8363 32.6749L23.3729 32.3952C23.3469 32.3829 23.3255 32.3829 23.3091 32.3913C23.2805 32.4099 23.2777 32.4557 23.277 32.4625C23.2372 32.6167 23.3393 32.821 23.3599 32.8628L23.3614 32.8641L23.3791 32.8696L23.3797 32.8696C23.5771 32.8498 23.6517 32.8321 23.6606 32.8293C24.1426 32.6703 24.3885 32.6929 24.5105 32.7423L24.512 32.7423L24.5125 32.7423C24.7379 32.6749 24.7839 32.6243 24.7833 32.5935C24.7818 32.5441 24.6714 32.5174 24.6668 32.5161C24.3817 32.4428 24.1903 32.3886 24.1807 32.3811L24.1767 32.3783L24.1807 32.3768C24.385 32.35 24.853 32.2473 24.8586 32.2459C24.9223 32.2165 24.9545 32.1869 24.9518 32.1602C24.9476 32.1095 24.827 32.0801 24.8257 32.0801L24.1794 31.9704L25.0059 31.8116C25.1286 31.7676 25.1916 31.7229 25.1929 31.6751C25.195 31.6135 25.0971 31.5681 25.0964 31.5681L24.6159 31.409L25.2582 31.3097C25.3397 31.2831 25.3801 31.2562 25.3821 31.2241C25.3857 31.1749 25.2958 31.1316 25.2939 31.1316L24.786 30.9431L25.4541 30.7903C25.505 30.7716 25.5638 30.7424 25.5617 30.7113C25.5589 30.6661 25.439 30.6369 25.4377 30.6369L24.9764 30.5633L25.5289 30.3304C25.6791 30.2529 25.703 30.2118 25.7036 30.1952" fill="#ffc937" fill-rule="nonzero" opacity="1" stroke="none"/>
<path d="M22.6012 32.6893L22.5936 32.6923L22.6004 32.6975C22.6551 32.7395 22.6901 32.7848 22.7025 32.8033L22.7054 32.8074L22.7082 32.8033C22.7765 32.7331 22.8054 32.6839 22.7918 32.6642C22.7685 32.6292 22.6286 32.6798 22.6012 32.6896" fill="#ffc937" fill-rule="nonzero" opacity="1" stroke="none"/>
<path d="M22.7874 32.2144C22.7731 32.1823 22.6963 32.1891 22.6737 32.1905L22.0198 32.2788L22.0316 32.2748C22.4284 32.0939 22.7395 31.8326 22.7436 31.8306C22.7847 31.78 22.8005 31.745 22.7902 31.725C22.7779 31.701 22.7293 31.7024 22.7039 31.7037L22.6978 31.7052C22.6908 31.7052 22.6861 31.7052 22.6835 31.7037L22.6827 31.7037L21.8378 31.9102L22.4621 31.5325C22.8101 31.3383 22.7885 31.1994 22.7877 31.1938C22.7858 31.1795 22.778 31.17 22.7651 31.1602C22.7192 31.1282 22.6129 31.1508 22.5807 31.1562L22.0076 31.2282L22.6855 30.8238L22.6861 30.821C22.7334 30.7757 22.7519 30.7381 22.7409 30.7141C22.7272 30.6832 22.6724 30.6778 22.6408 30.6778C22.6381 30.6778 22.6347 30.6778 22.6326 30.6778L21.952 30.7298L22.3846 30.4701C22.6334 30.3145 22.6806 30.2343 22.6867 30.1995C22.6888 30.1851 22.684 30.1781 22.6835 30.1781C22.5999 30.0828 21.9781 30.3494 21.9713 30.3534L21.9624 30.3578L21.9671 30.3534L22.3867 29.928C22.5512 29.7609 22.5723 29.6819 22.571 29.6499C22.5697 29.6339 22.5648 29.6285 22.5627 29.6272L22.5623 29.6257C22.5527 29.619 22.5397 29.6175 22.5251 29.6175C22.4182 29.6175 22.1969 29.7609 22.1702 29.7764L22.1675 29.7805L22.0576 29.2653C22.0419 29.1625 22.0173 29.1021 21.9857 29.0857C21.9796 29.0829 21.9713 29.0801 21.9637 29.0829L21.9637 29.0829L21.961 29.0843L21.9596 29.0843C21.8889 29.0843 21.8616 29.4927 21.8616 29.5003C21.8514 29.5969 21.793 29.7682 21.7877 29.7867L21.7861 29.7908L21.7843 29.7895C21.5293 29.5818 21.4119 29.6209 21.3991 29.6263L21.3976 29.6263L21.3971 29.6278C21.3786 29.6586 21.4477 29.7655 21.4758 29.8046L21.9474 30.3453L21.467 30.1754C21.297 30.1364 21.2743 30.1782 21.2743 30.1782C21.2587 30.2103 21.3223 30.2796 21.3484 30.3043L21.8768 30.7258L21.8686 30.7244C21.2977 30.6051 21.2134 30.6881 21.212 30.6895C21.1601 30.7737 21.3026 30.8704 21.3039 30.8717L21.9721 31.241L21.9715 31.241L21.9735 31.241L22.053 31.285L21.3422 31.1698C21.1916 31.1445 21.1813 31.1698 21.1751 31.1855C21.1745 31.1883 21.1731 31.191 21.1724 31.1938L21.1708 31.1953L21.1708 31.1953C21.1592 31.2837 21.2777 31.3707 21.2827 31.3734L21.8582 31.8312L21.4532 31.7134C21.3786 31.6934 21.3394 31.6894 21.3339 31.6881L21.3217 31.6881C21.2382 31.6881 21.1901 31.7037 21.1784 31.7347C21.1552 31.7991 21.2751 31.9019 21.2894 31.9142L21.9747 32.3424L21.2894 32.2164C21.2587 32.204 21.2318 32.1992 21.2107 32.1992C21.181 32.1992 21.1695 32.2116 21.1667 32.2148C21.1462 32.2404 21.2085 32.3048 21.2448 32.3342L21.8198 32.6611L21.8233 32.664L21.8252 32.6611C21.9884 32.4124 22.3311 32.5516 22.3454 32.5583L22.3467 32.5598L22.3484 32.5583C22.5779 32.4556 22.728 32.3185 22.7293 32.3171C22.7595 32.2835 22.7992 32.2396 22.7875 32.2143" fill="#ffc937" fill-rule="nonzero" opacity="1" stroke="none"/>
<path d="M21.2243 32.6463C21.199 32.6463 21.181 32.6517 21.1736 32.6633C21.1639 32.6757 21.1647 32.6913 21.1741 32.7167L21.1759 32.7223L21.1803 32.718C21.2034 32.6942 21.2287 32.6743 21.2549 32.6565L21.2651 32.6496L21.2541 32.6482C21.2431 32.6488 21.2328 32.6463 21.224 32.6463" fill="#ffc937" fill-rule="nonzero" opacity="1" stroke="none"/>
<path d="M20.4716 31.9368C20.4524 31.9224 20.4134 31.941 20.3565 31.989L19.9309 32.3234L20.2496 31.7155L20.2496 31.7126C20.2524 31.6887 20.262 31.5571 20.2078 31.5187C20.1867 31.5031 20.1584 31.5031 20.1235 31.5187L19.6451 32.0863L19.9405 31.2982C19.9473 31.2809 20.0105 31.1124 19.9592 31.0609L19.9576 31.0609C19.9572 31.0554 19.9494 31.0437 19.9316 31.0398C19.9131 31.0355 19.8795 31.0398 19.8198 31.0918L19.4238 31.3877L19.663 30.9006C19.6671 30.8909 19.7492 30.6841 19.6848 30.6265C19.6553 30.6011 19.5971 30.6127 19.5114 30.6628L19.1954 30.9116L19.3799 30.3571C19.382 30.3448 19.4018 30.231 19.3586 30.2083C19.3333 30.1939 19.2893 30.2138 19.2283 30.2686L18.9509 30.6072L19.0297 29.9938C19.0297 29.991 19.0482 29.8027 18.9981 29.776L18.9967 29.7731L18.9949 29.776C18.9826 29.7814 18.9216 29.8093 18.885 29.8828L18.7858 30.0713L18.7843 30.0671C18.7822 30.0643 18.4958 29.6806 18.3607 29.5867L18.3603 29.5867C18.3431 29.5785 18.3198 29.573 18.3067 29.5839C18.2958 29.595 18.2958 29.6161 18.3067 29.6497L18.5152 30.2384L18.5111 30.2384C18.4458 30.2303 18.1245 30.2034 18.112 30.285L18.1106 30.2879C18.1102 30.2907 18.1102 30.2933 18.1106 30.2989C18.1163 30.3214 18.1567 30.3591 18.3123 30.4235L18.9571 30.6497L18.4246 30.7217C18.4116 30.7244 18.2991 30.7593 18.2991 30.8019C18.2991 30.819 18.3198 30.847 18.4219 30.8766L19.1333 30.9553L18.6056 31.2041C18.6042 31.2041 18.5165 31.2459 18.5205 31.2925C18.5234 31.3261 18.5672 31.3542 18.6568 31.3796L19.4767 31.4304L18.8351 31.6255C18.8084 31.6351 18.7227 31.6708 18.7227 31.7195C18.7227 31.7675 18.7973 31.8147 18.9454 31.8613L19.5534 31.9429L19.1422 32.117C19.1107 32.1267 19.0071 32.1597 19.0064 32.204C19.0059 32.2322 19.0453 32.2602 19.1244 32.2871L19.1285 32.2871C19.2909 32.3042 19.6863 32.3487 19.8577 32.3604L19.8619 32.3604L19.8585 32.3617C19.8537 32.3658 19.8056 32.3857 19.4493 32.501L19.4306 32.5092L19.4499 32.5105C19.4623 32.5134 19.4752 32.5146 19.4856 32.5159L19.4861 32.5159C19.6109 32.5495 19.835 32.5935 20.1531 32.6496L20.1557 32.6496L20.4573 32.1059C20.4731 32.067 20.5034 31.9593 20.4716 31.9368" fill="#ffc937" fill-rule="nonzero" opacity="1" stroke="none"/>
<path d="M20.9515 31.1618C20.9618 31.0871 21.0145 31.0227 21.107 30.9761L21.1105 30.9733L21.1075 30.9691C21.0821 30.9328 20.9582 30.7498 21.0076 30.6079C21.0329 30.5366 21.0967 30.4873 21.1987 30.4578L21.2057 30.455L21.2008 30.4495C21.1733 30.4214 21.0821 30.3248 21.0686 30.2433L21.068 30.239L20.7863 30.3008L21.0583 30.1152L21.0596 30.1137L21.0596 30.1122C21.0653 30.0978 21.1167 29.9621 21.3071 29.9505L21.3155 29.9505L21.31 29.9437C21.2715 29.8985 21.1503 29.7333 21.199 29.5674L21.2004 29.5621L21.0688 29.5621L21.2928 29.4283C21.3066 29.4159 21.321 29.407 21.3346 29.396L21.336 29.3975L21.3346 29.396C21.3476 29.3851 21.3601 29.375 21.3744 29.3666L21.613 29.2359L21.6136 29.2359C21.6435 29.2131 21.7449 29.1363 21.7301 29.0883C21.7204 29.0617 21.6718 29.0492 21.5833 29.0519L20.9479 29.1028L20.9549 29.1C20.9596 29.0958 21.5059 28.7627 21.5723 28.6853C21.593 28.664 21.6573 28.5915 21.6382 28.5565C21.6292 28.538 21.5963 28.5257 21.49 28.5483C21.4627 28.5578 21.3228 28.6003 21.2372 28.6395L20.9747 28.756L21.4647 28.1829C21.4695 28.1776 21.571 28.0494 21.54 28.0075C21.5271 27.9918 21.4875 27.9808 21.3681 28.0314C21.3675 28.0314 21.231 28.0794 21.1542 28.1665L21.1524 28.1693L21.1509 28.1665C21.148 28.1582 21.0817 27.9993 21.0591 27.7438C21.0591 27.7368 21.0474 27.5778 21.0105 27.5244L21.009 27.5244L21.0076 27.5244C20.9953 27.5203 20.9336 27.5086 20.9049 27.5244L20.9034 27.5244L20.9034 27.5285C20.8938 27.5736 20.8629 27.7347 20.8493 27.8951C20.8457 27.9164 20.8164 28.1027 20.7657 28.1665L20.7642 28.168L20.7629 28.1665C20.754 28.1582 20.5518 27.9965 20.4167 27.9965C20.403 27.9965 20.3906 27.9994 20.379 28.0034L20.3771 28.0034L20.3765 28.0061C20.3703 28.0248 20.3587 28.1324 20.6657 28.394L20.9494 28.7168L20.4417 28.5524C20.4403 28.5524 20.2654 28.5098 20.2429 28.5578C20.2325 28.5777 20.247 28.621 20.373 28.7222L20.8014 29.0556L20.3587 29.0206C20.3436 29.0219 20.2085 29.0287 20.1901 29.0919C20.1757 29.1399 20.2265 29.2056 20.3417 29.2885L21.0619 29.6537L20.3334 29.5559C20.332 29.5559 20.1792 29.5332 20.1551 29.5867C20.1401 29.6174 20.1729 29.6681 20.2518 29.7395L20.4765 29.9026C20.5211 29.9361 20.6767 30.0512 20.7603 30.1288L20.7645 30.1329L20.343 30.067L20.3361 30.067C20.2977 30.067 20.1696 30.0725 20.1511 30.1275C20.1367 30.1692 20.1805 30.2241 20.2861 30.2987L20.9248 30.671L20.2683 30.5797C20.2648 30.5797 20.26 30.5797 20.2553 30.5797C20.2374 30.5797 20.1483 30.581 20.1381 30.6147C20.1325 30.6332 20.1456 30.6653 20.2374 30.723L20.8454 31.0792L20.1599 31.0217L20.1532 31.0204L20.1545 31.0272C20.1833 31.1382 20.158 31.2644 20.1498 31.2986L20.1477 31.3055L20.1547 31.304C20.2299 31.2917 20.2903 31.3081 20.3362 31.3493C20.4431 31.4493 20.4308 31.6721 20.4267 31.716L20.4267 31.72L20.4364 31.72C20.4397 31.72 20.4424 31.72 20.4459 31.72C20.5186 31.72 20.5747 31.7426 20.613 31.7872C20.696 31.8866 20.6658 32.0641 20.6584 32.099L20.6577 32.1046L20.6625 32.1046C20.7476 32.1128 20.8135 32.1463 20.8571 32.2074C20.9717 32.3614 20.9203 32.6501 20.8927 32.7665L20.8923 32.7707L20.9731 32.785L20.9713 32.7782C20.9617 32.7473 20.9321 32.6417 20.9697 32.5576C20.9884 32.5151 21.022 32.4843 21.0686 32.465L21.0732 32.4622L21.0699 32.458C21.0473 32.4285 20.9362 32.2785 20.9638 32.1518C20.9766 32.0941 21.0164 32.0489 21.0808 32.0168L21.0857 32.014L21.0829 32.0098C21.0575 31.975 20.9348 31.7892 20.9779 31.65C20.9958 31.5897 21.043 31.5458 21.117 31.5191L21.1232 31.5149L21.1185 31.5109C21.0857 31.4798 20.93 31.3154 20.9518 31.1613" fill="#ffc937" fill-rule="nonzero" opacity="1" stroke="none"/>
<path d="M23.6667 27.5931L23.6682 27.5944L23.6695 27.5944C23.6819 27.596 23.7916 27.6054 23.8361 27.6925C23.8827 27.785 23.8443 27.9254 23.721 28.1139L23.7169 28.1196L23.7244 28.1222C23.7696 28.1291 23.9211 28.1601 23.9624 28.2669C23.997 28.3594 23.9471 28.4806 23.8122 28.6294L23.8073 28.6362L23.8149 28.6362C23.8552 28.6433 23.9624 28.6712 24.0779 28.785L24.0959 28.8022L24.0857 28.7796C24.041 28.6871 23.9841 28.5014 24.1082 28.3163L24.1087 28.3163L24.1087 28.3163C24.3369 28.2724 24.4631 28.3642 24.4954 28.3909L24.5014 28.3978L24.522 28.2949L24.5179 28.2936C24.3376 28.2402 24.2074 28.2574 24.1464 28.2711L24.1403 28.2724L24.1437 28.2667C24.1773 28.2293 24.2191 28.1921 24.2671 28.1586L24.5507 27.9537C24.5658 27.9379 24.6139 27.8864 24.6003 27.8556C24.5878 27.8276 24.5329 27.8262 24.4884 27.8317L23.9286 27.9441L24.485 27.4458C24.4994 27.43 24.5727 27.3457 24.5493 27.3081C24.5398 27.2924 24.5063 27.2801 24.3994 27.3094C24.3987 27.3094 24.2972 27.3512 24.1669 27.4302L24.1641 27.4315L24.1004 26.8175C24.0985 26.8065 24.0833 26.7558 24.0483 26.7476C24.0237 26.7434 23.9949 26.7619 23.9634 26.8024L23.7764 27.3766L23.7736 27.3753C23.7687 27.3671 23.6425 27.2224 23.4843 27.1827C23.4687 27.1758 23.426 27.1615 23.4117 27.1786C23.3965 27.1957 23.4117 27.2334 23.428 27.2643C23.4397 27.2867 23.5398 27.4835 23.6666 27.5931" fill="#ffc937" fill-rule="nonzero" opacity="1" stroke="none"/>
<path d="M24.0032 30.8355C24.0027 30.8316 24.0004 30.8259 23.9991 30.8198L23.9986 30.8156L23.0843 30.9392L23.7231 30.5641C23.8608 30.4586 23.8774 30.4073 23.8671 30.3804C23.8498 30.338 23.7459 30.3428 23.7142 30.3455L23.1105 30.4449L23.7444 30.0604C23.8595 29.965 23.8733 29.9241 23.8642 29.9049C23.8492 29.8739 23.7575 29.8877 23.7238 29.8939L22.9123 30.0529L23.6703 29.5965C23.8184 29.4744 23.8822 29.3887 23.8614 29.3448C23.8382 29.2942 23.7162 29.3085 23.6909 29.3127L23.1995 29.386L23.732 29.0125C23.8005 28.9577 23.8294 28.9159 23.8191 28.8864C23.8054 28.8486 23.7258 28.8446 23.6921 28.8446C23.6904 28.8446 23.6889 28.8446 23.6882 28.8446L23.0809 28.8885L23.621 28.519C23.7251 28.4388 23.7724 28.3827 23.7595 28.353C23.7402 28.3113 23.5887 28.3387 23.5312 28.353L23.059 28.5472L23.5353 27.9941C23.6347 27.8913 23.6773 27.8227 23.6593 27.7973C23.6539 27.7891 23.6422 27.7837 23.6244 27.7837C23.573 27.7837 23.4722 27.8199 23.3996 27.8535L23.2522 27.9578L23.1165 27.3484C23.0974 27.3094 23.0768 27.2908 23.0577 27.2908L23.0577 27.2908L23.0535 27.2908L23.0535 27.2908C23.0178 27.2964 22.9947 27.354 22.9939 27.3566L22.872 27.9282L22.6417 27.8227C22.5334 27.7824 22.4978 27.7919 22.4862 27.8055C22.4621 27.8406 22.5292 27.9331 22.5574 27.9659L22.9843 28.5026L22.6683 28.373C22.4929 28.3113 22.3922 28.3011 22.3682 28.3353C22.3434 28.3758 22.4169 28.4586 22.4325 28.476L22.9177 28.9041L22.9102 28.9041C22.5244 28.8282 22.3139 28.8227 22.2886 28.8885C22.2612 28.9556 22.4518 29.0769 22.4545 29.0783L23.0726 29.4053L22.2867 29.3114L22.2804 29.3114L22.3023 29.4573L22.3071 29.4573C22.5463 29.3929 22.6963 29.4024 22.7546 29.4854C22.7937 29.5402 22.789 29.6286 22.7417 29.7478L22.9177 29.8602L22.6897 29.8467C22.6752 29.8746 22.6581 29.9028 22.6354 29.9418L22.6313 29.9473L22.6381 29.9487C22.756 29.9672 22.8348 30.0063 22.8684 30.0666L22.8643 30.0694L22.8698 30.0666C22.8746 30.0775 22.8787 30.0865 22.8821 30.0962C22.8991 30.1495 22.8882 30.2154 22.8479 30.294C22.8479 30.294 22.8354 30.3127 22.8177 30.338L22.9924 30.4614L22.7581 30.4188C22.7477 30.4331 22.7375 30.4469 22.7252 30.4641L22.7197 30.4682L22.7272 30.471C22.8492 30.4965 22.9238 30.5485 22.9492 30.6251C22.9952 30.7589 22.8692 30.926 22.8436 30.9569L22.8403 30.9625L22.8452 30.9652C22.9391 31.0091 22.9924 31.0708 23.0034 31.1449C23.0288 31.3004 22.8622 31.4751 22.8286 31.5087L22.8231 31.5142L22.8308 31.5155C22.9232 31.5381 22.9801 31.5802 23.0013 31.6403C23.0467 31.7782 22.8964 31.966 22.8664 32.0017L22.8629 32.0057L22.8684 32.0085C22.9473 32.0338 22.9952 32.0755 23.0104 32.1318C23.0446 32.2627 22.9 32.4321 22.8705 32.4635L22.8664 32.4677L22.8725 32.4705C22.9294 32.4889 22.9677 32.5212 22.9863 32.5684C23.0309 32.6768 22.9582 32.831 22.9247 32.8927L22.9212 32.8995L22.9294 32.8995C23.0022 32.8954 23.0706 32.8912 23.1336 32.8871L23.1392 32.8856L23.1377 32.8817C23.1068 32.7889 23.0144 32.4746 23.1221 32.2991C23.1623 32.2333 23.2248 32.1936 23.3097 32.1799L23.3146 32.1784L23.3132 32.1729C23.3035 32.1393 23.2612 31.9639 23.3358 31.8584C23.3721 31.8091 23.431 31.7808 23.5106 31.7782L23.5154 31.7782L23.5147 31.7727C23.508 31.7302 23.479 31.51 23.5779 31.4019C23.6169 31.3643 23.6684 31.3443 23.7329 31.3443C23.7402 31.3443 23.7477 31.3443 23.758 31.3443L23.7649 31.3443L23.7623 31.3376C23.7498 31.2985 23.6909 31.1018 23.7739 30.9682C23.8169 30.8969 23.8938 30.8544 24.0006 30.8407L24.0062 30.8407L24.0032 30.8355Z" fill="#ffc937" fill-rule="nonzero" opacity="1" stroke="none"/>
</g>
<g opacity="1">
<path d="M92.0095 30.8055C93.4112 30.8055 94.1635 29.9968 94.1635 26.849C94.1635 23.7012 93.4112 22.8933 92.0095 22.8933C90.6122 22.8933 89.8582 23.7012 89.8582 26.849C89.8582 29.9968 90.3958 30.8055 92.0095 30.8055M91.6334 40.9253C94.4322 40.9253 96.2632 39.5267 96.2632 38.1278C96.2632 37.1039 95.8056 36.566 93.7856 36.5125L88.7273 36.4056C88.0823 36.7804 87.7582 37.5892 87.7582 38.3692C87.7582 39.5814 89.2116 40.9253 91.6334 40.9253M97.4476 23.484L95.4044 23.484L95.4044 23.5382C96.3706 24.2104 96.855 25.584 96.855 26.849C96.855 29.4055 94.8643 31.399 92.0645 31.399C89.5345 31.399 89.1059 30.43 88.7273 30.43C87.9186 30.43 86.8433 31.2372 86.8433 32.1502C86.8433 36.2691 97.7172 31.2372 97.7172 37.1848C97.7172 39.3643 95.4044 41.5177 91.8489 41.5177C87.8103 41.5177 86.0366 39.7425 86.0366 38.2902C86.0366 37.2931 87.0337 36.5391 87.759 36.2973L87.759 36.2439C86.1436 35.8662 85.3909 34.6283 85.3909 33.2296C85.3909 31.2633 86.6815 30.2408 88.1894 29.838C87.6246 29.2197 87.1648 28.0894 87.1648 26.7148C87.1648 24.1309 89.2665 22.3032 92.0095 22.3032C92.7104 22.3032 93.6259 22.4628 94.1369 22.7316L97.4485 22.7316L97.4485 23.484L97.4476 23.484Z" fill="#000000" fill-rule="nonzero" opacity="1" stroke="none"/>
<g opacity="1">
<path d="M48.5995 3.4752L48.5995 3.86861L47.3124 3.86861L47.3124 12.8568C47.3124 15.039 48.5452 15.7354 49.6707 15.7354C51.3696 15.7354 52.5671 14.5929 52.5671 12.7316L52.5671 3.86861L50.9591 3.86861L50.9591 3.47523L54.1399 3.47523L54.1399 3.86861L53.0666 3.86861L53.0666 12.7501C53.0666 14.8238 51.691 16.1289 49.6 16.1289C46.7038 16.1289 45.3817 14.9132 45.3817 12.4457L45.3817 3.86861L44.3113 3.86861L44.3113 3.47523L48.5995 3.4752Z" fill="#000000" fill-rule="nonzero" opacity="1" stroke="none"/>
<path d="M54.1932 6.76558L56.6948 6.76558L56.6948 7.97928L56.7299 7.97928C57.1594 7.20969 57.9977 6.47704 59.2497 6.47704C60.6622 6.47704 61.6629 7.15758 61.6629 9.10537L61.6629 15.4489L62.6278 15.4489L62.6278 15.8423L58.9463 15.8423L58.9463 15.4489L59.9824 15.4489L59.9824 8.89089C59.9824 7.56742 59.5713 7.11989 58.7324 7.11989C57.7482 7.11989 56.8367 7.97928 56.8367 9.8373L56.8367 15.4489L57.8743 15.4489L57.8743 15.8423L54.1932 15.8423L54.1932 15.4489L55.1575 15.4489L55.1575 7.1576L54.1932 7.1576L54.1932 6.76558Z" fill="#000000" fill-rule="nonzero" opacity="1" stroke="none"/>
<path d="M64.6297 3.72742C65.2027 3.72742 65.6482 4.13658 65.6482 4.74447C65.6482 5.35375 65.2034 5.76289 64.6297 5.76289C64.0587 5.76289 63.6128 5.35375 63.6128 4.74447C63.6121 4.13658 64.0587 3.72742 64.6297 3.72742M65.4714 15.4497L66.3282 15.4497L66.3282 15.8415L62.933 15.8415L62.933 15.4497L63.7888 15.4497L63.7888 7.15691L62.933 7.15691L62.933 6.76558L65.4706 6.76558L65.4706 15.4497L65.4714 15.4497Z" fill="#000000" fill-rule="nonzero" opacity="1" stroke="none"/>
<path d="M68.2402 7.15758L70.5998 13.8405L70.6354 13.8405L73.0308 7.15758L71.6004 7.15758L71.6004 6.76558L74.2817 6.76558L74.2817 7.15758L73.5475 7.15758L70.3847 15.9142L69.6514 15.9142L66.4713 7.15758L65.7381 7.15758L65.7381 6.76558L69.6341 6.76558L69.6341 7.15758L68.2402 7.15758Z" fill="#000000" fill-rule="nonzero" opacity="1" stroke="none"/>
<path d="M79.0721 10.0524L79.0721 9.35413C79.0721 7.56742 78.4813 6.8711 77.552 6.8711C76.4444 6.8711 75.7824 7.97928 75.6399 10.0518L79.0721 10.0518L79.0721 10.0524ZM75.6213 10.4445C75.6036 10.6235 75.6036 10.803 75.6036 10.9805C75.6036 14.4313 76.4617 15.6283 77.8193 15.6283C79.3396 15.6283 80.4298 14.6628 80.608 12.4457L81.0008 12.4457C80.9115 14.9132 79.4648 16.1289 77.6419 16.1289C75.372 16.1289 73.7456 14.162 73.7456 11.3039C73.7456 8.44266 75.4781 6.47704 77.5884 6.47704C79.6245 6.47704 80.9288 7.90868 80.9288 10.4445L75.6213 10.4445Z" fill="#000000" fill-rule="nonzero" opacity="1" stroke="none"/>
<path d="M82.3721 7.1576L81.4077 7.1576L81.4077 6.76488L84.017 6.76488L84.017 8.08618L84.0532 8.08618C84.4288 7.04931 85.0704 6.47704 86.2141 6.47704C86.6625 6.47704 87.1812 6.67442 87.447 6.79847L87.447 10.3034L87.0537 10.3034L86.4279 8.4611C86.1052 7.51329 85.9269 7.12057 85.4993 7.12057C84.766 7.12057 84.0527 8.44402 84.0527 10.0524L84.0527 15.4497L85.2315 15.4497L85.2315 15.8423L81.4071 15.8423L81.4071 15.4497L82.3714 15.4497L82.3714 7.1576L82.3721 7.1576Z" fill="#000000" fill-rule="nonzero" opacity="1" stroke="none"/>
<path d="M88.2558 12.1957C88.8989 15.1995 89.2588 15.7354 90.8664 15.7354C92.2613 15.7354 93.297 15.0206 93.297 13.715C93.297 11.9825 87.7569 12.3573 87.7569 9.33775C87.7569 7.55098 89.2039 6.47704 91.2599 6.47704C92.2251 6.47704 93.1544 6.7457 93.8311 7.10413L93.8311 9.98125L93.333 9.98125C92.5636 7.33647 92.3677 6.87181 91.0975 6.87181C89.9724 6.87181 88.8989 7.49477 88.8989 8.48034C88.8989 10.731 94.4383 9.96346 94.4383 13.0914C94.4383 14.9132 92.8666 16.1289 90.7222 16.1289C89.7921 16.1289 88.6675 15.8608 87.7562 15.3426L87.7562 12.1957L88.2558 12.1957Z" fill="#000000" fill-rule="nonzero" opacity="1" stroke="none"/>
<path d="M96.6558 3.72742C97.2286 3.72742 97.6752 4.13658 97.6752 4.74447C97.6752 5.35375 97.2286 5.76289 96.6558 5.76289C96.0855 5.76289 95.6372 5.35375 95.6372 4.74447C95.6372 4.13658 96.0855 3.72742 96.6558 3.72742M97.4973 15.4497L98.3545 15.4497L98.3545 15.8415L94.9597 15.8415L94.9597 15.4497L95.8167 15.4497L95.8167 7.15691L94.9597 7.15691L94.9597 6.76558L97.4973 6.76558L97.4973 15.4497Z" fill="#000000" fill-rule="nonzero" opacity="1" stroke="none"/>
<path d="M98.4609 6.76558L99.5886 6.76558L99.5886 4.61837L101.267 4.61837L101.267 6.76558L103.341 6.76558L103.341 7.15758L101.267 7.15758L101.267 14.5203C101.267 15.1981 101.554 15.4846 102.232 15.4846C102.999 15.4846 103.447 15.0213 103.447 13.6993L103.447 12.2688L103.841 12.2688L103.841 13.5902C103.841 15.4846 103.056 16.1289 101.588 16.1289C100.301 16.1289 99.5878 15.4489 99.5878 13.9838L99.5878 7.1576L98.4609 7.1576L98.4609 6.76558L98.4609 6.76558Z" fill="#000000" fill-rule="nonzero" opacity="1" stroke="none"/>
<path d="M102.948 6.76558L106.771 6.76558L106.771 7.15758L105.431 7.15758L108.04 13.3937L110.186 7.15758L108.631 7.15758L108.631 6.76558L111.488 6.76558L111.488 7.15758L110.686 7.15758L107.416 16.5742C106.736 18.5591 106.183 18.9525 105.164 18.9525C104.505 18.9525 104.057 18.7921 103.805 18.5235L103.805 15.7354L104.198 15.7354L104.681 17.4701C104.931 18.398 105.216 18.5591 105.502 18.5591C106.219 18.5591 106.791 17.3267 107.219 15.7876L103.628 7.1576L102.949 7.1576L102.949 6.76558L102.948 6.76558Z" fill="#000000" fill-rule="nonzero" opacity="1" stroke="none"/>
<path d="M64.3228 26.4967L65.9105 26.4967C69.1146 26.4967 70.6745 24.9404 70.6745 22.2737C70.6745 20.3889 69.7323 18.3707 66.7729 18.3707L64.3228 18.3707L64.3228 26.4967ZM59.8015 36.4049L59.8015 35.812L61.4167 35.812L61.4167 18.3707L59.8015 18.3707L59.8015 17.7778L67.6337 17.7778C72.1555 17.7778 73.7448 19.9338 73.7448 22.2743C73.7448 24.8855 71.6971 26.6872 67.8216 26.9307L74.228 35.812L75.5467 35.812L75.5467 36.4049L71.2674 36.4049L64.4317 26.9307L64.322 26.9307L64.322 35.812L66.3684 35.812L66.3684 36.4049L59.8015 36.4049Z" fill="#000000" fill-rule="nonzero" opacity="1" stroke="none"/>
<path d="M82.2541 27.6844L82.2541 26.6352C82.2541 23.9419 81.3668 22.8933 79.9678 22.8933C78.2975 22.8933 77.3018 24.5633 77.0868 27.6844L82.2541 27.6844ZM77.0586 28.2759C77.0325 28.5454 77.0325 28.8139 77.0325 29.082C77.0325 34.2781 78.3238 36.0812 80.3695 36.0812C82.6564 36.0812 84.2994 34.6278 84.5678 31.2908L85.1601 31.2908C85.025 35.0067 82.8449 36.8352 80.0994 36.8352C76.6817 36.8352 74.2321 33.8745 74.2321 29.5672C74.2321 25.2639 76.8427 22.3023 80.0192 22.3023C83.0883 22.3023 85.053 24.4538 85.053 28.2766L77.0586 28.2766L77.0586 28.2759Z" fill="#000000" fill-rule="nonzero" opacity="1" stroke="none"/>
<path d="M100.928 18.1555C101.787 18.1555 102.46 18.775 102.46 19.6907C102.46 20.6063 101.787 21.225 100.928 21.225C100.066 21.225 99.3936 20.6069 99.3936 19.6907C99.3936 18.775 100.066 18.1555 100.928 18.1555M102.192 35.812L103.486 35.812L103.486 36.4049L98.3699 36.4049L98.3699 35.812L99.6633 35.812L99.6633 23.325L98.3699 23.325L98.3699 22.7321L102.192 22.7321L102.192 35.812Z" fill="#000000" fill-rule="nonzero" opacity="1" stroke="none"/>
<path d="M104.144 22.7321L107.911 22.7321L107.911 24.5627L107.966 24.5627C108.613 23.4044 109.875 22.3011 111.761 22.3011C113.887 22.3011 115.392 23.3235 115.392 26.257L115.392 35.8114L116.848 35.8114L116.848 36.4043L111.304 36.4043L111.304 35.8114L112.864 35.8114L112.864 25.9334C112.864 23.9419 112.243 23.2696 110.98 23.2696C109.5 23.2696 108.127 24.5627 108.127 27.3617L108.127 35.812L109.687 35.812L109.687 36.4049L104.143 36.4049L104.143 35.812L105.595 35.812L105.595 23.3235L104.143 23.3235L104.143 22.7321L104.144 22.7321Z" fill="#000000" fill-rule="nonzero" opacity="1" stroke="none"/>
<path d="M125.137 28.8139C122.096 30.2408 119.593 29.2183 119.593 33.0946C119.593 35.1102 120.347 35.8655 121.774 35.8655C123.795 35.812 125.137 33.8204 125.137 30.8604L125.137 28.8139ZM118.517 27.6296L118.517 23.2696C119.915 22.7041 121.207 22.3011 122.634 22.3011C125.998 22.3011 127.505 24.0782 127.505 25.7456L127.505 35.812L128.797 35.812L128.797 36.4049L125.136 36.4049L125.136 34.0369L125.084 34.0369C124.437 35.7052 122.903 36.8332 120.994 36.8332C118.567 36.8332 116.903 35.4359 116.903 33.0946C116.903 28.3842 122.447 29.7563 125.136 28.1135L125.136 25.2878C125.136 23.5902 124.222 22.8926 122.797 22.8926C120.912 22.8926 120.401 23.861 119.107 27.6289L118.517 27.6289L118.517 27.6296Z" fill="#000000" fill-rule="nonzero" opacity="1" stroke="none"/>
<path d="M51.2503 29.7646C52.2606 29.7646 52.7849 29.0374 52.7849 26.4262C52.7849 23.8158 52.2606 23.0885 51.2503 23.0885C50.2422 23.0885 49.7173 23.8158 49.7173 26.4262C49.7173 29.0374 50.2422 29.7646 51.2503 29.7646M51.2503 22.7925C52.9191 22.7925 54.1844 24.2735 54.1844 26.4254C54.1844 28.5796 52.9191 30.0584 51.2503 30.0584C49.5822 30.0584 48.3171 28.5796 48.3171 26.4254C48.3171 24.2735 49.5822 22.7925 51.2503 22.7925" fill="#000000" fill-rule="nonzero" opacity="1" stroke="none"/>
<path d="M54.4523 23.0084L55.0987 23.0084L55.0987 22.2682C55.0987 21.0289 55.7442 20.317 57.2253 20.317C57.6296 20.317 58.0332 20.3848 58.4095 20.5062L58.4095 22.2819L58.1128 22.2819C57.629 20.7466 57.4397 20.613 57.0093 20.613C56.6872 20.613 56.3645 20.8267 56.3645 21.5005L56.3645 23.0076L57.9785 23.0076L57.9785 23.303L56.3645 23.303L56.3645 29.5485L57.3329 29.5485L57.3329 29.8446L54.4523 29.8446L54.4523 29.5485L55.0987 29.5485L55.0987 23.303L54.4523 23.303L54.4523 23.0084Z" fill="#000000" fill-rule="nonzero" opacity="1" stroke="none"/>
</g>
</g>
</g>
</g>
</svg>
