<?xml version="1.0" encoding="UTF-8" standalone="no"?>
<!DOCTYPE svg PUBLIC "-//W3C//DTD SVG 1.1//EN" "http://www.w3.org/Graphics/SVG/1.1/DTD/svg11.dtd">
<!-- Created with Vectornator (http://vectornator.io/) -->
<svg height="36.7164" stroke-miterlimit="10" style="fill-rule:nonzero;clip-rule:evenodd;stroke-linecap:round;stroke-linejoin:round;" version="1.1" viewBox="0 0 101.81 36.7164" width="101.81" xml:space="preserve" xmlns="http://www.w3.org/2000/svg" xmlns:vectornator="http://vectornator.io" xmlns:xlink="http://www.w3.org/1999/xlink">
<defs/>
<g id="layer1" vectornator:layerName="layer1">
<g opacity="1">
<path d="M28.1989 3.4721L3.73773 3.4721L3.73824 3.68431C3.73877 3.77238 3.76848 12.796 3.73824 15.3C3.78069 18.8641 4.57328 22.0223 6.2354 25.2415C7.94521 28.0669 10.8079 31.9912 15.8972 33.456L15.9555 33.4725L16.014 33.456C18.4649 32.7504 22.1367 31.1307 25.7081 25.2276C27.3649 22.0164 28.1565 18.8608 28.1978 15.2941C28.1671 12.7567 28.1974 3.76654 28.1978 3.68377L28.1989 3.4721Z" fill="#231f20" fill-rule="nonzero" opacity="1" stroke="none"/>
<path d="M15.9768 18.0566L6.72826 25.2186L6.71976 25.2261L6.72561 25.2345C9.37185 29.5354 12.2176 31.9408 15.9519 33.0326L15.955 33.0326L15.9583 33.0326C20.8342 31.605 23.5755 27.895 25.2131 25.2292L25.2185 25.2197L15.9832 18.0614L15.9768 18.0566Z" fill="#003d2c" fill-rule="nonzero" opacity="1" stroke="none"/>
<path d="M27.2387 19.9119L27.2423 19.8944C27.583 18.4131 27.757 16.9085 27.7756 15.2953C27.7464 12.8342 27.774 4.26999 27.7745 3.90659L27.7745 3.89492L4.16055 3.89492L4.16055 3.90659C4.16532 5.40584 4.18813 13.0018 4.16055 15.3011C4.17911 16.9139 4.35366 18.4179 4.69531 19.9017L4.69902 19.9182L15.9763 11.3392L27.2238 19.9017L27.2387 19.9119Z" fill="#003d2c" fill-rule="nonzero" opacity="1" stroke="none"/>
<path d="M27.1299 20.3687L27.1315 20.3612L15.9767 11.8686L4.81726 20.358L4.81195 20.3633L4.81248 20.3708C4.81513 20.3862 4.81778 20.4047 4.82096 20.4228C4.99497 21.0971 5.21037 21.7803 5.46024 22.4546C5.84063 23.4526 6.25177 24.3592 6.53189 24.8203L6.53931 24.8314L15.9767 17.5229L25.4046 24.8293L25.4151 24.8366L25.4221 24.826C25.4666 24.7523 25.5149 24.6664 25.5664 24.5703C26.2572 23.1624 26.7686 21.7872 27.1298 20.3687" fill="#ffc937" fill-rule="nonzero" opacity="1" stroke="none"/>
<path d="M19.2204 6.25202L18.6146 6.24725L18.0877 5.67747L18.0305 5.69551C17.8188 5.75917 17.6691 5.74538 17.4389 5.65042C17.1806 5.50399 16.987 5.44882 16.7238 5.44882C16.4643 5.44882 16.1619 5.58356 15.9753 5.7719C15.7879 5.5841 15.4861 5.44882 15.2267 5.44882C14.9635 5.44882 14.7699 5.50399 14.5221 5.64563C14.2738 5.74909 14.1317 5.76023 13.9199 5.69604L13.8627 5.678L13.3343 6.25043L12.7295 6.25256L12.7291 10.7143L15.4575 10.7264C15.5488 10.8404 15.7456 10.919 15.9759 10.919C16.2061 10.919 16.4034 10.8404 16.4936 10.7264L19.2215 10.7143L19.2204 6.25202Z" fill="#231f20" fill-rule="nonzero" opacity="1" stroke="none"/>
<path d="M14.6659 9.08867C14.8112 9.01231 14.9932 8.91739 15.2458 8.911C15.5152 8.90355 15.7423 9.01976 15.8733 9.11416L15.8733 5.9735C15.7392 5.79949 15.4526 5.66209 15.2267 5.66209C14.9964 5.66209 14.8336 5.70824 14.6043 5.83928C14.337 5.95175 14.1661 5.96979 13.9544 5.92257L13.9544 9.06853C14.0632 9.15611 14.1449 9.20278 14.3699 9.20278C14.4648 9.20226 14.5582 9.14552 14.6659 9.08867" fill="#ffc937" fill-rule="nonzero" opacity="1" stroke="none"/>
<path d="M13.7889 9.3534C13.9189 9.4436 14.1035 9.49027 14.32 9.48073C14.4223 9.47601 14.5205 9.43783 14.6336 9.39325C14.7895 9.33169 14.9667 9.26215 15.2155 9.25585C15.5248 9.24946 15.7062 9.37364 15.79 9.45052C15.7954 9.44202 15.8007 9.43195 15.8049 9.42346C15.8309 9.37521 15.8564 9.33011 15.8813 9.28973L15.8813 9.27599C15.7768 9.19114 15.5407 9.03518 15.2489 9.0442C15.0245 9.04892 14.8648 9.13324 14.7237 9.20698C14.6065 9.26855 14.495 9.32749 14.3704 9.32749C14.1359 9.32749 14.0235 9.28449 13.9014 9.19166L13.7889 9.3534Z" fill="#ffc937" fill-rule="nonzero" opacity="1" stroke="none"/>
<path d="M17.284 9.09664C17.3922 9.15338 17.4851 9.19429 17.58 9.19429C17.8039 9.19429 17.8867 9.15506 17.9949 9.06801L17.9949 5.92204C17.7838 5.96925 17.6082 5.9491 17.3562 5.84459C17.1164 5.70877 16.9535 5.64564 16.7238 5.64564C16.4978 5.64564 16.2112 5.80002 16.0771 5.97403L16.0771 9.11468C16.2076 9.01924 16.4336 8.9046 16.7041 8.91152C16.9572 8.91739 17.1386 9.02081 17.284 9.09664" fill="#ffc937" fill-rule="nonzero" opacity="1" stroke="none"/>
<path d="M13.0399 6.37351L13.0399 10.1736L15.5837 10.1736C15.5747 10.1514 15.5678 10.1269 15.5619 10.102C15.5546 10.0728 15.5492 10.0415 15.5492 10.0086C15.5492 9.99539 15.5503 9.98952 15.5518 9.9763C15.5364 9.97945 15.5211 9.98365 15.5046 9.98428L13.2935 9.989L13.2935 6.37351L13.0399 6.37351Z" fill="#ffc937" fill-rule="nonzero" opacity="1" stroke="none"/>
<path d="M13.4987 9.55184L13.5423 9.48817L13.5423 6.32258L13.4987 6.37245L13.4987 9.55184Z" fill="#ffc937" fill-rule="nonzero" opacity="1" stroke="none"/>
<path d="M16.372 10.5148L16.3758 10.5084L19.0034 10.4957L19.0034 10.2957L16.258 10.2978C16.1821 10.3651 16.0818 10.4071 15.9704 10.4071C15.8596 10.4071 15.7588 10.3651 15.6835 10.2978L12.9476 10.2978L12.9476 10.4962L15.5747 10.5089L15.5842 10.5228C15.6304 10.6235 15.7879 10.6978 15.9758 10.6978C16.1694 10.6978 16.3307 10.6192 16.372 10.5148" fill="#ffc937" fill-rule="nonzero" opacity="1" stroke="none"/>
<path d="M16.355 10.1736L18.91 10.172L18.91 6.37192L18.657 6.37192L18.657 9.989L16.449 9.98428C16.4272 9.98375 16.4076 9.9784 16.388 9.9741C16.3902 9.989 16.3916 9.99539 16.3916 10.0086C16.3916 10.05 16.3826 10.0893 16.3705 10.1264C16.3656 10.1429 16.3609 10.1578 16.355 10.1736" fill="#ffc937" fill-rule="nonzero" opacity="1" stroke="none"/>
<path d="M13.4987 9.77734L15.5015 9.77356C15.5348 9.77199 15.5678 9.75395 15.5996 9.72584C15.5211 9.67329 15.3476 9.58844 15.0622 9.59694C14.8298 9.60281 14.6744 9.64466 14.5375 9.68126C14.4245 9.71105 14.3274 9.73696 14.2123 9.73696C13.9312 9.73696 13.7306 9.69406 13.6059 9.6155L13.4982 9.76937L13.4982 9.77734L13.4987 9.77734Z" fill="#ffc937" fill-rule="nonzero" opacity="1" stroke="none"/>
<path d="M16.0686 9.28973C16.0941 9.33011 16.1189 9.37521 16.1444 9.42346C16.1498 9.433 16.155 9.44255 16.1604 9.45104C16.2447 9.37416 16.4272 9.25103 16.7344 9.2569C16.9837 9.26215 17.1603 9.33169 17.3169 9.39325C17.4299 9.43783 17.5281 9.47601 17.6299 9.4802C17.849 9.49027 18.032 9.4436 18.1615 9.3534L18.048 9.19219C17.9264 9.28396 17.8145 9.32697 17.58 9.32697C17.4549 9.32697 17.344 9.26855 17.2262 9.20645C17.085 9.13324 16.9249 9.04839 16.7009 9.04304C16.4118 9.03245 16.1741 9.19062 16.0686 9.27494L16.0686 9.28973Z" fill="#ffc937" fill-rule="nonzero" opacity="1" stroke="none"/>
<path d="M15.9753 9.50254C15.9737 9.50569 15.9715 9.50884 15.9699 9.51314C15.8941 9.65211 15.8039 9.81499 15.6776 9.89984C15.6628 9.9333 15.6532 9.96991 15.6532 10.0086C15.6532 10.171 15.7959 10.3025 15.9699 10.3025C16.145 10.3025 16.2872 10.171 16.2872 10.0086C16.2872 9.96456 16.2755 9.92376 16.2558 9.88663C16.1381 9.79853 16.0527 9.64518 15.98 9.51209C15.9789 9.50884 15.9768 9.50569 15.9753 9.50254" fill="#ffc937" fill-rule="nonzero" opacity="1" stroke="none"/>
<path d="M13.8304 9.07598L13.8304 5.99631L13.7449 6.09339L13.7449 9.19901L13.8304 9.07598Z" fill="#ffc937" fill-rule="nonzero" opacity="1" stroke="none"/>
<path d="M14.2123 9.6755C14.3194 9.6755 14.4128 9.65053 14.5216 9.62085C14.6617 9.5832 14.8203 9.5402 15.0611 9.5338C15.3768 9.52855 15.5619 9.62347 15.6447 9.68022C15.6856 9.63092 15.7237 9.56988 15.7598 9.50674C15.6892 9.43993 15.5168 9.31207 15.2182 9.31899C14.98 9.32476 14.8086 9.3922 14.6569 9.45104C14.5385 9.49772 14.4362 9.53862 14.3237 9.54229C14.0924 9.55289 13.8956 9.50149 13.7544 9.40385L13.6425 9.564C13.755 9.63669 13.9433 9.6755 14.2123 9.6755" fill="#ffc937" fill-rule="nonzero" opacity="1" stroke="none"/>
<path d="M13.6828 9.28868L13.6828 6.16343L13.6049 6.25256L13.6049 9.39902L13.6828 9.28868Z" fill="#ffc937" fill-rule="nonzero" opacity="1" stroke="none"/>
<path d="M17.7381 9.73759C17.623 9.73759 17.5265 9.71105 17.4129 9.68126C17.2755 9.64414 17.1206 9.60281 16.8888 9.59694C16.6028 9.58949 16.4298 9.67445 16.3514 9.72584C16.3837 9.75395 16.4171 9.77199 16.4516 9.77356L18.4522 9.77734L18.4522 9.76937L18.3445 9.61498C18.2204 9.69511 18.0199 9.73759 17.7381 9.73759" fill="#ffc937" fill-rule="nonzero" opacity="1" stroke="none"/>
<path d="M18.4522 9.55131L18.4522 6.37245L18.4076 6.32258L18.4076 9.48817L18.4522 9.55131Z" fill="#ffc937" fill-rule="nonzero" opacity="1" stroke="none"/>
<path d="M18.345 9.39902L18.345 6.25256L18.2676 6.16343L18.2676 9.28816L18.345 9.39902Z" fill="#ffc937" fill-rule="nonzero" opacity="1" stroke="none"/>
<path d="M17.6278 9.54229C17.5153 9.5381 17.4124 9.49772 17.2946 9.45104C17.1435 9.3922 16.971 9.32476 16.7334 9.31952C16.4367 9.31207 16.2622 9.44045 16.1922 9.50779C16.2272 9.56988 16.2659 9.6304 16.3068 9.67917C16.3895 9.62242 16.5757 9.5253 16.8904 9.5338C17.1301 9.5402 17.2893 9.5832 17.4294 9.62085C17.5381 9.65001 17.6315 9.6755 17.7387 9.6755C18.0071 9.6755 18.1954 9.63669 18.3095 9.56463L18.197 9.40437C18.0554 9.50202 17.8565 9.55184 17.6278 9.54229" fill="#ffc937" fill-rule="nonzero" opacity="1" stroke="none"/>
<path d="M18.2055 9.19848L18.2055 6.09287L18.1196 5.99631L18.1196 9.07598L18.2055 9.19848Z" fill="#ffc937" fill-rule="nonzero" opacity="1" stroke="none"/>
<path d="M11.104 5.83292C10.8451 5.83292 10.6238 5.99366 10.5357 6.22019C10.5156 6.21806 10.4949 6.21701 10.4743 6.21701C10.3793 6.21701 10.2891 6.23611 10.2068 6.27166C10.139 6.30084 10.0764 6.34062 10.0222 6.38943C10.0186 6.39314 10.0143 6.39686 10.0106 6.40057C9.87949 6.52259 9.79841 6.6966 9.79841 6.88759C9.79841 6.99316 9.82274 7.09293 9.86627 7.18198C9.93791 7.32787 10.062 7.44408 10.2127 7.5067C10.2191 7.92687 10.1256 8.18897 10.0021 8.2218C9.89595 8.25106 9.74796 8.12373 9.57081 7.86005C9.52991 7.79954 9.48911 7.73168 9.4482 7.65742C9.40635 7.73115 9.3623 7.79691 9.3193 7.85628C9.14267 8.09132 8.9479 8.19852 8.85141 8.16506C8.76761 8.13538 8.71076 7.98948 8.70174 7.78202C8.69912 7.71416 8.70174 7.64148 8.70919 7.56502L8.71034 7.56449C8.71296 7.53376 8.72094 7.48971 8.72251 7.4595L8.72251 7.4574L8.72293 7.45101L8.72293 7.45101L8.72985 7.45206C8.78397 7.4595 8.84281 7.45636 8.90385 7.44251C8.91497 7.43936 8.92609 7.43611 8.93668 7.43297C8.99405 7.41597 9.05237 7.39049 9.10806 7.35609C9.25186 7.26746 9.32559 7.1438 9.3622 7.02606C9.40415 6.89396 9.39775 6.77035 9.39188 6.7157C9.37657 6.56822 9.28899 6.37883 9.12663 6.2897C9.08258 6.26529 9.00307 6.23399 8.91025 6.21808L8.9028 6.21701L8.90427 6.20959C8.93983 6.06475 8.92179 5.91409 8.8534 5.78623C8.78974 5.6674 8.69314 5.58251 8.54987 5.51832C8.47456 5.4849 8.38384 5.46898 8.27402 5.46792C8.16368 5.46899 8.07296 5.4849 7.99765 5.51832C7.85386 5.58251 7.75684 5.6674 7.6937 5.78623C7.62573 5.91409 7.60717 6.06475 7.64272 6.20959L7.6443 6.21701L7.63738 6.21808C7.54403 6.23346 7.46442 6.26477 7.41995 6.28917C7.25809 6.37883 7.17002 6.56822 7.15465 6.7157C7.14934 6.77035 7.1435 6.89396 7.18435 7.02606C7.22149 7.1438 7.2947 7.26798 7.43852 7.35609C7.49998 7.39426 7.56522 7.42237 7.62888 7.43936C7.63685 7.44146 7.6443 7.44251 7.65175 7.44461C7.70901 7.45688 7.76471 7.45898 7.8162 7.45206L7.81935 7.45101L7.82313 7.45101L7.82365 7.45845C7.8247 7.47597 7.82522 7.49233 7.82627 7.50985C7.82732 7.52369 7.82785 7.53638 7.82837 7.55075C7.83424 7.62606 7.84064 7.71259 7.83791 7.78202C7.82942 7.98896 7.77215 8.13485 7.68887 8.16453C7.5928 8.19799 7.39709 8.09132 7.22148 7.85575C7.17798 7.79744 7.13394 7.73115 7.09151 7.65689C7.05065 7.73115 7.01034 7.79901 6.97002 7.85953C6.79229 8.12373 6.64428 8.25054 6.5387 8.22128C6.41456 8.18845 6.32119 7.92634 6.32756 7.50618C6.47875 7.44356 6.60289 7.32735 6.67452 7.18145C6.71855 7.09293 6.74295 6.99263 6.74295 6.88706C6.74295 6.69555 6.66125 6.52207 6.53022 6.40005C6.52651 6.39633 6.52226 6.39262 6.51854 6.38891C6.46443 6.34009 6.40183 6.3003 6.33393 6.27112C6.2517 6.23611 6.16097 6.21649 6.06601 6.21649C6.04532 6.21649 6.02516 6.21755 6.005 6.21967C5.91694 5.9926 5.69518 5.83239 5.43629 5.83239C5.10047 5.83239 4.82778 6.10349 4.82778 6.43559C4.82778 6.70828 5.01081 6.98733 5.26175 7.0621L5.74983 9.78531L5.78484 10.0124L5.78484 10.0155C5.83312 10.0781 6.23843 10.5105 8.25179 10.5105L8.25221 10.5105L8.25326 10.5105C10.2777 10.5105 10.6825 10.0738 10.7276 10.0155L10.7287 10.015C10.7287 10.0145 10.7287 10.0145 10.7287 10.0145C10.7287 10.0134 10.7292 10.0134 10.7292 10.0134L10.7292 10.0134C10.7408 9.9418 10.7524 9.87069 10.7647 9.79968C10.9349 8.87124 11.1058 7.99053 11.2766 7.0621C11.5366 6.97249 11.7106 6.68867 11.7106 6.4356C11.7128 6.07856 11.3636 5.83294 11.1037 5.83294" fill="#231f20" fill-rule="nonzero" opacity="1" stroke="none"/>
<path d="M10.4451 9.95774C10.2477 9.84153 9.68325 9.6198 8.26144 9.6198C6.83861 9.6198 6.27095 9.84153 6.07095 9.95774C6.2683 10.0738 6.83278 10.2952 8.25399 10.2952C9.67737 10.2952 10.2456 10.0738 10.4451 9.95774" fill="#ffc937" fill-rule="nonzero" opacity="1" stroke="none"/>
<path d="M11.0128 7.29399L11.0594 7.08653L11.0934 6.87803C11.2912 6.85576 11.5013 6.63877 11.5013 6.43611C11.5013 6.21913 11.3231 6.04246 11.104 6.04246C10.9437 6.04246 10.8058 6.1369 10.7432 6.27218C10.7199 6.32258 10.7066 6.37722 10.7066 6.43611C10.7066 6.45521 10.7078 6.47324 10.7109 6.49076C10.6467 6.45416 10.5735 6.43134 10.4949 6.42815C10.488 6.42763 10.4817 6.42709 10.4738 6.42709C10.3995 6.42709 10.3294 6.4446 10.2658 6.4759C10.1947 6.51144 10.1331 6.56555 10.088 6.63134C10.0382 6.70456 10.009 6.79262 10.009 6.88811C10.009 7.04038 10.0838 7.17568 10.199 7.26001C10.2621 7.30511 10.3369 7.33584 10.4181 7.34591C10.4228 7.4186 10.4249 7.48918 10.4249 7.55715C10.4249 7.61651 10.4228 7.67483 10.4191 7.73063C10.382 8.23407 10.2021 8.38626 10.0578 8.42507C10.0307 8.43241 10.0021 8.43618 9.96969 8.43618C9.83124 8.43618 9.66521 8.35343 9.43971 8.04203C9.2742 8.24676 9.06737 8.38102 8.89116 8.38102C8.85351 8.38102 8.81586 8.37462 8.77978 8.36245C8.60525 8.30088 8.50236 8.09772 8.49061 7.79052C8.48746 7.71836 8.48956 7.64253 8.49648 7.56344L8.49753 7.56344C8.49806 7.556 8.50026 7.53691 8.50078 7.53009C8.50299 7.48446 8.50666 7.43611 8.51085 7.38252C8.51232 7.36668 8.51347 7.35074 8.51505 7.33322L8.52837 7.16771C8.53571 7.17243 8.54368 7.17673 8.55218 7.1825C8.58301 7.19845 8.62381 7.21648 8.67258 7.22655C8.70499 7.234 8.74055 7.2383 8.77978 7.23715C8.7846 7.23715 8.78932 7.23715 8.79414 7.2361C8.83442 7.234 8.91455 7.22183 8.99521 7.17086C9.04775 7.13961 9.09548 7.08916 9.13103 7.02658C9.17666 6.94541 9.19942 6.84355 9.17718 6.73851C9.17603 6.73002 9.13523 6.54699 8.97507 6.46688C8.90396 6.43187 8.83872 6.43081 8.76278 6.43081C8.68381 6.42974 8.60472 6.44141 8.52889 6.46422C8.57976 6.40375 8.62119 6.33637 8.65192 6.26476C8.67258 6.21594 8.70447 6.14061 8.70185 6.05042C8.70069 6.02125 8.69912 5.95758 8.66367 5.88914C8.65989 5.88172 8.64877 5.86102 8.62969 5.83662C8.59256 5.78993 8.53844 5.75068 8.46418 5.71778C8.41583 5.69762 8.35436 5.68595 8.27581 5.68489C8.19672 5.68596 8.13474 5.69762 8.08691 5.71778C8.01213 5.75068 7.95853 5.78941 7.92088 5.83662C7.90179 5.8605 7.89067 5.88172 7.88742 5.88914C7.85197 5.95705 7.85029 6.02125 7.84924 6.05042C7.84662 6.14008 7.87903 6.21594 7.89917 6.26476C7.92937 6.3369 7.9708 6.40375 8.0222 6.46422C7.94532 6.44141 7.86676 6.42975 7.78663 6.43081C7.71132 6.43081 7.64661 6.43187 7.57549 6.46688C7.41534 6.54699 7.37445 6.73002 7.37339 6.73851C7.35112 6.84408 7.37339 6.94541 7.41953 7.02658C7.45404 7.08916 7.50281 7.13961 7.55483 7.17086C7.63601 7.22183 7.71562 7.234 7.7559 7.2361C7.75957 7.2361 7.76387 7.2361 7.76701 7.23715C7.79995 7.2383 7.8312 7.2361 7.85984 7.22981C7.91448 7.22026 7.9601 7.20222 7.99409 7.18418C8.00468 7.17883 8.0137 7.17296 8.02167 7.16771L8.03552 7.33322C8.03657 7.34969 8.03814 7.365 8.03919 7.38042C8.04401 7.44199 8.04768 7.49925 8.0503 7.55075C8.05408 7.62816 8.05618 7.71783 8.05356 7.78999C8.04076 8.0972 7.93839 8.30036 7.76439 8.36193C7.72726 8.37409 7.69013 8.38049 7.65248 8.38049C7.47627 8.38049 7.26995 8.24624 7.10442 8.0415C6.87948 8.35291 6.71343 8.43566 6.5739 8.43566C6.54207 8.43566 6.51343 8.43136 6.48637 8.42454C6.34207 8.38626 6.16222 8.23355 6.12562 7.73C6.1219 7.67431 6.11977 7.61599 6.11977 7.55652C6.11977 7.48866 6.1219 7.41807 6.12668 7.34539C6.20731 7.33479 6.28211 7.30459 6.34524 7.25949C6.45984 7.17516 6.53464 7.03986 6.53464 6.88758C6.53464 6.79209 6.50547 6.70456 6.45613 6.63081C6.41156 6.56503 6.35003 6.51092 6.27788 6.47537C6.21474 6.44407 6.14418 6.42656 6.06991 6.42656C6.06301 6.42656 6.05611 6.42708 6.04868 6.42763C5.9707 6.43081 5.89749 6.45362 5.83383 6.49022C5.83596 6.47272 5.83701 6.45468 5.83701 6.43558C5.83701 6.37722 5.82427 6.32205 5.80094 6.27166C5.73833 6.13637 5.59986 6.04194 5.44018 6.04194C5.22055 6.04194 5.04229 6.21861 5.04229 6.43558C5.04229 6.63824 5.25237 6.85576 5.45079 6.87751L5.48422 7.08601L5.5309 7.29347L5.98661 9.72479L5.98874 9.73643L5.98874 9.73643L5.9914 9.74818C6.27045 9.60071 6.89912 9.4028 8.26259 9.4028L8.26259 9.4028L8.26301 9.4028C9.65084 9.4028 10.2747 9.60806 10.5442 9.75668L10.5457 9.74388C10.5461 9.74388 10.5469 9.74388 10.5473 9.74388L10.5473 9.74178L10.7053 8.92002L11.0128 7.29399Z" fill="#ffc937" fill-rule="nonzero" opacity="1" stroke="none"/>
<path d="M26.4943 5.83292C26.2354 5.83292 26.0142 5.99366 25.9261 6.22019C25.906 6.21806 25.8859 6.21701 25.8657 6.21701C25.7702 6.21701 25.6795 6.23611 25.5972 6.27166C25.5299 6.30084 25.4673 6.34062 25.4132 6.38943C25.4089 6.39314 25.4052 6.39686 25.4015 6.40057C25.2704 6.52259 25.1892 6.6966 25.1892 6.88759C25.1892 6.99316 25.2137 7.09293 25.2572 7.18198C25.3294 7.32787 25.4529 7.44408 25.6036 7.5067C25.6099 7.92687 25.5166 8.18897 25.393 8.2218C25.2869 8.25106 25.1389 8.12373 24.9616 7.86005C24.9208 7.79954 24.8799 7.73168 24.8396 7.65742C24.7972 7.73115 24.7532 7.79691 24.7102 7.85628C24.5346 8.09132 24.3388 8.19852 24.2423 8.16506C24.1584 8.13538 24.1017 7.98948 24.0937 7.78202C24.0911 7.71416 24.0933 7.64148 24.1006 7.56502L24.1017 7.56449C24.1044 7.53376 24.1124 7.48971 24.114 7.4595L24.114 7.4574L24.114 7.45101L24.114 7.45101L24.1214 7.45206C24.1755 7.4595 24.2344 7.45636 24.2954 7.44251C24.3065 7.43936 24.3176 7.43611 24.3282 7.43297C24.3856 7.41597 24.4439 7.39049 24.4996 7.35609C24.6434 7.26746 24.7171 7.1438 24.7537 7.02606C24.7951 6.89396 24.7893 6.77035 24.7834 6.7157C24.768 6.56822 24.6805 6.37883 24.5182 6.2897C24.4741 6.26529 24.3946 6.23399 24.3012 6.21808L24.2943 6.21701L24.2958 6.20959C24.3314 6.06475 24.3133 5.91409 24.2449 5.78623C24.1812 5.6674 24.0852 5.58251 23.9414 5.51832C23.8656 5.4849 23.7759 5.46898 23.6656 5.46792C23.5547 5.46899 23.464 5.4849 23.3887 5.51832C23.2449 5.58251 23.1483 5.6674 23.0851 5.78623C23.0168 5.91409 22.9987 6.06475 23.0343 6.20959L23.0357 6.21701L23.0283 6.21808C22.9355 6.23346 22.8553 6.26477 22.8114 6.28917C22.6496 6.37883 22.5615 6.56822 22.5455 6.7157C22.5397 6.77035 22.5344 6.89396 22.5758 7.02606C22.6119 7.1438 22.6856 7.26798 22.8294 7.35609C22.8909 7.39426 22.9568 7.42237 23.0204 7.43936C23.0283 7.44146 23.0357 7.44251 23.0432 7.44461C23.1005 7.45688 23.1562 7.45898 23.2077 7.45206L23.2103 7.45101L23.214 7.45101L23.2151 7.45845C23.2155 7.47597 23.2167 7.49233 23.2177 7.50985C23.2189 7.52369 23.2193 7.53638 23.2199 7.55075C23.2258 7.62606 23.2316 7.71259 23.2295 7.78202C23.2215 7.98896 23.1637 8.13485 23.0804 8.16453C22.9838 8.19799 22.7886 8.09132 22.6124 7.85575C22.5695 7.79744 22.5255 7.73115 22.483 7.65689C22.4427 7.73115 22.4018 7.79901 22.3615 7.85953C22.1844 8.12373 22.0353 8.25054 21.9303 8.22128C21.8061 8.18845 21.7127 7.92634 21.7191 7.50618C21.8708 7.44356 21.9945 7.32735 22.0661 7.18145C22.11 7.09293 22.1345 6.99263 22.1345 6.88706C22.1345 6.69555 22.0522 6.52207 21.9218 6.40005C21.9175 6.39633 21.9138 6.39262 21.9107 6.38891C21.856 6.34009 21.7934 6.3003 21.7254 6.27112C21.6427 6.23611 21.5525 6.21649 21.4576 6.21649C21.4369 6.21649 21.4166 6.21755 21.3965 6.21967C21.3085 5.9926 21.0872 5.83239 20.8284 5.83239C20.4925 5.83239 20.2193 6.10349 20.2193 6.43559C20.2193 6.70828 20.4028 6.98733 20.6538 7.0621L21.1419 9.78531L21.1769 10.0124L21.1769 10.0155C21.2251 10.0781 21.6305 10.5105 23.6439 10.5105L23.6443 10.5105L23.6453 10.5105C25.6693 10.5105 26.0746 10.0738 26.1197 10.0155L26.1208 10.015C26.1208 10.0145 26.1208 10.0145 26.1208 10.0145C26.1208 10.0134 26.1208 10.0134 26.1208 10.0134L26.1208 10.0134C26.133 9.9418 26.1441 9.87069 26.1563 9.79968C26.3266 8.87124 26.4985 7.99053 26.6688 7.0621C26.9282 6.97249 27.1027 6.68867 27.1027 6.4356C27.1032 6.07856 26.7547 5.83294 26.4942 5.83294" fill="#231f20" fill-rule="nonzero" opacity="1" stroke="none"/>
<path d="M25.8365 9.95774C25.6387 9.84153 25.0742 9.6198 23.6524 9.6198C22.2305 9.6198 21.6613 9.84153 21.4619 9.95774C21.6598 10.0738 22.2236 10.2952 23.6454 10.2952C25.0678 10.2952 25.6365 10.0738 25.8365 9.95774" fill="#ffc937" fill-rule="nonzero" opacity="1" stroke="none"/>
<path d="M26.4037 7.29399L26.4504 7.08653L26.4842 6.87803C26.6827 6.85576 26.8922 6.63877 26.8922 6.43611C26.8922 6.21913 26.714 6.04246 26.4943 6.04246C26.3347 6.04246 26.1962 6.1369 26.1336 6.27218C26.1102 6.32258 26.0975 6.37722 26.0975 6.43611C26.0975 6.45521 26.099 6.47324 26.1012 6.49076C26.0375 6.45416 25.9643 6.43134 25.8859 6.42815C25.8795 6.42763 25.8725 6.42709 25.8656 6.42709C25.7903 6.42709 25.7198 6.4446 25.6572 6.4759C25.5856 6.51144 25.524 6.56555 25.4794 6.63134C25.4291 6.70456 25.4005 6.79262 25.4005 6.88811C25.4005 7.04038 25.4752 7.17568 25.5898 7.26001C25.6529 7.30511 25.7277 7.33584 25.8089 7.34591C25.8137 7.4186 25.8158 7.48918 25.8153 7.55715C25.8153 7.61651 25.8137 7.67483 25.8094 7.73063C25.7723 8.23407 25.5924 8.38626 25.4482 8.42507C25.4217 8.43241 25.3925 8.43618 25.3606 8.43618C25.2222 8.43618 25.0561 8.35343 24.8306 8.04203C24.6646 8.24676 24.4582 8.38102 24.2821 8.38102C24.2444 8.38102 24.2068 8.37462 24.1707 8.36245C23.9962 8.30088 23.8932 8.09772 23.881 7.79052C23.8784 7.71836 23.8806 7.64253 23.8874 7.56344L23.8885 7.56344C23.8889 7.556 23.8911 7.53691 23.8916 7.53009C23.8938 7.48446 23.898 7.43611 23.9017 7.38252C23.9028 7.36668 23.9039 7.35074 23.9054 7.33322L23.9192 7.16771C23.9261 7.17243 23.9346 7.17673 23.9431 7.1825C23.9733 7.19845 24.0147 7.21648 24.063 7.22655C24.0958 7.234 24.1314 7.2383 24.1702 7.23715C24.1754 7.23715 24.1797 7.23715 24.185 7.2361C24.2253 7.234 24.3048 7.22183 24.3855 7.17086C24.438 7.13961 24.4858 7.08916 24.5213 7.02658C24.5669 6.94541 24.5898 6.84355 24.5675 6.73851C24.566 6.73002 24.5256 6.54699 24.3654 6.46688C24.2937 6.43187 24.229 6.43081 24.1532 6.43081C24.0741 6.42974 23.995 6.44141 23.9187 6.46422C23.9702 6.40375 24.0115 6.33637 24.0417 6.26476C24.0625 6.21594 24.0942 6.14061 24.0921 6.05042C24.0911 6.02125 24.0895 5.95758 24.0534 5.88914C24.0502 5.88172 24.0391 5.86102 24.02 5.83662C23.9834 5.78993 23.9287 5.75068 23.8545 5.71778C23.8062 5.69762 23.7447 5.68595 23.6666 5.68489C23.5871 5.68596 23.525 5.69762 23.4773 5.71778C23.4029 5.75068 23.3489 5.78941 23.3112 5.83662C23.2926 5.8605 23.281 5.88172 23.2778 5.88914C23.2423 5.95705 23.2402 6.02125 23.2396 6.05042C23.2374 6.14008 23.2693 6.21594 23.2895 6.26476C23.3197 6.3369 23.3611 6.40375 23.4126 6.46422C23.3351 6.44141 23.2565 6.42975 23.177 6.43081C23.1016 6.43081 23.0369 6.43187 22.9659 6.46688C22.8051 6.54699 22.7648 6.73002 22.7632 6.73851C22.7409 6.84408 22.7637 6.94541 22.8093 7.02658C22.8443 7.08916 22.8927 7.13961 22.9446 7.17086C23.0258 7.22183 23.1054 7.234 23.1462 7.2361C23.15 7.2361 23.1536 7.2361 23.1569 7.23715C23.1897 7.2383 23.2211 7.2361 23.2492 7.22981C23.3044 7.22026 23.35 7.20222 23.3839 7.18418C23.3946 7.17883 23.4036 7.17296 23.4114 7.16771L23.4248 7.33322C23.4258 7.34969 23.427 7.365 23.4284 7.38042C23.4338 7.44199 23.4375 7.49925 23.439 7.55075C23.4439 7.62816 23.4454 7.71783 23.4428 7.78999C23.43 8.0972 23.3276 8.30036 23.1536 8.36193C23.117 8.37409 23.0794 8.38049 23.0417 8.38049C22.8661 8.38049 22.6592 8.24624 22.4937 8.0415C22.2687 8.35291 22.1027 8.43566 21.9632 8.43566C21.9318 8.43566 21.9027 8.43136 21.8756 8.42454C21.7313 8.38626 21.5515 8.23355 21.5149 7.73C21.5106 7.67431 21.5091 7.61599 21.5091 7.55652C21.5091 7.48866 21.5105 7.41807 21.5154 7.34539C21.597 7.33479 21.6719 7.30459 21.7346 7.25949C21.8496 7.17516 21.9239 7.03986 21.9239 6.88758C21.9239 6.79209 21.8947 6.70456 21.8449 6.63081C21.8003 6.56503 21.7387 6.51092 21.6671 6.47537C21.6045 6.44407 21.5335 6.42656 21.4591 6.42656C21.4518 6.42656 21.4454 6.42708 21.4379 6.42763C21.3599 6.43081 21.2867 6.45362 21.222 6.49022C21.2252 6.47272 21.2263 6.45468 21.2263 6.43558C21.2263 6.37722 21.2135 6.32205 21.1902 6.27166C21.1271 6.13637 20.9891 6.04194 20.8294 6.04194C20.6098 6.04194 20.4316 6.21861 20.4316 6.43558C20.4316 6.63824 20.6417 6.85576 20.8395 6.87751L20.8735 7.08601L20.9201 7.29347L21.3758 9.72479L21.3781 9.73643L21.3781 9.73643L21.3807 9.74818C21.6598 9.60071 22.2883 9.4028 23.6518 9.4028L23.6518 9.4028L23.6523 9.4028C25.0406 9.4028 25.664 9.60806 25.933 9.75668L25.9352 9.74388C25.9356 9.74388 25.9362 9.74388 25.9366 9.74388L25.9366 9.74178L26.0953 8.92002L26.4037 7.29399Z" fill="#ffc937" fill-rule="nonzero" opacity="1" stroke="none"/>
<path d="M18.7386 24.2223C18.8654 23.9199 18.8061 23.8419 18.8061 23.8419L19.0883 23.0005L18.7027 23.5851C18.6899 23.5719 18.6564 23.5438 18.5901 23.531C18.5901 23.531 18.8246 23.33 18.7344 23.1995C18.7344 23.1995 18.6872 23.0801 18.4055 23.1157C18.4055 23.1157 18.4437 22.8255 18.3556 22.722L18.4262 21.522L18.1371 22.5311C18.1371 22.5311 18.0596 22.4308 17.9748 22.4376C17.9748 22.4376 18.0543 22.3618 18.0835 22.2939C18.0835 22.2939 18.2145 22.0557 17.9727 22.0223C17.9727 22.0223 17.866 22.0117 17.7678 22.0334C17.7678 22.0334 17.797 21.7341 17.6962 21.6439L17.701 20.4419L17.4304 21.6116C17.4304 21.6116 17.3429 21.6222 17.2703 21.9745C17.2703 21.9745 17.1164 21.8594 16.9068 21.9496L16.7896 20.871L16.6532 22.0646C16.6532 22.0646 16.5741 22.1288 16.5646 22.244C16.5646 22.244 16.5269 22.2334 16.4893 22.2308C16.4893 22.2308 16.5917 22.1012 16.5996 22.0265C16.5996 22.0265 16.632 21.8382 16.4723 21.8179C16.4723 21.8179 16.371 21.7983 16.2352 21.8519C16.2352 21.8519 16.2235 21.5268 16.1184 21.4737L15.9869 20.279L15.8516 21.4727C15.8516 21.4727 15.7248 21.5171 15.7359 21.8413C15.7359 21.8413 15.4559 21.7666 15.3842 21.8663C15.3842 21.8663 15.3057 22.054 15.4812 22.2313C15.4812 22.2313 15.3614 22.2376 15.3391 22.2801L15.2951 22.227L15.1641 21.0333L15.0277 22.227C15.0277 22.227 14.9667 22.2599 14.9455 22.3772C14.9455 22.3772 14.8749 22.3087 14.772 22.3252C14.772 22.3252 14.859 22.1978 14.859 22.088C14.859 22.088 14.9014 21.8053 14.4823 21.9761C14.4823 21.9761 14.4494 21.688 14.3274 21.6095L14.0771 20.4355L14.0632 21.6488C14.0632 21.6488 13.9444 21.679 13.9938 22.0392C13.9938 22.0392 13.8171 21.9427 13.6451 22.0684L13.4436 21.3617L13.5141 22.5607C13.5141 22.5607 13.4266 22.6355 13.4648 22.9544C13.4648 22.9544 12.807 22.853 13.2796 23.3709C13.2796 23.3709 12.8865 23.4711 13.2574 23.7719L13.1624 23.8091L12.6149 23.1178L12.9476 23.931C12.9476 23.931 12.8998 24.0345 13.043 24.3061C13.043 24.3061 12.4712 24.4095 13.0435 24.7443C13.0546 24.7348 12.7178 24.9454 13.1692 25.1237C13.1692 25.1237 12.9516 25.3444 13.3088 25.504C13.3088 25.504 13.1464 25.7507 13.5246 25.8638C13.5246 25.8638 13.3236 26.0473 13.7231 26.2505C13.6308 26.2961 13.5756 26.3953 13.6695 26.6092L13.8849 26.9539C13.8849 26.9539 13.5708 27.3322 13.8743 27.5322L13.8684 27.615C13.895 27.9195 13.1426 29.4187 12.9872 29.6914C12.8779 29.8654 12.9443 30.258 13.1034 30.3795C13.2243 30.4718 13.4323 30.5307 13.5862 30.5164C13.6424 30.6708 13.7512 30.7912 13.8875 30.849C14.0133 30.9031 14.1554 30.9111 14.2291 30.9111C14.2669 30.9111 14.3374 30.9079 14.4043 30.8946C14.4928 31.0241 14.6536 31.1403 14.7915 31.171C14.8488 31.1854 14.9178 31.1918 14.9905 31.1918C15.0611 31.1918 15.234 31.1843 15.3619 31.1169C15.4934 31.2246 15.7353 31.3106 15.9094 31.3106L15.9385 31.3106C16.1285 31.2999 16.2839 31.1727 16.3667 31.092C16.4309 31.1323 16.598 31.2246 16.7746 31.2246L16.7969 31.2246C16.9566 31.2183 17.1571 31.1291 17.2691 31.0161C17.3725 31.0485 17.5365 31.0607 17.6654 31.014C17.789 30.9694 17.946 30.8728 18.0219 30.7354C18.1726 30.7397 18.3195 30.6993 18.4155 30.6341C18.5466 30.5471 18.6792 30.373 18.6654 30.2155L18.6521 30.1742C18.5938 30.0675 17.7677 28.0706 17.5901 27.5476C17.6876 27.4738 17.8553 27.3215 17.8605 27.1385C17.8605 27.1385 17.8765 27.0616 17.9089 27.0256C17.9089 27.0256 18.136 26.6854 18.0304 26.5072L18.0532 26.4977C18.3343 26.3941 18.2734 26.2345 18.2734 26.2345C18.267 26.2075 18.2319 26.1639 18.2319 26.1639C18.6214 25.9379 18.3678 25.8095 18.3678 25.8095C18.7359 25.6822 18.5641 25.4282 18.5641 25.4282C18.9349 25.2042 18.6511 25.0478 18.6511 25.0478C19.0999 24.8519 18.7699 24.6594 18.7699 24.6594C19.3042 24.2853 18.7386 24.2222 18.7386 24.2222" fill="#231f20" fill-rule="nonzero" opacity="1" stroke="none"/>
<path d="M14.0856 27.6622C14.0405 28.1821 13.1842 29.7896 13.1757 29.806C13.0924 29.928 13.1688 30.154 13.2356 30.205C13.3062 30.2591 13.4399 30.2984 13.5407 30.2984C13.5783 30.2984 13.5979 30.2941 13.6059 30.2899C13.6897 30.1004 14.3153 28.259 14.3555 28.1068C14.3709 28.05 14.4308 28.0145 14.4893 28.0293C14.5481 28.0447 14.5831 28.1052 14.5677 28.163C14.564 28.1784 13.9121 30.1599 13.7847 30.4156C13.8011 30.4724 13.8495 30.5938 13.9725 30.6469C14.0383 30.676 14.1317 30.6925 14.2277 30.6925C14.3078 30.6925 14.3593 30.6819 14.3815 30.674C14.4532 30.5084 14.7084 29.1413 14.7922 28.6877C14.833 28.4723 14.8584 28.3375 14.8654 28.3052C14.8792 28.2463 14.9375 28.2107 14.9974 28.2224C15.0569 28.2378 15.0935 28.2983 15.0791 28.3572C15.0718 28.3863 15.0479 28.5169 15.0139 28.6984L15.0086 28.7296C14.7333 30.204 14.6383 30.6092 14.5773 30.7593C14.6213 30.831 14.7365 30.9345 14.8399 30.9593C14.8797 30.9689 14.9339 30.9727 14.9901 30.9727C15.1338 30.9727 15.2368 30.9425 15.2755 30.9137C15.3206 30.6432 15.4616 28.6951 15.4616 28.5142C15.4616 28.4532 15.511 28.4054 15.5714 28.4054C15.632 28.4054 15.6819 28.4532 15.6819 28.5142C15.6819 28.6437 15.554 30.5429 15.493 30.943C15.5609 31.0061 15.7567 31.0941 15.9089 31.0941L15.9269 31.0919C16.0452 31.0867 16.1683 30.9906 16.2458 30.9015C16.2357 30.5668 16.0835 28.8314 16.0676 28.7067C16.0601 28.6467 16.1031 28.5916 16.163 28.5837C16.1916 28.5805 16.2204 28.589 16.2437 28.6054C16.267 28.624 16.2818 28.649 16.2861 28.6792C16.2876 28.6913 16.4553 30.3992 16.458 30.8893C16.5195 30.9339 16.6532 31.0086 16.7747 31.0086C16.9216 31.0013 17.0793 30.9073 17.1238 30.8542C17.1116 30.6957 16.9138 29.8389 16.8484 29.5975C16.8326 29.5386 16.868 29.4792 16.9259 29.4638C16.9551 29.4553 16.9842 29.4595 17.0097 29.4733C17.0347 29.4877 17.0527 29.5126 17.0607 29.5407C17.0628 29.5492 17.2989 30.4887 17.3371 30.8081C17.4087 30.8289 17.5142 30.8395 17.5902 30.8103C17.7132 30.7657 17.8199 30.6788 17.8405 30.605C17.8246 30.5244 17.6209 29.9158 16.9492 28.1418L16.9391 28.1158C16.9291 28.0888 16.9296 28.0579 16.9424 28.032C16.954 28.006 16.9758 27.9852 17.004 27.9741C17.0597 27.9524 17.1238 27.9826 17.145 28.0383L17.1551 28.0654C17.6761 29.4426 17.9663 30.2453 18.0395 30.518L18.0421 30.518C18.1397 30.518 18.2374 30.4941 18.2931 30.4559C18.3806 30.3981 18.4395 30.3005 18.447 30.2527C18.354 30.0395 17.6066 28.2633 17.3954 27.6542C17.0984 27.7465 16.5583 27.7455 16.5583 27.7455C16.5551 27.9413 16.8113 28.4664 16.8113 28.4664C16.1387 28.4956 15.6145 27.7566 15.6145 27.7566C14.9529 27.7338 14.3503 27.6568 14.1518 27.6282C14.1518 27.6261 14.0913 27.6091 14.0856 27.6622" fill="#ffc937" fill-rule="nonzero" opacity="1" stroke="none"/>
<path d="M16.6373 26.7338C16.6373 26.7338 16.754 26.9003 16.5741 27.52C16.5741 27.52 17.1535 27.4972 17.2623 27.4702C17.2623 27.4702 17.335 27.4462 17.3683 27.4214C17.3683 27.4214 17.5508 27.3094 17.5896 27.2516C17.5896 27.2516 17.624 27.2017 17.6436 27.1179C17.6436 27.1179 17.6537 26.9938 17.7052 26.9417C17.7052 26.9417 17.7965 26.8234 17.8358 26.669C17.8358 26.669 17.891 26.5656 17.6994 26.5932C17.6994 26.5932 17.5052 26.6203 17.3992 26.6531C17.3992 26.6543 17.2989 26.7381 16.6373 26.7338" fill="#ffc937" fill-rule="nonzero" opacity="1" stroke="none"/>
<path d="M16.0787 27.2913L15.8696 26.6966C15.8696 26.6966 15.7969 26.4638 15.5391 26.5089C15.5391 26.5089 15.2935 26.5863 15.494 26.8208C15.494 26.8208 15.5912 26.9263 15.6097 27.1152C15.6097 27.1152 15.6065 27.7391 16.4484 28.1784C16.4484 28.1784 16.2676 27.7503 16.38 27.3826C16.38 27.3826 16.6532 26.6272 16.1285 26.4638C16.1285 26.4638 15.9519 26.3932 16.04 26.5507C16.04 26.5507 16.0856 26.6118 16.0797 26.8431L16.0787 27.2913Z" fill="#ffc937" fill-rule="nonzero" opacity="1" stroke="none"/>
<path d="M15.1948 26.6654C15.1948 26.6654 14.2436 26.5205 14.0611 26.4796L13.8956 26.4394C13.8956 26.4394 13.8101 26.4154 13.8627 26.5046C13.8627 26.5046 13.8866 26.5566 13.9067 26.5816L14.0686 26.8479C14.0686 26.8479 14.1475 26.9815 14.0399 27.1194C14.0399 27.1194 13.7487 27.3921 14.3274 27.4315C14.3274 27.4315 15.3195 27.5402 15.4935 27.53C15.4935 27.53 15.4012 27.2845 15.3927 27.1333C15.3879 27.1073 15.3693 27.0113 15.2897 26.9157C15.2903 26.9153 15.1917 26.7917 15.1948 26.6654" fill="#ffc937" fill-rule="nonzero" opacity="1" stroke="none"/>
<path d="M14.9741 26.1237C14.9731 26.1174 14.9667 26.0823 14.9445 26.0717C14.9317 26.0643 14.9152 26.0664 14.8951 26.0791L14.5731 26.337L14.5805 26.338C14.6935 26.3576 14.8123 26.3783 14.9445 26.4001L14.9465 26.4012L14.9477 26.398C14.9705 26.3338 15.005 26.2134 14.9742 26.1243L14.9741 26.1237Z" fill="#ffc937" fill-rule="nonzero" opacity="1" stroke="none"/>
<path d="M14.4542 24.5847L14.4707 24.5724L14.2797 24.6484L14.2755 24.6515L14.2781 24.6557C14.3307 24.7125 14.3307 24.8048 14.3253 24.8547L14.3249 24.8611L14.3774 24.8271L14.3774 24.8249C14.3456 24.6997 14.4118 24.6212 14.4543 24.5846" fill="#ffc937" fill-rule="nonzero" opacity="1" stroke="none"/>
<path d="M17.7005 23.1167C17.6776 23.1384 17.7074 23.2144 17.7206 23.242L17.9732 23.6833L17.6438 23.5411C17.5699 23.5072 17.544 23.513 17.5355 23.5225C17.518 23.5443 17.5525 23.6042 17.5678 23.625L17.9116 24.0446L17.5402 23.9215L17.5371 23.9205L17.5359 23.9236C17.5291 23.9586 17.4776 24.0043 17.4559 24.0223L17.4506 24.0266L17.457 24.0276C17.5397 24.0473 17.5895 24.0833 17.6044 24.1343C17.6346 24.2388 17.5137 24.3715 17.476 24.4107L17.4723 24.4138L17.4771 24.416C17.5158 24.4304 17.6023 24.4792 17.5816 24.6213L17.5805 24.6277L17.5869 24.6245C17.5901 24.6234 17.5942 24.6223 17.598 24.6213L17.6001 24.6213C17.6028 24.6192 17.6065 24.6192 17.6081 24.6181L17.6092 24.6181C17.64 24.607 17.6719 24.6006 17.7068 24.6006C17.7142 24.6006 17.7206 24.6017 17.7276 24.6017L17.7323 24.6017L17.7312 24.5975C17.7222 24.5645 17.6803 24.3921 17.7583 24.3115C17.8001 24.2669 17.8707 24.2563 17.9668 24.2802L17.971 24.2813L17.971 24.2771C17.9652 24.2314 17.9424 23.9985 18.0463 23.9279C18.0957 23.8956 18.1663 23.9062 18.2564 23.9593L18.258 23.9615L18.2594 23.9593C18.2727 23.9497 18.3895 23.8637 18.4531 23.8389L18.4542 23.8377C18.4611 23.8282 18.5243 23.7507 18.5954 23.7247L18.6006 23.7215L18.5963 23.7173C18.4849 23.6064 18.0488 23.7523 18.0302 23.7598L18.0213 23.7619L18.5173 23.3746C18.5762 23.3136 18.5805 23.2855 18.573 23.2733C18.5555 23.2452 18.4573 23.2701 18.4563 23.2701L18.2632 23.3476L18.25 22.8509L18.25 22.8499C18.2431 22.826 18.2319 22.8138 18.217 22.8085C18.191 22.8011 18.1629 22.8207 18.1603 22.8239L18.1592 22.825C18.1225 22.8998 17.9958 23.2489 17.9947 23.2531L17.9943 23.2542L17.8001 23.1465C17.7365 23.1062 17.7105 23.1083 17.7004 23.1168" fill="#ffc937" fill-rule="nonzero" opacity="1" stroke="none"/>
<path d="M15.7381 23.3867L15.7449 23.3879C15.7635 23.3879 15.7975 23.3941 15.8198 23.4075L15.824 23.4106L15.8252 23.4043C15.8283 23.3794 15.8373 23.2966 15.841 23.2716L15.8426 23.2573L15.8346 23.2695C15.8192 23.2923 15.7906 23.3316 15.7428 23.3804L15.7381 23.3867Z" fill="#ffc937" fill-rule="nonzero" opacity="1" stroke="none"/>
<path d="M15.5815 22.5745L15.5827 22.5756L15.5853 22.5756C15.6781 22.5756 15.7386 22.5994 15.7636 22.6494C15.8193 22.7571 15.6972 22.9448 15.6723 22.9809L15.6686 22.9862L15.6744 22.9862C15.6814 22.9873 15.6866 22.9885 15.6935 22.9904C15.6972 22.9904 15.7005 22.9916 15.7047 22.9926C15.709 22.9937 15.7137 22.9949 15.718 22.9958C15.8054 23.0166 15.8484 23.0744 15.8564 23.086L15.8611 23.0934L15.9513 22.2823L16.0585 23.2823L16.0585 23.2897L16.0638 23.2865C16.1106 23.2409 16.1619 23.2234 16.1821 23.217L16.1874 23.2149L16.1838 23.2106C16.0861 23.0976 16.0511 23.0031 16.0792 22.9358C16.1132 22.853 16.2341 22.8302 16.2707 22.826L16.2771 22.8249L16.2728 22.8206C16.1455 22.6902 16.1694 22.5283 16.1789 22.4817L16.1794 22.4774L16.0059 22.5124L16.2064 22.2853C16.4382 22.078 16.4356 22.0015 16.433 21.9888L16.433 21.9866L16.4308 21.9866C16.4228 21.9844 16.4127 21.9824 16.4032 21.9824C16.3003 21.9824 16.1416 22.1075 16.1348 22.1118L16.1344 22.1129L16.1332 22.1118C16.102 22.0704 16.0786 21.9368 16.0786 21.9356C16.0706 21.8031 16.043 21.6789 16.0393 21.6641L16.0393 21.6629C16.0218 21.6247 16.0033 21.6062 15.9836 21.6062C15.9545 21.6072 15.9327 21.6518 15.9285 21.6614L15.894 21.8874C15.8765 21.9818 15.8398 22.0996 15.8362 22.1124L15.8357 22.1134L15.8342 22.1124C15.6097 21.9526 15.544 21.9828 15.537 21.9861L15.5366 21.9871L15.5366 21.9871C15.5139 22.0338 15.6343 22.1696 15.6358 22.1707L15.8959 22.5076L15.8905 22.5054C15.7951 22.4693 15.6136 22.412 15.6115 22.412C15.4809 22.386 15.4459 22.4009 15.4386 22.4174C15.4226 22.4545 15.5366 22.5425 15.5817 22.5744" fill="#ffc937" fill-rule="nonzero" opacity="1" stroke="none"/>
<path d="M14.2813 22.6753L14.2924 22.6838L14.2797 22.6796C14.2775 22.6784 13.9942 22.5655 13.8351 22.5437L13.8271 22.5427L13.8314 22.549C13.8573 22.5872 13.9433 22.7209 13.9624 22.8652L13.9624 22.8705L13.9666 22.8684C14.0059 22.8487 14.207 22.7563 14.2955 22.836C14.3545 22.889 14.3491 23.0089 14.278 23.1925L14.2765 23.1978L14.2813 23.1978C14.2828 23.1978 14.2861 23.1978 14.2892 23.1978L14.2897 23.1978C14.3279 23.1978 14.4223 23.203 14.4711 23.2609C14.5004 23.2938 14.5094 23.3404 14.4982 23.3999L14.4967 23.4074L14.503 23.4031C14.5189 23.3925 14.5423 23.3803 14.564 23.376L14.5699 23.375L14.5661 23.3708C14.5344 23.3357 14.4336 23.2142 14.4653 23.1128C14.4839 23.0519 14.5455 23.0105 14.65 22.9888L14.6548 22.9876L14.6155 22.9324L14.6151 22.9324L14.3631 22.9664L14.5525 22.7978L14.554 22.7945L14.5535 22.7935C14.5488 22.777 14.5275 22.6911 14.5748 22.6316C14.6135 22.5839 14.6857 22.5674 14.7886 22.5786L14.7901 22.5786L14.7912 22.5765C14.8087 22.56 14.8347 22.5265 14.8252 22.508C14.8188 22.4969 14.7949 22.4852 14.7164 22.5027C14.7074 22.5048 14.4607 22.5897 14.3296 22.682L14.3222 22.6873L14.6554 22.2157C14.6708 22.1844 14.7079 22.1038 14.693 22.0894L14.6926 22.0883C14.6847 22.084 14.605 22.0602 14.4099 22.2438L14.4084 22.246L14.4079 22.2438C14.4005 22.2273 14.3326 22.0883 14.3055 21.9461C14.3055 21.944 14.279 21.8092 14.2557 21.7711L14.2553 21.7711C14.2515 21.7679 14.2324 21.7525 14.2102 21.7525C14.2086 21.7525 14.2064 21.7525 14.2038 21.7525C14.1889 21.7557 14.1757 21.7636 14.1651 21.7806L14.1646 21.7828C14.1624 21.8078 14.1497 21.9361 14.1487 22.0645C14.1487 22.0799 14.1497 22.2231 14.1131 22.2746L14.1121 22.2746L14.1109 22.2746C14.1099 22.2735 13.9741 22.1733 13.8271 22.1733L13.8249 22.1733C13.8191 22.1733 13.8086 22.1743 13.8037 22.1828C13.799 22.1903 13.8011 22.2035 13.8107 22.22C13.8176 22.2316 13.9947 22.4772 14.2818 22.6752" fill="#ffc937" fill-rule="nonzero" opacity="1" stroke="none"/>
<path d="M13.6945 23.8615L13.6866 23.8615C13.6462 23.8615 13.5046 23.8658 13.3603 23.9125L13.3523 23.9156L13.3603 23.9189C13.4245 23.9501 13.5056 23.9995 13.5147 24.0048L13.5161 24.007L13.5177 24.0048C13.6026 23.947 13.6721 23.93 13.723 23.9592C13.8302 24.0192 13.8254 24.2525 13.8232 24.2993L13.8232 24.3035L13.8275 24.3024C13.9188 24.27 13.9909 24.2754 14.036 24.3157C14.1172 24.3883 14.0928 24.5486 14.0838 24.5963L14.0834 24.6016L14.0881 24.6005C14.104 24.5983 14.1194 24.5974 14.1342 24.5974L14.1354 24.5974L14.3794 24.383L14.3809 24.3809L14.3805 24.3787C14.3762 24.3665 14.3645 24.322 14.3874 24.2763C14.406 24.2413 14.4404 24.2153 14.4924 24.2004L14.4988 24.1983L14.4934 24.194C14.4738 24.1796 14.4393 24.1494 14.4224 24.1171L14.4213 24.1149L13.9995 24.2353L14.3783 23.9159L14.3799 23.9137L14.3794 23.9116C14.3757 23.8983 14.3624 23.8278 14.4776 23.7737L14.4802 23.7726L14.4791 23.7694C14.4776 23.7662 14.4738 23.762 14.4695 23.7588C14.4532 23.7476 14.4048 23.7339 14.2669 23.771L13.8849 23.8723L14.2138 23.5668L14.2144 23.5656C14.2158 23.5635 14.2206 23.5582 14.2345 23.5429C14.2912 23.4776 14.3559 23.4006 14.3454 23.3689L14.3449 23.3667C14.3406 23.3624 14.312 23.3407 14.1794 23.3969L13.8595 23.5619L14.1024 23.1751C14.1036 23.1729 14.2017 23.0133 14.18 22.9677L14.1795 22.9666L14.178 22.9656C14.171 22.9623 14.1287 22.9502 14.0114 23.0414L13.9074 23.1427L13.9063 23.1417C13.8978 23.1294 13.8251 23.0069 13.8076 22.9242C13.8024 22.9045 13.7535 22.7316 13.7179 22.67L13.7175 22.67L13.7165 22.67C13.7074 22.669 13.6639 22.6605 13.6358 22.6854L13.6348 22.6865L13.6348 22.6887C13.6326 22.7147 13.6204 22.8584 13.639 22.9985C13.639 22.9996 13.648 23.1385 13.6157 23.1932L13.6141 23.1958L13.6126 23.1948C13.5887 23.1814 13.3734 23.0695 13.3002 23.121L13.2986 23.1221L13.2986 23.1232C13.2982 23.1385 13.304 23.2235 13.5378 23.3625L13.7989 23.5518L13.4646 23.5195L13.4632 23.5195C13.417 23.5163 13.3072 23.5131 13.2907 23.5507C13.2838 23.5672 13.2961 23.589 13.3279 23.6192L13.6945 23.8615Z" fill="#ffc937" fill-rule="nonzero" opacity="1" stroke="none"/>
<path d="M18.8331 24.4292C18.8331 24.4239 18.8305 24.4197 18.8283 24.418L18.8279 24.418L18.8279 24.418C18.8275 24.4149 18.8257 24.4107 18.8237 24.4085L18.8252 24.4064C18.8247 24.4064 18.8237 24.4042 18.8215 24.4021L18.8199 24.4053C18.7738 24.3565 18.5436 24.3968 18.533 24.3989L18.5302 24.4L18.657 23.9326C18.6634 23.9066 18.6619 23.8891 18.6528 23.8828C18.6433 23.8743 18.6253 23.8785 18.6109 23.887C18.5127 23.9677 18.3144 24.2806 18.3122 24.2839L18.3118 24.287L18.2243 24.146C18.1919 24.0891 18.1606 24.0796 18.1447 24.0796C18.1383 24.0796 18.1336 24.0807 18.1325 24.0807C18.0921 24.1003 18.1192 24.2393 18.1197 24.2403L18.1893 24.6754L17.9813 24.4632C17.9325 24.4261 17.8964 24.4123 17.8784 24.4261C17.8465 24.4457 17.8683 24.5327 17.8709 24.5412L18.0343 24.9608L17.785 24.7826C17.7203 24.7476 17.6768 24.7401 17.655 24.7608C17.6104 24.8022 17.6699 24.9486 17.6831 24.9783L17.9124 25.373L17.5727 25.1338C17.5224 25.0966 17.4953 25.0987 17.4837 25.1015C17.4704 25.1056 17.4657 25.1147 17.4645 25.1168L17.4645 25.1179C17.4253 25.1625 17.4916 25.2994 17.4922 25.3004L17.6572 25.7243L17.3642 25.4819L17.3632 25.4807C17.3356 25.4712 17.3134 25.4712 17.2979 25.4861C17.2571 25.5199 17.2746 25.6261 17.2768 25.6393L17.5356 26.0686L17.2109 25.8574C17.1642 25.8245 17.1335 25.8128 17.1191 25.8245C17.0964 25.8431 17.1218 25.9189 17.1387 25.9571L17.3876 26.3486L17.0289 26.1321C17.0088 26.1226 16.9923 26.1226 16.9796 26.129C16.9574 26.1434 16.9552 26.1789 16.9547 26.1842C16.9239 26.3035 17.003 26.4617 17.0189 26.494L17.02 26.495L17.0337 26.4993L17.0342 26.4993C17.187 26.4839 17.2448 26.4702 17.2517 26.4681C17.6247 26.345 17.8151 26.3625 17.9095 26.4007L17.9106 26.4007L17.9111 26.4007C18.0856 26.3486 18.1212 26.3094 18.1207 26.2856C18.1195 26.2473 18.0341 26.2266 18.0305 26.2256C17.8098 26.1689 17.6617 26.1269 17.6542 26.1211L17.6511 26.1189L17.6542 26.1178C17.8124 26.0971 18.1747 26.0176 18.179 26.0165C18.2283 25.9937 18.2532 25.9708 18.2511 25.9502C18.2479 25.9109 18.1545 25.8881 18.1535 25.8881L17.6532 25.8032L18.293 25.6802C18.388 25.6462 18.4368 25.6117 18.4378 25.5746C18.4394 25.5269 18.3636 25.4918 18.363 25.4918L17.9911 25.3687L18.4883 25.2918C18.5514 25.2712 18.5827 25.2504 18.5842 25.2255C18.587 25.1874 18.5174 25.1539 18.5159 25.1539L18.1228 25.008L18.6399 24.8897C18.6793 24.8753 18.7249 24.8526 18.7233 24.8286C18.7211 24.7936 18.6283 24.7709 18.6273 24.7709L18.2702 24.7141L18.6978 24.5337C18.8141 24.4737 18.8326 24.4419 18.8331 24.4291" fill="#ffc937" fill-rule="nonzero" opacity="1" stroke="none"/>
<path d="M16.4315 26.3597L16.4256 26.362L16.4309 26.3661C16.4733 26.3986 16.5004 26.4336 16.51 26.4479L16.5122 26.4511L16.5144 26.4479C16.5673 26.3937 16.5897 26.3556 16.5791 26.3402C16.561 26.3132 16.4528 26.3524 16.4315 26.3599" fill="#ffc937" fill-rule="nonzero" opacity="1" stroke="none"/>
<path d="M16.5757 25.9921C16.5646 25.9672 16.5052 25.9725 16.4877 25.9736L15.9815 26.0419L15.9906 26.0388C16.2978 25.8988 16.5386 25.6966 16.5418 25.695C16.5736 25.6558 16.5859 25.6287 16.5779 25.6133C16.5684 25.5947 16.5307 25.5958 16.511 25.5968L16.5063 25.598C16.5009 25.598 16.4973 25.598 16.4952 25.5968L16.4947 25.5968L15.8406 25.7566L16.3239 25.4642C16.5933 25.314 16.5765 25.2064 16.5759 25.2021C16.5744 25.191 16.5685 25.1836 16.5584 25.1761C16.5229 25.1513 16.4406 25.1688 16.4157 25.173L15.9721 25.2287L16.4968 24.9157L16.4973 24.9135C16.5339 24.8785 16.5482 24.8493 16.5397 24.8307C16.5291 24.8068 16.4867 24.8026 16.4622 24.8026C16.4601 24.8026 16.4575 24.8026 16.4559 24.8026L15.9291 24.8429L16.2639 24.6418C16.4565 24.5214 16.4931 24.4593 16.4978 24.4323C16.4994 24.4212 16.4957 24.4158 16.4952 24.4158C16.4305 24.3421 15.9492 24.5485 15.944 24.5516L15.9371 24.5549L15.9407 24.5516L16.2655 24.2222C16.3928 24.0928 16.4092 24.0317 16.4081 24.0069C16.4071 23.9946 16.4034 23.9904 16.4018 23.9894L16.4014 23.9882C16.394 23.983 16.3839 23.9819 16.3727 23.9819C16.2899 23.9819 16.1186 24.0928 16.0979 24.1049L16.0958 24.1081L16.0108 23.7092C15.9986 23.6296 15.9796 23.5829 15.9551 23.5702C15.9504 23.568 15.944 23.5659 15.9381 23.568L15.9381 23.568L15.936 23.5691L15.9349 23.5691C15.8802 23.5691 15.859 23.8853 15.859 23.8911C15.8511 23.966 15.806 24.0985 15.8018 24.1129L15.8006 24.1161L15.7992 24.115C15.6018 23.9542 15.511 23.9845 15.501 23.9887L15.4999 23.9887L15.4995 23.9898C15.4851 24.0137 15.5387 24.0965 15.5604 24.1267L15.9254 24.5452L15.5536 24.4137C15.422 24.3835 15.4045 24.4159 15.4045 24.4159C15.3923 24.4408 15.4416 24.4944 15.4618 24.5135L15.8708 24.8398L15.8645 24.8387C15.4225 24.7464 15.3573 24.8106 15.3562 24.8117C15.316 24.8769 15.4263 24.9517 15.4273 24.9527L15.9446 25.2386L15.9441 25.2386L15.9457 25.2386L16.0072 25.2726L15.457 25.1835C15.3404 25.1639 15.3324 25.1835 15.3276 25.1957C15.3272 25.1978 15.3261 25.1999 15.3255 25.202L15.3243 25.2032L15.3243 25.2032C15.3153 25.2716 15.4071 25.339 15.4109 25.3411L15.8564 25.6955L15.5429 25.6043C15.4851 25.5888 15.4548 25.5857 15.4506 25.5847L15.4411 25.5847C15.3764 25.5847 15.3392 25.5968 15.3302 25.6207C15.3122 25.6706 15.405 25.7502 15.4161 25.7597L15.9466 26.0912L15.4161 25.9936C15.3923 25.984 15.3715 25.9804 15.3552 25.9804C15.3323 25.9804 15.3233 25.9899 15.3212 25.9925C15.3053 26.0122 15.3535 26.0621 15.3816 26.0848L15.8267 26.3379L15.8294 26.3401L15.8309 26.3379C15.9572 26.1454 16.2225 26.2531 16.2336 26.2583L16.2346 26.2595L16.2358 26.2583C16.4135 26.1788 16.5297 26.0727 16.5307 26.0716C16.5541 26.0456 16.5848 26.0116 16.5758 25.992" fill="#ffc937" fill-rule="nonzero" opacity="1" stroke="none"/>
<path d="M15.3657 26.3264C15.3461 26.3264 15.3322 26.3306 15.3264 26.3396C15.319 26.3492 15.3195 26.3613 15.3269 26.381L15.3283 26.3852L15.3316 26.382C15.3496 26.3634 15.3692 26.3481 15.3894 26.3343L15.3973 26.329L15.3888 26.3279C15.3803 26.3283 15.3724 26.3264 15.3655 26.3264" fill="#ffc937" fill-rule="nonzero" opacity="1" stroke="none"/>
<path d="M14.7831 25.7772C14.7682 25.7661 14.738 25.7805 14.694 25.8176L14.3645 26.0765L14.6112 25.6059L14.6112 25.6037C14.6134 25.5852 14.6208 25.4833 14.5789 25.4535C14.5625 25.4414 14.5406 25.4414 14.5136 25.4535L14.1433 25.8929L14.372 25.2828C14.3772 25.2695 14.4261 25.139 14.3864 25.0992L14.3852 25.0992C14.3848 25.0949 14.3789 25.0859 14.3651 25.0828C14.3507 25.0795 14.3247 25.0828 14.2785 25.1231L13.972 25.3522L14.1571 24.9751C14.1603 24.9676 14.2239 24.8075 14.1741 24.7629C14.1512 24.7433 14.1061 24.7523 14.0398 24.791L13.7952 24.9836L13.938 24.5544C13.9396 24.5448 13.955 24.4567 13.9215 24.4392C13.9019 24.4281 13.8679 24.4435 13.8207 24.4859L13.6059 24.748L13.6669 24.2732C13.6669 24.271 13.6812 24.1252 13.6425 24.1045L13.6414 24.1023L13.6399 24.1045C13.6304 24.1087 13.5832 24.1304 13.5549 24.1873L13.4781 24.3332L13.477 24.3299C13.4754 24.3277 13.2536 24.0307 13.1491 23.958L13.1487 23.958C13.1354 23.9517 13.1174 23.9474 13.1073 23.9559C13.0988 23.9644 13.0988 23.9808 13.1073 24.0068L13.2686 24.4625L13.2654 24.4625C13.215 24.4562 12.9662 24.4354 12.9566 24.4986L12.9555 24.5008C12.9551 24.503 12.9551 24.505 12.9555 24.5093C12.9598 24.5268 12.9911 24.5559 13.1115 24.6058L13.6107 24.7809L13.1985 24.8366C13.1885 24.8387 13.1014 24.8658 13.1014 24.8987C13.1014 24.9119 13.1174 24.9336 13.1964 24.9565L13.7471 25.0175L13.3386 25.2101C13.3375 25.2101 13.2697 25.2424 13.2728 25.2785C13.275 25.3045 13.3089 25.3262 13.3783 25.3459L14.0129 25.3852L13.5163 25.5363C13.4956 25.5437 13.4293 25.5713 13.4293 25.609C13.4293 25.6461 13.4871 25.6827 13.6017 25.7188L14.0723 25.7819L13.754 25.9167C13.7296 25.9242 13.6494 25.9497 13.6489 25.984C13.6485 26.0059 13.6791 26.0276 13.7402 26.0483L13.7434 26.0483C13.8691 26.0616 14.1752 26.0961 14.3078 26.1051L14.3111 26.1051L14.3084 26.1061C14.3047 26.1093 14.2675 26.1247 13.9917 26.2139L13.9773 26.2203L13.9922 26.2213C14.0018 26.2235 14.0118 26.2244 14.0198 26.2255L14.0202 26.2255C14.1168 26.2515 14.2903 26.2855 14.5365 26.329L14.5385 26.329L14.772 25.9082C14.7842 25.878 14.8076 25.7947 14.7831 25.7772" fill="#ffc937" fill-rule="nonzero" opacity="1" stroke="none"/>
<path d="M15.1545 25.1773C15.1625 25.1194 15.2033 25.0696 15.2749 25.0335L15.2776 25.0313L15.2754 25.0281C15.2557 25 15.1598 24.8583 15.198 24.7485C15.2176 24.6933 15.2669 24.6552 15.3459 24.6323L15.3513 24.6302L15.3475 24.6259C15.3263 24.6042 15.2557 24.5294 15.2452 24.4663L15.2447 24.463L15.0267 24.5108L15.2373 24.3671L15.2383 24.366L15.2383 24.3648C15.2426 24.3537 15.2824 24.2486 15.4299 24.2396L15.4363 24.2396L15.4321 24.2344C15.4023 24.1993 15.3084 24.0715 15.3461 23.9431L15.3472 23.9389L15.2453 23.9389L15.4187 23.8354C15.4294 23.8258 15.4406 23.8189 15.4511 23.8104L15.4522 23.8116L15.4511 23.8104C15.4612 23.802 15.4708 23.7941 15.4819 23.7877L15.6666 23.6864L15.667 23.6864C15.6903 23.6688 15.7688 23.6094 15.7572 23.5722C15.7498 23.5516 15.7121 23.542 15.6436 23.5441L15.1518 23.5835L15.1572 23.5813C15.1608 23.578 15.5837 23.3202 15.6351 23.2603C15.6511 23.2438 15.7009 23.1876 15.6861 23.1606C15.6792 23.1462 15.6537 23.1367 15.5714 23.1542C15.5503 23.1616 15.442 23.1945 15.3757 23.2248L15.1725 23.315L15.5518 22.8714C15.5555 22.8672 15.6341 22.768 15.6102 22.7356C15.6001 22.7234 15.5694 22.7149 15.4771 22.7541C15.4766 22.7541 15.3709 22.7913 15.3115 22.8587L15.31 22.8608L15.3089 22.8587C15.3067 22.8523 15.2553 22.7292 15.2378 22.5314C15.2378 22.526 15.2288 22.403 15.2002 22.3616L15.1991 22.3616L15.198 22.3616C15.1884 22.3584 15.1407 22.3494 15.1185 22.3616L15.1173 22.3616L15.1173 22.3648C15.1099 22.3997 15.086 22.5244 15.0755 22.6486C15.0727 22.6651 15.05 22.8093 15.0107 22.8587L15.0096 22.8598L15.0085 22.8587C15.0016 22.8523 14.8451 22.7271 14.7406 22.7271C14.73 22.7271 14.7204 22.7293 14.7114 22.7324L14.7099 22.7324L14.7095 22.7345C14.7047 22.7489 14.6957 22.8322 14.9333 23.0348L15.153 23.2847L14.7599 23.1574C14.7588 23.1574 14.6235 23.1245 14.606 23.1616C14.598 23.177 14.6092 23.2105 14.7068 23.2889L15.0384 23.5469L14.6957 23.5198C14.684 23.5208 14.5795 23.5261 14.5652 23.575C14.5541 23.6121 14.5933 23.663 14.6825 23.7272L15.24 24.0099L14.6761 23.9341C14.675 23.9341 14.5567 23.9166 14.5381 23.958C14.5265 23.9818 14.5519 24.0211 14.6129 24.0763L14.7869 24.2025C14.8214 24.2285 14.9418 24.3176 15.0065 24.3776L15.0098 24.3808L14.6835 24.3298L14.6782 24.3298C14.6485 24.3298 14.5492 24.3341 14.535 24.3766C14.5238 24.4089 14.5577 24.4514 14.6394 24.5092L15.1339 24.7973L14.6257 24.7267C14.623 24.7267 14.6193 24.7267 14.6156 24.7267C14.6018 24.7267 14.5328 24.7277 14.5249 24.7538C14.5206 24.7681 14.5307 24.793 14.6018 24.8376L15.0724 25.1134L14.5418 25.0688L14.5366 25.0678L14.5376 25.0731C14.5599 25.159 14.5403 25.2567 14.5339 25.2832L14.5324 25.2885L14.5377 25.2874C14.596 25.2779 14.6427 25.2906 14.6783 25.3224C14.761 25.3998 14.7515 25.5723 14.7483 25.6063L14.7483 25.6094L14.7558 25.6094C14.7584 25.6094 14.7605 25.6094 14.7632 25.6094C14.8194 25.6094 14.8629 25.6269 14.8926 25.6614C14.9568 25.7383 14.9334 25.8757 14.9277 25.9028L14.9271 25.9071L14.9309 25.9071C14.9967 25.9134 15.0477 25.9394 15.0815 25.9866C15.1702 26.1059 15.1304 26.3293 15.1091 26.4195L15.1087 26.4227L15.1713 26.4338L15.1698 26.4285C15.1624 26.4046 15.1395 26.3229 15.1687 26.2577C15.1831 26.2248 15.2091 26.201 15.2452 26.1861L15.2488 26.1839L15.2462 26.1807C15.2287 26.1579 15.1427 26.0417 15.164 25.9436C15.174 25.899 15.2048 25.864 15.2547 25.8391L15.2584 25.8369L15.2562 25.8338C15.2366 25.8067 15.1416 25.6629 15.175 25.5552C15.1888 25.5085 15.2254 25.4745 15.2827 25.4539L15.2875 25.4506L15.2838 25.4475C15.2584 25.4235 15.1379 25.2962 15.1548 25.1769" fill="#ffc937" fill-rule="nonzero" opacity="1" stroke="none"/>
<path d="M17.2564 22.4148L17.2575 22.4159L17.2586 22.4159C17.2682 22.417 17.353 22.4244 17.3875 22.4918C17.4236 22.5634 17.3938 22.6721 17.2984 22.818L17.2952 22.8223L17.301 22.8244C17.336 22.8298 17.4533 22.8537 17.4852 22.9364C17.5121 23.008 17.4734 23.1019 17.369 23.217L17.3652 23.2223L17.3711 23.2223C17.4023 23.2277 17.4852 23.2494 17.5747 23.3375L17.5886 23.3507L17.5806 23.3332C17.5461 23.2616 17.5021 23.1179 17.5981 22.9746L17.5985 22.9746L17.5985 22.9746C17.7752 22.9406 17.8728 23.0117 17.8978 23.0324L17.9025 23.0377L17.9184 22.9581L17.9153 22.9571C17.7757 22.9157 17.6749 22.929 17.6277 22.9396L17.623 22.9406L17.6256 22.9363C17.6516 22.9072 17.6839 22.8785 17.7211 22.8525L17.9407 22.6939C17.9524 22.6817 17.9896 22.6419 17.979 22.618C17.9693 22.5963 17.9269 22.5952 17.8924 22.5995L17.4591 22.6865L17.8898 22.3008C17.9009 22.2886 17.9577 22.2233 17.9396 22.1942C17.9322 22.182 17.9063 22.1725 17.8235 22.1952C17.823 22.1952 17.7444 22.2276 17.6436 22.2887L17.6414 22.2897L17.5921 21.8144C17.5906 21.8059 17.5788 21.7667 17.5518 21.7603C17.5327 21.7571 17.5104 21.7714 17.486 21.8027L17.3412 22.2472L17.3391 22.2462C17.3353 22.2398 17.2376 22.1279 17.1151 22.0971C17.103 22.0918 17.07 22.0807 17.0589 22.0939C17.0472 22.1072 17.0589 22.1364 17.0716 22.1603C17.0806 22.1777 17.1581 22.33 17.2563 22.4148" fill="#ffc937" fill-rule="nonzero" opacity="1" stroke="none"/>
<path d="M17.5169 24.9247C17.5164 24.9216 17.5147 24.9173 17.5137 24.9126L17.5133 24.9093L16.8055 25.0049L17.3 24.7146C17.4066 24.6329 17.4194 24.5932 17.4114 24.5724C17.3981 24.5396 17.3176 24.5433 17.2931 24.5454L16.8258 24.6223L17.3164 24.3247C17.4056 24.2509 17.4162 24.2192 17.4093 24.2043C17.3976 24.1804 17.3266 24.1911 17.3006 24.1958L16.6724 24.3189L17.2591 23.9656C17.3738 23.8711 17.4231 23.8048 17.4071 23.7708C17.3891 23.7316 17.2947 23.7427 17.2751 23.7459L16.8947 23.8027L17.3069 23.5135C17.3599 23.4711 17.3823 23.4387 17.3743 23.416C17.3637 23.3867 17.3021 23.3836 17.2761 23.3836C17.2747 23.3836 17.2735 23.3836 17.273 23.3836L16.8029 23.4175L17.221 23.1315C17.3016 23.0695 17.3382 23.026 17.3282 23.0031C17.3133 22.9708 17.196 22.992 17.1514 23.0031L16.7859 23.1533L17.1547 22.7252C17.2316 22.6456 17.2645 22.5925 17.2506 22.5729C17.2465 22.5666 17.2374 22.5623 17.2236 22.5623C17.1838 22.5623 17.1058 22.5904 17.0496 22.6164L16.9356 22.6971L16.8305 22.2254C16.8157 22.1952 16.7997 22.1808 16.7849 22.1808L16.7849 22.1808L16.7817 22.1808L16.7817 22.1808C16.7541 22.1851 16.7361 22.2297 16.7356 22.2318L16.6411 22.6742L16.4629 22.5925C16.3791 22.5613 16.3515 22.5687 16.3425 22.5793C16.3239 22.6064 16.3758 22.678 16.3976 22.7034L16.7281 23.1188L16.4835 23.0186C16.3477 22.9708 16.2698 22.9629 16.2512 22.9894C16.232 23.0207 16.2889 23.0848 16.301 23.0982L16.6766 23.4297L16.6708 23.4297C16.3721 23.3709 16.2092 23.3666 16.1896 23.4175C16.1683 23.4695 16.3159 23.5634 16.318 23.5645L16.7965 23.8176L16.1881 23.7449L16.1832 23.7449L16.2002 23.8578L16.2039 23.8578C16.3891 23.808 16.5052 23.8154 16.5503 23.8796C16.5806 23.922 16.5769 23.9905 16.5403 24.0828L16.6766 24.1698L16.5 24.1592C16.4889 24.1809 16.4756 24.2027 16.458 24.2329L16.4549 24.2372L16.4601 24.2383C16.5514 24.2526 16.6124 24.2828 16.6384 24.3295L16.6352 24.3317L16.6395 24.3295C16.6432 24.338 16.6464 24.3449 16.649 24.3524C16.6622 24.3937 16.6537 24.4447 16.6225 24.5056C16.6225 24.5056 16.6129 24.52 16.5991 24.5396L16.7344 24.6351L16.553 24.6022C16.545 24.6133 16.5371 24.6239 16.5275 24.6372L16.5233 24.6404L16.5291 24.6426C16.6235 24.6622 16.6813 24.7025 16.7009 24.7619C16.7365 24.8654 16.639 24.9948 16.6192 25.0187L16.6166 25.023L16.6204 25.0251C16.6931 25.0591 16.7344 25.1068 16.7429 25.1642C16.7625 25.2846 16.6336 25.4199 16.6076 25.4458L16.6034 25.4501L16.6093 25.4511C16.6808 25.4686 16.7249 25.5011 16.7413 25.5477C16.7764 25.6544 16.6601 25.7998 16.6369 25.8274L16.6341 25.8305L16.6384 25.8327C16.6995 25.8523 16.7366 25.8846 16.7483 25.9281C16.7748 26.0295 16.6629 26.1606 16.64 26.1849L16.6369 26.1882L16.6416 26.1903C16.6856 26.2046 16.7153 26.2296 16.7297 26.2662C16.7642 26.35 16.7079 26.4694 16.682 26.5171L16.6792 26.5224L16.6856 26.5224C16.7419 26.5192 16.7949 26.516 16.8437 26.5129L16.848 26.5117L16.8469 26.5086C16.823 26.4369 16.7514 26.1935 16.8347 26.0577C16.866 26.0067 16.9143 25.976 16.98 25.9654L16.9838 25.9642L16.9827 25.96C16.9752 25.934 16.9424 25.7982 17.0002 25.7165C17.0283 25.6783 17.0739 25.6565 17.1355 25.6544L17.1392 25.6544L17.1387 25.6502C17.1335 25.6173 17.1111 25.4469 17.1876 25.3631C17.2178 25.334 17.2576 25.3186 17.3075 25.3186C17.3133 25.3186 17.3191 25.3186 17.3271 25.3186L17.3324 25.3186L17.3303 25.3133C17.3207 25.2831 17.2751 25.1308 17.3393 25.0274C17.3726 24.9722 17.4321 24.9393 17.5148 24.9287L17.5191 24.9287L17.5169 24.9247Z" fill="#ffc937" fill-rule="nonzero" opacity="1" stroke="none"/>
</g>
<g opacity="1">
<path d="M70.1596 24.9015C71.2445 24.9015 71.8269 24.2755 71.8269 21.8388C71.8269 19.4021 71.2445 18.7767 70.1596 18.7767C69.0778 18.7767 68.4942 19.4021 68.4942 21.8388C68.4942 24.2755 68.9107 24.9015 70.1596 24.9015M69.8683 32.7351C72.0349 32.7351 73.4526 31.6524 73.4526 30.5696C73.4526 29.777 73.0981 29.3606 71.5346 29.3192L67.6189 29.2364C67.1196 29.5266 66.8688 30.1526 66.8688 30.7564C66.8688 31.6948 67.994 32.7351 69.8683 32.7351M74.3692 19.234L72.7873 19.234L72.7873 19.2759C73.5353 19.7963 73.9104 20.8595 73.9104 21.8388C73.9104 23.8177 72.3697 25.3609 70.202 25.3609C68.2439 25.3609 67.9122 24.6108 67.6189 24.6108C66.9929 24.6108 66.1605 25.2357 66.1605 25.9424C66.1605 29.1308 74.5777 25.2357 74.5777 29.8396C74.5777 31.5267 72.7873 33.1936 70.0354 33.1936C66.909 33.1936 65.5361 31.8195 65.5361 30.6953C65.5361 29.9234 66.308 29.3398 66.8693 29.1526L66.8693 29.1112C65.6189 28.8189 65.0363 27.8607 65.0363 26.7779C65.0363 25.2559 66.0353 24.4644 67.2025 24.1525C66.7653 23.6739 66.4094 22.799 66.4094 21.7349C66.4094 19.7348 68.0364 18.3199 70.1596 18.3199C70.7023 18.3199 71.4111 18.4435 71.8063 18.6515L74.3698 18.6515L74.3698 19.234L74.3692 19.234Z" fill="#000000" fill-rule="nonzero" opacity="1" stroke="none"/>
<g opacity="1">
<path d="M36.5565 3.74547L36.5565 4.04999L35.5602 4.04999L35.5602 11.0077C35.5602 12.6969 36.5145 13.2359 37.3857 13.2359C38.7008 13.2359 39.6277 12.3515 39.6277 10.9107L39.6277 4.04999L38.383 4.04999L38.383 3.74548L40.8452 3.74548L40.8452 4.04999L40.0144 4.04999L40.0144 10.925C40.0144 12.5303 38.9496 13.5405 37.331 13.5405C35.089 13.5405 34.0657 12.5994 34.0657 10.6894L34.0657 4.04999L33.237 4.04999L33.237 3.74548L36.5565 3.74547Z" fill="#000000" fill-rule="nonzero" opacity="1" stroke="none"/>
<path d="M40.8865 6.2925L42.823 6.2925L42.823 7.23201L42.8501 7.23201C43.1826 6.63628 43.8315 6.06915 44.8007 6.06915C45.8941 6.06915 46.6687 6.59595 46.6687 8.1037L46.6687 13.0142L47.4157 13.0142L47.4157 13.3187L44.5658 13.3187L44.5658 13.0142L45.3679 13.0142L45.3679 7.93767C45.3679 6.9132 45.0496 6.56677 44.4002 6.56677C43.6384 6.56677 42.9328 7.23201 42.9328 8.67029L42.9328 13.0142L43.736 13.0142L43.736 13.3187L40.8865 13.3187L40.8865 13.0142L41.633 13.0142L41.633 6.59596L40.8865 6.59596L40.8865 6.2925Z" fill="#000000" fill-rule="nonzero" opacity="1" stroke="none"/>
<path d="M48.9653 3.9407C49.4088 3.9407 49.7536 4.25743 49.7536 4.72799C49.7536 5.19962 49.4094 5.51634 48.9653 5.51634C48.5233 5.51634 48.1781 5.19962 48.1781 4.72799C48.1775 4.25743 48.5233 3.9407 48.9653 3.9407M49.6168 13.0147L50.28 13.0147L50.28 13.3181L47.6518 13.3181L47.6518 13.0147L48.3144 13.0147L48.3144 6.59542L47.6518 6.59542L47.6518 6.2925L49.6162 6.2925L49.6162 13.0147L49.6168 13.0147Z" fill="#000000" fill-rule="nonzero" opacity="1" stroke="none"/>
<path d="M51.7601 6.59595L53.5866 11.7691L53.6142 11.7691L55.4685 6.59595L54.3612 6.59595L54.3612 6.2925L56.4367 6.2925L56.4367 6.59595L55.8684 6.59595L53.4201 13.3744L52.8524 13.3744L50.3908 6.59595L49.8232 6.59595L49.8232 6.2925L52.8391 6.2925L52.8391 6.59595L51.7601 6.59595Z" fill="#000000" fill-rule="nonzero" opacity="1" stroke="none"/>
<path d="M60.1449 8.83684L60.1449 8.29627C60.1449 6.9132 59.6876 6.37419 58.9682 6.37419C58.1109 6.37419 57.5985 7.23201 57.4881 8.83632L60.1449 8.83632L60.1449 8.83684ZM57.4737 9.14027C57.46 9.27882 57.46 9.4178 57.46 9.55519C57.46 12.2264 58.1242 13.1531 59.1752 13.1531C60.3519 13.1531 61.1959 12.4056 61.3338 10.6894L61.6379 10.6894C61.5688 12.5994 60.4489 13.5405 59.0378 13.5405C57.2807 13.5405 56.0217 12.0179 56.0217 9.80555C56.0217 7.59071 57.3629 6.06915 58.9964 6.06915C60.5726 6.06915 61.5822 7.17736 61.5822 9.14027L57.4737 9.14027Z" fill="#000000" fill-rule="nonzero" opacity="1" stroke="none"/>
<path d="M62.6994 6.59596L61.9529 6.59596L61.9529 6.29196L63.9727 6.29196L63.9727 7.31476L64.0008 7.31476C64.2915 6.51213 64.7881 6.06915 65.6735 6.06915C66.0205 6.06915 66.4221 6.22194 66.6279 6.31796L66.6279 9.03109L66.3234 9.03109L65.839 7.60498C65.5892 6.87129 65.4512 6.5673 65.1201 6.5673C64.5525 6.5673 64.0003 7.59176 64.0003 8.83684L64.0003 13.0147L64.9128 13.0147L64.9128 13.3187L61.9524 13.3187L61.9524 13.0147L62.6989 13.0147L62.6989 6.59596L62.6994 6.59596Z" fill="#000000" fill-rule="nonzero" opacity="1" stroke="none"/>
<path d="M67.2539 10.4958C67.7521 12.8211 68.03 13.2359 69.2747 13.2359C70.3543 13.2359 71.1564 12.6826 71.1564 11.672C71.1564 10.3308 66.8677 10.621 66.8677 8.28358C66.8677 6.90047 67.9877 6.06915 69.5792 6.06915C70.3262 6.06915 71.0456 6.27711 71.5697 6.55457L71.5697 8.78167L71.184 8.78167C70.5883 6.73442 70.437 6.37473 69.4534 6.37473C68.5829 6.37473 67.7521 6.85696 67.7521 7.61987C67.7521 9.3621 72.0398 8.76793 72.0398 11.1892C72.0398 12.5994 70.8232 13.5405 69.1632 13.5405C68.4434 13.5405 67.5727 13.333 66.8672 12.9319L66.8672 10.4958L67.2539 10.4958Z" fill="#000000" fill-rule="nonzero" opacity="1" stroke="none"/>
<path d="M73.756 3.9407C74.1994 3.9407 74.5453 4.25743 74.5453 4.72799C74.5453 5.19962 74.1994 5.51634 73.756 5.51634C73.3145 5.51634 72.9676 5.19962 72.9676 4.72799C72.9676 4.25743 73.3145 3.9407 73.756 3.9407M74.4079 13.0147L75.0711 13.0147L75.0711 13.3181L72.4435 13.3181L72.4435 13.0147L73.1066 13.0147L73.1066 6.59542L72.4435 6.59542L72.4435 6.2925L74.4079 6.2925L74.4079 13.0147Z" fill="#000000" fill-rule="nonzero" opacity="1" stroke="none"/>
<path d="M75.1539 6.2925L76.0266 6.2925L76.0266 4.63038L77.3258 4.63038L77.3258 6.2925L78.9307 6.2925L78.9307 6.59595L77.3258 6.59595L77.3258 12.2953C77.3258 12.82 77.5475 13.0418 78.0728 13.0418C78.6665 13.0418 79.0134 12.6832 79.0134 11.6598L79.0134 10.5525L79.3179 10.5525L79.3179 11.5754C79.3179 13.0418 78.71 13.5405 77.5741 13.5405C76.5773 13.5405 76.0261 13.0142 76.0261 11.88L76.0261 6.59596L75.1533 6.59596L75.1533 6.2925L75.1539 6.2925Z" fill="#000000" fill-rule="nonzero" opacity="1" stroke="none"/>
<path d="M78.6272 6.2925L81.5864 6.2925L81.5864 6.59595L80.5492 6.59595L82.569 11.4232L84.23 6.59595L83.0258 6.59595L83.0258 6.2925L85.238 6.2925L85.238 6.59595L84.6173 6.59595L82.0852 13.8853C81.5588 15.4217 81.1307 15.7262 80.3424 15.7262C79.8326 15.7262 79.4856 15.6021 79.2908 15.3941L79.2908 13.2359L79.5944 13.2359L79.9684 14.5787C80.162 15.297 80.3827 15.4217 80.6044 15.4217C81.1588 15.4217 81.6013 14.4678 81.9329 13.2763L79.1529 6.59596L78.6277 6.59596L78.6277 6.2925L78.6272 6.2925Z" fill="#000000" fill-rule="nonzero" opacity="1" stroke="none"/>
<path d="M48.7277 21.5661L49.9568 21.5661C52.437 21.5661 53.6445 20.3613 53.6445 18.2971C53.6445 16.8381 52.9151 15.2758 50.6243 15.2758L48.7277 15.2758L48.7277 21.5661ZM45.2278 29.2359L45.2278 28.777L46.4782 28.777L46.4782 15.2758L45.2278 15.2758L45.2278 14.8169L51.2906 14.8169C54.7909 14.8169 56.0212 16.4859 56.0212 18.2976C56.0212 20.3189 54.436 21.7136 51.436 21.902L56.3952 28.777L57.416 28.777L57.416 29.2359L54.1034 29.2359L48.812 21.902L48.7271 21.902L48.7271 28.777L50.3112 28.777L50.3112 29.2359L45.2278 29.2359Z" fill="#000000" fill-rule="nonzero" opacity="1" stroke="none"/>
<path d="M62.6081 22.4855L62.6081 21.6733C62.6081 19.5884 61.9212 18.7767 60.8383 18.7767C59.5454 18.7767 58.7746 20.0695 58.6081 22.4855L62.6081 22.4855ZM58.5863 22.9434C58.5661 23.1519 58.5661 23.3598 58.5661 23.5673C58.5661 27.5896 59.5657 28.9854 61.1492 28.9854C62.9195 28.9854 64.1913 27.8602 64.3991 25.2771L64.8576 25.2771C64.753 28.1536 63.0654 29.569 60.9402 29.569C58.2945 29.569 56.3984 27.2772 56.3984 23.9429C56.3984 20.6118 58.4192 18.3193 60.8781 18.3193C63.2538 18.3193 64.7747 19.9847 64.7747 22.9439L58.5863 22.9439L58.5863 22.9434Z" fill="#000000" fill-rule="nonzero" opacity="1" stroke="none"/>
<path d="M77.0632 15.1092C77.7285 15.1092 78.2494 15.5888 78.2494 16.2976C78.2494 17.0064 77.7285 17.4854 77.0632 17.4854C76.3958 17.4854 75.8759 17.0069 75.8759 16.2976C75.8759 15.5888 76.3963 15.1092 77.0632 15.1092M78.0414 28.777L79.0436 28.777L79.0436 29.2359L75.0833 29.2359L75.0833 28.777L76.0844 28.777L76.0844 19.1109L75.0833 19.1109L75.0833 18.652L78.0414 18.652L78.0414 28.777Z" fill="#000000" fill-rule="nonzero" opacity="1" stroke="none"/>
<path d="M79.5524 18.652L82.4692 18.652L82.4692 20.069L82.5116 20.069C83.0119 19.1724 83.9891 18.3183 85.4491 18.3183C87.0948 18.3183 88.2603 19.1098 88.2603 21.3805L88.2603 28.7765L89.3867 28.7765L89.3867 29.2354L85.0947 29.2354L85.0947 28.7765L86.3028 28.7765L86.3028 21.13C86.3028 19.5884 85.8221 19.068 84.8449 19.068C83.699 19.068 82.6358 20.069 82.6358 22.2357L82.6358 28.777L83.8437 28.777L83.8437 29.2359L79.5519 29.2359L79.5519 28.777L80.676 28.777L80.676 19.1098L79.5519 19.1098L79.5519 18.652L79.5524 18.652Z" fill="#000000" fill-rule="nonzero" opacity="1" stroke="none"/>
<path d="M95.8028 23.3598C93.4494 24.4644 91.5119 23.6728 91.5119 26.6735C91.5119 28.2337 92.0955 28.8183 93.2001 28.8183C94.7635 28.777 95.8028 27.2353 95.8028 24.944L95.8028 23.3598ZM90.6784 22.4431L90.6784 19.068C91.7612 18.6303 92.7613 18.3183 93.8659 18.3183C96.4696 18.3183 97.6362 19.6939 97.6362 20.9847L97.6362 28.777L98.6363 28.777L98.6363 29.2359L95.8022 29.2359L95.8022 27.4029L95.7619 27.4029C95.2617 28.6943 94.0738 29.5674 92.5963 29.5674C90.7178 29.5674 89.4285 28.4858 89.4285 26.6735C89.4285 23.0272 93.7205 24.0893 95.8022 22.8176L95.8022 20.6303C95.8022 19.3162 95.0945 18.7762 93.991 18.7762C92.5321 18.7762 92.1374 19.5258 91.1352 22.4425L90.6784 22.4425L90.6784 22.4431Z" fill="#000000" fill-rule="nonzero" opacity="1" stroke="none"/>
<path d="M38.6085 24.0957C39.3906 24.0957 39.7964 23.5328 39.7964 21.5115C39.7964 19.4908 39.3906 18.9279 38.6085 18.9279C37.8281 18.9279 37.4218 19.4908 37.4218 21.5115C37.4218 23.5328 37.8281 24.0957 38.6085 24.0957M38.6085 18.6987C39.9003 18.6987 40.8797 19.8452 40.8797 21.5109C40.8797 23.1784 39.9003 24.3232 38.6085 24.3232C37.3172 24.3232 36.3379 23.1784 36.3379 21.5109C36.3379 19.8452 37.3172 18.6987 38.6085 18.6987" fill="#000000" fill-rule="nonzero" opacity="1" stroke="none"/>
<path d="M41.0871 18.8658L41.5874 18.8658L41.5874 18.2929C41.5874 17.3336 42.0871 16.7825 43.2336 16.7825C43.5466 16.7825 43.859 16.835 44.1503 16.9289L44.1503 18.3035L43.9206 18.3035C43.5461 17.115 43.3996 17.0116 43.0664 17.0116C42.8171 17.0116 42.5673 17.1771 42.5673 17.6986L42.5673 18.8652L43.8167 18.8652L43.8167 19.0939L42.5673 19.0939L42.5673 23.9285L43.3169 23.9285L43.3169 24.1577L41.0871 24.1577L41.0871 23.9285L41.5874 23.9285L41.5874 19.0939L41.0871 19.0939L41.0871 18.8658Z" fill="#000000" fill-rule="nonzero" opacity="1" stroke="none"/>
</g>
</g>
</g>
</svg>
