<?xml version="1.0" encoding="UTF-8" standalone="no"?>
<!-- Created with Inkscape (http://www.inkscape.org/) -->

<svg
   version="1.1"
   id="svg2"
   width="664.12"
   height="211.33333"
   viewBox="0 0 664.12 211.33333"
   sodipodi:docname="UR_Logo_Primary_One_Colour_Green_Pantone.eps"
   xmlns:inkscape="http://www.inkscape.org/namespaces/inkscape"
   xmlns:sodipodi="http://sodipodi.sourceforge.net/DTD/sodipodi-0.dtd"
   xmlns="http://www.w3.org/2000/svg"
   xmlns:svg="http://www.w3.org/2000/svg">
  <defs
     id="defs6" />
  <sodipodi:namedview
     id="namedview4"
     pagecolor="#ffffff"
     bordercolor="#000000"
     borderopacity="0.25"
     inkscape:showpageshadow="2"
     inkscape:pageopacity="0.0"
     inkscape:pagecheckerboard="0"
     inkscape:deskcolor="#d1d1d1" />
  <g
     id="g8"
     inkscape:groupmode="layer"
     inkscape:label="ink_ext_XXXXXX"
     transform="matrix(1.3333333,0,0,-1.3333333,0,211.33333)">
    <g
       id="g10"
       transform="scale(0.1)">
      <path
         d="m 1720.13,1546.77 v -16.02 h -52.32 v -365.49 c 0,-88.7 50.13,-117.03 95.91,-117.03 69.06,0 117.75,46.5 117.75,122.13 v 360.39 h -65.39 v 16.02 h 129.31 v -16.02 h -43.63 v -361.11 c 0,-84.32 -55.91,-137.39 -140.94,-137.39 -117.75,0 -171.51,49.44 -171.51,149.77 v 348.73 h -43.53 v 16.02 h 174.35"
         style="fill:#1e4230;fill-opacity:1;fill-rule:nonzero;stroke:none"
         id="path12" />
      <path
         d="m 1947.6,1412.99 h 101.7 v -49.38 h 1.44 c 17.45,31.28 51.57,61.05 102.48,61.05 57.42,0 98.08,-27.65 98.08,-106.83 v -257.91 h 39.25 v -16.02 h -149.71 v 16.02 h 42.15 v 266.63 c 0,53.8 -16.73,72 -50.85,72 -40,0 -77.06,-34.94 -77.06,-110.46 v -228.17 h 42.16 V 1043.9 H 1947.6 v 16.02 h 39.18 v 337.09 h -39.18 v 15.98"
         style="fill:#1e4230;fill-opacity:1;fill-rule:nonzero;stroke:none"
         id="path14" />
      <path
         d="m 2406.12,1059.91 h 34.87 v -15.98 h -138.04 v 15.98 h 34.8 v 337.13 h -34.8 v 15.94 h 103.17 z m -34.21,476.61 c 23.3,0 41.4,-16.67 41.4,-41.38 0,-24.74 -18.1,-41.4 -41.4,-41.4 -23.24,0 -41.38,16.66 -41.38,41.4 0,24.71 18.14,41.38 41.38,41.38"
         style="fill:#1e4230;fill-opacity:1;fill-rule:nonzero;stroke:none"
         id="path16" />
      <path
         d="m 2416.97,1412.99 h 158.44 v -15.98 h -56.7 l 95.95,-271.73 h 1.43 l 97.39,271.73 h -58.14 v 15.98 h 108.99 v -15.98 h -29.8 L 2605.9,1040.96 h -29.81 l -129.28,356.05 h -29.84 v 15.98"
         style="fill:#1e4230;fill-opacity:1;fill-rule:nonzero;stroke:none"
         id="path18" />
      <path
         d="m 2818.81,1263.37 c -0.72,-7.26 -0.72,-14.58 -0.72,-21.8 0,-140.26 34.9,-188.96 90.1,-188.96 61.8,0 106.11,39.25 113.37,129.39 h 16.01 c -3.66,-100.3 -62.48,-149.75 -136.6,-149.75 -92.29,0 -158.44,79.97 -158.44,196.18 0,116.31 70.46,196.25 156.28,196.25 82.74,0 135.78,-58.17 135.78,-161.31 z m 140.3,15.98 v 28.33 c 0,72.68 -23.99,100.98 -61.8,100.98 -45.04,0 -71.93,-45.03 -77.75,-129.31 h 139.55"
         style="fill:#1e4230;fill-opacity:1;fill-rule:nonzero;stroke:none"
         id="path20" />
      <path
         d="m 3093.31,1397.03 h -39.22 v 15.98 h 106.08 v -53.76 h 1.47 c 15.27,42.16 41.37,65.43 87.88,65.43 18.2,0 39.28,-8.01 50.16,-13.08 v -142.49 h -16.01 l -25.39,74.91 c -13.11,38.53 -20.4,54.51 -37.81,54.51 -29.81,0 -58.83,-53.79 -58.83,-119.18 V 1059.9 h 47.94 v -15.98 h -155.49 v 15.98 h 39.22 v 337.13"
         style="fill:#1e4230;fill-opacity:1;fill-rule:nonzero;stroke:none"
         id="path22" />
      <path
         d="m 3332.58,1192.16 c 26.14,-122.09 40.69,-143.93 106.11,-143.93 56.67,0 98.79,29.09 98.79,82.13 0,70.49 -225.23,55.27 -225.23,178.04 0,72.62 58.83,116.28 142.42,116.28 39.22,0 77,-10.92 104.61,-25.46 v -116.96 h -20.32 c -31.25,107.51 -39.25,126.4 -90.86,126.4 -45.78,0 -89.38,-25.35 -89.38,-65.42 0,-91.51 225.27,-60.3 225.27,-187.45 0,-74.09 -63.96,-123.54 -151.15,-123.54 -37.78,0 -83.56,10.92 -120.59,31.96 v 127.95 h 20.33"
         style="fill:#1e4230;fill-opacity:1;fill-rule:nonzero;stroke:none"
         id="path24" />
      <path
         d="m 3708.25,1059.91 h 34.9 v -15.98 h -138.07 v 15.98 h 34.83 v 337.13 h -34.83 v 15.94 h 103.17 z m -34.15,476.61 c 23.27,0 41.4,-16.67 41.4,-41.38 0,-24.74 -18.13,-41.4 -41.4,-41.4 -23.24,0 -41.41,16.66 -41.41,41.4 0,24.71 18.17,41.38 41.41,41.38"
         style="fill:#1e4230;fill-opacity:1;fill-rule:nonzero;stroke:none"
         id="path26" />
      <path
         d="m 3747.5,1412.99 h 45.78 v 87.26 h 68.27 v -87.26 h 84.32 v -15.98 h -84.32 v -299.35 c 0,-27.58 11.63,-39.21 39.25,-39.21 31.24,0 49.45,18.85 49.45,72.61 v 58.17 h 16.01 v -53.75 c 0,-77.03 -31.96,-103.21 -91.64,-103.21 -52.28,0 -81.34,27.65 -81.34,87.22 v 277.52 h -45.78 v 15.98"
         style="fill:#1e4230;fill-opacity:1;fill-rule:nonzero;stroke:none"
         id="path28" />
      <path
         d="m 3929.89,1412.99 h 155.46 v -15.98 h -54.48 l 106.08,-253.56 87.23,253.56 h -63.2 v 15.98 h 116.24 v -15.98 h -32.68 l -133.01,-382.88 c -27.62,-80.685 -50.1,-96.7 -91.54,-96.7 -26.86,0 -45.03,6.57 -55.23,17.484 v 113.336 h 15.95 l 19.64,-70.492 c 10.2,-37.778 21.8,-44.313 33.43,-44.313 29.09,0 52.36,50.129 69.74,112.685 l -146.01,350.88 h -27.62 v 15.98"
         style="fill:#1e4230;fill-opacity:1;fill-rule:nonzero;stroke:none"
         id="path30" />
      <path
         d="m 2175.62,207.898 v 24.063 h 65.66 v 709.121 h -65.66 v 24.125 h 318.44 c 183.86,0 248.47,-87.602 248.47,-182.832 0,-106.148 -83.22,-179.414 -240.8,-189.301 L 2762.2,231.961 h 53.62 v -24.063 h -174 l -277.93,385.176 h -4.45 V 231.961 h 83.19 v -24.063 z m 183.82,402.762 h 64.57 c 130.28,0 193.69,63.41 193.69,171.715 0,76.648 -38.3,158.707 -158.65,158.707 h -99.61 V 610.66"
         style="fill:#1e4230;fill-opacity:1;fill-rule:nonzero;stroke:none"
         id="path32" />
      <path
         d="m 2877.28,538.379 c -1.07,-10.918 -1.07,-21.899 -1.07,-32.789 0,-211.231 52.53,-284.602 135.68,-284.602 93.01,0 159.81,59.133 170.69,194.813 h 24.09 c -5.48,-151.071 -94.1,-225.43 -205.73,-225.43 -138.96,0 -238.57,120.379 -238.57,295.508 0,175.07 106.15,295.387 235.29,295.387 124.76,0 204.7,-87.465 204.7,-242.887 z m 211.23,24.051 v 42.707 c 0,109.433 -36.1,152.105 -92.97,152.105 -67.89,0 -108.41,-67.855 -117.14,-194.812 h 210.11"
         style="fill:#1e4230;fill-opacity:1;fill-rule:nonzero;stroke:none"
         id="path34" />
      <path
         d="m 3706.27,733.18 h -83.12 v -2.192 c 39.32,-27.375 59.03,-83.183 59.03,-134.617 0,-103.922 -80.97,-184.949 -194.75,-184.949 -102.93,0 -120.38,39.379 -135.74,39.379 -32.85,0 -76.59,-32.781 -76.59,-69.942 0,-167.468 442.12,37.161 442.12,-204.73 C 3717.22,87.5313 3623.15,0 3478.64,0 c -164.18,0 -236.39,72.1719 -236.39,131.23 0,40.551 40.52,71.211 70.05,81.059 v 2.133 c -65.67,15.359 -96.29,65.699 -96.29,122.566 0,79.942 52.49,121.512 113.81,137.903 -23.03,25.187 -41.61,71.14 -41.61,126.957 0,105.05 85.38,179.41 196.97,179.41 28.5,0 65.7,-6.535 86.47,-17.453 h 134.62 z M 3469.85,24.0195 c 113.84,0 188.27,56.9102 188.27,113.8125 0,41.609 -18.61,63.477 -100.71,65.668 l -205.72,4.41 c -26.25,-15.332 -39.39,-48.14 -39.39,-79.898 0,-49.2737 59.1,-103.9925 157.55,-103.9925 m 15.33,411.5195 c 56.97,0 87.6,32.82 87.6,160.832 0,128.051 -30.63,160.899 -87.6,160.899 -56.88,0 -87.54,-32.848 -87.54,-160.899 0,-128.012 21.94,-160.832 87.54,-160.832"
         style="fill:#1e4230;fill-opacity:1;fill-rule:nonzero;stroke:none"
         id="path36" />
      <path
         d="m 3899.18,231.949 h 52.57 V 207.891 H 3743.8 v 24.058 h 52.52 v 507.746 h -52.52 v 24.09 h 155.38 z m -51.43,717.922 c 35.04,0 62.35,-25.187 62.35,-62.418 0,-37.23 -27.31,-62.383 -62.35,-62.383 -35,0 -62.34,25.153 -62.34,62.383 0,37.231 27.34,62.418 62.34,62.418"
         style="fill:#1e4230;fill-opacity:1;fill-rule:nonzero;stroke:none"
         id="path38" />
      <path
         d="m 3978.53,763.805 h 153.23 v -74.43 h 2.16 c 26.31,47.051 77.68,91.914 154.33,91.914 86.47,0 147.69,-41.578 147.69,-160.863 V 231.969 h 59.13 V 207.91 h -225.4 v 24.059 h 63.44 v 401.629 c 0,80.965 -25.19,108.34 -76.58,108.34 -60.2,0 -116.04,-52.563 -116.04,-166.379 v -343.59 h 63.47 V 207.91 h -225.43 v 24.059 h 59.06 v 507.742 h -59.06 v 24.094"
         style="fill:#1e4230;fill-opacity:1;fill-rule:nonzero;stroke:none"
         id="path40" />
      <path
         d="m 4562.91,564.648 v 177.29 c 56.91,22.996 109.44,39.351 167.4,39.351 136.78,0 198.13,-72.238 198.13,-140.059 V 231.969 h 52.5 V 207.91 h -148.86 v 96.262 h -2.15 c -26.28,-67.82 -88.63,-113.781 -166.27,-113.781 -98.59,0 -166.38,56.871 -166.38,152.07 0,191.559 225.44,135.75 334.8,202.508 v 114.91 c 0,68.953 -37.16,97.387 -95.16,97.387 -76.58,0 -97.39,-39.418 -149.95,-192.618 z m 269.17,-48.179 c -123.6,-57.969 -225.36,-16.391 -225.36,-174.008 0,-82.063 30.62,-112.68 88.62,-112.68 82.09,2.188 136.74,83.18 136.74,203.5 v 83.188"
         style="fill:#1e4230;fill-opacity:1;fill-rule:nonzero;stroke:none"
         id="path42" />
      <path
         d="m 1827.93,761.313 c 67.85,0 119.28,-60.192 119.28,-147.758 0,-87.535 -51.43,-147.727 -119.28,-147.727 -67.83,0 -119.26,60.192 -119.26,147.727 0,87.566 51.43,147.758 119.26,147.758 m 0,-283.442 c 41.06,0 62.38,29.527 62.38,135.684 0,106.179 -21.32,135.711 -62.38,135.711 -41,0 -62.35,-29.532 -62.35,-135.711 0,-106.157 21.35,-135.684 62.35,-135.684"
         style="fill:#1e4230;fill-opacity:1;fill-rule:nonzero;stroke:none"
         id="path44" />
      <path
         d="m 1958.13,752.566 h 26.28 v 30.079 c 0,50.371 26.28,79.32 86.47,79.32 16.42,0 32.82,-2.738 48.15,-7.664 v -72.238 h -12.05 c -19.68,62.414 -27.38,67.855 -44.9,67.855 -13.07,0 -26.21,-8.727 -26.21,-36.102 v -61.25 h 65.64 V 740.52 h -65.64 V 486.609 h 39.35 V 474.57 h -117.09 v 12.039 h 26.28 V 740.52 h -26.28 v 12.046"
         style="fill:#1e4230;fill-opacity:1;fill-rule:nonzero;stroke:none"
         id="path46" />
      <path
         d="M 1284.82,1584.98 H 0 l 0.0390625,-11.12 c 0.015625,-4.63 1.5703175,-478.6 0,-610.141 C 2.22656,776.551 43.9063,610.617 131.203,441.539 221.012,293.172 371.344,86.9883 638.684,10.0781 l 3.066,-0.88669 3.063,0.88669 c 128.734,37.0313 321.57,122.1209 509.197,432.1919 87.03,168.601 128.59,334.398 130.77,521.742 -1.6,133.288 -0.01,605.488 0,609.848 l 0.04,11.12"
         style="fill:#1e4230;fill-opacity:1;fill-rule:nonzero;stroke:none"
         id="path48" />
      <path
         d="m 1228.67,697.492 0.1,0.395 -585.915,446.083 -586.148,-445.962 -0.289,-0.223 0.0547,-0.359 c 0.1367,-0.879 0.289,-1.797 0.4609,-2.781 C 66.0586,659.25 77.3477,623.359 90.4805,587.953 110.453,535.559 132.027,487.941 146.777,463.68 l 0.36,-0.578 495.718,383.871 495.175,-383.762 0.54,-0.422 0.36,0.59 c 2.34,3.859 4.89,8.371 7.59,13.43 36.31,73.98 63.18,146.171 82.15,220.683"
         style="fill:#ffffff;fill-opacity:1;fill-rule:nonzero;stroke:none"
         id="path50" />
      <path
         d="m 574.012,1289.98 c 7.656,4.02 17.183,9 30.472,9.33 14.141,0.41 26.051,-5.69 32.95,-10.65 v 164.99 c -7.063,9.12 -22.106,16.35 -33.973,16.35 -12.07,0 -20.625,-2.44 -32.684,-9.31 -14.039,-5.92 -23.015,-6.84 -34.105,-4.35 V 1291.1 c 5.691,-4.62 10.012,-7.08 21.812,-7.08 4.954,0 9.856,3 15.528,5.96"
         style="fill:#ffffff;fill-opacity:1;fill-rule:nonzero;stroke:none"
         id="path52" />
      <path
         d="m 527.945,1276.09 c 6.813,-4.73 16.524,-7.2 27.903,-6.68 5.379,0.22 10.511,2.23 16.461,4.57 8.211,3.22 17.507,6.86 30.578,7.18 16.246,0.36 25.777,-6.14 30.176,-10.21 0.269,0.49 0.542,0.99 0.804,1.47 1.36,2.49 2.68,4.9 3.992,7.05 v 0.71 c -5.507,4.39 -17.875,12.62 -33.214,12.16 -11.762,-0.29 -20.172,-4.69 -27.594,-8.57 -6.172,-3.23 -12.004,-6.29 -18.567,-6.29 -12.312,0 -18.214,2.22 -24.617,7.09 l -5.922,-8.48"
         style="fill:#ffffff;fill-opacity:1;fill-rule:nonzero;stroke:none"
         id="path54" />
      <path
         d="m 711.527,1289.56 c 5.676,-2.97 10.575,-5.11 15.532,-5.11 11.793,0 16.125,2.03 21.808,6.65 v 165.25 c -11.109,-2.49 -20.312,-1.45 -33.562,4.08 -12.602,7.13 -21.149,10.41 -33.219,10.41 -11.867,0 -26.914,-8.07 -33.977,-17.19 v -164.97 c 6.871,4.96 18.739,11.03 32.946,10.63 13.3,-0.33 22.824,-5.74 30.472,-9.75"
         style="fill:#ffffff;fill-opacity:1;fill-rule:nonzero;stroke:none"
         id="path56" />
      <path
         d="M 488.602,1432.57 V 1233 h 133.601 c -0.461,1.2 -0.836,2.45 -1.133,3.75 -0.402,1.57 -0.675,3.2 -0.675,4.89 0,0.73 0.058,1.02 0.144,1.73 -0.809,-0.17 -1.605,-0.39 -2.473,-0.42 l -116.156,-0.23 v 189.85 h -13.308"
         style="fill:#ffffff;fill-opacity:1;fill-rule:nonzero;stroke:none"
         id="path58" />
      <path
         d="m 512.684,1432.65 v -166.97 l 2.316,3.31 v 166.29 l -2.316,-2.63"
         style="fill:#ffffff;fill-opacity:1;fill-rule:nonzero;stroke:none"
         id="path60" />
      <path
         d="m 663.602,1215.09 0.203,0.32 138.008,0.63 v 10.53 l -144.211,-0.11 c -3.957,-3.51 -9.25,-5.71 -15.098,-5.71 -5.848,0 -11.137,2.2 -15.094,5.71 H 483.723 v -10.42 l 138.015,-0.63 0.485,-0.75 c 2.433,-5.29 10.679,-9.21 20.574,-9.21 10.172,0 18.644,4.13 20.805,9.64"
         style="fill:#ffffff;fill-opacity:1;fill-rule:nonzero;stroke:none"
         id="path62" />
      <path
         d="m 662.727,1233.01 134.191,0.1 v 199.57 h -13.281 v -189.96 l -116,0.23 c -1.117,0.04 -2.149,0.28 -3.172,0.53 0.09,-0.75 0.152,-1.08 0.152,-1.84 0,-2.16 -0.449,-4.2 -1.094,-6.16 -0.234,-0.84 -0.503,-1.66 -0.796,-2.47"
         style="fill:#ffffff;fill-opacity:1;fill-rule:nonzero;stroke:none"
         id="path64" />
      <path
         d="m 512.684,1253.82 105.203,0.22 c 1.781,0.06 3.504,1.03 5.168,2.49 -4.153,2.74 -13.262,7.23 -28.262,6.77 -12.203,-0.3 -20.352,-2.49 -27.543,-4.42 -5.922,-1.59 -11.035,-2.96 -17.09,-2.96 -14.777,0 -25.305,2.23 -31.836,6.41 l -5.64,-8.07 v -0.44"
         style="fill:#ffffff;fill-opacity:1;fill-rule:nonzero;stroke:none"
         id="path66" />
      <path
         d="m 647.688,1279.47 c 1.304,-2.15 2.628,-4.56 3.984,-7.05 0.266,-0.49 0.543,-0.99 0.816,-1.49 4.426,4.06 14.008,10.56 30.164,10.23 13.075,-0.32 22.371,-3.96 30.578,-7.18 5.95,-2.34 11.094,-4.35 16.469,-4.57 11.481,-0.53 21.102,1.95 27.899,6.68 l -5.926,8.48 c -6.402,-4.87 -12.297,-7.09 -24.613,-7.09 -6.563,0 -12.391,3.05 -18.567,6.29 -7.414,3.88 -15.832,8.28 -27.59,8.57 -15.214,0.57 -27.672,-7.73 -33.214,-12.15 v -0.72"
         style="fill:#ffffff;fill-opacity:1;fill-rule:nonzero;stroke:none"
         id="path68" />
      <path
         d="m 642.773,1268.23 c -0.097,-0.17 -0.187,-0.34 -0.285,-0.52 -3.996,-7.32 -8.715,-15.85 -15.359,-20.35 -0.793,-1.77 -1.277,-3.68 -1.277,-5.72 0,-8.51 7.468,-15.43 16.652,-15.43 9.184,0 16.656,6.92 16.656,15.43 0,2.32 -0.621,4.48 -1.629,6.45 -6.195,4.64 -10.676,12.66 -14.476,19.64 -0.094,0.17 -0.188,0.33 -0.282,0.5"
         style="fill:#ffffff;fill-opacity:1;fill-rule:nonzero;stroke:none"
         id="path70" />
      <path
         d="m 525.625,1284.2 4.504,6.44 v 161.79 l -4.504,-5.1 V 1284.2"
         style="fill:#ffffff;fill-opacity:1;fill-rule:nonzero;stroke:none"
         id="path72" />
      <path
         d="m 550.16,1259.19 c 5.621,0 10.543,1.32 16.242,2.85 7.368,1.98 15.719,4.23 28.313,4.53 16.582,0.29 26.328,-4.69 30.664,-7.65 2.144,2.56 4.168,5.79 6.039,9.09 -3.684,3.53 -12.754,10.22 -28.449,9.88 -12.496,-0.3 -21.508,-3.84 -29.461,-6.96 -6.223,-2.44 -11.598,-4.54 -17.516,-4.79 -12.133,-0.52 -22.508,2.15 -29.914,7.29 l -5.887,-8.43 c 5.961,-3.79 15.872,-5.81 29.969,-5.81"
         style="fill:#ffffff;fill-opacity:1;fill-rule:nonzero;stroke:none"
         id="path74" />
      <path
         d="m 518.273,1273.67 4.082,5.84 v 164.1 l -4.082,-4.62 v -165.32"
         style="fill:#ffffff;fill-opacity:1;fill-rule:nonzero;stroke:none"
         id="path76" />
      <path
         d="m 735.383,1255.92 c -6.055,0 -11.16,1.37 -17.09,2.96 -7.188,1.93 -15.344,4.12 -27.543,4.42 -15.004,0.37 -24.062,-4.05 -28.223,-6.76 1.696,-1.46 3.457,-2.45 5.289,-2.51 l 105.047,-0.21 v 0.43 l -5.648,8.08 c -6.527,-4.18 -17.059,-6.41 -31.832,-6.41"
         style="fill:#ffffff;fill-opacity:1;fill-rule:nonzero;stroke:none"
         id="path78" />
      <path
         d="m 770.547,1269 2.316,-3.32 v 166.97 l -2.316,2.63 V 1269"
         style="fill:#ffffff;fill-opacity:1;fill-rule:nonzero;stroke:none"
         id="path80" />
      <path
         d="m 763.188,1279.53 4.085,-5.85 v 165.31 l -4.085,4.63 v -164.09"
         style="fill:#ffffff;fill-opacity:1;fill-rule:nonzero;stroke:none"
         id="path82" />
      <path
         d="m 729.566,1266.14 c -5.929,0.25 -11.304,2.35 -17.527,4.79 -7.953,3.12 -16.976,6.66 -29.461,6.96 -15.586,0.37 -24.73,-6.36 -28.445,-9.89 1.863,-3.29 3.887,-6.5 6.039,-9.05 4.351,3.01 14.148,8.08 30.652,7.62 12.602,-0.3 20.949,-2.55 28.317,-4.53 5.707,-1.53 10.625,-2.85 16.242,-2.85 14.097,0 24.008,2.02 29.969,5.81 l -5.895,8.43 c -7.418,-5.13 -17.867,-7.76 -29.891,-7.29"
         style="fill:#ffffff;fill-opacity:1;fill-rule:nonzero;stroke:none"
         id="path84" />
      <path
         d="m 755.414,1290.65 4.504,-6.44 v 163.12 l -4.504,5.1 v -161.78"
         style="fill:#ffffff;fill-opacity:1;fill-rule:nonzero;stroke:none"
         id="path86" />
      <path
         d="m 352.336,1244.37 c -10.391,6.08 -40.023,17.71 -114.699,17.71 -74.711,0 -104.571,-11.65 -115.082,-17.74 10.386,-6.07 40.023,-17.7 114.699,-17.71 74.711,0.01 104.57,11.65 115.082,17.74"
         style="fill:#ffffff;fill-opacity:1;fill-rule:nonzero;stroke:none"
         id="path88" />
      <path
         d="m 382.129,1384.24 2.445,10.92 1.781,10.94 c 10.415,1.15 21.43,12.56 21.43,23.19 0,11.41 -9.363,20.69 -20.871,20.69 -8.402,0 -15.656,-4.95 -18.961,-12.07 -1.223,-2.62 -1.906,-5.54 -1.906,-8.62 0,-0.97 0.074,-1.93 0.207,-2.87 -3.348,1.96 -7.199,3.16 -11.316,3.34 -0.36,0.01 -0.723,0.03 -1.086,0.03 -3.922,0 -7.629,-0.93 -10.914,-2.56 -3.782,-1.89 -7.008,-4.7 -9.356,-8.16 -2.629,-3.86 -4.16,-8.51 -4.16,-13.5 0,-8 3.926,-15.09 9.965,-19.51 3.297,-2.4 7.218,-4.01 11.476,-4.52 0.25,-3.82 0.371,-7.53 0.36,-11.11 -0.008,-3.13 -0.106,-6.17 -0.317,-9.09 -1.922,-26.47 -11.375,-34.46 -18.961,-36.5 -1.379,-0.37 -2.914,-0.6 -4.59,-0.6 -7.277,0 -16.019,4.37 -27.839,20.74 -8.696,-10.78 -19.555,-17.82 -28.789,-17.82 -1.977,0 -3.934,0.32 -5.864,1 -9.16,3.22 -14.558,13.89 -15.203,30.04 -0.152,3.76 -0.035,7.76 0.32,11.91 h 0.075 c 0.019,0.37 0.148,1.39 0.164,1.75 0.121,2.39 0.293,4.96 0.511,7.75 0.067,0.84 0.137,1.69 0.211,2.57 l 0.711,8.7 c 0.371,-0.24 0.793,-0.48 1.254,-0.73 1.614,-0.88 3.754,-1.8 6.309,-2.37 1.699,-0.37 3.586,-0.59 5.621,-0.53 0.254,0.01 0.504,0.02 0.762,0.04 2.117,0.13 6.3,0.76 10.57,3.39 2.727,1.69 5.266,4.35 7.102,7.61 2.406,4.27 3.605,9.59 2.441,15.15 -0.086,0.41 -2.199,10.05 -10.641,14.24 -3.722,1.84 -7.14,1.87 -11.132,1.91 -4.161,0.05 -8.301,-0.55 -12.325,-1.78 2.7,3.2 4.871,6.72 6.461,10.49 1.098,2.6 2.762,6.53 2.629,11.26 -0.043,1.58 -0.133,4.88 -2,8.47 -0.191,0.37 -0.773,1.49 -1.789,2.76 -1.953,2.44 -4.805,4.48 -8.719,6.21 -2.507,1.1 -5.738,1.66 -9.886,1.71 -4.176,-0.05 -7.422,-0.61 -9.926,-1.71 -3.914,-1.73 -6.766,-3.77 -8.719,-6.21 -1.016,-1.27 -1.598,-2.39 -1.789,-2.76 -1.867,-3.59 -1.961,-6.89 -2.004,-8.47 -0.129,-4.73 1.531,-8.66 2.633,-11.26 1.59,-3.77 3.758,-7.29 6.461,-10.49 -4.024,1.23 -8.18,1.83 -12.356,1.78 -3.961,-0.04 -7.382,-0.07 -11.101,-1.91 -8.442,-4.19 -10.555,-13.83 -10.641,-14.24 -1.164,-5.56 0.035,-10.88 2.442,-15.15 1.836,-3.27 4.371,-5.92 7.097,-7.61 4.27,-2.63 8.457,-3.26 10.571,-3.39 0.195,-0.02 0.386,-0.02 0.582,-0.03 1.73,-0.06 3.359,0.07 4.859,0.33 2.879,0.52 5.281,1.51 7.074,2.46 0.531,0.29 1.016,0.56 1.434,0.83 l 0.707,-8.7 c 0.074,-0.84 0.14,-1.66 0.203,-2.47 0.258,-3.25 0.449,-6.19 0.574,-8.93 0.219,-4.11 0.317,-8.82 0.164,-12.58 -0.644,-16.15 -6.043,-26.82 -15.207,-30.04 -1.926,-0.68 -3.883,-1.01 -5.859,-1.01 -9.235,0 -20.098,7.05 -28.789,17.83 -11.821,-16.37 -20.567,-20.75 -27.84,-20.75 -1.676,0 -3.211,0.24 -4.59,0.61 -7.59,2.04 -17.035,10.03 -18.961,36.5 -0.211,2.92 -0.308,5.96 -0.316,9.09 -0.012,3.58 0.109,7.29 0.359,11.11 4.258,0.51 8.18,2.12 11.477,4.52 6.039,4.42 9.965,11.51 9.965,19.51 0,4.99 -1.536,9.64 -4.161,13.5 -2.347,3.45 -5.574,6.27 -9.355,8.16 -3.285,1.63 -6.992,2.56 -10.914,2.56 -0.363,0 -0.727,-0.02 -1.086,-0.03 -4.117,-0.18 -7.969,-1.38 -11.317,-3.34 0.133,0.94 0.208,1.9 0.208,2.87 0,3.07 -0.684,6 -1.907,8.62 -3.304,7.11 -10.5583,12.07 -18.9607,12.07 -11.5078,0 -20.8711,-9.28 -20.8711,-20.69 0,-10.63 11.0156,-22.04 21.4297,-23.19 l 1.7813,-10.94 2.4453,-10.92 23.9455,-127.72 0.113,-0.61 h 0.02 l 0.129,-0.61 c 14.671,7.73 47.687,18.13 119.296,18.13 v 0 c 0.012,0 0.02,0 0.028,0 0.011,0 0.019,0 0.031,0 v 0 c 72.918,0 105.656,-10.79 119.805,-18.58 l 0.121,0.65 c 0.027,-0.01 0.058,-0.02 0.086,-0.03 l 0.023,0.12 8.324,43.2 16.102,85.45"
         style="fill:#ffffff;fill-opacity:1;fill-rule:nonzero;stroke:none"
         id="path90" />
      <path
         d="m 1160.73,1244.37 c -10.39,6.08 -40.02,17.71 -114.69,17.71 -74.72,0 -104.575,-11.65 -115.087,-17.74 10.387,-6.07 40.02,-17.7 114.697,-17.71 74.71,0.01 104.57,11.65 115.08,17.74"
         style="fill:#ffffff;fill-opacity:1;fill-rule:nonzero;stroke:none"
         id="path92" />
      <path
         d="m 1190.52,1384.24 2.45,10.92 1.78,10.94 c 10.42,1.15 21.43,12.56 21.43,23.19 0,11.41 -9.36,20.69 -20.87,20.69 -8.4,0 -15.66,-4.95 -18.96,-12.07 -1.22,-2.62 -1.91,-5.54 -1.91,-8.62 0,-0.97 0.08,-1.93 0.21,-2.87 -3.35,1.96 -7.2,3.16 -11.31,3.34 -0.37,0.01 -0.73,0.03 -1.09,0.03 -3.92,0 -7.63,-0.93 -10.92,-2.56 -3.78,-1.89 -7,-4.7 -9.35,-8.16 -2.63,-3.86 -4.16,-8.51 -4.16,-13.5 0,-8 3.93,-15.09 9.97,-19.51 3.29,-2.4 7.21,-4.01 11.47,-4.52 0.25,-3.82 0.37,-7.53 0.36,-11.11 -0.01,-3.13 -0.11,-6.17 -0.32,-9.09 -1.92,-26.47 -11.37,-34.46 -18.96,-36.5 -1.38,-0.37 -2.91,-0.6 -4.59,-0.6 -7.27,0 -16.02,4.37 -27.84,20.74 -8.69,-10.78 -19.55,-17.82 -28.79,-17.82 -1.97,0 -3.93,0.32 -5.86,1 -9.16,3.22 -14.56,13.89 -15.2,30.04 -0.15,3.76 -0.04,7.76 0.32,11.91 h 0.07 c 0.02,0.37 0.15,1.39 0.17,1.75 0.12,2.39 0.29,4.96 0.51,7.75 0.06,0.84 0.13,1.69 0.21,2.57 l 0.71,8.7 c 0.37,-0.24 0.79,-0.48 1.25,-0.73 1.62,-0.88 3.76,-1.8 6.31,-2.37 1.7,-0.37 3.59,-0.59 5.62,-0.53 0.25,0.01 0.51,0.02 0.77,0.04 2.11,0.13 6.3,0.76 10.57,3.39 2.72,1.69 5.26,4.35 7.1,7.61 2.4,4.27 3.6,9.59 2.44,15.15 -0.09,0.41 -2.2,10.05 -10.64,14.24 -3.72,1.84 -7.15,1.87 -11.14,1.91 -4.16,0.05 -8.3,-0.55 -12.32,-1.78 2.7,3.2 4.87,6.72 6.46,10.49 1.1,2.6 2.76,6.53 2.63,11.26 -0.04,1.58 -0.13,4.88 -2,8.47 -0.19,0.37 -0.77,1.49 -1.79,2.76 -1.95,2.44 -4.81,4.48 -8.72,6.21 -2.5,1.1 -5.74,1.66 -9.88,1.71 -4.18,-0.05 -7.43,-0.61 -9.93,-1.71 -3.91,-1.73 -6.77,-3.77 -8.72,-6.21 -1.02,-1.27 -1.6,-2.39 -1.79,-2.76 -1.87,-3.59 -1.96,-6.89 -2,-8.47 -0.13,-4.73 1.53,-8.66 2.63,-11.26 1.59,-3.77 3.76,-7.29 6.46,-10.49 -4.02,1.23 -8.18,1.83 -12.35,1.78 -3.96,-0.04 -7.38,-0.07 -11.11,-1.91 -8.44,-4.19 -10.548,-13.83 -10.634,-14.24 -1.168,-5.56 0.035,-10.88 2.434,-15.15 1.84,-3.27 4.38,-5.92 7.1,-7.61 4.27,-2.63 8.46,-3.26 10.57,-3.39 0.2,-0.02 0.39,-0.02 0.58,-0.03 1.74,-0.06 3.37,0.07 4.86,0.33 2.88,0.52 5.29,1.51 7.08,2.46 0.53,0.29 1.01,0.56 1.43,0.83 l 0.71,-8.7 c 0.07,-0.84 0.14,-1.66 0.2,-2.47 0.26,-3.25 0.45,-6.19 0.58,-8.93 0.21,-4.11 0.31,-8.82 0.16,-12.58 -0.64,-16.15 -6.04,-26.82 -15.2,-30.04 -1.93,-0.68 -3.89,-1.01 -5.87,-1.01 -9.23,0 -20.091,7.05 -28.783,17.83 -11.82,-16.37 -20.566,-20.75 -27.84,-20.75 -1.675,0 -3.211,0.24 -4.589,0.61 -7.59,2.04 -17.04,10.03 -18.961,36.5 -0.211,2.92 -0.309,5.96 -0.317,9.09 -0.012,3.58 0.11,7.29 0.356,11.11 4.257,0.51 8.183,2.12 11.476,4.52 6.039,4.42 9.969,11.51 9.969,19.51 0,4.99 -1.535,9.64 -4.16,13.5 -2.352,3.45 -5.574,6.27 -9.356,8.16 -3.289,1.63 -6.992,2.56 -10.914,2.56 -0.363,0 -0.726,-0.02 -1.09,-0.03 -4.117,-0.18 -7.968,-1.38 -11.312,-3.34 0.133,0.94 0.207,1.9 0.207,2.87 0,3.07 -0.688,6 -1.906,8.62 -3.305,7.11 -10.559,12.07 -18.965,12.07 -11.508,0 -20.867,-9.28 -20.867,-20.69 0,-10.63 11.015,-22.04 21.425,-23.19 l 1.786,-10.94 2.445,-10.92 23.945,-127.72 0.114,-0.61 c 0.003,0 0.011,0 0.011,0 l 0.137,-0.61 c 14.668,7.73 47.687,18.13 119.299,18.13 v 0 c 0.01,0 0.02,0 0.03,0 0,0 0.01,0 0.02,0 v 0 c 72.92,0 105.66,-10.79 119.81,-18.58 l 0.12,0.65 c 0.03,-0.01 0.06,-0.02 0.09,-0.03 l 0.02,0.12 8.32,43.2 16.1,85.45"
         style="fill:#ffffff;fill-opacity:1;fill-rule:nonzero;stroke:none"
         id="path94" />
      <path
         d="m 543.531,314.43 c -2.402,-27.34 -47.351,-111.75 -47.808,-112.559 -4.379,-6.43 -0.332,-18.332 3.183,-20.992 3.688,-2.809 10.719,-5.008 16.012,-5.008 1.965,0 2.992,0.32 3.422,0.488 4.406,10.02 37.265,106.68 39.383,114.68 0.8,3.031 3.953,4.871 7.043,4.102 3.086,-0.821 4.922,-3.993 4.109,-7.063 -0.207,-0.797 -34.441,-104.808 -41.141,-118.258 0.864,-3.011 3.399,-9.441 9.879,-12.211 3.457,-1.488 8.344,-2.339 13.422,-2.339 4.184,0 6.879,0.57 8.055,0.992 3.785,8.726 17.144,80.457 21.582,104.258 2.125,11.41 3.449,18.492 3.855,20.16 0.735,3.07 3.793,4.961 6.934,4.269 3.117,-0.758 5.023,-3.89 4.281,-6.969 -0.367,-1.539 -1.648,-8.421 -3.422,-17.949 l -0.304,-1.621 c -14.434,-77.461 -19.461,-98.769 -22.653,-106.691 2.282,-3.68 8.356,-9.18 13.785,-10.418 2.11,-0.492 4.911,-0.762 7.887,-0.762 7.539,0 12.949,1.602 15.004,3.16 2.379,14.223 9.766,116.563 9.766,126.02 0,3.179 2.59,5.769 5.773,5.769 3.18,0 5.77,-2.59 5.77,-5.769 0,-6.75 -6.703,-106.559 -9.953,-127.578 3.585,-3.301 13.878,-7.879 21.867,-7.879 l 0.965,0.019 c 6.191,0.34 12.648,5.367 16.726,10.078 -0.527,17.563 -8.527,108.731 -9.351,115.262 -0.391,3.16 1.851,6.051 5.003,6.449 1.5,0.192 3.008,-0.211 4.235,-1.16 1.234,-0.941 2.019,-2.308 2.219,-3.84 0.089,-0.699 8.89,-90.308 9.035,-116.14 3.199,-2.309 10.246,-6.219 16.601,-6.219 7.723,0.34 16.016,5.348 18.356,8.187 -0.649,8.243 -11.047,53.301 -14.446,65.961 -0.82,3.071 1.012,6.243 4.083,7.063 1.503,0.398 3.046,0.199 4.375,-0.57 1.335,-0.774 2.289,-2.012 2.683,-3.512 0.117,-0.442 12.527,-49.84 14.539,-66.57 3.778,-1.11 9.317,-1.571 13.285,-0.098 6.465,2.328 12.059,6.937 13.153,10.789 -0.84,4.238 -11.543,36.148 -46.805,129.32 l -0.527,1.391 c -0.543,1.449 -0.5,3.019 0.14,4.418 0.625,1.41 1.774,2.48 3.211,3.019 2.961,1.141 6.313,-0.379 7.442,-3.339 l 0.527,-1.399 c 27.383,-72.351 42.594,-114.519 46.469,-128.812 0.039,0 0.082,0 0.121,0 5.152,0 10.258,1.23 13.207,3.211 4.566,3.07 7.695,8.16 8.074,10.691 -4.879,11.258 -44.129,104.5 -55.227,136.508 -15.609,-4.899 -43.937,-4.731 -43.937,-4.731 -0.168,-10.379 13.285,-37.929 13.285,-37.929 -35.34,-1.547 -62.867,37.25 -62.867,37.25 -34.762,1.191 -66.422,5.25 -76.832,6.711 0,0 -3.145,0.878 -3.473,-1.84"
         style="fill:#ffffff;fill-opacity:1;fill-rule:nonzero;stroke:none"
         id="path96" />
      <path
         d="m 677.555,363.191 c 0,0 6.14,-8.82 -3.297,-41.371 0,0 30.41,1.239 36.144,2.68 0,0 3.828,1.27 5.582,2.551 0,0 9.563,5.89 11.633,8.918 0,0 1.813,2.59 2.821,7.043 0,0 0.527,6.508 3.238,9.218 0,0 4.781,6.219 6.855,14.352 0,0 2.867,5.418 -7.176,3.977 0,0 -10.199,-1.43 -15.777,-3.188 0,0 -5.285,-4.371 -40.023,-4.18"
         style="fill:#ffffff;fill-opacity:1;fill-rule:nonzero;stroke:none"
         id="path98" />
      <path
         d="m 648.188,333.84 -10.946,31.301 c 0,0 -3.828,12.281 -17.375,9.879 0,0 -12.914,-4.141 -2.39,-16.411 0,0 5.097,-5.578 6.054,-15.461 0,0 -0.148,-32.796 44.078,-55.847 0,0 -9.488,22.527 -3.589,41.82 0,0 14.343,39.688 -13.231,48.301 0,0 -9.246,3.656 -4.621,-4.633 0,0 2.391,-3.18 2.07,-15.301 l -0.05,-23.648"
         style="fill:#ffffff;fill-opacity:1;fill-rule:nonzero;stroke:none"
         id="path100" />
      <path
         d="m 601.789,366.852 c 0,0 -49.984,7.539 -59.551,9.66 l -8.711,2.129 c 0,0 -4.464,1.269 -1.703,-3.403 0,0 1.278,-2.769 2.34,-4.039 l 8.5,-14.027 c 0,0 4.145,-7.012 -1.484,-14.242 0,0 -15.305,-14.34 15.086,-16.36 0,0 52.101,-5.73 61.226,-5.199 0,0 -4.82,12.867 -5.289,20.828 -0.254,1.371 -1.207,6.442 -5.406,11.449 0,0 -5.184,6.524 -5.008,13.204"
         style="fill:#ffffff;fill-opacity:1;fill-rule:nonzero;stroke:none"
         id="path102" />
      <path
         d="m 590.164,395.199 c -0.055,0.379 -0.367,2.199 -1.535,2.781 -0.691,0.36 -1.551,0.219 -2.594,-0.41 l -16.945,-13.558 0.39,-0.071 c 5.934,-1.043 12.18,-2.101 19.098,-3.242 l 0.149,-0.027 0.05,0.137 c 1.211,3.363 3,9.703 1.395,14.363 l -0.008,0.027"
         style="fill:#ffffff;fill-opacity:1;fill-rule:nonzero;stroke:none"
         id="path104" />
      <path
         d="m 562.895,476.02 0.855,0.718 -10.051,-4.058 -0.234,-0.09 0.172,-0.192 c 2.715,-3.039 2.722,-7.878 2.488,-10.5 l -0.035,-0.367 2.746,1.848 -0.031,0.121 c -1.629,6.512 1.863,10.629 4.09,12.52"
         style="fill:#ffffff;fill-opacity:1;fill-rule:nonzero;stroke:none"
         id="path106" />
      <path
         d="m 733.398,553.141 c -1.207,-1.063 0.36,-5.102 1.067,-6.582 l 13.265,-23.137 -17.312,7.469 c -3.871,1.73 -5.223,1.461 -5.684,0.918 -0.906,-1.09 0.911,-4.207 1.7,-5.329 l 18.086,-22.07 -19.493,6.469 -0.191,0.07 -0.039,-0.199 c -0.367,-1.82 -3.067,-4.18 -4.211,-5.121 l -0.281,-0.231 0.355,-0.078 c 4.363,-1.019 6.965,-2.89 7.738,-5.57 1.582,-5.512 -4.769,-12.512 -6.753,-14.52 l -0.196,-0.199 0.262,-0.09 c 2.012,-0.761 6.574,-3.332 5.461,-10.812 l -0.043,-0.32 0.293,0.121 c 0.195,0.09 0.414,0.152 0.601,0.199 l 0.098,0.031 c 0.152,0.039 0.305,0.09 0.418,0.129 l 0.059,0.02 c 1.621,0.613 3.304,0.91 5.14,0.91 0.375,0 0.731,-0.008 1.09,-0.028 l 0.25,-0.019 -0.066,0.238 c -0.485,1.762 -2.696,10.762 1.414,15.031 2.23,2.329 5.91,2.86 10.929,1.59 l 0.254,-0.062 -0.035,0.25 c -0.293,2.422 -1.484,14.672 3.969,18.293 2.574,1.726 6.281,1.187 11.008,-1.602 l 0.101,-0.058 0.098,0.07 c 0.684,0.5 6.789,4.937 10.148,6.348 l 0.071,0.05 c 0.363,0.469 3.672,4.571 7.406,5.95 l 0.262,0.101 -0.196,0.199 c -5.867,5.86 -28.75,-1.832 -29.722,-2.16 l -0.481,-0.172 26.035,20.41 c 3.114,3.204 3.325,4.633 2.95,5.274 -0.918,1.547 -6.075,0.187 -6.149,0.168 l -10.156,-4.07 -0.688,26.082 -0.007,0.039 c -0.368,1.199 -0.953,1.929 -1.739,2.179 -1.359,0.442 -2.824,-0.672 -2.992,-0.8 l -0.047,-0.059 c -1.918,-3.832 -8.554,-22.281 -8.617,-22.449 l -0.035,-0.102 -10.191,5.649 c -3.336,2.14 -4.672,2.043 -5.204,1.582"
         style="fill:#ffffff;fill-opacity:1;fill-rule:nonzero;stroke:none"
         id="path108" />
      <path
         d="m 630.316,539 0.372,-0.031 c 0.96,-0.11 2.742,-0.379 3.917,-1.078 l 0.231,-0.141 0.039,0.27 c 0.195,1.351 0.691,5.699 0.844,7.011 l 0.086,0.758 -0.418,-0.648 c -0.817,-1.27 -2.313,-3.332 -4.809,-5.871 L 630.316,539"
         style="fill:#ffffff;fill-opacity:1;fill-rule:nonzero;stroke:none"
         id="path110" />
      <path
         d="m 622.102,581.648 0.046,-0.027 h 0.153 c 4.883,0 8.039,-1.32 9.379,-3.93 2.918,-5.652 -3.508,-15.472 -4.828,-17.39 l -0.18,-0.262 0.316,-0.019 c 0.364,-0.02 0.668,-0.098 0.992,-0.18 0.192,-0.059 0.383,-0.102 0.59,-0.141 0.243,-0.051 0.473,-0.09 0.703,-0.148 4.586,-1.121 6.848,-4.141 7.254,-4.742 l 0.27,-0.387 4.726,42.617 5.625,-52.578 0.04,-0.359 0.261,0.25 c 2.477,2.347 5.172,3.296 6.219,3.597 l 0.27,0.082 -0.184,0.207 c -5.133,5.992 -6.984,10.852 -5.508,14.453 1.797,4.368 8.145,5.539 10.051,5.797 l 0.351,0.043 -0.25,0.258 c -6.671,6.832 -5.449,15.289 -4.914,17.723 l 0.059,0.265 -9.121,-1.867 10.519,11.942 c 12.176,10.851 12.059,14.824 11.914,15.507 l -0.027,0.106 -0.101,0.031 c -0.442,0.121 -0.926,0.184 -1.45,0.184 -5.406,0 -13.734,-6.52 -14.086,-6.797 l -0.07,-0.055 -0.055,0.07 c -1.644,2.192 -2.855,9.235 -2.867,9.286 -0.398,6.964 -1.863,13.507 -2.027,14.23 l -0.016,0.047 c -0.933,1.977 -1.918,2.98 -2.957,2.98 -1.523,-0.035 -2.652,-2.418 -2.863,-2.898 l -1.82,-11.871 c -0.907,-4.902 -2.821,-11.051 -3.036,-11.734 l -0.039,-0.125 -0.089,0.066 c -11.825,8.391 -15.254,6.832 -15.606,6.629 l -0.047,-0.028 -0.019,-0.046 c -1.172,-2.344 5.16,-9.504 5.218,-9.567 l 13.661,-17.679 -0.262,0.101 c -5.024,1.883 -14.559,4.891 -14.672,4.922 -6.844,1.328 -8.707,0.578 -9.062,-0.281 -0.821,-1.961 5.164,-6.641 7.539,-8.282"
         style="fill:#ffffff;fill-opacity:1;fill-rule:nonzero;stroke:none"
         id="path112" />
      <path
         d="m 553.816,576.309 0.594,-0.399 -0.664,0.262 c -0.133,0.058 -14.996,5.949 -23.355,7.09 l -0.399,0.047 0.227,-0.329 c 1.355,-1.98 5.859,-9.039 6.844,-16.601 l 0.031,-0.25 0.226,0.109 c 2.067,1.024 12.606,5.883 17.254,1.703 3.114,-2.812 2.809,-9.121 -0.906,-18.742 l -0.098,-0.25 0.27,0.012 c 0.113,0 0.25,0 0.402,0 h 0.02 c 2.011,0 6.976,-0.32 9.554,-3.352 1.524,-1.781 1.997,-4.23 1.403,-7.257 l -0.082,-0.411 0.355,0.231 c 0.821,0.519 2.039,1.187 3.18,1.406 l 0.312,0.063 -0.214,0.238 c -1.661,1.812 -6.95,8.16 -5.297,13.519 0.972,3.161 4.23,5.364 9.687,6.543 l 0.274,0.047 -2.047,2.813 -0.067,0.078 -13.199,-1.828 9.938,8.937 0.086,0.071 -0.032,0.113 c -0.25,0.879 -1.375,5.398 1.125,8.469 2.016,2.468 5.805,3.398 11.219,2.769 l 0.09,-0.012 0.058,0.071 c 0.899,0.91 2.274,2.703 1.762,3.656 -0.312,0.605 -1.566,1.145 -5.683,0.242 -0.473,-0.086 -13.45,-4.527 -20.297,-9.398 l -0.383,-0.278 17.504,24.797 c 0.805,1.578 2.734,5.856 1.988,6.625 l -0.062,0.039 c -0.442,0.192 -4.59,1.465 -14.84,-8.172 l -0.078,-0.07 -0.043,0.094 c -0.407,0.82 -3.969,8.219 -5.383,15.617 -0.012,0.07 -1.402,7.223 -2.649,9.141 l -0.039,0.043 c -0.191,0.16 -1.207,0.953 -2.367,0.953 -0.109,0 -0.222,-0.008 -0.34,-0.024 -0.773,-0.105 -1.457,-0.582 -2.019,-1.418 l -0.031,-0.082 c -0.125,-1.293 -0.754,-8.082 -0.848,-14.816 0.012,-0.84 0.086,-8.301 -1.856,-11.012 l -0.046,-0.066 -0.067,0.051 c -0.07,0.05 -7.195,5.3 -14.89,5.3 l -0.122,0.004 c -0.304,0 -0.851,-0.058 -1.117,-0.461 -0.265,-0.402 -0.148,-1.093 0.344,-2.011 0.391,-0.543 9.687,-13.5 24.773,-23.914"
         style="fill:#ffffff;fill-opacity:1;fill-rule:nonzero;stroke:none"
         id="path114" />
      <path
         d="m 522.961,514.031 -0.406,0.008 c -2.106,0 -9.567,-0.211 -17.141,-2.668 l -0.426,-0.141 0.407,-0.191 c 3.375,-1.598 7.628,-4.23 8.105,-4.527 l 0.102,-0.063 0.093,0.071 c 4.465,3.101 8.086,3.91 10.778,2.402 5.644,-3.172 5.382,-15.383 5.273,-17.793 l -0.012,-0.258 0.25,0.078 c 4.797,1.602 8.575,1.36 10.922,-0.758 4.27,-3.82 3.004,-12.261 2.52,-14.75 l -0.051,-0.25 0.25,0.028 c 0.82,0.121 1.633,0.179 2.418,0.191 h 0.062 l 12.829,11.25 0.089,0.078 -0.035,0.114 c -0.218,0.679 -0.832,3.07 0.375,5.418 0.953,1.859 2.809,3.21 5.52,4.019 l 0.336,0.102 -0.281,0.211 c -1.004,0.769 -2.829,2.308 -3.735,4 l -0.066,0.128 -22.133,-6.332 19.91,16.793 0.086,0.071 -0.031,0.109 c -0.199,0.719 -0.891,4.449 5.129,7.219 l 0.16,0.07 -0.07,0.16 c -0.098,0.219 -0.262,0.41 -0.5,0.571 -0.856,0.621 -3.391,1.339 -10.657,-0.653 l -20.062,-5.316 17.277,15.988 0.035,0.051 c 0.078,0.141 0.344,0.449 1.047,1.23 3.008,3.391 6.387,7.489 5.824,9.168 l -0.039,0.071 c -0.234,0.25 -1.754,1.398 -8.675,-1.551 l -16.797,-8.668 12.757,20.32 c 0.051,0.078 5.192,8.489 4.079,10.879 l -0.028,0.059 -0.062,0.031 c -0.383,0.16 -2.617,0.738 -8.797,-3.941 l -5.453,-5.348 -0.051,0.09 c -0.434,0.699 -4.27,7.07 -5.184,11.429 -0.285,1.032 -2.843,10.141 -4.726,13.309 l -0.043,0.07 -0.082,0.012 c -0.446,0.078 -2.738,0.399 -4.223,-0.891 l -0.051,-0.05 -0.007,-0.071 c -0.133,-1.429 -0.747,-8.961 0.222,-16.308 0.004,-0.071 0.465,-7.34 -1.219,-10.211 l -0.035,-0.07 -0.097,0.05 c -1.274,0.692 -12.532,6.59 -16.411,3.828 l -0.066,-0.046 -0.008,-0.082 c -0.058,-0.821 0.25,-5.282 12.551,-12.532 l 13.715,-10 -17.586,1.742 h -0.063 c -2.433,0.161 -8.187,0.301 -9.043,-1.691 -0.375,-0.867 0.247,-2.019 1.918,-3.527 l 19.313,-12.731"
         style="fill:#ffffff;fill-opacity:1;fill-rule:nonzero;stroke:none"
         id="path116" />
      <path
         d="m 792.871,484.23 c 0.012,0.27 -0.121,0.461 -0.25,0.54 l -0.039,0.031 -0.008,0.027 c -0.043,0.184 -0.14,0.344 -0.25,0.492 l 0.094,0.071 c -0.051,0.07 -0.105,0.148 -0.176,0.218 l -0.086,-0.089 c -2.449,2.492 -14.5,0.359 -15.078,0.261 l -0.133,-0.019 6.653,24.508 c 0.343,1.359 0.269,2.269 -0.207,2.64 -0.524,0.399 -1.465,0.141 -2.211,-0.262 -5.16,-4.207 -15.582,-20.699 -15.676,-20.859 l -0.07,-0.109 -4.586,7.371 c -1.7,3.07 -3.348,3.519 -4.18,3.519 -0.348,0 -0.578,-0.07 -0.645,-0.109 -2.117,-1.051 -0.699,-8.281 -0.687,-8.34 l 3.648,-22.812 -10.906,11.121 c -2.562,1.968 -4.449,2.66 -5.418,1.992 -1.656,-1.113 -0.539,-5.613 -0.398,-6.141 l 8.597,-22.031 -13.097,9.379 c -3.379,1.859 -5.664,2.262 -6.797,1.199 -2.379,-2.187 0.777,-9.898 1.453,-11.469 l 12.066,-20.687 -17.843,12.539 c -2.664,1.949 -4.086,1.91 -4.684,1.719 -0.715,-0.219 -0.965,-0.758 -0.996,-0.852 l -0.016,-0.027 c -2.039,-2.352 1.414,-9.551 1.446,-9.602 l 8.675,-22.277 -15.382,12.769 -0.055,0.028 c -1.469,0.519 -2.625,0.429 -3.43,-0.258 -2.129,-1.832 -1.219,-7.383 -1.105,-8.012 l 13.582,-22.609 -17.071,11.129 c -2.437,1.75 -4.07,2.34 -4.824,1.761 -1.183,-0.968 0.168,-4.968 1.063,-6.968 l 13.078,-20.543 -18.871,11.269 c -1.055,0.532 -1.922,0.594 -2.582,0.203 -1.168,-0.691 -1.309,-2.613 -1.321,-2.863 -1.609,-6.238 2.555,-14.629 3.407,-16.25 l 0.039,-0.066 0.738,-0.203 0.031,0.011 c 8.012,0.758 11.067,1.469 11.407,1.559 19.589,6.531 29.601,5.562 34.55,3.601 l 0.059,-0.019 0.059,0.008 c 9.148,2.679 11.031,4.761 11,6.043 -0.047,2.008 -4.524,3.09 -4.711,3.129 -11.61,3.039 -19.383,5.187 -19.797,5.488 l -0.16,0.121 0.195,0.031 c 8.269,1.129 27.359,5.289 27.543,5.34 2.586,1.199 3.894,2.418 3.789,3.52 -0.207,2.058 -5.078,3.238 -5.129,3.25 l -26.305,4.488 33.614,6.492 c 4.961,1.719 7.519,3.59 7.605,5.551 0.106,2.488 -3.914,4.289 -3.953,4.297 l -19.504,6.511 26.125,4.04 c 3.293,1 4.941,2.14 5.031,3.48 0.141,2 -3.527,3.719 -3.578,3.738 l -20.64,7.684 27.148,6.199 c 2.043,0.738 4.457,1.899 4.387,3.207 -0.106,1.863 -5.008,3.07 -5.071,3.082 l -18.718,2.949 22.445,9.469 c 6.129,3.07 7.094,4.703 7.117,5.402"
         style="fill:#ffffff;fill-opacity:1;fill-rule:nonzero;stroke:none"
         id="path118" />
      <path
         d="m 666.734,382.781 -0.312,-0.121 0.269,-0.191 c 2.258,-1.66 3.661,-3.528 4.161,-4.258 l 0.125,-0.191 0.152,0.16 c 2.762,2.871 3.93,4.832 3.379,5.648 -0.965,1.422 -6.649,-0.629 -7.774,-1.047"
         style="fill:#ffffff;fill-opacity:1;fill-rule:nonzero;stroke:none"
         id="path120" />
      <path
         d="m 674.293,402.172 c -0.57,1.258 -3.676,1.047 -4.613,0.949 l -26.59,-3.59 0.496,0.219 c 16.133,7.281 28.769,17.93 28.918,18.059 1.691,2.019 2.34,3.453 1.934,4.269 -0.497,0.992 -2.461,0.902 -3.516,0.844 l -0.27,-0.012 c -0.277,-0.019 -0.449,-0.019 -0.558,0 l -0.035,0.012 -34.368,-8.363 25.391,15.402 c 14.156,7.801 13.258,13.469 13.215,13.699 -0.094,0.57 -0.379,1.012 -0.871,1.34 -1.883,1.262 -6.211,0.469 -7.516,0.18 l -23.305,-2.91 27.524,16.429 0.035,0.031 c 1.93,1.942 2.684,3.43 2.234,4.43 -0.558,1.238 -2.793,1.418 -4.07,1.418 -0.144,0 -0.273,0 -0.363,0 l -27.66,-2.098 17.554,10.641 c 10.145,6.219 12.059,9.52 12.293,10.93 0.106,0.621 -0.101,0.879 -0.129,0.898 -3.418,3.852 -28.668,-7.019 -28.925,-7.14 l -0.379,-0.161 0.187,0.192 h -0.008 l 17.051,17.238 c 6.688,6.82 7.563,10.043 7.489,11.363 -0.04,0.559 -0.247,0.84 -0.336,0.93 l -0.039,0.027 c -0.387,0.231 -0.891,0.352 -1.508,0.352 -4.344,0 -13.383,-5.871 -14.434,-6.559 l -0.101,-0.07 -4.43,20.988 c -0.664,4.141 -1.66,6.571 -2.969,7.219 -0.215,0.102 -0.543,0.203 -0.887,0.102 l -0.023,0.019 -0.121,-0.07 h -0.035 c -2.871,0 -3.969,-16.59 -3.992,-16.93 -0.403,-3.937 -2.754,-10.879 -3.016,-11.66 l -0.051,-0.129 -0.09,0.078 c -10.359,8.403 -15.164,6.852 -15.676,6.653 l -0.058,-0.032 -0.031,-0.05 c -0.731,-1.258 2.058,-5.618 3.203,-7.2 l 19.207,-21.968 -19.547,6.898 c -6.91,1.57 -7.832,-0.098 -7.84,-0.109 -0.672,-1.301 1.93,-4.149 3,-5.149 l 21.473,-17.133 -0.34,0.071 c -23.238,4.82 -26.656,1.461 -26.707,1.402 -2.102,-3.383 3.664,-7.32 3.738,-7.371 l 27.164,-15.031 -0.035,-0.02 0.063,0.012 3.253,-1.813 -28.898,4.661 c -6.121,1.062 -6.531,0.043 -6.797,-0.649 -0.043,-0.121 -0.078,-0.219 -0.14,-0.308 l -0.028,-0.032 -0.004,-0.039 c -0.488,-3.543 4.34,-7.07 4.543,-7.222 l 23.383,-18.539 -16.449,4.73 c -3.047,0.852 -4.621,1.039 -4.895,1.059 l -0.484,0.011 c -3.395,0 -5.359,-0.672 -5.84,-1.988 -0.941,-2.551 3.945,-6.762 4.531,-7.254 l 27.852,-17.359 -27.906,5.062 c -1.243,0.449 -2.317,0.68 -3.196,0.68 -1.187,0 -1.668,-0.422 -1.793,-0.609 h -0.004 c -0.816,-1.063 1.731,-3.641 3.192,-4.864 l 23.387,-13.316 0.144,-0.082 0.098,0.14 c 6.636,10.149 20.551,4.43 21.136,4.18 l 0.075,-0.031 0.07,0.031 c 9.316,4.18 15.434,9.781 15.48,9.82 1.446,1.321 3.067,3.11 2.563,4.192"
         style="fill:#ffffff;fill-opacity:1;fill-rule:nonzero;stroke:none"
         id="path122" />
      <path
         d="m 610.742,384.559 c -1.023,0 -1.726,-0.231 -2.082,-0.7 -0.367,-0.48 -0.347,-1.211 0.059,-2.16 l 0.101,-0.25 0.188,0.192 c 0.941,0.937 1.965,1.789 3.047,2.5 l 0.39,0.257 -0.465,0.071 c -0.433,0.062 -0.851,0.09 -1.238,0.09"
         style="fill:#ffffff;fill-opacity:1;fill-rule:nonzero;stroke:none"
         id="path124" />
      <path
         d="m 580.141,413.422 c -0.793,0.539 -2.368,-0.172 -4.668,-2.102 l -17.325,-13.64 12.957,24.75 0.02,0.07 c 0.102,1.039 0.492,6.289 -1.699,7.898 -0.852,0.633 -2.004,0.633 -3.434,0.024 l -19.433,-23.141 11.964,32.059 c 0.301,0.769 2.86,7.582 0.766,9.648 l -0.031,0.043 c -0.07,0.149 -0.36,0.649 -1.067,0.797 -0.742,0.211 -2.121,0.024 -4.539,-2.047 l -16.097,-12.031 9.73,19.762 c 0.145,0.359 3.496,8.847 0.883,11.129 -1.219,1.07 -3.582,0.609 -7.047,-1.371 l -12.859,-10.141 7.48,22.512 c 0.094,0.507 0.875,5.05 -0.855,6.039 -1.047,0.621 -2.824,-0.2 -5.305,-2.43 l -11.262,-13.84 3.192,24.988 c 0.008,0.082 0.761,7.782 -1.258,8.883 l -0.078,0.039 -0.082,-0.031 c -0.485,-0.219 -2.961,-1.418 -4.438,-4.359 l -4.027,-7.7 -0.074,0.098 c -0.117,0.152 -11.746,15.801 -17.227,19.641 l -0.039,0.019 c -0.699,0.282 -1.641,0.524 -2.156,0.063 -0.449,-0.403 -0.453,-1.321 -0.012,-2.66 l 8.473,-23.93 -0.203,0.008 c -2.614,0.261 -15.7,1.359 -16.196,-2 l -0.043,-0.071 c -0.05,-0.097 -0.05,-0.238 -0.011,-0.41 0.242,-0.886 1.859,-2.5 8.207,-5.109 l 26.215,-9.141 -21.649,-2.968 c -0.519,-0.149 -5.082,-1.489 -5.098,-3.25 -0.007,-0.731 0.852,-1.86 5.008,-3.09 l 28.918,-3.149 -21.465,-10.179 c -0.035,-0.024 -3.613,-1.653 -3.464,-3.582 0.101,-1.348 1.902,-2.5 5.539,-3.52 l 33.351,-2.051 -26.098,-7.98 c -1.07,-0.379 -4.558,-1.789 -4.55,-3.809 0.011,-1.922 3.05,-3.84 9.062,-5.738 l 24.723,-3.363 -16.707,-7.028 c -1.289,-0.371 -5.485,-1.75 -5.528,-3.59 -0.019,-1.132 1.586,-2.23 4.805,-3.281 l 0.176,-0.019 c 6.594,-0.762 22.68,-2.571 29.625,-3 l 0.199,-0.012 -0.148,-0.129 c -0.172,-0.141 -2.137,-0.961 -16.633,-5.66 l -0.75,-0.238 0.777,-0.102 c 0.516,-0.07 1.008,-0.148 1.438,-0.219 l 0.023,-0.011 c 5.071,-1.309 14.196,-3.141 27.121,-5.43 l 0.125,-0.031 12.266,22.16 c 0.582,1.621 1.812,6.043 0.512,6.953"
         style="fill:#ffffff;fill-opacity:1;fill-rule:nonzero;stroke:none"
         id="path126" />
      <path
         d="m 599.66,444.898 c 0.445,3.102 2.563,5.661 6.301,7.602 l 0.18,0.09 -0.118,0.172 c -1.035,1.437 -6.082,8.929 -4.082,14.699 1.008,2.891 3.622,4.937 7.754,6.059 l 0.297,0.089 -0.211,0.211 c -1.117,1.149 -4.804,5.149 -5.375,8.469 l -0.031,0.18 -11.445,-2.59 11.066,7.621 0.047,0.039 0.02,0.051 c 0.214,0.621 2.316,6.051 10.05,6.57 l 0.352,0.02 -0.227,0.269 c -1.562,1.891 -6.515,8.602 -4.539,15.27 l 0.067,0.23 h -5.368 l 9.125,5.481 c 0.551,0.511 1.137,0.851 1.7,1.261 l 0.082,-0.07 -0.075,0.078 c 0.532,0.391 1.04,0.86 1.618,1.199 l 9.695,5.332 0.016,0.008 c 1.277,0.91 5.382,4 4.754,5.922 -0.375,1.121 -2.375,1.629 -5.961,1.512 l -25.852,-2.094 0.289,0.172 c 0.223,0.129 22.402,13.711 25.106,16.898 0.828,0.852 3.476,3.75 2.675,5.211 -0.367,0.672 -1.699,1.282 -6.011,0.301 -1.102,-0.332 -6.782,-2.09 -10.286,-3.691 L 600.609,542.711 620.547,566 c 0.176,0.219 4.328,5.43 3.062,7.141 -0.507,0.668 -2.129,1.05 -6.992,-0.969 -0.051,-0.012 -5.57,-1.942 -8.676,-5.481 l -0.078,-0.089 -0.054,0.109 c -0.114,0.277 -2.809,6.789 -3.754,17.148 -0.02,0.27 -0.473,6.77 -1.996,8.895 l -0.039,0.051 -0.071,0.015 c -0.488,0.11 -3.019,0.629 -4.172,-0.027 l -0.07,-0.039 -0.016,-0.082 c -0.375,-1.867 -1.636,-8.453 -2.187,-14.942 -0.133,-0.859 -1.356,-8.429 -3.391,-11.05 l -0.054,-0.071 -0.067,0.063 c -0.344,0.277 -8.57,6.879 -14.082,6.879 -0.551,0 -1.07,-0.063 -1.543,-0.199 l -0.094,-0.032 -0.031,-0.09 c -0.222,-0.769 -0.715,-5.14 11.785,-15.761 l 11.524,-13.168 -20.641,6.719 c -0.07,0.019 -7.164,1.718 -8.105,-0.211 -0.399,-0.797 0.195,-2.618 5.293,-6.758 l 17.414,-13.551 -17.985,1.461 c -0.621,-0.031 -6.074,-0.371 -6.855,-2.922 -0.578,-1.891 1.48,-4.559 6.152,-7.93 l 29.297,-14.89 -29.598,3.953 c -0.062,0.008 -6.265,0.937 -7.281,-1.231 -0.597,-1.269 0.727,-3.351 3.942,-6.211 l 9.109,-6.628 c 1.848,-1.364 8.148,-6.043 11.52,-9.231 l 0.191,-0.18 -17.129,2.649 h -0.273 c -1.575,0 -6.778,-0.18 -7.536,-2.418 -0.554,-1.633 1.239,-3.91 5.489,-6.973 l 25.972,-15.16 -26.707,3.723 c -0.136,0 -0.316,0.008 -0.507,0.008 -0.723,0 -4.34,-0.071 -4.77,-1.418 -0.219,-0.68 0.309,-2 4.062,-4.422 l 24.696,-14.442 -27.879,2.352 -0.254,0.019 0.062,-0.25 c 1.192,-4.531 0.137,-9.597 -0.214,-11.05 l -0.067,-0.258 0.266,0.039 c 3.043,0.48 5.531,-0.149 7.379,-1.879 4.355,-4.082 3.836,-13.07 3.687,-14.832 l -0.015,-0.199 h 0.382 c 0.122,0.011 0.243,0.011 0.36,0.011 2.98,0 5.273,-0.929 6.808,-2.761 3.364,-4 2.137,-11.27 1.86,-12.68 l -0.039,-0.199 0.199,-0.02 c 3.441,-0.293 6.105,-1.691 7.914,-4.152 4.645,-6.32 2.566,-18.02 1.453,-22.75 l -0.039,-0.188 3.309,-0.613 -0.094,0.293 c -0.402,1.238 -1.594,5.559 -0.063,8.969 0.77,1.73 2.114,3 4.004,3.789 l 0.215,0.09 -0.144,0.191 c -0.918,1.168 -5.45,7.301 -4.305,12.442 0.516,2.347 2.125,4.199 4.773,5.5 l 0.188,0.097 -0.121,0.172 c -1.016,1.449 -6.008,8.949 -4.27,14.617 0.758,2.453 2.664,4.262 5.672,5.383 l 0.262,0.098 -0.195,0.203 c -1.282,1.277 -7.622,7.957 -6.735,14.226"
         style="fill:#ffffff;fill-opacity:1;fill-rule:nonzero;stroke:none"
         id="path128" />
      <path
         d="m 710.086,590.004 0.043,-0.039 0.059,-0.004 c 0.503,-0.035 4.964,-0.461 6.765,-3.969 1.914,-3.73 0.344,-9.512 -4.683,-17.183 l -0.149,-0.231 0.274,-0.039 c 1.847,-0.277 8.003,-1.539 9.683,-5.969 1.41,-3.699 -0.644,-8.648 -6.101,-14.691 l -0.219,-0.238 0.32,-0.063 c 1.645,-0.269 5.977,-1.406 10.703,-6.008 l 0.719,-0.699 -0.434,0.899 c -1.824,3.808 -4.128,11.332 0.914,18.832 l 0.02,0.027 0.031,0.012 c 9.274,1.738 14.383,-1.93 15.735,-3.102 l 0.23,-0.199 0.848,4.18 -0.16,0.05 c -7.352,2.16 -12.629,1.481 -15.125,0.899 l -0.243,-0.059 0.164,0.192 c 1.368,1.589 3.051,3.097 5.016,4.476 l 11.539,8.344 c 0.613,0.598 2.559,2.668 1.992,3.937 -0.492,1.09 -2.734,1.121 -4.531,0.961 l -22.769,-4.59 22.621,20.239 c 0.601,0.672 3.55,4.105 2.621,5.621 -0.403,0.66 -1.774,1.191 -6.098,-0.024 -0.035,-0.015 -4.137,-1.703 -9.445,-4.89 l -0.11,-0.059 -2.578,24.977 c -0.109,0.418 -0.734,2.519 -2.136,2.82 -1.016,0.188 -2.172,-0.574 -3.438,-2.203 l -7.609,-23.391 -0.094,0.114 c -0.219,0.246 -5.328,6.113 -11.785,7.851 -0.621,0.258 -2.363,0.774 -2.969,0.09 -0.609,-0.672 0.039,-2.266 0.691,-3.48 0.45,-0.907 4.524,-8.961 9.688,-13.391"
         style="fill:#ffffff;fill-opacity:1;fill-rule:nonzero;stroke:none"
         id="path130" />
      <path
         d="m 723.77,458.199 c -0.047,0.16 -0.114,0.391 -0.184,0.66 l -0.043,0.161 -37.172,-5.071 25.973,15.313 c 5.578,4.277 6.265,6.386 5.859,7.418 -0.711,1.761 -4.933,1.558 -6.211,1.468 l -24.539,-4.066 25.754,15.637 c 4.699,3.84 5.258,5.531 4.898,6.281 -0.613,1.262 -4.339,0.738 -5.718,0.441 l -32.953,-6.41 30.796,18.469 c 6,4.98 8.618,8.449 7.774,10.309 -0.945,2.089 -5.914,1.461 -6.91,1.312 l -19.985,-3.051 21.649,15.25 c 2.773,2.2 3.965,3.891 3.543,5.051 -0.567,1.539 -3.789,1.699 -5.149,1.699 -0.082,0 -0.144,0 -0.199,0 l -24.695,-1.769 21.98,15.039 c 4.235,3.262 6.188,5.582 5.637,6.719 -0.793,1.66 -6.937,0.582 -9.266,0.023 l -19.191,-7.863 19.348,22.41 c 4.035,4.223 5.777,6.992 5.047,8.012 -0.239,0.328 -0.719,0.488 -1.426,0.488 -2.106,0 -6.199,-1.449 -9.141,-2.82 l -5.996,-4.161 -5.52,24.727 c -0.777,1.547 -1.593,2.332 -2.406,2.332 v 0 l -0.156,0.012 -0.012,-0.024 c -1.422,-0.172 -2.418,-2.578 -2.429,-2.621 l -4.957,-23.304 -9.368,4.351 c -4.414,1.668 -5.867,1.277 -6.3,0.66 -0.965,-1.359 1.75,-5.172 2.875,-6.519 l 17.367,-21.832 -12.856,5.3 c -7.129,2.489 -11.23,3 -12.191,1.508 -1.02,-1.578 1.98,-5 2.613,-5.699 l 19.688,-17.418 -0.289,0.059 c -15.711,3.039 -24.227,3.242 -25.282,0.621 -1.086,-2.731 6.645,-7.731 6.731,-7.781 l 25.156,-13.29 -31.988,3.848 -0.235,0.031 0.907,-6 0.195,0.051 c 9.703,2.59 15.824,2.211 18.164,-1.121 1.602,-2.289 1.414,-5.879 -0.531,-10.648 l 7.179,-4.551 -9.257,0.441 c -0.586,-1.07 -1.285,-2.293 -2.2,-3.82 l -0.156,-0.231 0.274,-0.05 c 4.824,-0.782 7.98,-2.379 9.41,-4.789 l -0.176,-0.102 0.211,0.039 c 0.211,-0.359 0.383,-0.738 0.512,-1.137 0.722,-2.179 0.25,-4.89 -1.403,-8.043 0,0 -0.457,-0.707 -1.199,-1.789 l 7.109,-5.05 -9.531,1.73 c -0.433,-0.57 -0.851,-1.129 -1.347,-1.738 l -0.219,-0.231 0.308,-0.07 c 4.954,-1.121 7.993,-3.238 9.039,-6.301 1.856,-5.429 -3.246,-12.25 -4.289,-13.558 l -0.14,-0.18 0.203,-0.09 c 3.793,-1.812 5.961,-4.269 6.445,-7.301 1.008,-6.332 -5.754,-13.429 -7.121,-14.789 l -0.226,-0.23 0.316,-0.082 c 3.77,-0.867 6.102,-2.571 6.926,-5.059 1.84,-5.519 -4.242,-13.16 -5.481,-14.64 l -0.172,-0.2 0.25,-0.082 c 3.196,-1.039 5.122,-2.726 5.735,-5.027 1.41,-5.313 -4.453,-12.16 -5.645,-13.481 l -0.183,-0.199 0.261,-0.082 c 2.313,-0.75 3.871,-2.09 4.641,-3.988 1.805,-4.441 -1.172,-10.66 -2.531,-13.121 l -0.156,-0.281 0.32,0.011 c 2.957,0.149 5.754,0.301 8.316,0.469 l 0.235,0.012 -0.075,0.219 c -1.261,3.742 -5.031,16.48 -0.632,23.671 1.617,2.649 4.187,4.278 7.648,4.829 l 0.195,0.031 -0.054,0.199 c -0.383,1.391 -2.149,8.551 0.91,12.789 1.476,2.063 3.871,3.172 7.113,3.289 h 0.203 l -0.031,0.203 c -0.277,1.75 -1.457,10.688 2.57,15.071 1.512,1.636 3.602,2.476 6.211,2.476 0.297,0 0.617,-0.019 1.008,-0.039 l 0.266,-0.019 -0.082,0.25 c -0.512,1.558 -2.903,9.628 0.464,15.07 1.782,2.89 4.883,4.609 9.219,5.129 l 0.211,0.031 -0.058,0.199"
         style="fill:#ffffff;fill-opacity:1;fill-rule:nonzero;stroke:none"
         id="path132" />
    </g>
  </g>
</svg>
