<?xml version="1.0" encoding="UTF-8" standalone="no"?>
<svg
   xmlns:dc="http://purl.org/dc/elements/1.1/"
   xmlns:cc="http://creativecommons.org/ns#"
   xmlns:rdf="http://www.w3.org/1999/02/22-rdf-syntax-ns#"
   xmlns:svg="http://www.w3.org/2000/svg"
   xmlns="http://www.w3.org/2000/svg"
   viewBox="0 0 671.49335 216.13333"
   height="216.13333"
   width="671.49335"
   xml:space="preserve"
   id="svg2"
   version="1.1"><metadata
     id="metadata8"><rdf:RDF><cc:Work
         rdf:about=""><dc:format>image/svg+xml</dc:format><dc:type
           rdf:resource="http://purl.org/dc/dcmitype/StillImage" /></cc:Work></rdf:RDF></metadata><defs
     id="defs6" /><g
     transform="matrix(1.3333333,0,0,-1.3333333,0,216.13333)"
     id="g10"><g
       transform="scale(0.1)"
       id="g12"><path
         id="path14"
         style="fill:#ffffff;fill-opacity:1;fill-rule:nonzero;stroke:none"
         d="m 1756.43,1564.97 v -16.11 h -52.62 v -367.62 c 0,-89.21 50.42,-117.71 96.47,-117.71 69.46,0 118.44,46.77 118.44,122.84 v 362.49 h -65.78 v 16.11 h 130.07 v -16.11 h -43.88 v -363.22 c 0,-84.8 -56.24,-138.19 -141.77,-138.19 -118.44,0 -172.51,49.74 -172.51,150.65 v 350.76 h -43.78 v 16.11 h 175.36" /><path
         id="path16"
         style="fill:#ffffff;fill-opacity:1;fill-rule:nonzero;stroke:none"
         d="m 1985.23,1430.42 h 102.29 v -49.67 h 1.45 c 17.55,31.46 51.87,61.4 103.08,61.4 57.76,0 98.65,-27.81 98.65,-107.45 v -259.41 h 39.47 v -16.11 h -150.58 v 16.11 H 2222 v 268.19 c 0,54.1 -16.83,72.41 -51.15,72.41 -40.23,0 -77.51,-35.14 -77.51,-111.1 v -229.5 h 42.4 v -16.11 h -150.51 v 16.11 h 39.41 v 339.05 h -39.41 v 16.08" /><path
         id="path18"
         style="fill:#ffffff;fill-opacity:1;fill-rule:nonzero;stroke:none"
         d="m 2446.43,1075.28 h 35.07 v -16.08 h -138.85 v 16.08 h 35.01 v 339.09 h -35.01 v 16.04 h 103.78 z m -34.42,479.38 c 23.44,0 41.64,-16.77 41.64,-41.61 0,-24.89 -18.2,-41.65 -41.64,-41.65 -23.37,0 -41.62,16.76 -41.62,41.65 0,24.84 18.25,41.61 41.62,41.61" /><path
         id="path20"
         style="fill:#ffffff;fill-opacity:1;fill-rule:nonzero;stroke:none"
         d="m 2457.34,1430.42 h 159.35 v -16.08 h -57.03 l 96.51,-273.31 h 1.45 l 97.95,273.31 h -58.48 v 16.08 h 109.63 v -16.08 h -29.98 l -129.38,-358.12 h -29.98 l -130.03,358.12 h -30.01 v 16.08" /><path
         id="path22"
         style="fill:#ffffff;fill-opacity:1;fill-rule:nonzero;stroke:none"
         d="m 2861.51,1279.92 c -0.72,-7.29 -0.72,-14.66 -0.72,-21.92 0,-141.08 35.11,-190.06 90.62,-190.06 62.16,0 106.73,39.48 114.03,130.13 h 16.11 c -3.68,-100.87 -62.85,-150.61 -137.4,-150.61 -92.83,0 -159.36,80.44 -159.36,197.32 0,116.99 70.87,197.39 157.19,197.39 83.23,0 136.57,-58.51 136.57,-162.25 z m 141.12,16.08 v 28.5 c 0,73.1 -24.13,101.56 -62.16,101.56 -45.3,0 -72.35,-45.29 -78.2,-130.06 h 140.36" /><path
         id="path24"
         style="fill:#ffffff;fill-opacity:1;fill-rule:nonzero;stroke:none"
         d="m 3137.61,1414.36 h -39.45 v 16.07 h 106.7 v -54.07 h 1.48 c 15.35,42.41 41.62,65.81 88.39,65.81 18.31,0 39.51,-8.06 50.46,-13.15 V 1285.7 h -16.11 l -25.54,75.34 c -13.18,38.76 -20.51,54.83 -38.03,54.83 -29.98,0 -59.17,-54.1 -59.17,-119.88 v -220.72 h 48.22 v -16.07 h -156.4 v 16.07 h 39.45 v 339.09" /><path
         id="path26"
         style="fill:#ffffff;fill-opacity:1;fill-rule:nonzero;stroke:none"
         d="m 3378.27,1208.3 c 26.3,-122.81 40.93,-144.76 106.74,-144.76 56.99,0 99.36,29.25 99.36,82.6 0,70.9 -226.54,55.58 -226.54,179.08 0,73.03 59.16,116.95 143.25,116.95 39.44,0 77.44,-10.98 105.22,-25.61 v -117.64 h -20.45 c -31.42,108.15 -39.48,127.14 -91.38,127.14 -46.05,0 -89.9,-25.5 -89.9,-65.8 0,-92.04 226.58,-60.65 226.58,-188.55 0,-74.51 -64.33,-124.25 -152.03,-124.25 -38,0 -84.05,10.98 -121.29,32.15 v 128.69 h 20.44" /><path
         id="path28"
         style="fill:#ffffff;fill-opacity:1;fill-rule:nonzero;stroke:none"
         d="m 3756.13,1075.28 h 35.11 v -16.08 h -138.88 v 16.08 h 35.04 v 339.09 h -35.04 v 16.04 h 103.77 z m -34.35,479.38 c 23.4,0 41.65,-16.77 41.65,-41.61 0,-24.89 -18.25,-41.65 -41.65,-41.65 -23.37,0 -41.65,16.76 -41.65,41.65 0,24.84 18.28,41.61 41.65,41.61" /><path
         id="path30"
         style="fill:#ffffff;fill-opacity:1;fill-rule:nonzero;stroke:none"
         d="m 3795.61,1430.42 h 46.05 v 87.76 h 68.66 v -87.76 h 84.81 v -16.08 h -84.81 v -301.09 c 0,-27.74 11.71,-39.44 39.48,-39.44 31.43,0 49.74,18.96 49.74,73.03 v 58.52 h 16.11 v -54.07 c 0,-77.48 -32.15,-103.81 -92.18,-103.81 -52.59,0 -81.81,27.81 -81.81,87.73 v 279.13 h -46.05 v 16.08" /><path
         id="path32"
         style="fill:#ffffff;fill-opacity:1;fill-rule:nonzero;stroke:none"
         d="m 3979.06,1430.42 h 156.37 v -16.08 h -54.8 l 106.7,-255.04 87.73,255.04 h -63.57 v 16.08 h 116.92 v -16.08 h -32.87 l -133.78,-385.11 c -27.78,-81.152 -50.39,-97.261 -92.07,-97.261 -27.02,0 -45.3,6.609 -55.55,17.59 v 113.991 h 16.04 l 19.75,-70.902 c 10.26,-37.996 21.93,-44.57 33.63,-44.57 29.25,0 52.66,50.422 70.14,113.342 l -146.86,352.92 h -27.78 v 16.08" /><path
         id="path34"
         style="fill:#ffffff;fill-opacity:1;fill-rule:nonzero;stroke:none"
         d="m 2214.58,218.309 v 24.203 h 66.04 v 713.25 h -66.04 v 24.261 h 320.29 c 184.93,0 249.92,-88.109 249.92,-183.894 0,-106.77 -83.71,-180.457 -242.21,-190.41 l 262,-363.207 h 53.93 v -24.203 h -175.02 l -279.54,387.41 h -4.48 V 242.512 h 83.67 v -24.203 z m 184.89,405.105 h 64.95 c 131.03,0 194.81,63.777 194.81,172.715 0,77.094 -38.52,159.633 -159.57,159.633 H 2399.47 V 623.414" /><path
         id="path36"
         style="fill:#ffffff;fill-opacity:1;fill-rule:nonzero;stroke:none"
         d="m 2920.32,550.711 c -1.07,-10.981 -1.07,-22.031 -1.07,-32.973 0,-212.468 52.83,-286.258 136.47,-286.258 93.55,0 160.74,59.469 171.68,195.942 h 24.23 c -5.51,-151.953 -94.65,-226.75 -206.92,-226.75 -139.78,0 -239.97,121.09 -239.97,297.238 0,176.086 106.77,297.102 236.66,297.102 125.49,0 205.89,-87.973 205.89,-244.301 z m 212.46,24.199 v 42.949 c 0,110.071 -36.31,152.993 -93.51,152.993 -68.29,0 -109.04,-68.254 -117.82,-195.942 h 211.33" /><path
         id="path38"
         style="fill:#ffffff;fill-opacity:1;fill-rule:nonzero;stroke:none"
         d="m 3754.14,746.648 h -83.61 v -2.203 c 39.55,-27.535 59.38,-83.672 59.38,-135.406 0,-104.527 -81.44,-186.027 -195.88,-186.027 -103.53,0 -121.08,39.617 -136.54,39.617 -33.04,0 -77.03,-32.981 -77.03,-70.348 0,-168.449 444.69,37.367 444.69,-205.929 0,-89.1137 -94.62,-177.15278 -239.97,-177.15278 -165.13,0 -237.76,72.58988 -237.76,131.99178 0,40.789 40.75,71.629 70.46,81.539 v 2.129 c -66.05,15.461 -96.86,66.09 -96.86,123.289 0,80.403 52.8,122.223 114.48,138.711 -23.16,25.332 -41.85,71.551 -41.85,127.692 0,105.664 85.87,180.453 198.11,180.453 28.67,0 66.08,-6.574 86.97,-17.555 h 135.41 z M 3516.34,33.3594 c 114.51,0 189.37,57.2422 189.37,114.4806 0,41.851 -18.72,63.84 -101.29,66.039 l -206.93,4.441 c -26.4,-15.422 -39.61,-48.422 -39.61,-80.359 0,-49.5704 59.44,-104.6016 158.46,-104.6016 m 15.42,413.9216 c 57.31,0 88.11,33 88.11,161.758 0,128.797 -30.8,161.84 -88.11,161.84 -57.2,0 -88.04,-33.043 -88.04,-161.84 0,-128.758 22.06,-161.758 88.04,-161.758" /><path
         id="path40"
         style="fill:#ffffff;fill-opacity:1;fill-rule:nonzero;stroke:none"
         d="m 3948.18,242.5 h 52.86 V 218.301 H 3791.88 V 242.5 h 52.84 v 510.699 h -52.84 v 24.231 h 156.3 z m -51.73,722.098 c 35.24,0 62.71,-25.332 62.71,-62.778 0,-37.449 -27.47,-62.746 -62.71,-62.746 -35.21,0 -62.71,25.297 -62.71,62.746 0,37.446 27.5,62.778 62.71,62.778" /><path
         id="path42"
         style="fill:#ffffff;fill-opacity:1;fill-rule:nonzero;stroke:none"
         d="m 4027.98,777.449 h 154.13 V 702.59 h 2.17 c 26.46,47.324 78.13,92.445 155.23,92.445 86.97,0 148.55,-41.816 148.55,-161.801 V 242.52 h 59.47 v -24.2 h -226.71 v 24.2 h 63.81 v 403.964 c 0,81.438 -25.33,108.973 -77.03,108.973 -60.54,0 -116.71,-52.867 -116.71,-167.348 V 242.52 h 63.84 v -24.2 h -226.75 v 24.2 h 59.41 v 510.699 h -59.41 v 24.23" /><path
         id="path44"
         style="fill:#ffffff;fill-opacity:1;fill-rule:nonzero;stroke:none"
         d="m 4615.77,577.129 v 178.328 c 57.24,23.129 110.07,39.578 168.38,39.578 137.57,0 199.28,-72.656 199.28,-140.875 V 242.52 h 52.8 v -24.2 h -149.72 v 96.821 h -2.17 C 4857.9,246.922 4795.2,200.699 4717.1,200.699 c -99.16,0 -167.34,57.199 -167.34,152.949 0,192.684 226.75,136.543 336.75,203.692 v 115.578 c 0,69.355 -37.38,97.957 -95.72,97.957 -77.03,0 -97.95,-39.652 -150.82,-193.746 z m 270.74,-48.457 c -124.32,-58.301 -226.68,-16.492 -226.68,-175.024 0,-82.527 30.8,-113.339 89.14,-113.339 82.57,2.211 137.54,83.679 137.54,204.691 v 83.672" /><path
         id="path46"
         style="fill:#ffffff;fill-opacity:1;fill-rule:nonzero;stroke:none"
         d="m 1864.86,774.941 c 68.25,0 119.98,-60.543 119.98,-148.617 0,-88.043 -51.73,-148.586 -119.98,-148.586 -68.22,0 -119.95,60.543 -119.95,148.586 0,88.074 51.73,148.617 119.95,148.617 m 0,-285.089 c 41.3,0 62.74,29.707 62.74,136.472 0,106.801 -21.44,136.504 -62.74,136.504 -41.23,0 -62.71,-29.703 -62.71,-136.504 0,-106.765 21.48,-136.472 62.71,-136.472" /><path
         id="path48"
         style="fill:#ffffff;fill-opacity:1;fill-rule:nonzero;stroke:none"
         d="m 1995.82,766.145 h 26.43 v 30.253 c 0,50.665 26.43,79.782 86.98,79.782 16.52,0 33,-2.754 48.42,-7.707 v -72.66 h -12.11 c -19.79,62.781 -27.54,68.253 -45.16,68.253 -13.15,0 -26.36,-8.777 -26.36,-36.312 v -61.609 h 66.01 v -12.114 h -66.01 V 498.648 h 39.58 v -12.117 h -117.78 v 12.117 h 26.43 v 255.383 h -26.43 v 12.114" /><path
         id="path50"
         style="fill:#ffffff;fill-opacity:1;fill-rule:nonzero;stroke:none"
         d="m 594.902,1303.69 c 7.657,4.01 17.188,8.99 30.477,9.32 14.137,0.41 26.051,-5.69 32.945,-10.65 v 164.99 c -7.062,9.13 -22.105,16.35 -33.972,16.35 -12.071,0 -20.625,-2.43 -32.684,-9.31 -14.035,-5.91 -23.016,-6.84 -34.105,-4.34 V 1304.8 c 5.691,-4.61 10.011,-7.07 21.812,-7.07 4.953,0 9.855,2.99 15.527,5.96" /><path
         id="path52"
         style="fill:#ffffff;fill-opacity:1;fill-rule:nonzero;stroke:none"
         d="m 548.836,1289.8 c 6.812,-4.74 16.523,-7.21 27.902,-6.69 5.379,0.22 10.516,2.24 16.461,4.57 8.211,3.22 17.508,6.86 30.578,7.18 16.246,0.36 25.778,-6.14 30.176,-10.21 0.27,0.49 0.543,0.99 0.805,1.47 1.359,2.49 2.68,4.9 3.992,7.05 v 0.71 c -5.508,4.4 -17.875,12.62 -33.215,12.16 -11.762,-0.28 -20.172,-4.69 -27.594,-8.57 -6.171,-3.23 -12.003,-6.29 -18.566,-6.29 -12.312,0 -18.215,2.21 -24.613,7.09 l -5.926,-8.47" /><path
         id="path54"
         style="fill:#ffffff;fill-opacity:1;fill-rule:nonzero;stroke:none"
         d="m 732.422,1303.27 c 5.672,-2.98 10.57,-5.12 15.527,-5.12 11.793,0 16.125,2.04 21.809,6.65 v 165.25 c -11.11,-2.49 -20.313,-1.45 -33.567,4.08 -12.593,7.14 -21.144,10.42 -33.214,10.42 -11.868,0 -26.914,-8.07 -33.973,-17.2 v -164.96 c 6.867,4.95 18.734,11.02 32.941,10.62 13.301,-0.33 22.825,-5.74 30.477,-9.74" /><path
         id="path56"
         style="fill:#ffffff;fill-opacity:1;fill-rule:nonzero;stroke:none"
         d="m 509.492,1446.28 v -199.57 h 133.602 c -0.461,1.19 -0.836,2.43 -1.133,3.74 -0.402,1.57 -0.676,3.19 -0.676,4.89 0,0.73 0.063,1.02 0.145,1.73 -0.809,-0.17 -1.606,-0.38 -2.473,-0.41 l -116.156,-0.24 v 189.86 h -13.309" /><path
         id="path58"
         style="fill:#ffffff;fill-opacity:1;fill-rule:nonzero;stroke:none"
         d="m 533.574,1446.35 v -166.97 l 2.317,3.31 v 166.29 l -2.317,-2.63" /><path
         id="path60"
         style="fill:#ffffff;fill-opacity:1;fill-rule:nonzero;stroke:none"
         d="m 684.492,1228.8 0.203,0.31 138.008,0.63 v 10.53 l -144.211,-0.11 c -3.957,-3.51 -9.25,-5.71 -15.097,-5.71 -5.848,0 -11.137,2.2 -15.094,5.71 H 504.613 v -10.42 l 138.016,-0.63 0.484,-0.75 c 2.434,-5.29 10.68,-9.21 20.575,-9.21 10.171,0 18.644,4.13 20.804,9.65" /><path
         id="path62"
         style="fill:#ffffff;fill-opacity:1;fill-rule:nonzero;stroke:none"
         d="m 683.617,1246.71 134.192,0.1 v 199.57 h -13.282 v -189.96 l -116,0.23 c -1.117,0.04 -2.148,0.28 -3.172,0.53 0.09,-0.75 0.153,-1.07 0.153,-1.84 0,-2.16 -0.449,-4.2 -1.094,-6.16 -0.234,-0.84 -0.504,-1.66 -0.797,-2.47" /><path
         id="path64"
         style="fill:#ffffff;fill-opacity:1;fill-rule:nonzero;stroke:none"
         d="m 533.574,1267.52 105.203,0.21 c 1.782,0.07 3.504,1.04 5.168,2.5 -4.152,2.74 -13.261,7.23 -28.261,6.77 -12.204,-0.3 -20.348,-2.49 -27.543,-4.42 -5.922,-1.59 -11.036,-2.96 -17.09,-2.96 -14.778,0 -25.305,2.23 -31.836,6.41 l -5.641,-8.07 v -0.44" /><path
         id="path66"
         style="fill:#ffffff;fill-opacity:1;fill-rule:nonzero;stroke:none"
         d="m 668.578,1293.17 c 1.309,-2.15 2.633,-4.56 3.985,-7.05 0.265,-0.48 0.542,-0.99 0.816,-1.49 4.426,4.06 14.008,10.56 30.168,10.23 13.07,-0.32 22.367,-3.96 30.574,-7.18 5.949,-2.33 11.094,-4.35 16.469,-4.57 11.48,-0.53 21.101,1.94 27.898,6.68 l -5.925,8.48 c -6.403,-4.88 -12.297,-7.09 -24.614,-7.09 -6.562,0 -12.39,3.05 -18.566,6.29 -7.414,3.88 -15.832,8.29 -27.586,8.57 -15.219,0.57 -27.676,-7.72 -33.219,-12.15 v -0.72" /><path
         id="path68"
         style="fill:#ffffff;fill-opacity:1;fill-rule:nonzero;stroke:none"
         d="m 663.664,1281.94 c -0.098,-0.18 -0.187,-0.35 -0.285,-0.52 -3.996,-7.33 -8.715,-15.87 -15.359,-20.35 -0.793,-1.78 -1.278,-3.69 -1.278,-5.73 0,-8.52 7.469,-15.43 16.653,-15.43 9.183,0 16.656,6.91 16.656,15.43 0,2.32 -0.621,4.48 -1.629,6.45 -6.195,4.64 -10.676,12.66 -14.477,19.64 -0.093,0.17 -0.183,0.33 -0.281,0.51" /><path
         id="path70"
         style="fill:#ffffff;fill-opacity:1;fill-rule:nonzero;stroke:none"
         d="m 546.516,1297.89 4.504,6.45 v 161.79 l -4.504,-5.1 v -163.14" /><path
         id="path72"
         style="fill:#ffffff;fill-opacity:1;fill-rule:nonzero;stroke:none"
         d="m 571.051,1272.89 c 5.625,0 10.547,1.32 16.242,2.85 7.367,1.98 15.719,4.22 28.312,4.53 16.583,0.29 26.329,-4.69 30.665,-7.64 2.144,2.55 4.168,5.78 6.039,9.08 -3.684,3.53 -12.754,10.22 -28.45,9.88 -12.496,-0.3 -21.507,-3.84 -29.461,-6.96 -6.222,-2.44 -11.597,-4.54 -17.515,-4.79 -12.133,-0.52 -22.508,2.14 -29.914,7.29 l -5.883,-8.43 c 5.961,-3.79 15.867,-5.81 29.965,-5.81" /><path
         id="path74"
         style="fill:#ffffff;fill-opacity:1;fill-rule:nonzero;stroke:none"
         d="m 539.164,1287.38 4.082,5.83 v 164.11 l -4.082,-4.63 v -165.31" /><path
         id="path76"
         style="fill:#ffffff;fill-opacity:1;fill-rule:nonzero;stroke:none"
         d="m 756.273,1269.62 c -6.054,0 -11.16,1.37 -17.089,2.96 -7.188,1.93 -15.34,4.12 -27.543,4.42 -15.004,0.37 -24.063,-4.04 -28.223,-6.75 1.695,-1.47 3.457,-2.45 5.289,-2.52 l 105.047,-0.21 v 0.43 l -5.649,8.08 c -6.527,-4.18 -17.058,-6.41 -31.832,-6.41" /><path
         id="path78"
         style="fill:#ffffff;fill-opacity:1;fill-rule:nonzero;stroke:none"
         d="m 791.438,1282.7 2.316,-3.32 v 166.97 l -2.316,2.63 V 1282.7" /><path
         id="path80"
         style="fill:#ffffff;fill-opacity:1;fill-rule:nonzero;stroke:none"
         d="m 784.078,1293.23 4.086,-5.85 v 165.31 l -4.086,4.63 v -164.09" /><path
         id="path82"
         style="fill:#ffffff;fill-opacity:1;fill-rule:nonzero;stroke:none"
         d="m 750.457,1279.84 c -5.93,0.25 -11.305,2.35 -17.527,4.79 -7.953,3.12 -16.977,6.66 -29.461,6.96 -15.586,0.37 -24.731,-6.36 -28.446,-9.89 1.864,-3.29 3.887,-6.5 6.04,-9.05 4.355,3.01 14.148,8.08 30.656,7.62 12.597,-0.31 20.949,-2.55 28.312,-4.53 5.707,-1.53 10.625,-2.85 16.242,-2.85 14.098,0 24.008,2.02 29.969,5.81 l -5.894,8.43 c -7.418,-5.13 -17.868,-7.76 -29.891,-7.29" /><path
         id="path84"
         style="fill:#ffffff;fill-opacity:1;fill-rule:nonzero;stroke:none"
         d="m 776.305,1304.35 4.504,-6.44 v 163.12 l -4.504,5.1 v -161.78" /><path
         id="path86"
         style="fill:#ffffff;fill-opacity:1;fill-rule:nonzero;stroke:none"
         d="m 373.227,1258.07 c -10.387,6.08 -40.024,17.71 -114.7,17.71 -74.711,0 -104.57,-11.65 -115.082,-17.74 10.391,-6.07 40.024,-17.7 114.7,-17.7 74.71,0 104.57,11.64 115.082,17.73" /><path
         id="path88"
         style="fill:#ffffff;fill-opacity:1;fill-rule:nonzero;stroke:none"
         d="m 403.02,1397.95 2.445,10.91 1.781,10.94 c 10.414,1.15 21.43,12.56 21.43,23.19 0,11.41 -9.363,20.69 -20.871,20.69 -8.403,0 -15.657,-4.95 -18.961,-12.07 -1.223,-2.63 -1.906,-5.54 -1.906,-8.62 0,-0.97 0.074,-1.93 0.207,-2.87 -3.348,1.97 -7.2,3.16 -11.317,3.34 -0.359,0.02 -0.723,0.03 -1.086,0.03 -3.922,0 -7.629,-0.93 -10.914,-2.56 -3.781,-1.88 -7.008,-4.7 -9.355,-8.16 -2.625,-3.86 -4.16,-8.5 -4.16,-13.5 0,-7.99 3.925,-15.09 9.964,-19.5 3.297,-2.41 7.219,-4.02 11.477,-4.53 0.25,-3.82 0.371,-7.53 0.359,-11.11 -0.008,-3.13 -0.105,-6.17 -0.316,-9.09 -1.922,-26.47 -11.371,-34.46 -18.961,-36.5 -1.379,-0.37 -2.914,-0.6 -4.59,-0.6 -7.273,0 -16.019,4.37 -27.84,20.74 -8.691,-10.77 -19.554,-17.82 -28.789,-17.82 -1.976,0 -3.933,0.32 -5.859,1 -9.164,3.23 -14.563,13.9 -15.207,30.05 -0.153,3.76 -0.035,7.75 0.32,11.9 h 0.074 c 0.024,0.37 0.149,1.39 0.164,1.74 0.121,2.41 0.293,4.97 0.512,7.76 0.067,0.84 0.137,1.69 0.215,2.57 l 0.707,8.7 c 0.371,-0.24 0.793,-0.48 1.254,-0.73 1.613,-0.87 3.754,-1.8 6.308,-2.37 1.7,-0.37 3.586,-0.59 5.622,-0.52 0.253,0 0.503,0.01 0.761,0.02 2.117,0.15 6.301,0.77 10.571,3.41 2.726,1.68 5.265,4.34 7.101,7.6 2.406,4.28 3.606,9.6 2.442,15.15 -0.086,0.41 -2.2,10.06 -10.641,14.24 -3.723,1.84 -7.141,1.88 -11.133,1.92 -4.16,0.04 -8.301,-0.56 -12.324,-1.79 2.699,3.2 4.871,6.72 6.461,10.49 1.098,2.6 2.762,6.53 2.633,11.27 -0.047,1.58 -0.137,4.87 -2.004,8.46 -0.192,0.37 -0.774,1.49 -1.789,2.76 -1.953,2.45 -4.805,4.48 -8.719,6.21 -2.508,1.1 -5.738,1.66 -9.887,1.71 -4.176,-0.05 -7.422,-0.61 -9.926,-1.71 -3.914,-1.73 -6.765,-3.76 -8.718,-6.21 -1.016,-1.27 -1.598,-2.39 -1.789,-2.76 -1.868,-3.59 -1.961,-6.88 -2.004,-8.46 -0.129,-4.73 1.531,-8.67 2.633,-11.27 1.589,-3.77 3.757,-7.29 6.46,-10.49 -4.023,1.23 -8.179,1.83 -12.355,1.79 -3.961,-0.04 -7.383,-0.08 -11.102,-1.92 -8.441,-4.18 -10.554,-13.83 -10.64,-14.24 -1.164,-5.56 0.035,-10.87 2.441,-15.15 1.836,-3.26 4.371,-5.92 7.102,-7.6 4.265,-2.64 8.453,-3.26 10.566,-3.41 0.196,-0.01 0.387,-0.01 0.582,-0.02 1.731,-0.06 3.36,0.07 4.86,0.34 2.879,0.51 5.281,1.5 7.074,2.45 0.531,0.29 1.015,0.57 1.433,0.83 l 0.707,-8.7 c 0.075,-0.84 0.141,-1.67 0.204,-2.47 0.257,-3.25 0.449,-6.19 0.574,-8.93 0.219,-4.11 0.316,-8.81 0.164,-12.58 -0.645,-16.15 -6.043,-26.81 -15.203,-30.04 -1.93,-0.68 -3.887,-1 -5.864,-1 -9.234,0 -20.093,7.05 -28.789,17.82 -11.82,-16.37 -20.562,-20.74 -27.839,-20.74 -1.676,0 -3.211,0.23 -4.59,0.6 -7.586,2.04 -17.035,10.03 -18.957,36.5 -0.215,2.92 -0.313,5.96 -0.321,9.09 -0.011,3.58 0.11,7.29 0.36,11.1 4.258,0.52 8.179,2.13 11.476,4.54 6.039,4.41 9.965,11.5 9.965,19.5 0,5 -1.531,9.64 -4.16,13.5 -2.348,3.46 -5.574,6.28 -9.355,8.16 -3.286,1.63 -6.993,2.56 -10.915,2.56 -0.363,0 -0.726,-0.01 -1.085,-0.03 -4.118,-0.18 -7.969,-1.37 -11.317,-3.34 0.133,0.94 0.207,1.9 0.207,2.87 0,3.08 -0.683,5.99 -1.906,8.62 -3.305,7.12 -10.559,12.07 -18.961,12.07 -11.5079,0 -20.8712,-9.28 -20.8712,-20.69 0,-10.63 11.0152,-22.04 21.4302,-23.19 l 1.785,-10.94 2.441,-10.91 23.945,-127.73 0.118,-0.61 c 0.004,0 0.007,0 0.015,0 l 0.129,-0.61 c 14.672,7.73 47.688,18.13 119.297,18.14 v 0 c 0.012,0 0.02,0 0.027,0 0.012,0 0.02,0 0.032,0 v 0 c 72.918,-0.01 105.656,-10.8 119.804,-18.59 l 0.121,0.65 c 0.028,0 0.059,-0.02 0.086,-0.02 l 0.024,0.11 8.324,43.21 16.102,85.45" /><path
         id="path90"
         style="fill:#ffffff;fill-opacity:1;fill-rule:nonzero;stroke:none"
         d="m 1181.62,1258.07 c -10.38,6.08 -40.02,17.71 -114.69,17.71 -74.715,0 -104.575,-11.65 -115.086,-17.74 10.386,-6.07 40.019,-17.7 114.696,-17.7 74.71,0 104.57,11.64 115.08,17.73" /><path
         id="path92"
         style="fill:#ffffff;fill-opacity:1;fill-rule:nonzero;stroke:none"
         d="m 1211.42,1397.95 2.44,10.91 1.78,10.94 c 10.42,1.15 21.43,12.56 21.43,23.19 0,11.41 -9.36,20.69 -20.87,20.69 -8.4,0 -15.65,-4.95 -18.96,-12.07 -1.22,-2.63 -1.91,-5.54 -1.91,-8.62 0,-0.97 0.08,-1.93 0.21,-2.87 -3.34,1.97 -7.2,3.16 -11.31,3.34 -0.36,0.02 -0.73,0.03 -1.09,0.03 -3.92,0 -7.63,-0.93 -10.92,-2.56 -3.78,-1.88 -7,-4.7 -9.35,-8.16 -2.63,-3.86 -4.16,-8.5 -4.16,-13.5 0,-7.99 3.93,-15.09 9.97,-19.5 3.29,-2.41 7.21,-4.02 11.47,-4.53 0.25,-3.82 0.37,-7.53 0.36,-11.11 -0.01,-3.13 -0.11,-6.17 -0.32,-9.09 -1.92,-26.47 -11.37,-34.46 -18.96,-36.5 -1.38,-0.37 -2.91,-0.6 -4.59,-0.6 -7.27,0 -16.02,4.37 -27.84,20.74 -8.69,-10.77 -19.55,-17.82 -28.78,-17.82 -1.98,0 -3.94,0.32 -5.87,1 -9.16,3.23 -14.56,13.9 -15.2,30.05 -0.15,3.76 -0.04,7.75 0.32,11.9 h 0.07 c 0.02,0.37 0.15,1.39 0.17,1.74 0.12,2.41 0.29,4.97 0.51,7.76 0.07,0.84 0.14,1.69 0.21,2.57 l 0.71,8.7 c 0.37,-0.24 0.79,-0.48 1.25,-0.73 1.62,-0.87 3.76,-1.8 6.31,-2.37 1.7,-0.37 3.59,-0.59 5.62,-0.52 0.26,0 0.51,0.01 0.77,0.02 2.11,0.15 6.3,0.77 10.57,3.41 2.72,1.68 5.26,4.34 7.1,7.6 2.4,4.28 3.6,9.6 2.44,15.15 -0.09,0.41 -2.2,10.06 -10.64,14.24 -3.72,1.84 -7.14,1.88 -11.13,1.92 -4.17,0.04 -8.31,-0.56 -12.33,-1.79 2.7,3.2 4.87,6.72 6.46,10.49 1.1,2.6 2.76,6.53 2.63,11.27 -0.04,1.58 -0.13,4.87 -2,8.46 -0.19,0.37 -0.77,1.49 -1.79,2.76 -1.95,2.45 -4.8,4.48 -8.72,6.21 -2.5,1.1 -5.73,1.66 -9.88,1.71 -4.18,-0.05 -7.42,-0.61 -9.93,-1.71 -3.91,-1.73 -6.76,-3.76 -8.72,-6.21 -1.01,-1.27 -1.6,-2.39 -1.79,-2.76 -1.87,-3.59 -1.96,-6.88 -2,-8.46 -0.13,-4.73 1.53,-8.67 2.63,-11.27 1.59,-3.77 3.76,-7.29 6.46,-10.49 -4.02,1.23 -8.18,1.83 -12.35,1.79 -3.96,-0.04 -7.38,-0.08 -11.1,-1.92 -8.45,-4.18 -10.56,-13.83 -10.64,-14.24 -1.17,-5.56 0.03,-10.87 2.44,-15.15 1.83,-3.26 4.37,-5.92 7.1,-7.6 4.27,-2.64 8.45,-3.26 10.57,-3.41 0.19,-0.01 0.38,-0.01 0.58,-0.02 1.73,-0.06 3.36,0.07 4.86,0.34 2.87,0.51 5.28,1.5 7.07,2.45 0.53,0.29 1.02,0.57 1.43,0.83 l 0.71,-8.7 c 0.07,-0.84 0.14,-1.67 0.21,-2.47 0.25,-3.25 0.44,-6.19 0.57,-8.93 0.22,-4.11 0.31,-8.81 0.16,-12.58 -0.64,-16.15 -6.04,-26.81 -15.2,-30.04 -1.93,-0.68 -3.89,-1 -5.87,-1 -9.23,0 -20.09,7.05 -28.78,17.82 -11.822,-16.37 -20.569,-20.74 -27.842,-20.74 -1.676,0 -3.211,0.23 -4.59,0.6 -7.59,2.04 -17.039,10.03 -18.961,36.5 -0.211,2.92 -0.308,5.96 -0.316,9.09 -0.012,3.58 0.109,7.29 0.355,11.1 4.262,0.52 8.184,2.13 11.477,4.54 6.039,4.41 9.969,11.5 9.969,19.5 0,5 -1.536,9.64 -4.161,13.5 -2.347,3.46 -5.574,6.28 -9.355,8.16 -3.285,1.63 -6.992,2.56 -10.914,2.56 -0.363,0 -0.727,-0.01 -1.09,-0.03 -4.113,-0.18 -7.969,-1.37 -11.312,-3.34 0.132,0.94 0.207,1.9 0.207,2.87 0,3.08 -0.688,5.99 -1.907,8.62 -3.304,7.12 -10.558,12.07 -18.965,12.07 -11.507,0 -20.867,-9.28 -20.867,-20.69 0,-10.63 11.016,-22.04 21.43,-23.19 l 1.781,-10.94 2.446,-10.91 23.945,-127.73 0.113,-0.61 h 0.012 l 0.137,-0.61 c 14.668,7.73 47.687,18.13 119.298,18.14 v 0 c 0.01,0 0.02,0 0.03,0 0.01,0 0.02,0 0.03,0 v 0 c 72.91,-0.01 105.65,-10.8 119.8,-18.59 l 0.12,0.65 c 0.03,0 0.06,-0.02 0.09,-0.02 l 0.02,0.11 8.33,43.21 16.1,85.45" /><path
         id="path94"
         style="fill:#ffffff;fill-opacity:1;fill-rule:nonzero;stroke:none"
         d="m 564.422,328.129 c -2.402,-27.34 -47.352,-111.75 -47.809,-112.547 -4.379,-6.441 -0.332,-18.344 3.184,-21 3.687,-2.812 10.719,-5 16.012,-5 1.964,0 2.996,0.309 3.421,0.477 4.407,10.023 37.266,106.679 39.383,114.679 0.805,3.032 3.953,4.871 7.043,4.114 3.086,-0.832 4.922,-4 4.11,-7.071 -0.207,-0.801 -34.442,-104.812 -41.137,-118.261 0.859,-3.008 3.394,-9.43 9.875,-12.211 3.457,-1.489 8.344,-2.34 13.422,-2.34 4.183,0 6.879,0.582 8.054,0.992 3.786,8.73 17.149,80.469 21.583,104.258 2.125,11.41 3.453,18.492 3.859,20.16 0.73,3.07 3.789,4.973 6.93,4.269 3.117,-0.757 5.027,-3.878 4.285,-6.968 -0.371,-1.539 -1.653,-8.418 -3.426,-17.95 l -0.305,-1.621 c -14.433,-77.461 -19.461,-98.757 -22.648,-106.687 2.277,-3.684 8.351,-9.184 13.781,-10.422 2.109,-0.488 4.91,-0.762 7.887,-0.762 7.543,0 12.949,1.602 15.004,3.16 2.379,14.223 9.765,116.563 9.765,126.024 0,3.18 2.59,5.769 5.774,5.769 3.179,0 5.769,-2.589 5.769,-5.769 0,-6.75 -6.703,-106.563 -9.953,-127.582 3.59,-3.301 13.879,-7.879 21.867,-7.879 l 0.965,0.027 c 6.192,0.332 12.649,5.364 16.727,10.082 -0.528,17.551 -8.528,108.719 -9.352,115.25 -0.39,3.16 1.852,6.051 5.004,6.45 1.504,0.191 3.008,-0.211 4.234,-1.161 1.235,-0.937 2.02,-2.308 2.219,-3.839 0.09,-0.7 8.891,-90.309 9.035,-116.141 3.2,-2.309 10.246,-6.219 16.602,-6.219 7.723,0.34 16.016,5.352 18.355,8.192 -0.644,8.238 -11.046,53.296 -14.445,65.957 -0.82,3.07 1.012,6.242 4.082,7.062 1.504,0.399 3.051,0.199 4.375,-0.562 1.336,-0.778 2.289,-2.02 2.688,-3.52 0.117,-0.437 12.523,-49.84 14.535,-66.57 3.777,-1.098 9.316,-1.571 13.285,-0.098 6.469,2.34 12.059,6.938 13.152,10.789 -0.84,4.238 -11.543,36.149 -46.804,129.32 l -0.528,1.391 c -0.543,1.449 -0.5,3.02 0.141,4.43 0.629,1.398 1.773,2.469 3.211,3.008 2.961,1.14 6.312,-0.379 7.441,-3.34 l 0.528,-1.399 c 27.382,-72.351 42.593,-114.519 46.468,-128.808 0.039,0 0.082,0 0.121,0 5.153,0 10.258,1.226 13.207,3.207 4.571,3.07 7.696,8.16 8.075,10.691 -4.879,11.27 -44.129,104.5 -55.227,136.512 -15.609,-4.902 -43.937,-4.731 -43.937,-4.731 -0.168,-10.382 13.285,-37.929 13.285,-37.929 -35.336,-1.551 -62.867,37.25 -62.867,37.25 -34.762,1.187 -66.422,5.25 -76.832,6.707 0,0 -3.145,0.89 -3.473,-1.84" /><path
         id="path96"
         style="fill:#ffffff;fill-opacity:1;fill-rule:nonzero;stroke:none"
         d="m 698.445,376.891 c 0,0 6.141,-8.821 -3.297,-41.371 0,0 30.411,1.242 36.149,2.679 0,0 3.824,1.27 5.578,2.551 0,0 9.563,5.891 11.637,8.922 0,0 1.808,2.59 2.816,7.039 0,0 0.527,6.508 3.238,9.219 0,0 4.782,6.218 6.856,14.351 0,0 2.867,5.418 -7.176,3.981 0,0 -10.199,-1.43 -15.777,-3.192 0,0 -5.285,-4.371 -40.024,-4.179" /><path
         id="path98"
         style="fill:#ffffff;fill-opacity:1;fill-rule:nonzero;stroke:none"
         d="m 669.078,347.539 -10.945,31.301 c 0,0 -3.828,12.281 -17.375,9.89 0,0 -12.91,-4.148 -2.391,-16.421 0,0 5.102,-5.579 6.059,-15.457 0,0 -0.153,-32.801 44.074,-55.852 0,0 -9.488,22.531 -3.59,41.82 0,0 14.348,39.692 -13.23,48.301 0,0 -9.246,3.66 -4.621,-4.633 0,0 2.39,-3.179 2.07,-15.297 l -0.051,-23.652" /><path
         id="path100"
         style="fill:#ffffff;fill-opacity:1;fill-rule:nonzero;stroke:none"
         d="m 622.68,380.551 c 0,0 -49.985,7.539 -59.547,9.66 l -8.715,2.129 c 0,0 -4.465,1.269 -1.699,-3.399 0,0 1.273,-2.761 2.336,-4.043 l 8.5,-14.027 c 0,0 4.144,-7.012 -1.485,-14.242 0,0 -15.304,-14.34 15.086,-16.359 0,0 52.102,-5.719 61.227,-5.2 0,0 -4.82,12.871 -5.289,20.828 -0.254,1.372 -1.207,6.442 -5.406,11.454 0,0 -5.18,6.519 -5.008,13.199" /><path
         id="path102"
         style="fill:#ffffff;fill-opacity:1;fill-rule:nonzero;stroke:none"
         d="m 611.055,408.898 c -0.055,0.383 -0.367,2.204 -1.535,2.793 -0.692,0.348 -1.551,0.207 -2.594,-0.421 l -16.946,-13.559 0.391,-0.07 c 5.934,-1.039 12.18,-2.102 19.098,-3.243 l 0.148,-0.019 0.051,0.141 c 1.211,3.351 3,9.691 1.395,14.351 l -0.008,0.027" /><path
         id="path104"
         style="fill:#ffffff;fill-opacity:1;fill-rule:nonzero;stroke:none"
         d="m 583.785,489.719 0.856,0.722 -10.047,-4.062 -0.239,-0.09 0.172,-0.187 c 2.715,-3.043 2.727,-7.883 2.489,-10.493 l -0.036,-0.379 2.747,1.852 -0.032,0.117 c -1.629,6.512 1.864,10.641 4.09,12.52" /><path
         id="path106"
         style="fill:#ffffff;fill-opacity:1;fill-rule:nonzero;stroke:none"
         d="m 754.289,566.852 c -1.203,-1.071 0.359,-5.114 1.066,-6.59 l 13.266,-23.141 -17.312,7.469 c -3.871,1.73 -5.223,1.461 -5.68,0.922 -0.91,-1.09 0.906,-4.211 1.695,-5.332 l 18.086,-22.071 -19.492,6.481 -0.191,0.058 -0.039,-0.199 c -0.368,-1.82 -3.067,-4.179 -4.211,-5.117 l -0.282,-0.23 0.356,-0.082 c 4.363,-1.02 6.965,-2.891 7.738,-5.571 1.582,-5.508 -4.769,-12.5 -6.754,-14.519 l -0.195,-0.192 0.262,-0.097 c 2.011,-0.762 6.574,-3.332 5.461,-10.809 l -0.043,-0.32 0.293,0.129 c 0.195,0.078 0.414,0.14 0.605,0.191 l 0.094,0.027 c 0.152,0.039 0.304,0.09 0.418,0.129 l 0.058,0.024 c 1.621,0.609 3.305,0.91 5.141,0.91 0.375,0 0.73,-0.012 1.09,-0.031 l 0.254,-0.02 -0.071,0.238 c -0.484,1.762 -2.691,10.762 1.414,15.039 2.231,2.321 5.911,2.852 10.93,1.582 l 0.254,-0.058 -0.035,0.258 c -0.293,2.41 -1.485,14.66 3.969,18.281 2.574,1.73 6.281,1.187 11.007,-1.602 l 0.106,-0.058 0.094,0.07 c 0.683,0.5 6.789,4.938 10.148,6.348 l 0.07,0.051 c 0.364,0.468 3.672,4.57 7.407,5.949 l 0.261,0.101 -0.195,0.2 c -5.867,5.859 -28.75,-1.829 -29.723,-2.161 l -0.48,-0.168 26.035,20.411 c 3.113,3.199 3.324,4.628 2.949,5.269 -0.918,1.551 -6.07,0.188 -6.148,0.168 l -10.156,-4.07 -0.688,26.082 -0.008,0.039 c -0.367,1.199 -0.953,1.93 -1.738,2.18 -1.359,0.441 -2.824,-0.668 -2.992,-0.801 l -0.047,-0.059 c -1.914,-3.828 -8.555,-22.269 -8.617,-22.449 l -0.035,-0.09 -10.192,5.641 c -3.336,2.136 -4.672,2.039 -5.203,1.59" /><path
         id="path108"
         style="fill:#ffffff;fill-opacity:1;fill-rule:nonzero;stroke:none"
         d="m 651.211,552.711 0.367,-0.039 c 0.961,-0.102 2.742,-0.383 3.918,-1.082 l 0.231,-0.141 0.039,0.27 c 0.199,1.351 0.695,5.703 0.843,7.011 l 0.086,0.758 -0.418,-0.648 c -0.812,-1.27 -2.312,-3.328 -4.804,-5.871 l -0.262,-0.258" /><path
         id="path110"
         style="fill:#ffffff;fill-opacity:1;fill-rule:nonzero;stroke:none"
         d="m 642.992,595.352 0.047,-0.032 h 0.152 c 4.883,0 8.039,-1.32 9.379,-3.929 2.918,-5.653 -3.507,-15.469 -4.828,-17.391 l -0.179,-0.262 0.316,-0.019 c 0.363,-0.02 0.668,-0.098 0.992,-0.18 0.192,-0.051 0.383,-0.098 0.594,-0.141 0.238,-0.046 0.469,-0.089 0.699,-0.148 4.586,-1.121 6.848,-4.141 7.254,-4.73 l 0.27,-0.399 4.726,42.617 5.625,-52.578 0.039,-0.359 0.262,0.25 c 2.476,2.347 5.172,3.301 6.219,3.597 l 0.269,0.082 -0.183,0.211 c -5.133,5.989 -6.985,10.86 -5.508,14.45 1.797,4.371 8.144,5.539 10.051,5.8 l 0.355,0.047 -0.254,0.25 c -6.672,6.844 -5.449,15.293 -4.914,17.723 l 0.059,0.269 -9.121,-1.871 10.523,11.942 c 12.172,10.855 12.055,14.828 11.91,15.512 l -0.023,0.105 -0.106,0.027 c -0.441,0.125 -0.926,0.188 -1.445,0.188 -5.41,0 -13.738,-6.524 -14.086,-6.801 l -0.074,-0.051 -0.051,0.071 c -1.648,2.191 -2.859,9.234 -2.871,9.285 -0.399,6.965 -1.863,13.504 -2.027,14.226 l -0.016,0.051 c -0.934,1.977 -1.914,2.977 -2.957,2.977 -1.524,-0.036 -2.652,-2.418 -2.863,-2.895 l -1.821,-11.875 c -0.902,-4.902 -2.82,-11.051 -3.035,-11.73 l -0.039,-0.121 -0.09,0.062 c -11.824,8.387 -15.254,6.832 -15.605,6.625 l -0.043,-0.027 -0.024,-0.043 c -1.172,-2.344 5.16,-9.508 5.219,-9.567 l 13.66,-17.679 -0.261,0.097 c -5.024,1.883 -14.559,4.891 -14.672,4.922 -6.844,1.328 -8.707,0.578 -9.063,-0.281 -0.816,-1.957 5.164,-6.641 7.539,-8.277" /><path
         id="path112"
         style="fill:#ffffff;fill-opacity:1;fill-rule:nonzero;stroke:none"
         d="m 574.707,590.012 0.594,-0.403 -0.664,0.262 c -0.133,0.059 -14.996,5.949 -23.356,7.09 l -0.398,0.059 0.226,-0.34 c 1.356,-1.981 5.86,-9.039 6.844,-16.598 l 0.031,-0.25 0.227,0.109 c 2.066,1.02 12.605,5.879 17.254,1.7 3.113,-2.809 2.808,-9.11 -0.906,-18.743 l -0.098,-0.25 0.269,0.012 c 0.118,0.012 0.25,0.012 0.403,0.012 0,0 0.015,0 0.019,0 2.016,0 6.977,-0.332 9.555,-3.363 1.523,-1.778 1.996,-4.227 1.402,-7.258 l -0.082,-0.41 0.356,0.23 c 0.82,0.52 2.039,1.188 3.18,1.41 l 0.316,0.059 -0.219,0.242 c -1.66,1.809 -6.945,8.156 -5.297,13.52 0.973,3.16 4.231,5.359 9.692,6.539 l 0.269,0.058 -2.047,2.801 -0.062,0.09 -13.203,-1.84 9.937,8.941 0.086,0.071 -0.031,0.109 c -0.25,0.879 -1.375,5.399 1.125,8.469 2.016,2.469 5.805,3.398 11.219,2.769 l 0.09,-0.007 0.058,0.07 c 0.899,0.91 2.274,2.707 1.762,3.66 -0.313,0.598 -1.567,1.137 -5.684,0.238 -0.472,-0.09 -13.449,-4.531 -20.297,-9.398 l -0.382,-0.274 17.503,24.793 c 0.805,1.579 2.735,5.86 1.989,6.618 l -0.063,0.05 c -0.437,0.188 -4.59,1.457 -14.84,-8.179 l -0.078,-0.071 -0.043,0.09 c -0.402,0.832 -3.968,8.231 -5.383,15.625 -0.011,0.067 -1.402,7.219 -2.648,9.141 l -0.039,0.039 c -0.191,0.16 -1.207,0.957 -2.367,0.957 -0.11,0 -0.223,-0.008 -0.336,-0.023 -0.777,-0.106 -1.461,-0.583 -2.024,-1.418 l -0.031,-0.082 c -0.125,-1.293 -0.754,-8.083 -0.847,-14.817 0.011,-0.844 0.085,-8.301 -1.856,-11.012 l -0.047,-0.07 -0.066,0.051 c -0.071,0.051 -7.196,5.301 -14.891,5.301 h -0.121 c -0.305,0 -0.852,-0.051 -1.117,-0.45 -0.266,-0.41 -0.149,-1.101 0.344,-2.019 0.39,-0.543 9.687,-13.5 24.773,-23.91" /><path
         id="path114"
         style="fill:#ffffff;fill-opacity:1;fill-rule:nonzero;stroke:none"
         d="m 543.852,527.73 -0.407,0.008 c -2.105,0 -9.562,-0.207 -17.14,-2.668 l -0.426,-0.14 0.406,-0.192 c 3.375,-1.597 7.633,-4.226 8.106,-4.527 l 0.101,-0.063 0.098,0.071 c 4.465,3.101 8.086,3.91 10.773,2.402 5.645,-3.172 5.383,-15.371 5.278,-17.789 l -0.016,-0.262 0.25,0.078 c 4.797,1.602 8.574,1.364 10.922,-0.757 4.269,-3.821 3.008,-12.262 2.519,-14.75 l -0.05,-0.25 0.25,0.031 c 0.82,0.117 1.632,0.18 2.418,0.187 h 0.062 l 12.828,11.25 0.09,0.082 -0.035,0.11 c -0.219,0.679 -0.832,3.07 0.375,5.418 0.953,1.863 2.809,3.211 5.519,4.019 l 0.336,0.102 -0.281,0.211 c -1.004,0.769 -2.824,2.308 -3.734,4 l -0.067,0.129 -22.132,-6.328 19.91,16.789 0.086,0.07 -0.032,0.121 c -0.199,0.707 -0.886,4.438 5.129,7.207 l 0.16,0.07 -0.07,0.161 c -0.098,0.218 -0.262,0.41 -0.5,0.582 -0.855,0.609 -3.39,1.328 -10.656,-0.661 l -20.063,-5.312 17.282,15.98 0.035,0.051 c 0.078,0.141 0.34,0.449 1.047,1.231 3.004,3.39 6.382,7.488 5.82,9.179 l -0.039,0.059 c -0.234,0.25 -1.754,1.402 -8.676,-1.547 l -16.797,-8.672 12.758,20.32 c 0.051,0.09 5.191,8.5 4.078,10.879 l -0.027,0.063 -0.063,0.027 c -0.382,0.16 -2.617,0.742 -8.797,-3.937 l -5.453,-5.352 -0.05,0.09 c -0.434,0.711 -4.266,7.07 -5.184,11.43 -0.285,1.031 -2.844,10.14 -4.727,13.308 l -0.043,0.071 -0.082,0.011 c -0.445,0.078 -2.738,0.41 -4.218,-0.89 l -0.055,-0.051 -0.008,-0.07 c -0.133,-1.43 -0.746,-8.957 0.223,-16.309 0.004,-0.07 0.465,-7.34 -1.215,-10.211 l -0.039,-0.07 -0.098,0.051 c -1.273,0.691 -12.531,6.589 -16.41,3.832 l -0.066,-0.051 -0.004,-0.082 c -0.063,-0.821 0.25,-5.27 12.547,-12.528 l 13.715,-10 -17.586,1.739 h -0.063 c -2.434,0.16 -8.187,0.3 -9.043,-1.692 -0.375,-0.859 0.246,-2.008 1.918,-3.527 l 19.313,-12.731" /><path
         id="path116"
         style="fill:#ffffff;fill-opacity:1;fill-rule:nonzero;stroke:none"
         d="m 813.766,497.941 c 0.007,0.258 -0.125,0.45 -0.254,0.528 l -0.039,0.031 -0.008,0.031 c -0.043,0.18 -0.141,0.34 -0.246,0.489 l 0.09,0.07 c -0.051,0.07 -0.106,0.148 -0.172,0.219 l -0.09,-0.09 c -2.449,2.492 -14.5,0.363 -15.078,0.261 l -0.133,-0.019 6.652,24.508 c 0.344,1.363 0.274,2.269 -0.207,2.64 -0.523,0.403 -1.465,0.141 -2.211,-0.257 -5.16,-4.211 -15.582,-20.704 -15.675,-20.864 l -0.071,-0.109 -4.586,7.371 c -1.699,3.07 -3.347,3.52 -4.179,3.52 -0.348,0 -0.579,-0.071 -0.641,-0.11 -2.121,-1.039 -0.703,-8.281 -0.691,-8.328 l 3.648,-22.82 -10.906,11.129 c -2.563,1.961 -4.449,2.648 -5.418,1.98 -1.656,-1.109 -0.539,-5.609 -0.399,-6.133 l 8.602,-22.027 -13.102,9.371 c -3.379,1.859 -5.664,2.258 -6.797,1.199 -2.378,-2.191 0.778,-9.902 1.454,-11.461 l 12.066,-20.699 -17.844,12.539 c -2.664,1.949 -4.086,1.91 -4.683,1.719 -0.715,-0.219 -0.961,-0.758 -0.996,-0.848 l -0.016,-0.031 c -2.039,-2.352 1.414,-9.551 1.445,-9.602 l 8.68,-22.269 -15.387,12.762 -0.054,0.031 c -1.469,0.519 -2.625,0.437 -3.43,-0.262 -2.129,-1.828 -1.219,-7.379 -1.106,-8.012 l 13.582,-22.609 -17.07,11.133 c -2.437,1.75 -4.066,2.34 -4.824,1.758 -1.184,-0.969 0.168,-4.961 1.062,-6.961 l 13.079,-20.547 -18.872,11.269 c -1.05,0.528 -1.921,0.59 -2.582,0.207 -1.168,-0.699 -1.304,-2.617 -1.32,-2.867 -1.609,-6.242 2.555,-14.633 3.406,-16.25 l 0.039,-0.07 0.739,-0.199 0.035,0.008 c 8.008,0.761 11.062,1.468 11.402,1.562 19.594,6.527 29.602,5.559 34.551,3.598 l 0.059,-0.02 0.058,0.012 c 9.149,2.68 11.031,4.769 11,6.039 -0.047,2.008 -4.523,3.09 -4.711,3.129 -11.609,3.039 -19.383,5.191 -19.797,5.492 l -0.16,0.117 0.195,0.031 c 8.27,1.129 27.36,5.29 27.543,5.34 2.586,1.2 3.899,2.418 3.79,3.52 -0.208,2.058 -5.079,3.242 -5.129,3.25 l -26.305,4.492 33.613,6.488 c 4.961,1.719 7.524,3.59 7.606,5.551 0.105,2.488 -3.914,4.289 -3.953,4.301 l -19.504,6.508 26.125,4.05 c 3.293,0.989 4.941,2.129 5.031,3.469 0.141,2 -3.524,3.723 -3.578,3.742 l -20.641,7.68 27.149,6.199 c 2.043,0.739 4.457,1.899 4.386,3.219 -0.101,1.852 -5.008,3.063 -5.066,3.07 l -18.723,2.95 22.446,9.48 c 6.128,3.063 7.093,4.691 7.121,5.402" /><path
         id="path118"
         style="fill:#ffffff;fill-opacity:1;fill-rule:nonzero;stroke:none"
         d="m 687.625,396.48 -0.312,-0.121 0.269,-0.187 c 2.258,-1.66 3.66,-3.531 4.16,-4.262 l 0.125,-0.18 0.153,0.149 c 2.761,2.883 3.929,4.832 3.378,5.66 -0.964,1.41 -6.648,-0.629 -7.773,-1.059" /><path
         id="path120"
         style="fill:#ffffff;fill-opacity:1;fill-rule:nonzero;stroke:none"
         d="m 695.184,415.871 c -0.571,1.27 -3.676,1.059 -4.614,0.961 l -26.59,-3.602 0.497,0.219 c 16.132,7.281 28.769,17.93 28.918,18.063 1.691,2.019 2.339,3.449 1.933,4.269 -0.496,0.989 -2.461,0.899 -3.515,0.84 l -0.266,-0.012 c -0.281,-0.019 -0.453,-0.007 -0.563,0 l -0.035,0.012 -34.367,-8.351 25.391,15.39 c 14.156,7.801 13.257,13.469 13.215,13.699 -0.094,0.582 -0.379,1.02 -0.872,1.34 -1.882,1.262 -6.211,0.473 -7.515,0.192 l -23.305,-2.922 27.524,16.429 0.035,0.032 c 1.929,1.941 2.683,3.441 2.234,4.441 -0.559,1.231 -2.793,1.41 -4.07,1.41 -0.145,0 -0.274,0 -0.364,0 l -27.66,-2.101 17.555,10.64 c 10.145,6.231 12.059,9.52 12.293,10.93 0.105,0.621 -0.102,0.879 -0.125,0.91 -3.422,3.84 -28.672,-7.031 -28.93,-7.14 l -0.379,-0.168 0.188,0.187 h -0.004 l 17.051,17.242 c 6.683,6.821 7.558,10.039 7.484,11.36 -0.039,0.558 -0.246,0.839 -0.336,0.929 l -0.039,0.032 c -0.387,0.23 -0.89,0.347 -1.508,0.347 -4.343,0 -13.382,-5.859 -14.433,-6.558 l -0.102,-0.071 -4.43,20.989 c -0.664,4.14 -1.66,6.57 -2.964,7.222 -0.219,0.098 -0.543,0.199 -0.891,0.098 l -0.023,0.019 -0.122,-0.066 h -0.035 c -2.871,0 -3.968,-16.594 -3.992,-16.934 -0.398,-3.937 -2.754,-10.878 -3.015,-11.66 l -0.051,-0.129 -0.09,0.082 c -10.359,8.411 -15.164,6.848 -15.676,6.649 l -0.058,-0.031 -0.032,-0.047 c -0.73,-1.262 2.059,-5.621 3.203,-7.203 l 19.207,-21.969 -19.546,6.898 c -6.911,1.571 -7.832,-0.097 -7.84,-0.109 -0.672,-1.297 1.929,-4.149 3,-5.149 l 21.472,-17.128 -0.339,0.07 c -23.239,4.816 -26.657,1.457 -26.708,1.398 -2.101,-3.371 3.665,-7.32 3.739,-7.371 l 27.168,-15.027 -0.039,-0.024 0.062,0.012 3.258,-1.801 -28.902,4.653 c -6.121,1.058 -6.532,0.039 -6.793,-0.653 -0.047,-0.121 -0.082,-0.218 -0.145,-0.308 l -0.023,-0.031 -0.008,-0.04 c -0.488,-3.539 4.344,-7.07 4.543,-7.21 l 23.383,-18.551 -16.45,4.73 c -3.046,0.852 -4.621,1.039 -4.89,1.063 l -0.488,0.008 c -3.395,0 -5.36,-0.668 -5.84,-1.981 -0.942,-2.551 3.945,-6.769 4.531,-7.258 l 27.852,-17.359 -27.907,5.058 c -1.242,0.45 -2.316,0.68 -3.191,0.68 -1.192,0 -1.672,-0.422 -1.797,-0.609 v 0 c -0.82,-1.063 1.727,-3.641 3.187,-4.86 l 23.387,-13.32 0.145,-0.082 0.097,0.141 c 6.637,10.152 20.551,4.429 21.137,4.179 l 0.074,-0.027 0.071,0.027 c 9.32,4.18 15.433,9.782 15.48,9.832 1.445,1.309 3.067,3.098 2.563,4.18" /><path
         id="path122"
         style="fill:#ffffff;fill-opacity:1;fill-rule:nonzero;stroke:none"
         d="m 631.633,398.262 c -1.024,0 -1.727,-0.231 -2.082,-0.692 -0.367,-0.488 -0.348,-1.218 0.058,-2.172 l 0.102,-0.25 0.187,0.192 c 0.942,0.949 1.965,1.789 3.047,2.512 l 0.391,0.25 -0.465,0.07 c -0.433,0.058 -0.851,0.09 -1.238,0.09" /><path
         id="path124"
         style="fill:#ffffff;fill-opacity:1;fill-rule:nonzero;stroke:none"
         d="m 601.031,427.121 c -0.793,0.539 -2.367,-0.172 -4.668,-2.101 l -17.324,-13.641 12.957,24.762 0.02,0.058 c 0.101,1.039 0.496,6.289 -1.7,7.91 -0.847,0.621 -2.003,0.621 -3.433,0.012 l -19.434,-23.133 11.969,32.051 c 0.297,0.77 2.855,7.59 0.762,9.652 l -0.032,0.047 c -0.07,0.141 -0.359,0.641 -1.066,0.793 -0.742,0.207 -2.121,0.02 -4.539,-2.051 l -16.098,-12.031 9.731,19.762 c 0.144,0.359 3.496,8.848 0.883,11.141 -1.215,1.058 -3.582,0.609 -7.043,-1.383 l -12.864,-10.137 7.481,22.508 c 0.094,0.512 0.875,5.051 -0.856,6.039 -1.047,0.621 -2.824,-0.199 -5.304,-2.43 l -11.262,-13.84 3.191,24.993 c 0.008,0.078 0.762,7.777 -1.257,8.878 l -0.079,0.04 -0.082,-0.032 c -0.48,-0.218 -2.961,-1.418 -4.437,-4.359 l -4.027,-7.699 -0.075,0.101 c -0.117,0.149 -11.746,15.801 -17.222,19.641 l -0.043,0.019 c -0.7,0.289 -1.637,0.52 -2.157,0.059 -0.449,-0.398 -0.453,-1.32 -0.007,-2.66 l 8.468,-23.93 -0.203,0.02 c -2.613,0.25 -15.699,1.351 -16.195,-2.008 l -0.039,-0.07 c -0.055,-0.102 -0.055,-0.243 -0.016,-0.403 0.242,-0.898 1.86,-2.508 8.207,-5.117 l 26.215,-9.141 -21.648,-2.972 c -0.52,-0.149 -5.082,-1.489 -5.098,-3.239 -0.008,-0.742 0.852,-1.871 5.008,-3.101 l 28.922,-3.141 -21.469,-10.187 c -0.035,-0.02 -3.613,-1.653 -3.465,-3.582 0.106,-1.348 1.902,-2.5 5.539,-3.52 l 33.352,-2.051 -26.098,-7.976 c -1.07,-0.383 -4.558,-1.793 -4.551,-3.813 0.012,-1.91 3.051,-3.839 9.063,-5.738 l 24.722,-3.359 -16.707,-7.032 c -1.289,-0.371 -5.484,-1.75 -5.527,-3.589 -0.019,-1.129 1.586,-2.231 4.805,-3.282 l 0.176,-0.019 c 6.593,-0.758 22.679,-2.57 29.625,-3 l 0.199,-0.008 -0.149,-0.133 c -0.172,-0.14 -2.136,-0.961 -16.632,-5.648 l -0.75,-0.25 0.777,-0.102 c 0.516,-0.07 1.008,-0.148 1.437,-0.219 l 0.028,-0.011 c 5.066,-1.309 14.191,-3.137 27.117,-5.43 l 0.125,-0.027 12.266,22.16 c 0.582,1.629 1.812,6.039 0.511,6.949" /><path
         id="path126"
         style="fill:#ffffff;fill-opacity:1;fill-rule:nonzero;stroke:none"
         d="m 620.555,458.602 c 0.441,3.097 2.558,5.66 6.297,7.597 l 0.179,0.102 -0.117,0.168 c -1.035,1.429 -6.082,8.922 -4.082,14.691 1.012,2.899 3.621,4.942 7.758,6.07 l 0.293,0.079 -0.211,0.211 c -1.117,1.152 -4.805,5.152 -5.375,8.468 l -0.031,0.184 -11.446,-2.59 11.067,7.617 0.047,0.039 0.019,0.051 c 0.215,0.621 2.317,6.051 10.051,6.57 l 0.351,0.02 -0.222,0.269 c -1.567,1.903 -6.52,8.602 -4.543,15.274 l 0.066,0.226 h -5.367 l 9.129,5.481 c 0.551,0.512 1.133,0.851 1.695,1.262 l 0.082,-0.071 -0.074,0.078 c 0.531,0.391 1.039,0.864 1.617,1.204 l 9.696,5.328 0.015,0.011 c 1.278,0.911 5.383,4 4.754,5.918 -0.375,1.121 -2.375,1.641 -5.961,1.512 l -25.851,-2.09 0.289,0.168 c 0.222,0.133 22.402,13.711 25.105,16.903 0.828,0.847 3.481,3.75 2.676,5.207 -0.367,0.671 -1.699,1.293 -6.012,0.3 -1.101,-0.328 -6.781,-2.089 -10.281,-3.687 l -10.668,-4.762 19.938,23.289 c 0.175,0.223 4.328,5.43 3.062,7.141 -0.508,0.672 -2.129,1.051 -6.992,-0.961 -0.051,-0.02 -5.57,-1.938 -8.672,-5.488 l -0.082,-0.09 -0.055,0.109 c -0.109,0.281 -2.808,6.789 -3.754,17.149 -0.019,0.281 -0.472,6.773 -1.996,8.89 l -0.039,0.063 -0.066,0.008 c -0.492,0.109 -3.024,0.628 -4.176,-0.032 l -0.07,-0.039 -0.016,-0.078 c -0.375,-1.859 -1.637,-8.449 -2.187,-14.941 -0.133,-0.848 -1.352,-8.43 -3.391,-11.051 l -0.055,-0.07 -0.062,0.062 c -0.348,0.277 -8.574,6.879 -14.086,6.879 -0.551,0 -1.071,-0.059 -1.543,-0.199 l -0.094,-0.031 -0.031,-0.09 c -0.223,-0.77 -0.715,-5.129 11.785,-15.758 L 620.441,558 l -20.636,6.719 c -0.075,0.019 -7.168,1.722 -8.11,-0.199 -0.398,-0.809 0.196,-2.629 5.293,-6.77 l 17.414,-13.551 -17.984,1.461 c -0.617,-0.031 -6.07,-0.359 -6.855,-2.922 -0.579,-1.886 1.484,-4.558 6.152,-7.929 l 29.297,-14.887 -29.598,3.949 c -0.062,0.008 -6.266,0.938 -7.281,-1.223 -0.598,-1.277 0.726,-3.359 3.941,-6.218 l 9.11,-6.621 c 1.847,-1.368 8.148,-6.047 11.519,-9.227 l 0.192,-0.191 -17.129,2.648 h -0.274 c -1.574,0 -6.777,-0.18 -7.535,-2.418 -0.555,-1.633 1.238,-3.91 5.488,-6.973 l 25.973,-15.16 -26.707,3.723 c -0.137,0.008 -0.316,0.008 -0.508,0.008 -0.723,0 -4.34,-0.071 -4.769,-1.418 -0.219,-0.68 0.308,-2 4.062,-4.422 l 24.695,-14.438 -27.878,2.348 -0.254,0.02 0.066,-0.25 c 1.188,-4.52 0.133,-9.598 -0.219,-11.047 l -0.062,-0.262 0.261,0.039 c 3.043,0.481 5.532,-0.148 7.379,-1.879 4.356,-4.078 3.836,-13.07 3.692,-14.828 l -0.02,-0.203 0.387,0.012 c 0.117,0 0.238,0 0.355,0 2.985,0 5.274,-0.93 6.809,-2.762 3.363,-4 2.137,-11.27 1.859,-12.68 l -0.039,-0.199 0.2,-0.02 c 3.441,-0.289 6.105,-1.679 7.914,-4.148 4.644,-6.312 2.566,-18.012 1.457,-22.75 l -0.043,-0.191 3.308,-0.602 -0.093,0.281 c -0.403,1.239 -1.594,5.559 -0.063,8.969 0.77,1.731 2.113,3 4.004,3.793 l 0.215,0.09 -0.145,0.187 c -0.918,1.172 -5.449,7.301 -4.304,12.442 0.515,2.347 2.125,4.199 4.773,5.508 l 0.188,0.089 -0.122,0.172 c -1.015,1.45 -6.007,8.95 -4.265,14.621 0.754,2.45 2.66,4.258 5.668,5.379 l 0.261,0.102 -0.195,0.199 c -1.281,1.277 -7.617,7.961 -6.73,14.231" /><path
         id="path128"
         style="fill:#ffffff;fill-opacity:1;fill-rule:nonzero;stroke:none"
         d="m 730.977,603.711 0.043,-0.039 0.058,-0.012 c 0.508,-0.031 4.965,-0.461 6.766,-3.969 1.914,-3.722 0.344,-9.511 -4.684,-17.179 l -0.148,-0.231 0.273,-0.043 c 1.848,-0.277 8.004,-1.539 9.684,-5.957 1.41,-3.711 -0.645,-8.66 -6.102,-14.699 l -0.219,-0.242 0.321,-0.051 c 1.644,-0.277 5.976,-1.418 10.703,-6.019 l 0.719,-0.7 -0.434,0.91 c -1.824,3.809 -4.129,11.321 0.914,18.829 l 0.02,0.031 h 0.035 c 9.269,1.742 14.379,-1.93 15.73,-3.102 l 0.231,-0.199 0.847,4.18 -0.16,0.051 c -7.351,2.16 -12.629,1.492 -15.125,0.902 l -0.242,-0.063 0.164,0.192 c 1.367,1.59 3.055,3.097 5.02,4.48 l 11.539,8.34 c 0.609,0.598 2.554,2.668 1.988,3.949 -0.492,1.078 -2.734,1.11 -4.531,0.95 l -22.77,-4.59 22.621,20.242 c 0.602,0.668 3.551,4.109 2.621,5.617 -0.402,0.66 -1.773,1.191 -6.097,-0.019 -0.035,-0.02 -4.133,-1.711 -9.446,-4.891 l -0.109,-0.059 -2.578,24.977 c -0.109,0.418 -0.734,2.519 -2.137,2.816 -1.015,0.188 -2.176,-0.57 -3.437,-2.203 l -7.61,-23.39 -0.093,0.109 c -0.219,0.25 -5.329,6.121 -11.786,7.859 -0.621,0.262 -2.363,0.774 -2.968,0.094 -0.61,-0.684 0.039,-2.273 0.691,-3.492 0.449,-0.899 4.524,-8.961 9.688,-13.379" /><path
         id="path130"
         style="fill:#ffffff;fill-opacity:1;fill-rule:nonzero;stroke:none"
         d="m 744.66,471.898 c -0.047,0.172 -0.113,0.391 -0.183,0.672 l -0.043,0.149 -37.168,-5.071 25.968,15.313 c 5.579,4.277 6.266,6.391 5.86,7.418 -0.711,1.769 -4.934,1.562 -6.211,1.473 l -24.539,-4.071 25.754,15.641 c 4.699,3.84 5.257,5.527 4.898,6.277 -0.613,1.262 -4.34,0.75 -5.719,0.442 l -32.953,-6.411 30.797,18.469 c 6.004,4.981 8.617,8.449 7.774,10.313 -0.946,2.09 -5.915,1.457 -6.911,1.308 L 712,530.781 l 21.648,15.25 c 2.778,2.188 3.965,3.891 3.543,5.039 -0.566,1.539 -3.789,1.7 -5.148,1.7 -0.082,0 -0.145,0 -0.199,0 l -24.696,-1.77 21.985,15.051 c 4.23,3.25 6.183,5.57 5.633,6.711 -0.793,1.66 -6.938,0.578 -9.262,0.019 l -19.195,-7.859 19.347,22.41 c 4.035,4.219 5.778,6.988 5.047,8.02 -0.238,0.32 -0.719,0.488 -1.426,0.488 -2.105,0 -6.199,-1.461 -9.14,-2.828 l -5.996,-4.16 -5.52,24.73 c -0.777,1.539 -1.594,2.328 -2.402,2.328 h -0.004 l -0.156,0.012 -0.012,-0.024 c -1.422,-0.168 -2.418,-2.578 -2.43,-2.617 l -4.957,-23.312 -9.367,4.363 c -4.414,1.656 -5.867,1.27 -6.301,0.648 -0.965,-1.359 1.75,-5.171 2.875,-6.519 l 17.367,-21.832 -12.855,5.301 c -7.129,2.492 -11.231,3 -12.191,1.511 -1.02,-1.582 1.98,-5 2.613,-5.703 l 19.687,-17.406 -0.289,0.047 c -15.711,3.043 -24.226,3.242 -25.281,0.633 -1.086,-2.742 6.645,-7.742 6.73,-7.793 l 25.157,-13.289 -31.989,3.851 -0.234,0.028 0.906,-6 0.196,0.05 c 9.703,2.59 15.824,2.211 18.164,-1.121 1.601,-2.289 1.414,-5.879 -0.532,-10.648 l 7.18,-4.551 -9.258,0.441 c -0.586,-1.058 -1.285,-2.289 -2.199,-3.82 l -0.156,-0.23 0.273,-0.051 c 4.824,-0.77 7.981,-2.379 9.41,-4.777 l -0.175,-0.114 0.211,0.043 c 0.211,-0.359 0.382,-0.742 0.511,-1.14 0.723,-2.18 0.25,-4.891 -1.402,-8.039 0,0 -0.453,-0.711 -1.199,-1.793 l 7.109,-5.047 -9.531,1.726 c -0.434,-0.566 -0.852,-1.129 -1.348,-1.738 l -0.219,-0.23 0.309,-0.071 c 4.953,-1.117 7.992,-3.238 9.039,-6.301 1.856,-5.429 -3.246,-12.25 -4.289,-13.558 l -0.141,-0.18 0.204,-0.09 c 3.793,-1.808 5.96,-4.269 6.445,-7.3 1.008,-6.329 -5.754,-13.43 -7.121,-14.79 l -0.227,-0.23 0.317,-0.07 c 3.769,-0.879 6.101,-2.578 6.925,-5.071 1.84,-5.519 -4.242,-13.16 -5.48,-14.629 l -0.172,-0.21 0.254,-0.079 c 3.191,-1.043 5.117,-2.73 5.73,-5.031 1.411,-5.308 -4.453,-12.148 -5.644,-13.469 l -0.184,-0.211 0.262,-0.082 c 2.313,-0.75 3.871,-2.089 4.641,-3.976 1.804,-4.453 -1.168,-10.66 -2.532,-13.133 l -0.156,-0.277 0.32,0.008 c 2.957,0.152 5.754,0.3 8.317,0.468 l 0.234,0.012 -0.074,0.219 c -1.262,3.742 -5.027,16.492 -0.633,23.672 1.617,2.648 4.188,4.281 7.649,4.828 l 0.195,0.043 -0.055,0.187 c -0.383,1.391 -2.148,8.551 0.91,12.801 1.477,2.051 3.872,3.16 7.114,3.281 l 0.203,0.008 -0.031,0.191 c -0.278,1.75 -1.457,10.692 2.57,15.079 1.512,1.64 3.601,2.472 6.211,2.472 0.297,0 0.617,-0.019 1.008,-0.043 l 0.265,-0.019 -0.082,0.25 c -0.511,1.562 -2.902,9.633 0.465,15.07 1.781,2.891 4.887,4.609 9.223,5.141 l 0.211,0.019 -0.063,0.199" /><path
         id="path132"
         style="fill:#ffffff;fill-opacity:1;fill-rule:nonzero;stroke:none"
         d="M 1261.64,702.496 663.746,1157.67 65.0625,702.324 c -23.1992,88.832 -35.043,179.899 -36.1758,276.598 1.5156,126.948 0.1524,570.918 0.0117,613.258 H 1297.71 c -0.15,-42.32 -1.55,-483.64 0,-612.625 -1.13,-97.059 -12.96,-188.301 -36.07,-277.059 z M 662.633,29.9805 C 398.012,106.469 248.652,311.488 159.766,458.281 c -1.446,2.809 -2.778,5.598 -4.2,8.399 L 663.746,860.676 1171.4,467.262 c -1.25,-2.461 -2.42,-4.922 -3.69,-7.391 C 981.262,151.75 790.355,66.8711 662.633,29.9805 Z M 1326.59,1620.98 H 0 l 0.0898438,-25.69 c 0.0195312,-4.57 1.5820362,-483.5 0,-616.364 C 2.32813,787.547 44.9375,617.91 134.652,444.219 226.621,292.281 380.676,81.1289 655.523,2.05859 L 662.633,0 669.707,2.05078 C 802.055,40.1211 1000.23,127.461 1192.83,445.809 c 88.97,172.382 131.45,341.875 133.68,533.75 -1.62,135.031 -0.01,611.231 0,615.751 l 0.08,25.67" /></g></g></svg>