<?xml version="1.0" encoding="UTF-8" standalone="no"?>
<!DOCTYPE svg PUBLIC "-//W3C//DTD SVG 1.1//EN" "http://www.w3.org/Graphics/SVG/1.1/DTD/svg11.dtd">
<!-- Created with Vectornator (http://vectornator.io/) -->
<svg height="100%" stroke-miterlimit="10" style="fill-rule:nonzero;clip-rule:evenodd;stroke-linecap:round;stroke-linejoin:round;" version="1.1" viewBox="0 0 150 144" width="100%" xml:space="preserve" xmlns="http://www.w3.org/2000/svg" xmlns:vectornator="http://vectornator.io" xmlns:xlink="http://www.w3.org/1999/xlink">
<defs/>
<g id="g6" vectornator:layerName="g6">
<g opacity="1">
<g opacity="1">
<path d="M29.5793 43.6455L64.6453 43.6455M29.5793 33.1815L85.3973 33.1815M29.5793 54.6855L55.6673 54.6855" fill="#ffffff" fill-rule="nonzero" opacity="1" stroke="none"/>
<path d="M55.6673 63.6855L29.5793 63.6855C27.3703 63.6855 25.5793 61.8945 25.5793 59.6855C25.5793 57.4765 27.3703 55.6855 29.5793 55.6855L55.6673 55.6855C57.8763 55.6855 59.6673 57.4765 59.6673 59.6855C59.6673 61.8945 57.8763 63.6855 55.6673 63.6855ZM64.6453 47.6455L29.5793 47.6455C27.3703 47.6455 25.5793 45.8545 25.5793 43.6455C25.5793 41.4365 27.3703 39.6455 29.5793 39.6455L64.6453 39.6455C66.8543 39.6455 68.6453 41.4365 68.6453 43.6455C68.6453 45.8545 66.8543 47.6455 64.6453 47.6455ZM85.3973 32.1815L29.5793 32.1815C27.3703 32.1815 25.5793 30.3905 25.5793 28.1815C25.5793 25.9725 27.3703 24.1815 29.5793 24.1815L85.3973 24.1815C87.6063 24.1815 89.3973 25.9725 89.3973 28.1815C89.3973 30.3905 87.6063 32.1815 85.3973 32.1815Z" fill="#000000" fill-rule="nonzero" opacity="1" stroke="none"/>
</g>
<path d="M143.021 58.2315L143.021 101.768C143.021 110.121 136.685 117.032 128.897 117.032L120.107 117.032L104.477 137.625C103.331 138.776 101.597 138.776 100.439 137.625L99.0533 117.032L70.0613 117.032C62.2853 117.032 55.9493 110.264 55.9493 101.768L55.9493 58.2315C55.9493 49.7355 62.2853 42.8235 70.0613 42.8235L129.198 42.8235C136.973 42.8235 143.315 49.7355 143.021 58.2315Z" fill="none" opacity="1" stroke="#000000" stroke-linecap="round" stroke-linejoin="round" stroke-width="1"/>
<g opacity="1">
<path d="M123.065 80.9415L75.9293 80.9415M123.065 70.4715L75.9293 70.4715M123.065 91.9755L75.9293 91.9755" fill="#ffffff" fill-rule="nonzero" opacity="1" stroke="none"/>
<path d="M123.065 100.976L75.9293 100.976C73.7203 100.976 71.9293 99.1845 71.9293 96.9755C71.9293 94.7665 73.7203 92.9755 75.9293 92.9755L123.065 92.9755C125.274 92.9755 127.065 94.7665 127.065 96.9755C127.065 99.1845 125.274 100.976 123.065 100.976ZM123.065 84.9415L75.9293 84.9415C73.7203 84.9415 71.9293 83.1505 71.9293 80.9415C71.9293 78.7325 73.7203 76.9415 75.9293 76.9415L123.065 76.9415C125.274 76.9415 127.065 78.7325 127.065 80.9415C127.065 83.1505 125.274 84.9415 123.065 84.9415ZM123.065 69.4715L75.9293 69.4715C73.7203 69.4715 71.9293 67.6805 71.9293 65.4715C71.9293 63.2625 73.7203 61.4715 75.9293 61.4715L123.065 61.4715C125.274 61.4715 127.065 63.2625 127.065 65.4715C127.065 67.6805 125.274 69.4715 123.065 69.4715Z" fill="#000000" fill-rule="nonzero" opacity="1" stroke="none"/>
</g>
<path d="M102.463 142.437C100.653 142.437 98.9333 141.716 97.6183 140.409C96.9303 139.723 96.5143 138.811 96.4483 137.842L95.3133 120.982L70.0613 120.982C60.0743 120.982 51.9493 112.34 51.9493 101.718L51.9493 58.1815C51.9493 47.4795 60.0743 38.7735 70.0613 38.7735L129.197 38.7735C133.894 38.7735 138.329 40.6865 141.684 44.1605C145.242 47.8435 147.184 52.9735 147.021 58.2465L147.021 101.718C147.021 112.34 138.891 120.982 128.898 120.982L122.092 120.982L107.663 139.992C107.556 140.134 107.438 140.268 107.313 140.394C106.004 141.711 104.282 142.437 102.463 142.437ZM70.0623 46.7735C64.4863 46.7735 59.9503 51.8915 59.9503 58.1815L59.9503 101.719C59.9503 107.93 64.4863 112.983 70.0623 112.983L99.0543 112.983C101.158 112.983 102.904 114.614 103.045 116.714L104.042 131.532L116.921 114.564C117.678 113.567 118.857 112.982 120.108 112.982L128.899 112.982C134.481 112.982 139.022 107.929 139.022 101.718L139.022 58.1815C139.022 58.1355 139.023 58.0895 139.024 58.0425C139.133 54.9005 138.006 51.8665 135.931 49.7185C134.096 47.8195 131.705 46.7735 129.198 46.7735C129.198 46.7735 70.0623 46.7735 70.0623 46.7735Z" fill="#000000" fill-rule="nonzero" opacity="1" stroke="none"/>
<path d="M29.5713 105.111C27.7943 105.111 26.0923 104.392 24.7803 103.087C24.0973 102.407 23.6833 101.505 23.6133 100.545L22.3853 83.8135L21.0403 83.8135C11.0813 83.8135 2.97828 75.1225 2.97828 64.4385L2.97828 21.0015C2.81928 15.7525 4.76128 10.6425 8.31228 6.9685C11.6823 3.4825 16.1353 1.5625 20.8533 1.5625L91.9153 1.5625C101.875 1.5625 109.977 10.2535 109.977 20.9375L109.977 42.8755C109.977 45.0845 108.186 46.8755 105.977 46.8755L70.1643 46.8755C64.5133 46.8755 59.9143 51.9785 59.9143 58.2505L59.9143 79.8135C59.9143 82.0225 58.1233 83.8135 55.9143 83.8135L49.9513 83.8135L34.6523 102.764C34.5613 102.876 34.4643 102.984 34.3613 103.086C33.0493 104.392 31.3483 105.111 29.5713 105.111ZM20.8523 9.5635C18.3233 9.5635 15.9123 10.6165 14.0633 12.5295C11.9953 14.6695 10.8693 17.6845 10.9753 20.8025C10.9763 20.8475 10.9773 20.8925 10.9773 20.9385L10.9773 64.4385C10.9773 70.6045 15.5853 75.8135 21.0393 75.8135L26.1013 75.8135C28.1973 75.8135 29.9373 77.4305 30.0903 79.5205L31.1773 94.3315L44.9273 77.3005C45.6863 76.3605 46.8313 75.8135 48.0393 75.8135L51.9143 75.8135L51.9143 58.2515C51.9143 47.5675 60.1013 38.8765 70.1643 38.8765L101.977 38.8765L101.977 20.9385C101.977 14.6665 97.4633 9.5635 91.9153 9.5635L20.8523 9.5635Z" fill="#000000" fill-rule="nonzero" opacity="1" stroke="none"/>
</g>
</g>
</svg>
