<?xml version="1.0" encoding="UTF-8"?>
<svg width="20px" height="20px" viewBox="0 0 20 20" version="1.1" xmlns="http://www.w3.org/2000/svg" xmlns:xlink="http://www.w3.org/1999/xlink">
    <title>icon</title>
    <g id="Page-1" stroke="none" stroke-width="1" fill="none" fill-rule="evenodd">
        <g id="icon">
            <rect id="Rectangle" x="0" y="0" width="20" height="20"></rect>
            <rect id="Rectangle" fill="#C6C6C7" fill-rule="nonzero" x="1.151" y="2.441" width="17.696" height="13.545" rx="2"></rect>
            <circle id="Oval" fill="#FFFFFF" fill-rule="nonzero" opacity="0.7" cx="3.566" cy="4.298" r="1"></circle>
            <circle id="Oval" fill="#FFFFFF" fill-rule="nonzero" opacity="0.7" cx="5.049" cy="4.298" r="1"></circle>
            <circle id="Oval" fill="#FFFFFF" fill-rule="nonzero" opacity="0.7" cx="6.51" cy="4.298" r="1"></circle>
            <g id="_Group_" transform="translate(3.500000, 7.249000)" fill="#FFFFFF" fill-rule="nonzero">
                <g id="_Group_2" transform="translate(0.500000, -0.249000)">
                    <path d="M12.5142944,0.398571429 C12.1918015,0.0621428571 11.7001966,0.00107142857 11.0542278,0.00107142857 L8.9472092,0.00107142857 L8.9472092,0.858214286 L6.24338224,0.858214286 L6.03002571,1.95535714 C6.3892688,1.80471744 6.77522641,1.74499984 7.15875057,1.78071429 C7.68476644,1.76455338 8.19464197,1.97962128 8.57358947,2.3775 C8.93355956,2.75911569 9.13039566,3.28758721 9.11632128,3.83464286 C9.11550597,4.24851419 9.01950326,4.65556108 8.8370897,5.01857143 C8.65772263,5.37875603 8.38106788,5.67013457 8.0446226,5.85321429 C7.92261117,5.93743408 7.78353693,5.98782904 7.63954016,6 L9.83209802,6 L9.83209802,3.75 L10.8566026,3.75 C11.580245,3.75 12.1180608,3.5775 12.4710331,3.21428571 C12.8240054,2.85107143 13,2.41285714 13,1.77428571 C13,1.15714286 12.8377704,0.735 12.5142944,0.398571429 Z M11.0394797,2.22 C10.8998639,2.35071429 10.6560278,2.35392857 10.3109212,2.35392857 L9.83209802,2.35392857 L9.83209802,0.853928571 L10.3846619,0.853928571 C10.6439739,0.850747295 10.8929941,0.964332383 11.0729088,1.16785714 C11.1936314,1.31144996 11.2587966,1.50030397 11.2548026,1.695 C11.2599471,1.89710464 11.1820784,2.09117222 11.0424293,2.22428571 L11.0394797,2.22 Z" id="_Compound_Path_"></path>
                    <path d="M6.57767357,2.95928571 C6.27397484,2.95921853 5.9965416,3.14692644 5.86189684,3.44357143 L4.28876116,3.31285714 L4.99863863,0 L3.73619725,0 L3.73619725,2.35714286 L1.67145666,2.35714286 L1.67145666,0 L0,0 L0,6 L1.67145666,6 L1.67145666,3.75 L3.73619725,3.75 L3.73619725,6 L5.73309635,6 C5.46566329,6 5.24149145,5.83607143 5.04484949,5.67857143 C4.86294918,5.53742036 4.70548692,5.36220205 4.57979126,5.16107143 C4.44860694,4.94333584 4.34911024,4.7048029 4.28482832,4.45392857 L5.857964,4.21178571 C6.0330127,4.59552719 6.43865687,4.78289851 6.81344766,4.65313371 C7.18823846,4.52336892 7.42025042,4.11522024 7.35994545,3.69175075 C7.29964048,3.26828125 6.96502772,2.95595355 6.57177432,2.95607143 L6.57767357,2.95928571 Z" id="_Path_"></path>
                </g>
            </g>
            <rect id="Rectangle" fill="#FFFFFF" fill-rule="nonzero" opacity="0.7" x="7.666" y="3.866" width="9.228" height="1" rx="0.5"></rect>
        </g>
    </g>
</svg>