<?xml version="1.0" encoding="UTF-8"?>
<svg width="20px" height="20px" viewBox="0 0 20 20" version="1.1" xmlns="http://www.w3.org/2000/svg" xmlns:xlink="http://www.w3.org/1999/xlink">
    <title>icon(4)</title>
    <g id="Page-1" stroke="none" stroke-width="1" fill="none" fill-rule="evenodd">
        <g id="icon(4)">
            <g id="Group" transform="translate(1.000000, 1.000000)" fill-rule="nonzero">
                <g transform="translate(6.363960, 7.165535)">
                    <polygon id="Path" fill="#FFC234" points="6.1181829 6.75414092 7.62889719 5.49448961 3.55746861 0.921637802 2.05746861 2.19187441"></polygon>
                    <polygon id="Path" fill="#E1AE37" points="4.6181829 8.02437753 6.1181829 6.75414092 2.05746861 2.19187441 0.546754329 3.45152572"></polygon>
                    <g transform="translate(0.000000, 0.000000)" id="Path">
                        <path d="M0.246754329,1.64143855 L0.546754329,3.46211103 C0.546754329,3.46211103 1.37175433,3.33508737 2.30389719,2.54118948 C3.27889719,1.72612099 3.55746861,0.932223107 3.55746861,0.932223107 L1.70389719,0.434713767 C1.51104004,0.667590479 1.28604004,0.889881887 1.05032576,1.08041738 C0.803897186,1.29212348 0.536040043,1.48265897 0.246754329,1.64143855 Z" fill="#E29563"></path>
                        <path d="M1.06104004,1.08041738 C1.29675433,0.879296582 1.51104004,0.667590479 1.71461147,0.434713767 C1.71461147,0.434713767 0.000325757125,-0.0204543525 0.000325757125,0.000716257732 C-0.0103885286,0.000716257732 0.246754329,1.64143855 0.246754329,1.64143855 C0.536040043,1.48265897 0.803897186,1.29212348 1.06104004,1.08041738 Z" fill="#3F4040"></path>
                    </g>
                    <polygon id="Rectangle" fill="#FFFFFF" transform="translate(6.409306, 6.963780) rotate(-40.339652) translate(-6.409306, -6.963780) " points="4.44057201 6.6222282 8.37409472 6.64571031 8.37804022 7.30533227 4.44451751 7.28185017"></polygon>
                    <path d="M6.48246861,9.65451451 C7.4681829,9.73919696 8.92532576,8.46896034 9.01104004,7.49511227 C9.06461147,6.90233519 8.02532576,5.96024303 8.02532576,5.96024303 L5.01461147,8.49013095 C5.01461147,8.49013095 5.88246861,9.61217329 6.48246861,9.65451451 Z" id="Path" fill="#D66F6E"></path>
                </g>
                <path d="M7.01785714,15.888543 L1.13571429,15.888543 L1.13571429,10.0772105 L5.95714286,10.0772105 L5.78571429,8.96575342 L1.03928571,8.96575342 C0.471428571,8.96575342 0.0107142857,9.42092154 0.0107142857,9.98194271 L0.0107142857,15.9838107 C0.0107142857,16.5448319 0.471428571,17 1.03928571,17 L7.11428571,17 C7.68214286,17 8.14285714,16.5448319 8.14285714,15.9838107 L8.14285714,13.7926526 L7.01785714,12.6706102 L7.01785714,15.888543 Z" id="Path" fill="#C9C8CB"></path>
                <path d="M1.13571429,1.11145704 L5.325,1.11145704 L6.27857143,0.169364882 C6.34285714,0.105853051 6.40714286,0.0529265255 6.48214286,0 L1.03928571,0 C0.471428571,0 0.0107142857,0.45516812 -4.4408921e-16,1.01618929 L-4.4408921e-16,7.01805729 C-4.4408921e-16,7.57907846 0.460714286,8.03424658 1.02857143,8.03424658 L5.64642857,8.03424658 L5.48571429,6.92278954 L1.125,6.92278954 L1.125,1.11145704 L1.13571429,1.11145704 Z" id="Path" fill="#F7A896"></path>
                <polygon id="Path" fill-opacity="0.5" fill="#F7A896" points="7.01785714 6.55230386 8.14285714 6.64757161 8.14285714 3.69427148 7.01785714 4.80572852"></polygon>
                <path d="M8.19642857,2.0641345 L5.19642857,5.02801993 L4.62857143,5.5890411 C4.46785714,5.73723537 4.22142857,5.73723537 4.06071429,5.5890411 L3.49285714,5.02801993 L1.99285714,3.54607721 C1.84285714,3.38729763 1.84285714,3.14383562 1.99285714,2.98505604 L2.56071429,2.42403487 C2.72142857,2.2758406 2.96785714,2.2758406 3.12857143,2.42403487 L4.35,3.63075965 L7.07142857,0.95267746 C7.23214286,0.804483188 7.47857143,0.804483188 7.63928571,0.95267746 L8.20714286,1.51369863 C8.35714286,1.6618929 8.35714286,1.91594022 8.19642857,2.0641345 L8.19642857,2.0641345 Z" id="Path" fill="#EF5331"></path>
                <path d="M10.7357143,1.36550436 L17.5285714,1.36550436 C17.7857143,1.36550436 18,1.57721046 18,1.83125778 L18,2.02179328 C18,2.2758406 17.7857143,2.4875467 17.5285714,2.4875467 L10.7357143,2.4875467 C10.4785714,2.4875467 10.2642857,2.2758406 10.2642857,2.02179328 L10.2642857,1.83125778 C10.2642857,1.56662516 10.4785714,1.36550436 10.7357143,1.36550436 Z" id="Path" fill="#F7A896"></path>
                <path d="M10.7357143,5.54669988 L17.5285714,5.54669988 C17.7857143,5.54669988 18,5.75840598 18,6.0124533 L18,6.20298879 C18,6.45703611 17.7857143,6.66874222 17.5285714,6.66874222 L10.7357143,6.66874222 C10.4785714,6.66874222 10.2642857,6.45703611 10.2642857,6.20298879 L10.2642857,6.0124533 C10.2642857,5.75840598 10.4785714,5.54669988 10.7357143,5.54669988 Z" id="Path" fill="#F7A896"></path>
                <path d="M10.7357143,3.36612702 L17.5285714,3.36612702 C17.7857143,3.36612702 18,3.57783313 18,3.83188045 L18,4.02241594 C18,4.27646326 17.7857143,4.48816936 17.5285714,4.48816936 L10.7357143,4.48816936 C10.4785714,4.48816936 10.2642857,4.27646326 10.2642857,4.02241594 L10.2642857,3.83188045 C10.2642857,3.56724782 10.4785714,3.36612702 10.7357143,3.36612702 Z" id="Path" fill="#F7A896"></path>
                <g transform="translate(13.403571, 10.415940)" fill="#C9C8CB" id="Path" opacity="0.8">
                    <path d="M4.59642857,0.656288917 L4.59642857,0.465753425 C4.59642857,0.211706102 4.38214286,-1.77635684e-15 4.125,-1.77635684e-15 L4.125,-1.77635684e-15 L0,-1.77635684e-15 L1.06071429,1.12204234 L4.125,1.12204234 C4.38214286,1.13262765 4.59642857,0.920921544 4.59642857,0.656288917 C4.59642857,0.666874222 4.59642857,0.666874222 4.59642857,0.656288917 Z"></path>
                    <path d="M4.59642857,2.66749689 L4.59642857,2.47696139 C4.59642857,2.22291407 4.38214286,2.01120797 4.125,2.01120797 L4.125,2.01120797 L1.88571429,2.01120797 L2.94642857,3.13325031 L4.125,3.13325031 C4.38214286,3.13325031 4.59642857,2.92154421 4.59642857,2.66749689 C4.59642857,2.66749689 4.59642857,2.66749689 4.59642857,2.66749689 Z"></path>
                </g>
            </g>
            <rect id="Rectangle" x="0" y="0" width="20" height="20"></rect>
        </g>
    </g>
</svg>