<?xml version="1.0" encoding="UTF-8" standalone="no"?>
<!DOCTYPE svg PUBLIC "-//W3C//DTD SVG 1.1//EN" "http://www.w3.org/Graphics/SVG/1.1/DTD/svg11.dtd">
<!-- Created with Vectornator (http://vectornator.io/) -->
<svg height="100%" stroke-miterlimit="10" style="fill-rule:nonzero;clip-rule:evenodd;stroke-linecap:round;stroke-linejoin:round;" version="1.1" viewBox="0 0 74.4 74.4" width="100%" xml:space="preserve" xmlns="http://www.w3.org/2000/svg" xmlns:vectornator="http://vectornator.io" xmlns:xlink="http://www.w3.org/1999/xlink">
<defs/>
<clipPath id="ArtboardFrame">
<rect height="74.4" width="74.4" x="0" y="0"/>
</clipPath>
<g clip-path="url(#ArtboardFrame)" id="Untitled" vectornator:layerName="Untitled">
<g opacity="1">
<path d="M66.5 15.1L52.4 1C51.7 0.3 50.8 0 49.8 0L10.3 0C8.2 0 6.6 1.6 6.6 3.7L6.6 3.7L6.6 70.7C6.6 72.8 8.2 74.4 10.3 74.4L10.3 74.4L64 74.4C66.1 74.4 67.7 72.8 67.7 70.7L67.7 70.7L67.7 17.8C67.5 16.8 67.2 15.8 66.5 15.1ZM48.4 6.7L60.9 19.2L48.4 19.2L48.4 6.7ZM11.9 69.2L11.9 5L42.8 5L42.8 20.6C42.8 22.8 44.5 24.4 46.6 24.4L62.2 24.4L62.2 69.1L11.9 69.2L11.9 69.2Z" fill="#000000" fill-rule="nonzero" opacity="1" stroke="none"/>
<path d="M26.8 58.6021L53.7 58.6021C55.1 58.6021 56.3 57.4021 56.3 56.0021C56.3 54.6021 55.1 53.4021 53.7 53.4021L26.8 53.4021C25.4 53.4021 24.2 54.6021 24.2 56.0021C24.2 57.4021 25.4 58.6021 26.8 58.6021Z" fill="#000000" fill-rule="nonzero" opacity="1" stroke="none"/>
<path d="M17.3673 56.1271C17.3673 54.7644 18.472 53.6597 19.8347 53.6597C21.1974 53.6597 22.3021 54.7644 22.3021 56.1271C22.3021 57.4898 21.1974 58.5945 19.8347 58.5945C18.472 58.5945 17.3673 57.4898 17.3673 56.1271Z" fill="#000000" fill-rule="nonzero" opacity="1" stroke="none"/>
</g>
<path d="M26.8 37.8L53.7 37.8C55.1 37.8 56.3 36.6 56.3 35.2C56.3 33.8 55.1 32.6 53.7 32.6L26.8 32.6C25.4 32.6 24.2 33.8 24.2 35.2C24.2 36.6 25.4 37.8 26.8 37.8Z" fill="#000000" fill-rule="nonzero" opacity="1" stroke="none"/>
<path d="M17.3673 35.325C17.3673 33.9623 18.472 32.8576 19.8347 32.8576C21.1974 32.8576 22.3021 33.9623 22.3021 35.325C22.3021 36.6877 21.1974 37.7924 19.8347 37.7924C18.472 37.7924 17.3673 36.6877 17.3673 35.325Z" fill="#000000" fill-rule="nonzero" opacity="1" stroke="none"/>
<path d="M26.8 48.0382L53.7 48.0382C55.1 48.0382 56.3 46.8382 56.3 45.4382C56.3 44.0382 55.1 42.8382 53.7 42.8382L26.8 42.8382C25.4 42.8382 24.2 44.0382 24.2 45.4382C24.2 46.8382 25.4 48.0382 26.8 48.0382Z" fill="#000000" fill-rule="nonzero" opacity="1" stroke="none"/>
<path d="M17.3673 45.5632C17.3673 44.2005 18.472 43.0958 19.8347 43.0958C21.1974 43.0958 22.3021 44.2005 22.3021 45.5632C22.3021 46.926 21.1974 48.0307 19.8347 48.0307C18.472 48.0307 17.3673 46.926 17.3673 45.5632Z" fill="#000000" fill-rule="nonzero" opacity="1" stroke="none"/>
</g>
</svg>
